<svg xmlns="http://www.w3.org/2000/svg" viewBox="0 0 58.9 82.78"><defs><style>.cls-1{fill:#f1ff39;}.cls-2{fill:#fff;}</style></defs><title>Asset 23</title><g id="Layer_2" data-name="Layer 2"><g id="Layer_1-2" data-name="Layer 1"><path class="cls-1" d="M35.29,37.79a8.26,8.26,0,0,0,3.83.24,14.08,14.08,0,0,1,3.78.09,16,16,0,0,1,6.78,3,19.11,19.11,0,0,1,4.55,5,15.67,15.67,0,0,1,1.56,3.25c.35,1,.4,2.15.78,3.15.12.3.21-.34.21-.39.1-4.61-2.88-9.29-6.37-12.09a13.19,13.19,0,0,0-6.69-2.79c-2.84-.32-5.59.71-8.43.5,0,0,0,.06,0,.06Z" transform="translate(-0.16 -0.05)"/><path class="cls-1" d="M32.71,41.65c.31.11.63.24.95.33a3,3,0,0,0,.48.15,2.68,2.68,0,0,0,.49,0,7.58,7.58,0,0,0,1.89-.23,3.85,3.85,0,0,0,1.32-.6,2.1,2.1,0,0,0,.51-.52,1.88,1.88,0,0,0,.23-.87s0-.43-.06-.4l-.12,0a1.08,1.08,0,0,0-.18.24,2.32,2.32,0,0,1-.5.49,5,5,0,0,1-1.43.65,7.43,7.43,0,0,1-1.74.33c-.16,0-.32,0-.48,0s-.27.08-.42.1a5.93,5.93,0,0,1-.94,0s0,.17,0,.18Z" transform="translate(-0.16 -0.05)"/><path class="cls-1" d="M28.17,68.94c1.45,2.32,4.5,3.67,7,4.38a22.62,22.62,0,0,0,9.33.7c6.72-1,10.9-7.91,11.47-14.27,0-.21-.18-.88-.23-.34a13,13,0,0,1-1.52,5.46,17.1,17.1,0,0,1-2.93,3.74,14.25,14.25,0,0,1-7.7,3.9,20.48,20.48,0,0,1-15.47-3.68.2.2,0,0,0,0,.11Z" transform="translate(-0.16 -0.05)"/><path class="cls-1" d="M33.39,39.66a.45.45,0,0,0-.38-.12l-.47.08c-.32.07-.66.1-1,.18a13.34,13.34,0,0,0-2.18.9,5.41,5.41,0,0,0-2,1.58,5,5,0,0,0-.7,1.25,4.64,4.64,0,0,1-.32.72,2.9,2.9,0,0,1-.23.38.08.08,0,0,0-.07.07l0,.08a1.19,1.19,0,0,0,0,.62c0,.06.1.35.17.16.14-.39.15-.93.51-1.2a2.16,2.16,0,0,1,.34-.17,2.41,2.41,0,0,0,.44-.33c.64-.52,1.29-1,1.94-1.52A19.89,19.89,0,0,1,31.59,41c.33-.19.63-.41,1-.59l.48-.26a1.06,1.06,0,0,0,.36-.37s0-.09,0-.11Z" transform="translate(-0.16 -0.05)"/><path class="cls-1" d="M56.49,51.45a3.69,3.69,0,0,1,.35,2.74,1,1,0,0,0,0,.38s.05.22.08.1a4.35,4.35,0,0,0-.41-3.35.49.49,0,0,0,0,.13Z" transform="translate(-0.16 -0.05)"/><path class="cls-1" d="M56.63,51.46c.49.89,1.31,1.55,1.83,2.42a3.23,3.23,0,0,1,.09,3,2.42,2.42,0,0,1-1.93,1.36,4,4,0,0,1-1.25,0c-.22,0-.43-.1-.64-.15s-.31.14-.5.29,0,.54,0,.65c.17.3.24.6.6.68a3.13,3.13,0,0,0,.75.08,3.91,3.91,0,0,0,1.51-.3A3.24,3.24,0,0,0,58.91,57a5.76,5.76,0,0,0-.21-3.39,16.74,16.74,0,0,0-2.06-2.56.9.9,0,0,0,0,.38Z" transform="translate(-0.16 -0.05)"/><path class="cls-1" d="M54.19,58.91a4.26,4.26,0,0,1,2.94-2.77c.36-.11.55-.26.53-.66s-.45-.67-.92-.62v.28c.11-.22.28-.67.14-.92a1.72,1.72,0,0,0-1-.46c-1.19,0-2.19,1.43-2.87,2.2a15.87,15.87,0,0,1-2.83,2.9,7.15,7.15,0,0,1-1.74.89,6.45,6.45,0,0,1-.87.2,2.79,2.79,0,0,0-1.06.46c-.06,0,0,.35,0,.4a1.42,1.42,0,0,0,1.45.38,5.63,5.63,0,0,0,1.42-.57,9.63,9.63,0,0,0,2.46-2.17c.76-.89,1.4-1.87,2.18-2.75a4.22,4.22,0,0,1,1.28-1.06c.31-.14,1.94-.72,1.46.22,0,0,0,.29,0,.29.31,0,.52,0,.67.27s0,.27-.22.35l-.38.1a3.67,3.67,0,0,0-1.13.58,4.24,4.24,0,0,0-1.53,2.21c0,.06,0,.3,0,.25Z" transform="translate(-0.16 -0.05)"/><path class="cls-1" d="M41.66,58.82a6.67,6.67,0,0,0,2.79,4.24,7.66,7.66,0,0,0,5,1.25,4,4,0,0,0,3.26-2.64c.57-1.27.92-2.83,2.24-3.55.27-.14,0-1.25,0-1.24a5.11,5.11,0,0,0-2.09,2.95c-.59,1.43-1.33,2.67-3,3a7.31,7.31,0,0,1-8.16-4.46c0-.1-.07.33-.05.41Z" transform="translate(-0.16 -0.05)"/><path class="cls-1" d="M52.53,56.54a4.09,4.09,0,0,1-.83.29c-.24.05-.5,0-.75.05a7.71,7.71,0,0,1-1.66.09c-1-.07-2.18-.63-3.16,0A2.39,2.39,0,0,0,45,59.12c0,.35.06.84.41,1a.51.51,0,0,0,.73-.28c0-.09.08-.79-.07-.78-.67,0-.68,1.33-.27,1.67a.81.81,0,0,0,1,0,1.25,1.25,0,0,0,.41-1.1s0-.31-.07-.2a1,1,0,0,1-.89.73.64.64,0,0,1-.24,0,1.82,1.82,0,0,1-.29-.21l0,.22a.47.47,0,0,1,.09-.12.42.42,0,0,1,.27-.07L46,59.15c-.11.28-.57.24-.74.05s.15-.67.31-.86a2.38,2.38,0,0,1,2-.82,14.91,14.91,0,0,0,2.5.12,3.42,3.42,0,0,0,1.26-.34c.4-.21.81-.41,1.19-.64,0,0,0-.12,0-.12Z" transform="translate(-0.16 -0.05)"/><path class="cls-1" d="M57.06,56l.33.06h.17l.17,0,.34,0a.37.37,0,0,0,.15,0l.08,0a.18.18,0,0,0,.08-.11.36.36,0,0,0,0-.18.32.32,0,0,0,0-.17s0-.06-.08-.08h-.09a.43.43,0,0,0-.16,0l-.33.08-.16,0-.18.07-.33.19s0,.24,0,.25Z" transform="translate(-0.16 -0.05)"/><path class="cls-1" d="M56.61,59.47c.3,1.05-.46,2.1-.92,3S54.9,64,54.5,64.69c-.86,1.56-1.72,3.12-2.61,4.66C51.16,70.62,50,72,49.67,73.42c-.21.9-.21,2.56.93,2.81l-.08-1.39a.91.91,0,0,1-.83.24c-.23,0-.11,1.12,0,1.24a2.09,2.09,0,0,1,.46.93l.07-1a3.13,3.13,0,0,1-2.42-.08c-.67-.28-1.89-1.19-1.74-2.07a2.28,2.28,0,0,0,0-1.19c-.1-.21-.21-.35-.27,0a5.13,5.13,0,0,0,.57,3.74,2.93,2.93,0,0,0,3.92.79c.24-.12.12-.82.08-1a3.53,3.53,0,0,0-.59-1.29v1.24a1,1,0,0,0,.88-.12c.24-.14.24-1.31,0-1.41-.53-.21-.65-.33-.41-.8s.42-.68.62-1c.46-.74.9-1.49,1.34-2.25.88-1.54,1.72-3.1,2.5-4.69a36.44,36.44,0,0,0,2.08-4.54c.2-.65.47-1.86-.06-2.42,0,0,0,.32,0,.37Z" transform="translate(-0.16 -0.05)"/><path class="cls-1" d="M31.45,71.4c.42,1.3.89,2.59,1.18,3.93a7.09,7.09,0,0,1-.21,4.08c-.06.15-.15,1.12.09,1.15a1.39,1.39,0,0,0,.64,0l.18-.12q.12-.58,0-.3a1.57,1.57,0,0,0-.17.85c0,.61.25,1.23,1,1,.35-.13.59-.47,1-.58s.76.17,1.17.06c.73-.2,1-.95,1.15-1.61a8.73,8.73,0,0,1,1.95-3.3c.34-.42.69-.84,1.05-1.25a2.4,2.4,0,0,0,.46-.59,1.94,1.94,0,0,0-.07-1.44h0l-.05,0-.08,0c-.19.14-.11.77-.09,1s.06.67.22.54c0,0,0,0-.05,0l-.08-1.45c.06-.14-.07.06-.11.11l-.3.34c-.33.37-.65.74-1,1.12a12.38,12.38,0,0,0-1.82,2.73c-.3.68-.23,1.53-.73,2.1a1.13,1.13,0,0,1-.93.44c-.36,0-.59-.13-.92.07s-.55.49-.9.61a.9.9,0,0,1-.46,0c-.22-.19-.26-.08-.14.35l0-.12a2.35,2.35,0,0,0,.07-1.63.09.09,0,0,0-.06-.06,3,3,0,0,1-.94,0l.1,1.14c1.27-3,.2-6.63-1.1-9.42,0-.08-.06.28,0,.35Z" transform="translate(-0.16 -0.05)"/><path class="cls-1" d="M20.81,25.48a2.67,2.67,0,0,0-1.28.83.66.66,0,0,0,0,.55,31.17,31.17,0,0,0,2.62,1.86c.43.28.86.54,1.3.79l.69.38a2,2,0,0,0,.74.33c.12,0,.09-.7,0-.78a2.6,2.6,0,0,0-.63-.35l-.7-.34c-.45-.24-.9-.48-1.35-.74a29.85,29.85,0,0,1-2.65-1.71l0,.56A2.77,2.77,0,0,1,20.82,26c.1,0,0-.51,0-.49Z" transform="translate(-0.16 -0.05)"/><path class="cls-1" d="M21.12,25.63a20.78,20.78,0,0,1,2.82,1.62c.42.29.83.6,1.22.92l.61.54A3.07,3.07,0,0,0,26,29c.11.1.14.12.28.09s.05-.48,0-.55a1.25,1.25,0,0,0-.24-.4,3.47,3.47,0,0,0-.29-.25c-.2-.17-.41-.33-.62-.48-.4-.29-.81-.56-1.24-.82a12.19,12.19,0,0,0-2.83-1.21s-.05.26,0,.29Z" transform="translate(-0.16 -0.05)"/><path class="cls-1" d="M26.58,28.34c3-3.13,6.62-5.29,11-5.48,4.88-.21,9.83.21,14.71.3l-.08-1.59c-1.53,2.61-3,5.23-4.6,7.82a17.46,17.46,0,0,1-4.51,5.51c-2.31,1.65-5,1.57-7.64.83-1.49-.42-2.94-.95-4.39-1.44a21.83,21.83,0,0,0-4.48-1.37c-.19,0-.18,1.34,0,1.47A25.79,25.79,0,0,0,31.13,36c1.46.5,2.91,1,4.39,1.48,2.58.77,5.14.92,7.45-.64a16.61,16.61,0,0,0,4.61-5.48c1.62-2.73,3.18-5.5,4.77-8.26.1-.16.2-1.59-.08-1.59q-3.84,0-7.7,0c-2.47,0-5-.11-7.45.13A15.17,15.17,0,0,0,26.55,28c-.06.07,0,.38,0,.37Z" transform="translate(-0.16 -0.05)"/><path class="cls-1" d="M30.38,27.13c.29.43.54.87.81,1.31.12.2.23.39.34.6a2.69,2.69,0,0,1,.16.29c0,.07.07.22.16.21s0-.17,0-.19a1.35,1.35,0,0,0,0-.35,1.42,1.42,0,0,0-.14-.41l-.17-.31c-.11-.2-.22-.4-.35-.59a5.22,5.22,0,0,0-.83-.93s0,.12,0,.14a.46.46,0,0,0,0,.23Z" transform="translate(-0.16 -0.05)"/><path class="cls-1" d="M30.7,26.63a19.74,19.74,0,0,0-7,5.86c-.93,1.18-1.76,2.48-3.26,3-.66.22-1.39.38-1.71,1.07a2.76,2.76,0,0,0-.08,1.75s0,.17.09.19a2.57,2.57,0,0,0,1.88-.28l-.12-.44c0-.49,0-.32-.23-.13s0,1.14.06,1.11c.48-.2.42-.87.39-1.3,0,0-.06-.48-.13-.44a2.18,2.18,0,0,1-1.88.19l.09.19c.1.5.11.29.28.12a1.82,1.82,0,0,1,.48-.34,7.51,7.51,0,0,1,.91-.31A4.2,4.2,0,0,0,21.93,36a24.87,24.87,0,0,0,2.49-3,37.76,37.76,0,0,1,6.29-5.69c.12-.09,0-.69,0-.68Z" transform="translate(-0.16 -0.05)"/><path class="cls-1" d="M20.29,37.77a12.72,12.72,0,0,0-.6,1.16c-.1.23-.17.46-.25.68a4.05,4.05,0,0,0-.21.9c0,.05,0,.62.08.61s.1-.18.13-.24.08-.21.11-.32.17-.49.25-.73c.18-.54.34-1.07.54-1.6a.58.58,0,0,0,0-.32s0-.18-.06-.14Z" transform="translate(-0.16 -0.05)"/><path class="cls-1" d="M31.4,29.24a18.18,18.18,0,0,0-6.78,5.49,10.53,10.53,0,0,0-2.38,7.68c.09.69.24-.06.24-.34a10.41,10.41,0,0,1,2.95-6.89,33.47,33.47,0,0,1,6-5.15c.14-.1,0-.8,0-.79Z" transform="translate(-0.16 -0.05)"/><path class="cls-1" d="M21.14,40.75a20.59,20.59,0,0,1,8.74,13.63A19.31,19.31,0,0,1,29.54,63a29.35,29.35,0,0,1-3.78,7.83c-.24.4,0,2.41.2,2.22,2.12-2.26,3.4-5.75,4.09-8.71a26,26,0,0,0,.41-9.5,23.05,23.05,0,0,0-2.88-8.4c-1.33-2.3-3.51-5.61-6.44-5.82,0,0,0,.12,0,.13Z" transform="translate(-0.16 -0.05)"/><path class="cls-1" d="M26.33,72.23c.69,1.45.59,3,.73,4.55a8.27,8.27,0,0,0,.43,2.09,3.9,3.9,0,0,0,.48.9c.11.15.24.28.36.42l.21.22c.2.33.22.18.05-.46l.09-.52c-.06.17-.31.32-.46.15s-.08,0-.12,0c-.4.48-.36,1.74.24,2,.38.24.45,0,.22-.72a.74.74,0,0,1-.16.19.64.64,0,0,1-.52.11,2.21,2.21,0,0,1-1.07-.74s-.08,0-.11,0c-.56.71-1.33-.12-1.67-.59-.5-.68-1-1.36-1.47-2s-1-1.37-1.47-2.07l-.78-1.12a2.9,2.9,0,0,0-.77-.9c-.22-.14-.14,1-.09,1.16a20.6,20.6,0,0,0,2.58,4l1.36,1.88a4.52,4.52,0,0,0,1.35,1.56.92.92,0,0,0,.67.1c.28-.08.29-.27.55-.09s.87.66,1.39.39a1.38,1.38,0,0,0,.58-1.27,2.48,2.48,0,0,0-.12-.9.82.82,0,0,0-.16-.25c-.1-.11-.37-.17-.41-.32l.06,1,0-.09-.12.39c-.07.06.32.09.35.08a.61.61,0,0,0,.36-.36,2.61,2.61,0,0,0,0-1.7c-.16-.5-.59-.78-.9-1.18a3.31,3.31,0,0,1-.53-1.25c-.37-1.66.09-3.83-1.14-5.18,0-.06-.07.44,0,.52Z" transform="translate(-0.16 -0.05)"/><path class="cls-1" d="M23,39.89a21,21,0,0,0-2.24-.09,16.75,16.75,0,0,0-2.22.33,27.76,27.76,0,0,0-4.29,1.26,18.67,18.67,0,0,0-7.09,4.7,15.32,15.32,0,0,0-3.57,6.85c-.48,2.12-.66,5,.26,7,.13.3.18-.91.15-1.07a11.67,11.67,0,0,1-.4-4,12.6,12.6,0,0,1,1.08-3.75,15.4,15.4,0,0,1,4.16-5.4,20.73,20.73,0,0,1,6.64-3.57,31.76,31.76,0,0,1,3.72-1c1.29-.26,2.53-.66,3.8-.91.06,0,0-.38,0-.38Z" transform="translate(-0.16 -0.05)"/><path class="cls-1" d="M3.55,55.44a15.31,15.31,0,0,0-2,2.37,6.76,6.76,0,0,0-1.28,2.5,2.66,2.66,0,0,0,.59,2.56,3.5,3.5,0,0,0,3,.37,15.21,15.21,0,0,1,2.8-1c.2,0,.51.07.69,0s.22-.33.23-.5A1.33,1.33,0,0,0,7.38,61c-.13-.21-.41-.22-.64-.22-1,0-1.88.73-2.78,1.07a3.51,3.51,0,0,1-3.13-.16,1.18,1.18,0,0,1-.42-.56v.06a1,1,0,0,1,.05-.25c0-.12.07-.24.11-.36a8.56,8.56,0,0,1,.75-1.44C2,58,2.8,56.84,3.57,55.73a.44.44,0,0,0,0-.29Z" transform="translate(-0.16 -0.05)"/><path class="cls-1" d="M3.39,58.47a7.34,7.34,0,0,1,3.24,2.6,34.07,34.07,0,0,0,2.71,3.06,10.12,10.12,0,0,0,6.36,3.09,5.63,5.63,0,0,0,5.52-3.17c.7-1.56.73-4.19-.76-5.31-.09-.07-.36,1.32-.05,1.55,2.1,1.59-.3,4.21-2,4.95a7.54,7.54,0,0,1-5.51,0,13.85,13.85,0,0,1-5.13-3.78c-1.26-1.34-2.43-3-4.38-3.28,0,0,0,.25,0,.27Z" transform="translate(-0.16 -0.05)"/><path class="cls-1" d="M4.35,57a4.24,4.24,0,0,1,3,.7,21.74,21.74,0,0,1,2.91,1.71c.69.55,1.25,1.25,1.89,1.86a4.84,4.84,0,0,0,.9.66c.37.19.74.37,1.08.07a.52.52,0,0,0,0-.44c-.31-.29-.66-.3-1-.49a4.67,4.67,0,0,1-1.06-.76,17,17,0,0,0-2-1.77,11.68,11.68,0,0,0-2.58-1.27,6.1,6.1,0,0,0-3.1-.41s0,.14,0,.14Z" transform="translate(-0.16 -0.05)"/><path class="cls-1" d="M9.75,58.3a2.8,2.8,0,0,1,1.62-.1,13,13,0,0,1,1.72.51,6.3,6.3,0,0,1,1.61.72,2.89,2.89,0,0,1,.6.56,2.27,2.27,0,0,1,.19.34c0,.13.06.31.07,0s0-.15,0,0l.11-.07a1.66,1.66,0,0,0-1.3-.59,1.19,1.19,0,0,0-.69.18,1.41,1.41,0,0,0-.21.31l-.32.32c-.13.13-.07,1.22.06,1.18a.86.86,0,0,0,.48-.4.85.85,0,0,1,.67-.24,1.61,1.61,0,0,1,1.27.55c.05.06.09,0,.1-.08a3.11,3.11,0,0,0-.18-2.26A2.74,2.74,0,0,0,14,58a5.54,5.54,0,0,0-2.12-.43,4.82,4.82,0,0,0-2.09.58s0,.16,0,.16Z" transform="translate(-0.16 -0.05)"/><path class="cls-1" d="M46.65,46.43A2.31,2.31,0,0,0,46,46.2a1,1,0,0,0-.34,0l-.34.1a1.56,1.56,0,0,0-1,.95,1.07,1.07,0,0,0,0,.47s0,.29.09.21a2.06,2.06,0,0,1,1-.92l.31-.1.33-.11a1.23,1.23,0,0,1,.66,0s.06-.32,0-.36Z" transform="translate(-0.16 -0.05)"/><path class="cls-1" d="M45.52,47.11a7.8,7.8,0,0,1,1.26,1.6,5.64,5.64,0,0,1,.41.9c0,.15.09.31.12.47a1.49,1.49,0,0,1,0,.18s0,.07,0,.11,0,.18,0,.06l.11-.8A4,4,0,0,1,45,47l-.11,1a4.06,4.06,0,0,1,1.7,2l.06-1L45,46.53c-.08-.11-.14.23-.14.25a2.24,2.24,0,0,0,0,.73,5.16,5.16,0,0,0,1.91,3.23c.16.11.17-.62.17-.66a3.82,3.82,0,0,0-1.88-3.48c-.09-.05-.12.49-.12.5a1.94,1.94,0,0,0,.08.76,8.39,8.39,0,0,0,1.87,2.86c.08.08.11-.08.13-.13a1.62,1.62,0,0,0,0-.54,5.19,5.19,0,0,0-.54-2.22,3.92,3.92,0,0,0-1.26-1.45c-.13-.09-.16.27-.16.32a2.42,2.42,0,0,0,0,.85A4.24,4.24,0,0,0,47,50.16c.13.08.15-.26.16-.33a2.43,2.43,0,0,0-.05-.85A2.74,2.74,0,0,0,46,47.29c-.1-.06-.13.6-.13.61a2.13,2.13,0,0,0,0,.44.67.67,0,0,0,.1.32,7.45,7.45,0,0,0,.52.6c.09.1.13-.3.13-.33a1.47,1.47,0,0,0-.07-.69c-.17-.31-.35-.62-.53-.93L46,48.66A2.92,2.92,0,0,1,47,50l.12-1.18a3.89,3.89,0,0,1-1.73-2.24l-.12,1.17a3.89,3.89,0,0,1,1.13,1.19,3.5,3.5,0,0,1,.32.71,1.53,1.53,0,0,1,.09.34c0,.08,0-.08,0,0s0,.06,0,.1,0-.11,0,0,0,.17,0,0l.17-.67a7.71,7.71,0,0,1-1.8-2.7l0,1.26A3.25,3.25,0,0,1,46.27,49a4.37,4.37,0,0,1,.33.69s0,.07,0,.13,0,.21,0,.11,0,.06,0,.1,0-.09,0,0,0,.07,0,0v.1l.17-.65a4.65,4.65,0,0,1-1.76-2.74L45,47.82,46.66,50c.08.11.13-.31.13-.32a1.66,1.66,0,0,0-.07-.7A5.39,5.39,0,0,0,45,46.79c-.11-.08-.14.25-.14.3a2.43,2.43,0,0,0,0,.76,4.2,4.2,0,0,0,2.64,3c.09,0,.12-.39.12-.4a2.68,2.68,0,0,0-.05-.69c0,.1,0-.09,0-.11s0-.08,0-.12l-.06-.22c0-.17-.1-.33-.16-.49a5.77,5.77,0,0,0-.45-.85,5.18,5.18,0,0,0-.59-.74,3,3,0,0,0-.76-.52s-.05.31,0,.35Z" transform="translate(-0.16 -0.05)"/><path class="cls-1" d="M51.56,43.32l-.13-.08a.33.33,0,0,0-.14,0H51a.81.81,0,0,0-.45.15.65.65,0,0,0-.24.37,2.46,2.46,0,0,0-.06.66,1.83,1.83,0,0,0,.09.62.1.1,0,0,0,.06.08h0s0,0,0-.07a.72.72,0,0,0,0-.25,1.75,1.75,0,0,0,0-.56c0,.41.05.48,0,.23a1.1,1.1,0,0,0,0-.18.19.19,0,0,0,0-.07c0,.07,0,.09,0,.06a.76.76,0,0,0,0-.16h0c0,.09,0,.12,0,.07a2.17,2.17,0,0,1,0,.51.64.64,0,1,0,0,.08h0c0,.12,0,.07,0,0a.08.08,0,0,0,0,0l0,.07a.85.85,0,0,1,.24-.29l0,0a1,1,0,0,1,.42-.14l.22,0h.11l.11-.06c.05,0,.06-.1.07-.15a1.32,1.32,0,0,0,0-.28,1.62,1.62,0,0,0,0-.31l0-.1a.28.28,0,0,0,0-.12Z" transform="translate(-0.16 -0.05)"/><path class="cls-1" d="M51,44.59a8.72,8.72,0,0,1,1.21,1.29,3.5,3.5,0,0,1,.41.73,1.52,1.52,0,0,1,.11.32s0,.09,0,0,0,.09,0,0v-.1s0,.08,0,.08l.13-.27a16.59,16.59,0,0,1-2.2-2.75v1.35a4.12,4.12,0,0,1,1.89,2.16l.07-1.15a5.5,5.5,0,0,1-1.68-2.76l-.09.93a3.44,3.44,0,0,1,1.08,1.1,3.49,3.49,0,0,1,.34.7,1.71,1.71,0,0,1,.09.3s.05.19,0,.13,0,.07,0,.1c0-.36,0-.46,0-.3l.17-.51a4.26,4.26,0,0,0-.49-.34,2.16,2.16,0,0,1-.4-.4,1.86,1.86,0,0,1-.25-.46s0-.14,0-.06,0-.15,0-.07,0,0,0,0,0,.11,0,.06,0,0,0,.08a1.28,1.28,0,0,1,0,.19l-.16.34a6,6,0,0,1,.63,1.2c.14.36.23.74.36,1.11,0,.07.05.05.08,0a.65.65,0,0,0,0-.34,6.46,6.46,0,0,0-1.06-3.4c-.09-.15-.16.35-.16.35a4,4,0,0,0,.35,2.22,2.23,2.23,0,0,0,.46.6,1.76,1.76,0,0,0,.3.24l.17.1a.17.17,0,0,0,.17,0c.14,0,.13-.44.13-.53a2.22,2.22,0,0,0-.08-.81c0-.07,0,.1,0,.1a.58.58,0,0,0,0-.18,1.29,1.29,0,0,0,0-.19c0-.15-.08-.31-.13-.46a4.35,4.35,0,0,0-.37-.75,4.08,4.08,0,0,0-1.16-1.18c-.1-.07-.12.22-.12.26a1.89,1.89,0,0,0,0,.67,6.39,6.39,0,0,0,1.78,3.18c.11.11.14-.34.15-.36a2.11,2.11,0,0,0-.08-.79,4.31,4.31,0,0,0-2-2.45c-.1,0-.13.59-.13.6a1.45,1.45,0,0,0,.12.75A15.33,15.33,0,0,0,52.8,47.8c.1.09.13-.25.13-.27a3.26,3.26,0,0,0-.49-2.26A6.15,6.15,0,0,0,51,43.91c-.07-.06-.08.22-.08.25s0,.35.06.43Z" transform="translate(-0.16 -0.05)"/><path class="cls-1" d="M49.13,49.6a3,3,0,0,0,1.28.61,3.07,3.07,0,0,0,.68,0,1.94,1.94,0,0,0,.34,0,.55.55,0,0,0,.32-.28.73.73,0,0,0,0-.29c0-.09,0-.21-.06-.28s-.42-.12-.64-.09a4.29,4.29,0,0,1-2-.3s-.06.26-.06.27,0,.28.05.33Z" transform="translate(-0.16 -0.05)"/><path class="cls-1" d="M3.5,62.4A16.51,16.51,0,0,0,9,73.46a14.16,14.16,0,0,0,5.73,3.47c2.06.58,4.75.62,6.49-.79.14-.11.09-1-.06-1a15.55,15.55,0,0,1-2.86.8,9.15,9.15,0,0,1-3-.16A13.57,13.57,0,0,1,9.81,73c-3.31-2.65-6-6.31-6.24-10.67,0-.18-.08-.09-.07,0Z" transform="translate(-0.16 -0.05)"/><path class="cls-1" d="M6.91,70.59a19.12,19.12,0,0,0,1.56,4.2,29.18,29.18,0,0,0,2.18,3.8c.09.14.16-.38.16-.4a1.17,1.17,0,0,0-.12-.69A28.24,28.24,0,0,1,8.53,74c-.29-.58-.57-1.17-.83-1.76S7.25,71,6.94,70.38c0-.07,0,.18,0,.21Z" transform="translate(-0.16 -0.05)"/><path class="cls-1" d="M10.34,78s0,0,0,0l0,0a.52.52,0,0,1-.1.11,1.45,1.45,0,0,1-.22.21,1,1,0,0,0-.18.18,1.13,1.13,0,0,0-.09.65.72.72,0,0,0,.18.47.4.4,0,0,0,.28.1.79.79,0,0,0,.6-.31c.1-.11.18-.24.28-.35s.22-.32.33-.47a.39.39,0,0,0,0-.21s0-.14-.05-.17a.47.47,0,0,0-.15-.06.44.44,0,0,0-.15.08c-.1,0-.16.17-.23.26a1,1,0,0,1-.48.42.59.59,0,0,1-.29,0L10,79l0,0,0,0s0,0,0,0l0,0s0,.1,0,.08a1,1,0,0,1,0,.3s0,.08,0,0,0,0,0,0l0-.07a1.4,1.4,0,0,1,.16-.26,1.44,1.44,0,0,0,.35-.64.69.69,0,0,0,0-.32c0-.08-.06-.08-.08,0Z" transform="translate(-0.16 -0.05)"/><path class="cls-1" d="M10.89,79.08c-.53-.16-.41.91-.27,1.14a1,1,0,0,0,.63.39,5.44,5.44,0,0,0,.78.17,1.76,1.76,0,0,0,1.38-.25A2.17,2.17,0,0,0,14,78.9a6.56,6.56,0,0,0-.3-2.49.08.08,0,0,0-.05,0h0c-.06,0-.07.24-.08.26a9.09,9.09,0,0,0,.12,1.17,5.83,5.83,0,0,1,0,.84h0v.11a.86.86,0,0,1,0,.15,1.4,1.4,0,0,1-.09.29,1.07,1.07,0,0,1-.52.55,2.46,2.46,0,0,1-1.47.12,2.18,2.18,0,0,1-.76-.19.31.31,0,0,1-.11-.09.13.13,0,0,1-.06-.07,1.13,1.13,0,0,1,0,.26s.05-.1.09-.14a.2.2,0,0,1,.14-.08c.09,0,.08-.45,0-.47Z" transform="translate(-0.16 -0.05)"/><path class="cls-1" d="M14.08,48.93a.11.11,0,0,1-.08,0l0,0c-.06-.08,0-.11,0,.19l-.06.33s.05-.06.08-.09l.1,0a.85.85,0,0,1,.23,0,1,1,0,0,1,.46.12,1.07,1.07,0,0,1,.35.32,1.14,1.14,0,0,1,.1.19l0,.05s0,0,0,0,0-.05,0,0a.3.3,0,0,1,0,.1s0,.1.06.07,0-.16,0-.21a1.38,1.38,0,0,0-.55-1.22,1.13,1.13,0,0,0-.51-.19.61.61,0,0,0-.27,0,.28.28,0,0,0-.19.29,1.48,1.48,0,0,0,0,.42.32.32,0,0,0,.07.19.12.12,0,0,0,.2,0,.58.58,0,0,0,0-.32s0-.22-.06-.18Z" transform="translate(-0.16 -0.05)"/><path class="cls-1" d="M7,47.93s0,0,0,0l0,.19v.2l0,.26s0,0,0,0h0L7,48.56l0,0a.66.66,0,0,1,.44,0,1.12,1.12,0,0,1,.43.16h0a.31.31,0,0,1,.11.09s.07.08.12.1.07-.38.07-.39A1.1,1.1,0,0,0,8.09,48l.08.3v0s0-.1,0-.15l0,.23A.78.78,0,0,0,8.07,48L8,47.87a1,1,0,0,0-.2-.15,1.1,1.1,0,0,0-.44-.15.45.45,0,0,0-.42.1.41.41,0,0,0-.07.15,1.39,1.39,0,0,0,0,.41,1.1,1.1,0,0,0,0,.4s0,.07.08.07.07-.32.07-.34a2.11,2.11,0,0,0,0-.25c0-.06,0-.14,0-.18Z" transform="translate(-0.16 -0.05)"/><path class="cls-1" d="M7.77,48.57A2.38,2.38,0,0,0,7,50.69a.42.42,0,0,0,.09.24c.17.19.49,0,.65-.17a1.9,1.9,0,0,0,.16-2.08,1.61,1.61,0,0,0-.71,1.67A1.56,1.56,0,0,0,8,49a.94.94,0,0,0-.45,1.22" transform="translate(-0.16 -0.05)"/><path class="cls-1" d="M9.9,51.71a5.73,5.73,0,0,0,1,.15,2.57,2.57,0,0,0,.48,0,.46.46,0,0,0,.25-.1l.24-.17s0-.15,0-.18a1,1,0,0,0,0-.24c0-.06,0-.32-.08-.33l-.26-.06a.42.42,0,0,0-.22,0l-.49.09a4.73,4.73,0,0,1-1,.1c-.08,0-.07.33-.07.38a1.22,1.22,0,0,0,0,.26s0,.1.05.11Z" transform="translate(-0.16 -0.05)"/><path class="cls-1" d="M30.87,35.64a17.3,17.3,0,0,1,2.86,3.12c.4.57.78,1.14,1.12,1.74.19.33.36.66.53,1s.19.63.39.75c0,0,0-.53,0-.58a6.4,6.4,0,0,0-.87-1.78,14.42,14.42,0,0,0-4.06-4.38s0,.11,0,.13Z" transform="translate(-0.16 -0.05)"/><path class="cls-1" d="M34.59,37A11.56,11.56,0,0,1,36,38.86c.2.34.39.68.56,1,.08.17.16.34.23.51s.1.4.22.5.08-.5.07-.55c0,.14,0,0,0,0a1.46,1.46,0,0,0,0-.2,1.33,1.33,0,0,0-.1-.28,5.38,5.38,0,0,0-.24-.55,8.12,8.12,0,0,0-.58-1,9.53,9.53,0,0,0-1.55-1.75c-.05,0-.06.16-.06.17s0,.25.05.31Z" transform="translate(-0.16 -0.05)"/><path class="cls-1" d="M28.26,32a6.12,6.12,0,0,1,4.33-2.1,42.34,42.34,0,0,0,5.25-.9,33.68,33.68,0,0,0,4.89-1.7c1.31-.57,3-1.16,3.53-2.62,0-.11.06-1.1-.08-1.07s-.36.23-.54.4a5.72,5.72,0,0,1-1,.78c-.75.45-1.55.82-2.34,1.2-1.66.78-3.36,1.37-5.07,2-3,1.17-6.85,1.06-8.93,3.9a.15.15,0,0,0,0,.08Z" transform="translate(-0.16 -0.05)"/><path class="cls-1" d="M43.51,23.91A3.1,3.1,0,0,1,43,25.17a4.15,4.15,0,0,1-.46.56,2.69,2.69,0,0,0-.58.68.37.37,0,0,0,0,.21c0,.05,0,.18,0,.21s.48-.18.61-.31a3.44,3.44,0,0,0,.5-.7,4.4,4.4,0,0,0,.52-1.72.72.72,0,0,0,0-.21s0,0,0,0Z" transform="translate(-0.16 -0.05)"/><path class="cls-1" d="M41.92,27.37a4.88,4.88,0,0,1,2.31.07,4.7,4.7,0,0,1,1.09.44,3.74,3.74,0,0,1,.53.35.82.82,0,0,0,.43.25c.09,0,0-.6,0-.67a1.42,1.42,0,0,0-.41-.47,3.8,3.8,0,0,0-1.62-.67,3.68,3.68,0,0,0-2.34.41s0,.3,0,.29Z" transform="translate(-0.16 -0.05)"/><path class="cls-1" d="M39.38,24.11a3.5,3.5,0,0,1-.58,2.28,5.71,5.71,0,0,1-.77,1c-.16.15-.34.3-.51.44a2.27,2.27,0,0,0-.25.18,3.38,3.38,0,0,0-.27.36c-.06.06-.08.6,0,.62a.6.6,0,0,0,.35,0,1.32,1.32,0,0,0,.32-.2,3.8,3.8,0,0,0,.52-.46A4.37,4.37,0,0,0,39.09,27a5.67,5.67,0,0,0,.34-3.13c0-.06,0-.06,0,0a.53.53,0,0,0,0,.25Z" transform="translate(-0.16 -0.05)"/><path class="cls-1" d="M37.38,29c1.33-.11,2.42,1,3.21,1.94a7.51,7.51,0,0,0,1.26,1.26,3.27,3.27,0,0,0,.72.43.8.8,0,0,0,.37.11,1.46,1.46,0,0,0,.48-.14c.1,0,.07-.64,0-.68s-.29-.18-.45-.25a3.47,3.47,0,0,0-.41-.16,3.53,3.53,0,0,1-.77-.47,12.59,12.59,0,0,1-1.28-1.25,5.72,5.72,0,0,0-1.36-1.09,2,2,0,0,0-1.76-.13c-.07,0,0,.44,0,.43Z" transform="translate(-0.16 -0.05)"/><path class="cls-1" d="M35,24.42a3.31,3.31,0,0,1-.09,1.71,4.68,4.68,0,0,1-.36.79,4.78,4.78,0,0,1-.26.42.9.9,0,0,0-.14.2A3.59,3.59,0,0,0,34,28c0,.06-.06.4,0,.42s.13.09.2.05.12-.14.17-.19a3.58,3.58,0,0,0,.3-.49,5.31,5.31,0,0,0,.4-1.16,5.12,5.12,0,0,0-.08-2.4c0-.05,0,0,0,0a.55.55,0,0,0,0,.18Z" transform="translate(-0.16 -0.05)"/><path class="cls-1" d="M29.84,31.17c2-.53,3.9.76,5.4,1.92a21,21,0,0,0,2.18,1.55c.65.4,1.83,1.08,2.6.71.14-.07.1-.77,0-.84a6.83,6.83,0,0,0-1.35-.42,7.44,7.44,0,0,1-1.19-.53c-.83-.43-1.57-1-2.35-1.5-1.56-1-3.45-1.82-5.27-1,0,0,0,.14,0,.14Z" transform="translate(-0.16 -0.05)"/><path class="cls-2" d="M37.75,45.05a6.77,6.77,0,0,0-.21,3.57.77.77,0,0,1,0,.56.63.63,0,0,1-.73.12,2.55,2.55,0,0,1-.85-4.36,1.46,1.46,0,0,1,1-.4.8.8,0,0,1,.78.63" transform="translate(-0.16 -0.05)"/><path class="cls-2" d="M34.45,48.88a.77.77,0,0,0-.4.67.73.73,0,0,0,1.09.59c.4-.32,0-1.14-.46-1" transform="translate(-0.16 -0.05)"/><path class="cls-2" d="M16.25,41.94A4.38,4.38,0,0,0,14,44.59a3.74,3.74,0,0,0,2.15-1.43,1,1,0,0,0,.25-.82c-.09-.29-.53-.45-.69-.2" transform="translate(-0.16 -0.05)"/><path class="cls-1" d="M14.36,48.81a3.66,3.66,0,0,0-.37.67,2.09,2.09,0,0,0-.13.49,3,3,0,0,0-.08.52c0,.1,0,.21,0,.31a2.32,2.32,0,0,0,0,.53.39.39,0,0,0,.09.23.18.18,0,0,0,.25,0,1.1,1.1,0,0,0,.32-.83c0-.37.08-.73.11-1.1a2.9,2.9,0,0,0,0-.51,1.35,1.35,0,0,0-.08-.4s-.05-.13-.11-.07a.7.7,0,0,0-.07.31c0,.33-.06.65-.09,1l0,.24v.07c0-.09,0-.11,0-.06v-.06s0,0,0,0,0,0,0,0l0,.08a.47.47,0,0,1-.1.1l0,0a.14.14,0,0,1-.15,0l0,0,0,0,.11.74v-.07c0,.09,0,.11,0,.05a.34.34,0,0,1,0-.1s0-.17,0,0c0,0,0-.07,0-.1s0-.15.05-.22v-.07s0,0,0,0a.94.94,0,0,0,0-.16,5.34,5.34,0,0,1,.31-.93.94.94,0,0,0,0-.47s-.05-.29-.1-.21Z" transform="translate(-0.16 -0.05)"/><path class="cls-1" d="M23,18.11a1.31,1.31,0,0,0,.07,2.34A.91.91,0,0,0,24.24,20a1.24,1.24,0,0,0-.15-1.27c-.33-.34-1-.42-1.15-.9,0-.05,0,.11,0,.13a.65.65,0,0,0,.21.49,2.08,2.08,0,0,0,.48.28c.29.15.73.38.68.78a.9.9,0,0,1-.82.78,1.1,1.1,0,0,1-1-.58A1.15,1.15,0,0,1,23,18.27s0-.16,0-.16Z" transform="translate(-0.16 -0.05)"/><path class="cls-1" d="M19,18.37a3,3,0,0,0-.61,1.91,1.31,1.31,0,0,0,.93,1.32,1.59,1.59,0,0,0,1.43-.49,2,2,0,0,0,.31-1.81,2.31,2.31,0,0,0-.53-1,2.67,2.67,0,0,0-.44-.38,1.37,1.37,0,0,0-.2-.13.26.26,0,0,0-.28,0c-.07,0,0,.33,0,.39a4.32,4.32,0,0,0,.72.53,2.27,2.27,0,0,1,.5.61A1.17,1.17,0,0,1,21,20a1.1,1.1,0,0,1-.27.59c-.55.67-1.82.87-2.21-.08a1.27,1.27,0,0,1,0-.86,4.09,4.09,0,0,1,.44-.92c0-.05,0-.14,0-.2s0-.14,0-.11Z" transform="translate(-0.16 -0.05)"/><path class="cls-1" d="M21.08,16.55a.86.86,0,0,0-.26.63,1.44,1.44,0,0,0,.05.41,1,1,0,0,0,.07.15.08.08,0,0,0,0,.05l.09,0a.54.54,0,0,0,.53-.21.52.52,0,0,0,.12-.31,1,1,0,0,0-.05-.48c-.1-.22-.35-.45-.61-.37,0,0,0,.15,0,.18s0,.18,0,.18a.59.59,0,0,1,.49.19.36.36,0,0,1,.07.1l0,.06v0h0v-.07h0s0,0,0,.05a.34.34,0,0,1-.06.12.58.58,0,0,1-.42.25c-.07,0-.19,0-.24-.06a.86.86,0,0,1-.07-.21v-.09a.88.88,0,0,1,.05-.15,1,1,0,0,1,.17-.27s0-.1,0-.13,0-.09,0-.07Z" transform="translate(-0.16 -0.05)"/><path class="cls-1" d="M22.36,21.8a.89.89,0,0,0-.06.53,1,1,0,0,0,.22.49h0c.22-.1.23-.38.21-.59a.72.72,0,0,0-.29-.59.19.19,0,0,0-.14,0,.3.3,0,0,0-.16,0s0,.31,0,.31a.33.33,0,0,1,.17,0,.61.61,0,0,1,.14.07.68.68,0,0,1,.12.12.43.43,0,0,1,0,.07l0,0h0s0,0,0,0v.06s0,0,0,0,0,.06,0,0h0v0h0s0,0,0,0v0s0,0,0,0a.36.36,0,0,1-.1.14l0,0s0,0-.05,0a.36.36,0,0,1-.07-.1.5.5,0,0,1-.09-.24.74.74,0,0,1,.05-.25.31.31,0,0,0,0-.1s0-.05,0,0Z" transform="translate(-0.16 -0.05)"/><path class="cls-1" d="M17.11,21.43a.84.84,0,0,0-.36.82.82.82,0,0,0,.41.8.71.71,0,0,0,.94-.6,1.2,1.2,0,0,0-.09-.7.72.72,0,0,0-.35-.34.44.44,0,0,0-.25-.06l-.12,0-.05,0s0,.05-.07.08a.33.33,0,0,0,0,.14s0,.11,0,.14,0,.05.08.05h.1l.19,0a.7.7,0,0,1,.32.19.79.79,0,0,1,.12.15l0,.07s0,0,0,0h0a.65.65,0,0,1,0-.14s0,0,0,0,0,0,0,0,0,0,0,0a.42.42,0,0,1-.09.14.73.73,0,0,1-.62.26.53.53,0,0,1-.31-.13.58.58,0,0,1-.1-.12l0-.06s0,0,0,0v0s0,0,0,0,0,0,0,0v0s0,0,0,0h0v0l0-.08a.59.59,0,0,1,.25-.29c.05,0,0-.16,0-.21s0-.22,0-.21Z" transform="translate(-0.16 -0.05)"/><path class="cls-1" d="M21.26,28.8l-.38.55a.25.25,0,0,0,0,.15c0,.05,0,.12,0,.16.19.26.59.07.66-.19a.9.9,0,0,0-.11-.7.74.74,0,0,0-.49-.29,1.19,1.19,0,0,0-.42,0,.76.76,0,0,0-.21.08l-.21.15s0,.2,0,.2a1.67,1.67,0,0,0,.39,0,1.33,1.33,0,0,1,.4,0,.69.69,0,0,1,.54.29l0,.06a.21.21,0,0,0,0,.06s0-.16,0-.1a.08.08,0,0,1,0,0,.37.37,0,0,1-.16.17.33.33,0,0,1-.41,0v.31l.37-.58a.37.37,0,0,0,0-.18s0-.13,0-.1Z" transform="translate(-0.16 -0.05)"/><path class="cls-1" d="M15.15,24.66a.69.69,0,0,0-.72-.53,1,1,0,0,0-.79.68,3.63,3.63,0,0,0-.08,2.71,1.57,1.57,0,0,0,1.91,1,1.81,1.81,0,0,0,.92-1.9,2,2,0,0,0-.46-1.17,2.11,2.11,0,0,0-.5-.44.76.76,0,0,0-.6-.2c-.05,0,0,.29,0,.32.24.23.57.34.82.57a1.89,1.89,0,0,1,.55.76.84.84,0,0,1,0,.77,1.35,1.35,0,0,1-.57.61,1.42,1.42,0,0,1-1.7-.4,1.89,1.89,0,0,1-.24-2,1.26,1.26,0,0,1,.7-.78.58.58,0,0,1,.76.29c0,.07.05,0,.05,0a.57.57,0,0,0,0-.26Z" transform="translate(-0.16 -0.05)"/><path class="cls-1" d="M13.46,17.34a1,1,0,0,0-.15.47,1.77,1.77,0,0,0,0,.65.84.84,0,0,0,.61.6.85.85,0,0,0,.79-.32,1,1,0,0,0,.17-.47,1.24,1.24,0,0,0-.1-.66.89.89,0,0,0-.36-.36c-.14-.07-.38-.14-.52,0s0,.14,0,.19,0,.18,0,.18a1.21,1.21,0,0,0,.19,0,.69.69,0,0,1,.2,0,.83.83,0,0,1,.33.22l.11.15a.59.59,0,0,1,0,.08.09.09,0,0,1,0,.05s0,0,0,0,0-.09,0-.09,0,.06,0,.07a.46.46,0,0,1-.09.15.85.85,0,0,1-.64.35.69.69,0,0,1-.61-.32.76.76,0,0,1-.09-.18.24.24,0,0,1,0-.08s0,0,0,0h0s0,0,0,0h0s0,0,0,0a.29.29,0,0,1,0-.09,1.42,1.42,0,0,1,.08-.18c0-.06,0-.19,0-.27s0-.19-.06-.15Z" transform="translate(-0.16 -0.05)"/><path class="cls-1" d="M16.29,14.41a.36.36,0,0,0-.35.31,1.28,1.28,0,0,0,0,.39.73.73,0,0,0,.11.29.49.49,0,0,0,.62.12.81.81,0,0,0,.42-.67.63.63,0,0,0-.17-.57.41.41,0,0,0-.4-.08s0,0,0,.05a.66.66,0,0,0,0,.14s0,.2,0,.19a.4.4,0,0,1,.32,0,.28.28,0,0,1,.13.11.23.23,0,0,1,.06.12v-.18s0,0,0,0h0a.11.11,0,0,0,0,.06l-.05.12a1,1,0,0,1-.17.23.62.62,0,0,1-.48.18.35.35,0,0,1-.31-.21L16,15s0,0,0,0h0v0l0-.09a.35.35,0,0,1,.3-.23s0-.19,0-.19Z" transform="translate(-0.16 -0.05)"/><path class="cls-1" d="M18.58,11.07a.64.64,0,0,0-.43.32,1,1,0,0,0-.09.33,1.45,1.45,0,0,0,.05.51s0,0,0,0a1.26,1.26,0,0,0,.51,0A.39.39,0,0,0,19,12a.71.71,0,0,0,0-.25,1,1,0,0,0,0-.24.4.4,0,0,0-.09-.21.28.28,0,0,0-.13-.11.12.12,0,0,0-.15,0s0,.06,0,.09a.91.91,0,0,0,0,.23s0,.07,0,.08,0,0,0,0,0,0,0,0h0a.22.22,0,0,1,.16,0h0l.08.08v0h0v0h0c0,.06,0-.06,0-.05a.33.33,0,0,1,0-.14v0h0l-.09.11h0a.93.93,0,0,1-.71.11l0,0v0h0v.07h0s0,0,0,0a.56.56,0,0,1,.09-.21.59.59,0,0,1,.37-.25s0-.05,0-.06a.61.61,0,0,0,0-.14s0-.2,0-.2Z" transform="translate(-0.16 -0.05)"/><path class="cls-1" d="M19.39,5.77a1.58,1.58,0,0,0-1.63,1A2.12,2.12,0,0,0,17.69,8a1.26,1.26,0,0,0,.44.74,1.51,1.51,0,0,0,1.59.21,1.44,1.44,0,0,0,.57-1.69,1.6,1.6,0,0,0-.5-.85,1.23,1.23,0,0,0-.4-.23.58.58,0,0,0-.49.09s0,.24,0,.25l.37.11a1.09,1.09,0,0,1,.34.13,1.36,1.36,0,0,1,.51.55,1.2,1.2,0,0,1,.12.35s0,.07,0,0,0,.09,0,.14a1,1,0,0,1-.46.56,1.51,1.51,0,0,1-1.4,0,1.36,1.36,0,0,1-.53-.48,1,1,0,0,1-.12-.31c0,.05,0,0,0-.06a.83.83,0,0,1,.06-.21,1.65,1.65,0,0,1,1.6-1.07s.06-.44,0-.45Z" transform="translate(-0.16 -0.05)"/><path class="cls-1" d="M21.91,13a1.58,1.58,0,0,0-.43.84,2,2,0,0,0,0,.59.09.09,0,0,0,.06.08l.09,0a.45.45,0,0,0,.2,0,.71.71,0,0,0,.57-.42,1.19,1.19,0,0,0,.05-.56.79.79,0,0,0-.16-.39.65.65,0,0,0-.35-.24.56.56,0,0,0-.42.09s0,.23,0,.22a.86.86,0,0,1,.45.08.85.85,0,0,1,.36.29l.05.09a.43.43,0,0,0,0,.05s0,0,0,0,0-.09,0-.05a.08.08,0,0,1,0,0,1,1,0,0,1,0,.1.71.71,0,0,1-.34.3.59.59,0,0,1-.5,0l0,.08a.11.11,0,0,1,0-.08.49.49,0,0,1,0-.12,1.57,1.57,0,0,1,.08-.29,1.62,1.62,0,0,1,.32-.51s0-.11,0-.15,0-.1,0-.09Z" transform="translate(-0.16 -0.05)"/><path class="cls-1" d="M14.61,11.73a.88.88,0,0,0-.52.62,1.26,1.26,0,0,0,0,.58.6.6,0,0,0,.18.34.61.61,0,0,0,.65.15.62.62,0,0,0,.26-.63.76.76,0,0,0-.11-.45l0-.06,0,0h-.19s0,.18,0,.19l.11.09a.94.94,0,0,1,.09.12.24.24,0,0,1,.06.09l0,.09s0,0,0,0a.09.09,0,0,1,0,0v-.05s0,0,0,0a.22.22,0,0,1,0,.1.4.4,0,0,1-.17.17.55.55,0,0,1-.54,0,.58.58,0,0,1-.2-.21.3.3,0,0,1,0-.1c0-.05,0,0,0,0s0,.07,0,.06v-.06a.88.88,0,0,1,.49-.56s0-.14,0-.18,0-.19,0-.18Z" transform="translate(-0.16 -0.05)"/><path class="cls-1" d="M9.61,16.5a.8.8,0,0,0-.9.17,1.59,1.59,0,0,0-.42,1A6.65,6.65,0,0,0,8.35,19a2.28,2.28,0,0,0,.27.92c.46.74,1.36.31,1.83-.17a2.46,2.46,0,0,0,.69-2.11,1.57,1.57,0,0,0-.53-1,1.33,1.33,0,0,0-.46-.27,1.26,1.26,0,0,0-.27,0,.31.31,0,0,0-.29.09s0,.23,0,.24a1.36,1.36,0,0,0,.41.08,1.31,1.31,0,0,1,.37.15,1.45,1.45,0,0,1,.58.62,1,1,0,0,1,0,.87,2.39,2.39,0,0,1-.5.76c-.39.39-1.1.89-1.64.49s-.47-1.05-.48-1.54a1.27,1.27,0,0,1,.39-1,.87.87,0,0,1,.86-.25s.07-.33,0-.36Z" transform="translate(-0.16 -0.05)"/><path class="cls-1" d="M8,23.63a3.26,3.26,0,0,0-.47,1.48s0,.23,0,.24a.94.94,0,0,0,1-.41,1.14,1.14,0,0,0,.13-.63,1.28,1.28,0,0,0-.18-.63,1,1,0,0,0-.22-.23.54.54,0,0,0-.3-.08s0,.17,0,.19a1.33,1.33,0,0,1,.51.46.86.86,0,0,1,.11.28.28.28,0,0,1,0,.2A1,1,0,0,1,7.51,25l0,.23A3.18,3.18,0,0,1,8,23.86a.37.37,0,0,0,0-.15s0-.1,0-.08Z" transform="translate(-0.16 -0.05)"/><path class="cls-1" d="M5.84,13.39a1.54,1.54,0,0,0-.35,1.68h0a.71.71,0,0,0,.7-.33,1.15,1.15,0,0,0,.19-.88.86.86,0,0,0-.06-.23.32.32,0,0,0-.14-.16s0,.18,0,.2a1.59,1.59,0,0,1,.13.22.56.56,0,0,1,0,.15.35.35,0,0,0,0,.06.36.36,0,0,1,0,.1,1,1,0,0,1-.1.21.74.74,0,0,1-.74.4v0a1,1,0,0,1,0-.63,1.25,1.25,0,0,1,.38-.58s0-.12,0-.16,0-.1,0-.08Z" transform="translate(-0.16 -0.05)"/><path class="cls-1" d="M26.1,23a1.49,1.49,0,0,0-.17,1,.59.59,0,0,0,.54.5.44.44,0,0,0,.41-.42.91.91,0,0,0-.16-.75,1,1,0,0,0-.38-.26.52.52,0,0,0-.22-.07h-.24a.19.19,0,0,0,0,.15c.12.05.23.12.34.16a1.69,1.69,0,0,1,.31.13.66.66,0,0,1,.32.43h0s0,0,0,.06a.56.56,0,0,1,0,.12.39.39,0,0,1-.19.17.46.46,0,0,1-.55-.19.45.45,0,0,1-.09-.37,1.42,1.42,0,0,1,.16-.45s0-.08,0-.12,0-.08,0-.07Z" transform="translate(-0.16 -0.05)"/><path class="cls-1" d="M15.81,3.41c-.26-.07-.44.15-.5.38a1.16,1.16,0,0,0,0,.49.45.45,0,0,0,.19.31.61.61,0,0,0,.8-.27.94.94,0,0,0,0-1A.94.94,0,0,0,15.8,3a.71.71,0,0,0-.29,0,.75.75,0,0,0-.29.09s0,.15,0,.15l.22,0,.21,0a1.09,1.09,0,0,1,.4.16.79.79,0,0,1,.28.32,1,1,0,0,1,0,.1c0,.05,0,0,0,0s0,.08,0,.09a.36.36,0,0,1,0,.11.66.66,0,0,1-.66.38.39.39,0,0,1-.28-.18.61.61,0,0,1,0-.12V4a.43.43,0,0,1,.49-.36s0-.24,0-.26Z" transform="translate(-0.16 -0.05)"/><path class="cls-1" d="M8.81,8.42a1.41,1.41,0,0,0-.48,2.39,1.38,1.38,0,0,0,1.44,0,1.19,1.19,0,0,0,.51-1.35A1.26,1.26,0,0,0,9,8.48s0,.17,0,.17a1.23,1.23,0,0,1,1.15.72.88.88,0,0,1,.08.71,1,1,0,0,1-.41.51,1.4,1.4,0,0,1-1.24.16A1,1,0,0,1,7.89,9.7a1.35,1.35,0,0,1,.93-1.17s0-.12,0-.11Z" transform="translate(-0.16 -0.05)"/><path class="cls-1" d="M8.38,4.24A.94.94,0,0,0,7.79,5a.82.82,0,0,0,.3.83.81.81,0,0,0,.87,0A.69.69,0,0,0,9.23,5a.81.81,0,0,0-.32-.43.6.6,0,0,0-.25-.1H8.53a.3.3,0,0,0-.14.06s0,.15,0,.15h.2a.45.45,0,0,1,.2,0A.77.77,0,0,1,9.12,5a.47.47,0,0,1,.11.37A.58.58,0,0,1,9,5.67a.85.85,0,0,1-.76.09A.66.66,0,0,1,7.8,5.1a1,1,0,0,1,.58-.79s0-.07,0-.07Z" transform="translate(-0.16 -0.05)"/><path class="cls-1" d="M8.79,2.47a.54.54,0,0,0-.17.68.48.48,0,0,0,.12.16l0,0h.05l.11,0A.63.63,0,0,0,9.21,3a.8.8,0,0,0,0-.55h0s0,.08,0,.09h0v0s0,0,0,0,0,0,0,.07a.8.8,0,0,1,0,.15A.71.71,0,0,1,9,3.14a.51.51,0,0,1-.16.09s0,0,0,0l0,0-.06-.06a.42.42,0,0,1-.09-.32.48.48,0,0,1,.2-.33s0,0,0,0Z" transform="translate(-0.16 -0.05)"/><path class="cls-1" d="M6,4.09a.82.82,0,0,0,.49-.86.46.46,0,0,0-.25-.34.53.53,0,0,0-.39,0,.31.31,0,0,0-.18.09.29.29,0,0,0-.09.2.06.06,0,0,0,0,.06s0,0,0,0c0-.24.35-.31.56-.26a.44.44,0,0,1,.28.2.56.56,0,0,1,0,.53A1,1,0,0,1,6,4.08Z" transform="translate(-0.16 -0.05)"/><path class="cls-1" d="M6.89.09a.74.74,0,0,0-.77.19.78.78,0,0,0-.1.84.66.66,0,0,0,.67.37A.54.54,0,0,0,7.08.92.92.92,0,0,0,7,.45.43.43,0,0,0,6.88.33a.24.24,0,0,0-.18,0s0,.14,0,.15a.63.63,0,0,1,.23.2A.83.83,0,0,1,7,.76.14.14,0,0,0,7,.82s0,0,0,0v0H7s0-.05,0,0,0,0,0,0A.15.15,0,0,1,7,.92.38.38,0,0,1,7,1.05a.45.45,0,0,1-.25.18A.6.6,0,0,1,6.1,1,.41.41,0,0,1,6,.78.52.52,0,0,1,6.15.47.73.73,0,0,1,6.89.28s0-.18,0-.19Z" transform="translate(-0.16 -0.05)"/><path class="cls-1" d="M5.49,6.44A1,1,0,0,0,5.4,7.51h0a.66.66,0,0,0,.27-.4.73.73,0,0,0-.06-.5s0,0,0,0a.17.17,0,0,0,0,.07.65.65,0,0,1,0,.2.65.65,0,0,1,0,.19.69.69,0,0,1-.1.19l-.07.07,0,0s0,0,0,0a.78.78,0,0,1,.11-.86s0-.06,0-.06Z" transform="translate(-0.16 -0.05)"/><path class="cls-1" d="M6,23.36c-.15-.07-.27.07-.32.2a1,1,0,0,0,0,.38.5.5,0,0,0,.1.28.38.38,0,0,0,.51,0,.79.79,0,0,0,.22-.71A1,1,0,0,0,6.36,23a.86.86,0,0,0-.13-.14l-.08-.07a.08.08,0,0,0-.08,0s0,.12,0,.14a.75.75,0,0,0,.09.15l.11.15a1.17,1.17,0,0,1,.15.27s0,0,0,0v0s0,0,0,0a.39.39,0,0,1-.13.2.41.41,0,0,1-.43.11.2.2,0,0,1-.12-.12h0a.41.41,0,0,1,0,.11h0s0,0,0,0a.23.23,0,0,1,.29-.15s0-.16,0-.18,0-.15,0-.17Z" transform="translate(-0.16 -0.05)"/><path class="cls-1" d="M6.74,21a.83.83,0,0,0-.24.75.8.8,0,0,0,.4.66h0a.81.81,0,0,0,.24-.61.9.9,0,0,0-.22-.67h0s0,.17,0,.2a.52.52,0,0,0,.07.11.3.3,0,0,1,.06.11.47.47,0,0,1,.06.19.59.59,0,0,1-.16.4s0,0-.05,0l0,0-.1-.07A.64.64,0,0,1,6.62,22a.59.59,0,0,1-.09-.36.69.69,0,0,1,.22-.43s0-.07,0-.09,0-.07,0-.06Z" transform="translate(-0.16 -0.05)"/><path class="cls-1" d="M5.44,25.82l0,1s0,.06,0,.06a.42.42,0,0,0,.45-.16.67.67,0,0,0,.13-.56.35.35,0,0,0-.14-.23s0,0,0,0a.22.22,0,0,0,0,.08.36.36,0,0,1,.13.22.57.57,0,0,1-.08.25.44.44,0,0,1-.48.24v.06l0-1s0,0,0,0v0Z" transform="translate(-0.16 -0.05)"/></g></g></svg>