<svg xmlns="http://www.w3.org/2000/svg" viewBox="0 0 3282.99 683.64"><defs><style>.cls-1{opacity:0.05;}</style></defs><title>Asset 26</title><g id="Layer_2" data-name="Layer 2"><g id="Layer_1-2" data-name="Layer 1"><g class="cls-1"><polygon points="3282.99 331.84 3282.99 8.34 3170.91 8.34 3170.91 306.62 3172.73 331.84 3282.99 331.84"/><polygon points="3071.7 331.84 3076.85 331.84 3163.79 331.84 3069.93 8.34 2962.48 8.34 2962.48 331.84 3071.7 331.84"/><polygon points="3282.99 331.84 3282.99 8.34 3170.91 8.34 3170.91 306.62 3172.73 331.84 3282.99 331.84"/><polygon points="3071.7 331.84 3076.85 331.84 3163.79 331.84 3069.93 8.34 2962.48 8.34 2962.48 331.84 3071.7 331.84"/><polygon points="2962.48 351.81 2962.48 675.31 3074.56 675.31 3074.56 378.88 3072.91 351.81 2962.48 351.81"/><polygon points="3174.17 351.81 3168.85 351.81 3081.97 351.81 3177.39 675.31 3282.99 675.31 3282.99 351.81 3174.17 351.81"/><polygon points="2682.82 331.84 2687.72 331.84 2769.31 331.84 2768.87 327 2727.18 8.34 2646.59 8.34 2603.05 327 2602.54 331.84 2682.82 331.84"/><polygon points="2589.34 331.84 2589.15 327 2558.59 8.34 2439.09 8.34 2479.52 331.84 2589.34 331.84"/><polygon points="2891.58 331.84 2935.61 8.34 2817.04 8.34 2782.76 327 2782.54 331.84 2891.58 331.84"/><path d="M2235.28,331.84V164.89c0-38.91,7.41-53.73,29.64-53.73,23.16,0,29.65,13.9,29.65,53.73v167h130.61V158.41C2425.18,50,2361.26,0,2264.92,0s-160.25,50-160.25,158.41V331.84Z"/><path d="M2294.57,351.81V513.2c0,39.83-6.49,53.72-29.65,53.72-22.23,0-29.64-14.82-29.64-53.72V351.81H2104.67V525.24c0,112.09,63,158.4,160.25,158.4,95.42,0,160.26-46.31,160.26-158.4V351.81Z"/><path d="M1932.37,351.81V509.49c0,38.91-12,54.65-37,54.65h-20.38V351.81H1749v323.5h151.93c95.41,0,162.11-40.76,162.11-153.78V351.81Z"/><path d="M1874.94,331.84v-216h20.38c24.08,0,37,13,37,52.81V331.84H2063V162.11c0-113-63.92-153.77-159.34-153.77H1749v323.5Z"/><polygon points="1507.18 331.84 1633.16 331.84 1633.16 125.06 1712.83 125.06 1712.83 8.34 1427.51 8.34 1427.51 125.06 1507.18 125.06 1507.18 331.84"/><rect x="1507.18" y="351.81" width="125.98" height="323.5"/><polygon points="1181.01 331.84 1186.16 331.84 1273.11 331.84 1179.25 8.34 1071.79 8.34 1071.79 331.84 1181.01 331.84"/><polygon points="1392.31 331.84 1392.31 8.34 1280.22 8.34 1280.22 306.62 1282.04 331.84 1392.31 331.84"/><polygon points="1071.79 351.81 1071.79 675.31 1183.88 675.31 1183.88 378.88 1182.23 351.81 1071.79 351.81"/><polygon points="1283.49 351.81 1278.17 351.81 1191.29 351.81 1286.7 675.31 1392.31 675.31 1392.31 351.81 1283.49 351.81"/><rect x="899.49" y="8.34" width="125.98" height="323.5"/><rect x="717.93" y="8.34" width="125.98" height="323.5"/><path d="M899.49,351.81V516c0,36.12-5.56,46.31-27.79,46.31-21.3,0-27.79-11.11-27.79-46.31V351.81h-126V525.24c0,112.09,53.73,158.4,153.77,158.4,97.27,0,153.78-46.31,153.78-158.4V351.81Z"/><path d="M486.33,331.84V164.89c0-38.91,7.41-53.73,29.64-53.73,23.16,0,29.64,13.9,29.64,53.73v167H676.23V158.41C676.23,50,612.31,0,516,0S355.71,50,355.71,158.41V331.84Z"/><path d="M545.61,351.81V513.2c0,39.83-6.48,53.72-29.64,53.72-22.23,0-29.64-14.82-29.64-53.72V351.81H355.71V525.24c0,112.09,63,158.4,160.26,158.4,95.42,0,160.26-46.31,160.26-158.4V351.81Z"/><path d="M130.61,331.84v-166c0-39.84,5.56-54.66,26.87-54.66,22.23,0,27.79,13,27.79,47.25v126.9H315.89V146.36C315.89,44.47,258.45,0,158.4,0,62.07,0,0,45.39,0,154.7V331.84Z"/><path d="M185.27,517.83C184.34,553,178.79,566,157.48,566c-22.23,0-26.87-13-26.87-53.73V351.81H0v172.5c0,113,51,159.33,157.48,159.33,101,0,157.48-40.76,159.33-154.7V379.8H185.27Z"/><polygon points="2600.45 351.81 2592.86 424.27 2590.1 351.81 2482.02 351.81 2522.46 675.31 2638.25 675.31 2679.94 375.17 2681.49 351.81 2600.45 351.81"/><polygon points="2781.62 351.81 2778.13 427.97 2771.14 351.81 2688.83 351.81 2690.13 375.17 2731.81 675.31 2844.83 675.31 2888.86 351.81 2781.62 351.81"/></g></g></g></svg>