<svg xmlns="http://www.w3.org/2000/svg" viewBox="0 0 162.52 33.84"><defs><style>.cls-1{fill:#1c1e21;}</style></defs><title>Asset 16</title><g id="Layer_2" data-name="Layer 2"><g id="Layer_1-2" data-name="Layer 1"><polygon class="cls-1" points="162.52 16.43 162.52 0.41 156.97 0.41 156.97 15.18 157.06 16.43 162.52 16.43"/><polygon class="cls-1" points="152.06 16.43 152.32 16.43 156.62 16.43 151.97 0.41 146.66 0.41 146.66 16.43 152.06 16.43"/><polygon class="cls-1" points="162.52 16.43 162.52 0.41 156.97 0.41 156.97 15.18 157.06 16.43 162.52 16.43"/><polygon class="cls-1" points="152.06 16.43 152.32 16.43 156.62 16.43 151.97 0.41 146.66 0.41 146.66 16.43 152.06 16.43"/><polygon class="cls-1" points="146.66 17.42 146.66 33.43 152.2 33.43 152.2 18.76 152.12 17.42 146.66 17.42"/><polygon class="cls-1" points="157.13 17.42 156.87 17.42 152.57 17.42 157.29 33.43 162.52 33.43 162.52 17.42 157.13 17.42"/><polygon class="cls-1" points="132.81 16.43 133.05 16.43 137.09 16.43 137.07 16.19 135.01 0.41 131.02 0.41 128.86 16.19 128.84 16.43 132.81 16.43"/><polygon class="cls-1" points="128.18 16.43 128.17 16.19 126.66 0.41 120.75 0.41 122.75 16.43 128.18 16.43"/><polygon class="cls-1" points="143.15 16.43 145.32 0.41 139.46 0.41 137.76 16.19 137.75 16.43 143.15 16.43"/><path class="cls-1" d="M110.66,16.43V8.16c0-1.92.36-2.66,1.46-2.66s1.47.69,1.47,2.66v8.27h6.47V7.84c0-5.36-3.17-7.84-7.94-7.84s-7.93,2.48-7.93,7.84v8.59Z"/><path class="cls-1" d="M113.59,17.42v8c0,2-.32,2.66-1.47,2.66s-1.46-.74-1.46-2.66v-8h-6.47V26c0,5.55,3.12,7.84,7.93,7.84s7.94-2.29,7.94-7.84V17.42Z"/><path class="cls-1" d="M95.66,17.42v7.8c0,1.93-.6,2.71-1.83,2.71h-1V17.42H86.58v16H94.1c4.72,0,8-2,8-7.61v-8.4Z"/><path class="cls-1" d="M92.82,16.43V5.73h1c1.19,0,1.83.64,1.83,2.62v8.08h6.47V8c0-5.6-3.17-7.62-7.89-7.62H86.58v16Z"/><polygon class="cls-1" points="74.61 16.43 80.85 16.43 80.85 6.19 84.79 6.19 84.79 0.41 70.67 0.41 70.67 6.19 74.61 6.19 74.61 16.43"/><rect class="cls-1" x="74.61" y="17.42" width="6.24" height="16.01"/><polygon class="cls-1" points="58.47 16.43 58.72 16.43 63.02 16.43 58.38 0.41 53.06 0.41 53.06 16.43 58.47 16.43"/><polygon class="cls-1" points="68.92 16.43 68.92 0.41 63.38 0.41 63.38 15.18 63.47 16.43 68.92 16.43"/><polygon class="cls-1" points="53.06 17.42 53.06 33.43 58.61 33.43 58.61 18.76 58.52 17.42 53.06 17.42"/><polygon class="cls-1" points="63.54 17.42 63.27 17.42 58.97 17.42 63.7 33.43 68.92 33.43 68.92 17.42 63.54 17.42"/><rect class="cls-1" x="44.53" y="0.41" width="6.24" height="16.01"/><rect class="cls-1" x="35.54" y="0.41" width="6.24" height="16.01"/><path class="cls-1" d="M44.53,17.42v8.12c0,1.79-.28,2.3-1.38,2.3s-1.37-.55-1.37-2.3V17.42H35.54V26c0,5.55,2.66,7.84,7.61,7.84s7.62-2.29,7.62-7.84V17.42Z"/><path class="cls-1" d="M24.08,16.43V8.16c0-1.92.36-2.66,1.46-2.66S27,6.19,27,8.16v8.27h6.47V7.84C33.48,2.48,30.31,0,25.54,0s-7.93,2.48-7.93,7.84v8.59Z"/><path class="cls-1" d="M27,17.42v8c0,2-.32,2.66-1.47,2.66s-1.46-.74-1.46-2.66v-8H17.61V26c0,5.55,3.12,7.84,7.93,7.84s7.94-2.29,7.94-7.84V17.42Z"/><path class="cls-1" d="M6.47,16.43V8.21c0-2,.27-2.71,1.33-2.71s1.37.65,1.37,2.34v6.28h6.47V7.25c0-5-2.85-7.25-7.8-7.25C3.07,0,0,2.25,0,7.66v8.77Z"/><path class="cls-1" d="M9.17,25.63C9.13,27.38,8.85,28,7.8,28s-1.33-.64-1.33-2.66V17.42H0V26c0,5.59,2.52,7.88,7.8,7.88,5,0,7.79-2,7.88-7.66V18.8H9.17Z"/><polygon class="cls-1" points="128.73 17.42 128.36 21 128.22 17.42 122.87 17.42 124.87 33.43 130.6 33.43 132.67 18.57 132.75 17.42 128.73 17.42"/><polygon class="cls-1" points="137.7 17.42 137.53 21.19 137.18 17.42 133.11 17.42 133.17 18.57 135.24 33.43 140.83 33.43 143.01 17.42 137.7 17.42"/></g></g></svg>