<svg xmlns="http://www.w3.org/2000/svg" viewBox="0 0 938.83 238.64"><defs><style>.cls-1{fill:#1c1e21;}.cls-2{fill:#fff;}.cls-3{fill:#f1ff39;}</style></defs><title>Asset 27</title><g id="Layer_2" data-name="Layer 2"><g id="Layer_1-2" data-name="Layer 1"><rect class="cls-1" width="938.83" height="238.64"/><polygon class="cls-2" points="882.76 111.73 882.76 27.84 853.69 27.84 853.69 105.19 854.16 111.73 882.76 111.73"/><polygon class="cls-2" points="827.96 111.73 829.3 111.73 851.85 111.73 827.51 27.84 799.64 27.84 799.64 111.73 827.96 111.73"/><polygon class="cls-2" points="882.76 111.73 882.76 27.84 853.69 27.84 853.69 105.19 854.16 111.73 882.76 111.73"/><polygon class="cls-2" points="827.96 111.73 829.3 111.73 851.85 111.73 827.51 27.84 799.64 27.84 799.64 111.73 827.96 111.73"/><polygon class="cls-2" points="799.64 116.91 799.64 200.81 828.71 200.81 828.71 123.93 828.28 116.91 799.64 116.91"/><polygon class="cls-2" points="854.54 116.91 853.16 116.91 830.63 116.91 855.37 200.81 882.76 200.81 882.76 116.91 854.54 116.91"/><polygon class="cls-2" points="727.12 111.73 728.38 111.73 749.54 111.73 749.43 110.48 738.62 27.84 717.72 27.84 706.43 110.48 706.3 111.73 727.12 111.73"/><polygon class="cls-2" points="702.87 111.73 702.82 110.48 694.9 27.84 663.9 27.84 674.39 111.73 702.87 111.73"/><polygon class="cls-2" points="781.25 111.73 792.67 27.84 761.92 27.84 753.03 110.48 752.98 111.73 781.25 111.73"/><path class="cls-2" d="M611.05,111.73V68.44c0-10.09,1.92-13.94,7.69-13.94,6,0,7.69,3.61,7.69,13.94v43.29H660.3v-45c0-28.11-16.58-41.08-41.56-41.08s-41.56,13-41.56,41.08v45Z"/><path class="cls-2" d="M626.43,116.91v41.86c0,10.33-1.69,13.93-7.69,13.93-5.77,0-7.69-3.84-7.69-13.93V116.91H577.18v45c0,29.07,16.33,41.08,41.56,41.08,24.74,0,41.56-12,41.56-41.08v-45Z"/><path class="cls-2" d="M532.5,116.91v40.9c0,10.09-3.13,14.17-9.61,14.17H517.6V116.91H484.93v83.9h39.4c24.74,0,42-10.57,42-39.88v-44Z"/><path class="cls-2" d="M517.6,111.73v-56h5.29c6.24,0,9.61,3.36,9.61,13.69v42.33h33.87v-44c0-29.31-16.58-39.88-41.32-39.88H484.93v83.89Z"/><polygon class="cls-3" points="422.23 111.73 454.9 111.73 454.9 58.11 475.56 58.11 475.56 27.84 401.57 27.84 401.57 58.11 422.23 58.11 422.23 111.73"/><rect class="cls-3" x="422.23" y="116.91" width="32.67" height="83.89"/><polygon class="cls-3" points="337.64 111.73 338.98 111.73 361.52 111.73 337.18 27.84 309.32 27.84 309.32 111.73 337.64 111.73"/><polygon class="cls-3" points="392.44 111.73 392.44 27.84 363.37 27.84 363.37 105.19 363.84 111.73 392.44 111.73"/><polygon class="cls-3" points="309.32 116.91 309.32 200.81 338.38 200.81 338.38 123.93 337.96 116.91 309.32 116.91"/><polygon class="cls-3" points="364.22 116.91 362.84 116.91 340.31 116.91 365.05 200.81 392.44 200.81 392.44 116.91 364.22 116.91"/><rect class="cls-3" x="264.63" y="27.84" width="32.67" height="83.89"/><rect class="cls-3" x="217.55" y="27.84" width="32.67" height="83.89"/><path class="cls-3" d="M264.63,116.91v42.58c0,9.37-1.44,12-7.2,12-5.53,0-7.21-2.88-7.21-12V116.91H217.55v45c0,29.07,13.93,41.08,39.88,41.08,25.22,0,39.88-12,39.88-41.08v-45Z"/><path class="cls-3" d="M157.49,111.73V68.44c0-10.09,1.92-13.94,7.68-13.94,6,0,7.69,3.61,7.69,13.94v43.29h33.87v-45c0-28.11-16.57-41.08-41.56-41.08s-41.56,13-41.56,41.08v45Z"/><path class="cls-3" d="M172.86,116.91v41.86c0,10.33-1.68,13.93-7.69,13.93-5.76,0-7.68-3.84-7.68-13.93V116.91H123.61v45C123.61,191,140,203,165.17,203c24.75,0,41.56-12,41.56-41.08v-45Z"/><path class="cls-3" d="M65.24,111.73v-43c0-10.33,1.44-14.18,7-14.18,5.77,0,7.21,3.37,7.21,12.26V99.67h33.87v-36c0-26.42-14.89-37.95-40.84-37.95-25,0-41.08,11.77-41.08,40.12v45.93Z"/><path class="cls-3" d="M79.41,160c-.24,9.13-1.68,12.49-7.21,12.49-5.76,0-7-3.36-7-13.93V116.91H31.36v44.74C31.36,191,44.58,203,72.2,203c26.19,0,40.84-10.57,41.32-40.12V124.17H79.41Z"/><polygon class="cls-2" points="705.75 116.91 703.78 135.7 703.07 116.91 675.04 116.91 685.53 200.81 715.56 200.81 726.37 122.97 726.77 116.91 705.75 116.91"/><polygon class="cls-2" points="752.74 116.91 751.83 136.66 750.02 116.91 728.67 116.91 729.01 122.97 739.82 200.81 769.13 200.81 780.55 116.91 752.74 116.91"/></g></g></svg>