<svg xmlns="http://www.w3.org/2000/svg" viewBox="0 0 174.99 38.39"><defs><style>.cls-1{fill:#1c1e21;}</style></defs><title>Asset 17</title><g id="Layer_2" data-name="Layer 2"><g id="Layer_1-2" data-name="Layer 1"><path class="cls-1" d="M2.33,33.82.67,31.43H2.25l.89,1.32L4,31.43H5.55L3.89,33.79l1.87,2.69H4.17l-1-1.59L2.06,36.48H.51Z"/><path class="cls-1" d="M12.33,33.49H7.4v-1h4.93Zm0,2.09H7.4v-1h4.93Z"/><path class="cls-1" d="M16.11,30.65H14.72V29.51h1.39Zm-1.39.78h1.39v5H14.72Z"/><path class="cls-1" d="M17,31.43h1.31v.7h0a1.83,1.83,0,0,1,1.55-.84c1.47,0,1.84.83,1.84,2.08v3.11H20.36V33.63c0-.83-.25-1.24-.89-1.24s-1.08.42-1.08,1.44v2.65H17Z"/><path class="cls-1" d="M26.21,35.83h0a1.69,1.69,0,0,1-1.54.79c-1.52,0-2.26-1.31-2.26-2.71a2.34,2.34,0,0,1,2.23-2.62,1.79,1.79,0,0,1,1.51.75h0V29.51h1.39v7H26.21ZM25,32.34c-.91,0-1.23.78-1.23,1.61s.37,1.62,1.23,1.62,1.19-.8,1.19-1.63S25.89,32.34,25,32.34Z"/><path class="cls-1" d="M29.52,34.29c0,.88.47,1.28,1.24,1.28a1.15,1.15,0,0,0,1.09-.65h1.22a2.27,2.27,0,0,1-2.36,1.7A2.47,2.47,0,0,1,28.13,34a2.54,2.54,0,0,1,2.58-2.67c1.72,0,2.55,1.45,2.45,3Zm2.25-.88c-.12-.7-.43-1.07-1.1-1.07a1.09,1.09,0,0,0-1.15,1.07Z"/><path class="cls-1" d="M33.79,31.43H35.1v.64h0a1.71,1.71,0,0,1,1.51-.78c1.58,0,2.29,1.28,2.29,2.72a2.33,2.33,0,0,1-2.21,2.61,1.8,1.8,0,0,1-1.52-.77h0v2.41H33.79ZM37.54,34c0-.8-.33-1.63-1.22-1.63s-1.2.81-1.2,1.63.32,1.6,1.21,1.6S37.54,34.79,37.54,34Z"/><path class="cls-1" d="M40.7,34.29c0,.88.47,1.28,1.24,1.28A1.12,1.12,0,0,0,43,34.92h1.23a2.29,2.29,0,0,1-2.37,1.7A2.47,2.47,0,0,1,39.31,34a2.54,2.54,0,0,1,2.58-2.67c1.72,0,2.55,1.45,2.45,3ZM43,33.41c-.13-.7-.43-1.07-1.11-1.07a1.09,1.09,0,0,0-1.15,1.07Z"/><path class="cls-1" d="M45,31.43h1.32v.7h0a1.8,1.8,0,0,1,1.54-.84c1.47,0,1.84.83,1.84,2.08v3.11H48.32V33.63c0-.83-.25-1.24-.89-1.24s-1.08.42-1.08,1.44v2.65H45Z"/><path class="cls-1" d="M54.17,35.83h0a1.67,1.67,0,0,1-1.53.79c-1.53,0-2.27-1.31-2.27-2.71a2.34,2.34,0,0,1,2.24-2.62,1.78,1.78,0,0,1,1.5.75h0V29.51h1.39v7H54.17ZM53,32.34c-.91,0-1.22.78-1.22,1.61s.36,1.62,1.22,1.62,1.19-.8,1.19-1.63S53.86,32.34,53,32.34Z"/><path class="cls-1" d="M57.48,34.29c0,.88.47,1.28,1.24,1.28a1.12,1.12,0,0,0,1.09-.65H61a2.27,2.27,0,0,1-2.36,1.7A2.47,2.47,0,0,1,56.09,34a2.54,2.54,0,0,1,2.58-2.67c1.72,0,2.55,1.45,2.45,3Zm2.25-.88c-.12-.7-.42-1.07-1.1-1.07a1.09,1.09,0,0,0-1.15,1.07Z"/><path class="cls-1" d="M61.75,31.43h1.32v.7h0a1.83,1.83,0,0,1,1.55-.84c1.47,0,1.84.83,1.84,2.08v3.11H65.1V33.63c0-.83-.25-1.24-.89-1.24s-1.08.42-1.08,1.44v2.65H61.75Z"/><path class="cls-1" d="M69.1,31.43h1v.93h-1v2.5c0,.47.12.58.59.58a2.15,2.15,0,0,0,.43,0v1.09a5.26,5.26,0,0,1-.81,0c-.85,0-1.6-.2-1.6-1.2v-3h-.84v-.93h.84V29.92H69.1Z"/><path class="cls-1" d="M70.62,29.51H72v7H70.62Z"/><path class="cls-1" d="M75.4,37.11a1.59,1.59,0,0,1-1.74,1.15,8.24,8.24,0,0,1-.85,0V37.07c.27,0,.54,0,.81,0a.64.64,0,0,0,.48-.94l-1.78-4.74h1.49L75,34.89h0l1.1-3.46h1.44Z"/><path class="cls-1" d="M82.75,31.29A2.48,2.48,0,0,1,85.37,34a2.61,2.61,0,1,1-5.22,0A2.48,2.48,0,0,1,82.75,31.29Zm0,4.28c1,0,1.24-.81,1.24-1.61s-.29-1.62-1.24-1.62-1.22.81-1.22,1.62S81.82,35.57,82.75,35.57Z"/><path class="cls-1" d="M85.88,31.43H87.2v.94h0a1.78,1.78,0,0,1,1.61-1.08,1,1,0,0,1,.3.05v1.29a2.41,2.41,0,0,0-.5-.05c-1,0-1.36.73-1.36,1.62v2.28H85.88Z"/><path class="cls-1" d="M94.34,36.16c0,.83-.3,2.23-2.62,2.23-1,0-2.16-.47-2.23-1.62h1.38a1,1,0,0,0,1,.7c.77,0,1.12-.53,1.11-1.25v-.67h0a1.7,1.7,0,0,1-1.51.78c-1.52,0-2.16-1.15-2.16-2.54a2.25,2.25,0,0,1,2.17-2.5,1.58,1.58,0,0,1,1.5.81h0v-.67h1.32ZM93,33.89c0-.82-.28-1.55-1.18-1.55s-1.13.68-1.13,1.43.28,1.52,1.13,1.52A1.25,1.25,0,0,0,93,33.89Z"/><path class="cls-1" d="M95,33c.08-1.3,1.24-1.69,2.38-1.69s2.21.23,2.21,1.44v2.63a2.56,2.56,0,0,0,.18,1.12H98.36a2,2,0,0,1-.1-.49,2.31,2.31,0,0,1-1.7.63,1.5,1.5,0,0,1-1.71-1.52c0-1.14.85-1.41,1.71-1.53s1.65-.1,1.65-.67-.41-.68-.9-.68-.87.22-.92.76Zm3.21,1a2.94,2.94,0,0,1-1.16.29c-.43.09-.82.24-.82.74s.4.65.85.65a1,1,0,0,0,1.13-1.16Z"/><path class="cls-1" d="M100.47,31.43h1.32v.7h0a1.82,1.82,0,0,1,1.54-.84c1.48,0,1.85.83,1.85,2.08v3.11h-1.39V33.63c0-.83-.24-1.24-.89-1.24s-1.07.42-1.07,1.44v2.65h-1.39Z"/><path class="cls-1" d="M107.3,30.65h-1.39V29.51h1.39Zm-1.39.78h1.39v5h-1.39Z"/><path class="cls-1" d="M107.88,35.43l2.63-3h-2.43v-1h4.26v1l-2.63,3h2.81v1h-4.64Z"/><path class="cls-1" d="M114.21,34.29c0,.88.47,1.28,1.24,1.28a1.15,1.15,0,0,0,1.1-.65h1.22a2.27,2.27,0,0,1-2.37,1.7A2.46,2.46,0,0,1,112.83,34a2.53,2.53,0,0,1,2.57-2.67c1.72,0,2.55,1.45,2.46,3Zm2.26-.88c-.13-.7-.43-1.07-1.1-1.07a1.1,1.1,0,0,0-1.16,1.07Z"/><path class="cls-1" d="M122.08,35.83h0a1.69,1.69,0,0,1-1.54.79c-1.52,0-2.26-1.31-2.26-2.71a2.34,2.34,0,0,1,2.23-2.62A1.8,1.8,0,0,1,122,32h0V29.51h1.38v7h-1.32Zm-1.21-3.49c-.9,0-1.22.78-1.22,1.61s.36,1.62,1.22,1.62,1.2-.8,1.2-1.63S121.77,32.34,120.87,32.34Z"/><path class="cls-1" d="M128.46,30.79h-2.09V29.51h5.72v1.28H130v5.69h-1.54Z"/><path class="cls-1" d="M132.69,29.51h5.22v1.28h-3.69v1.5h3.38v1.19h-3.38v1.71H138v1.29h-5.29Z"/><path class="cls-1" d="M138.63,29.51h3c1.8,0,3.16,1.13,3.16,3.44,0,2-1,3.53-3.16,3.53h-3Zm1.53,5.68h1.37c.89,0,1.74-.55,1.74-2.09s-.49-2.31-2-2.31h-1.1Z"/><path class="cls-1" d="M149.19,34.29c0,.88.47,1.28,1.24,1.28a1.15,1.15,0,0,0,1.09-.65h1.22a2.27,2.27,0,0,1-2.36,1.7A2.47,2.47,0,0,1,147.8,34a2.54,2.54,0,0,1,2.58-2.67c1.72,0,2.55,1.45,2.45,3Zm2.25-.88c-.12-.7-.43-1.07-1.1-1.07a1.09,1.09,0,0,0-1.15,1.07Z"/><path class="cls-1" d="M156.05,36.48h-1.54l-1.73-5h1.46l1.06,3.45h0l1.07-3.45h1.37Z"/><path class="cls-1" d="M159.09,34.29c0,.88.47,1.28,1.24,1.28a1.12,1.12,0,0,0,1.09-.65h1.23a2.29,2.29,0,0,1-2.37,1.7A2.47,2.47,0,0,1,157.7,34a2.54,2.54,0,0,1,2.58-2.67c1.72,0,2.55,1.45,2.45,3Zm2.26-.88c-.13-.7-.43-1.07-1.11-1.07a1.09,1.09,0,0,0-1.15,1.07Z"/><path class="cls-1" d="M163.36,31.43h1.32v.7h0a1.8,1.8,0,0,1,1.54-.84c1.47,0,1.85.83,1.85,2.08v3.11h-1.39V33.63c0-.83-.25-1.24-.89-1.24s-1.07.42-1.07,1.44v2.65h-1.39Z"/><path class="cls-1" d="M170.71,31.43h1v.93h-1v2.5c0,.47.12.58.59.58a2.09,2.09,0,0,0,.43,0v1.09a5.26,5.26,0,0,1-.81,0c-.85,0-1.59-.2-1.59-1.2v-3h-.84v-.93h.84V29.92h1.38Z"/><path class="cls-1" d="M6.51,6.43H0V.48H20.16V6.43h-6.5V23.7H6.51Z"/><path class="cls-1" d="M21.27.48H40.85V6.43H28.43v2.9H40.85v5.53H28.43v2.89H40.85V23.7H21.27Z"/><path class="cls-1" d="M42.05.48H53.79c7.74,0,10.47,5.73,10.47,11.58,0,7.12-3.77,11.64-11.87,11.64H42.05ZM49.2,17.75H52c4.46,0,5.11-3.61,5.11-5.79,0-1.46-.46-5.53-5.63-5.53H49.2Z"/><path class="cls-1" d="M74.54,14.75l-2.18-3.62-2.13,3.62H65l5-7.31-4.79-7h5.24L72.36,3.9l2-3.46H79.6l-4.79,7,5,7.31Z"/><path class="cls-1" d="M87,16.24a6.24,6.24,0,0,0,.93,3.2q1.56,2.29,5.49,2.3a9.57,9.57,0,0,0,3.21-.51q2.81-1,2.8-3.49a3,3,0,0,0-1.18-2.69,11.71,11.71,0,0,0-3.74-1.37L91.35,13A14,14,0,0,1,87,11.44a4.82,4.82,0,0,1-2.2-4.33A6.68,6.68,0,0,1,87,2a8.68,8.68,0,0,1,6.11-2,10.61,10.61,0,0,1,6.18,1.76q2.54,1.76,2.54,5.61H98.84a5.85,5.85,0,0,0-1-2.85c-1-1.21-2.58-1.81-4.86-1.81a5.68,5.68,0,0,0-4,1.16,3.68,3.68,0,0,0-1.21,2.71,2.65,2.65,0,0,0,1.42,2.49,21.67,21.67,0,0,0,4.2,1.26l3.24.74a9.76,9.76,0,0,1,3.62,1.46,5.49,5.49,0,0,1,2.21,4.71q0,3.84-2.8,5.49a12.5,12.5,0,0,1-6.49,1.65,9.69,9.69,0,0,1-6.75-2.2A7.41,7.41,0,0,1,84,16.24Z"/><path class="cls-1" d="M115.08,13.49a1.54,1.54,0,0,0,1.31-.82,2.57,2.57,0,0,0,.19-1.09,2.32,2.32,0,0,0-1-2.1,5.59,5.59,0,0,0-3-.65,3.75,3.75,0,0,0-3.15,1.2,3.92,3.92,0,0,0-.68,2h-2.64c.05-2.07.72-3.52,2-4.33a8.24,8.24,0,0,1,4.51-1.22,9.23,9.23,0,0,1,4.83,1.13,3.85,3.85,0,0,1,1.84,3.53v9.71a1.27,1.27,0,0,0,.18.71c.12.18.38.26.77.26a3.25,3.25,0,0,0,.42,0c.16,0,.33,0,.51-.07v2.09a7.52,7.52,0,0,1-1,.24,7.63,7.63,0,0,1-1,.05,2.33,2.33,0,0,1-2.12-1,4.15,4.15,0,0,1-.49-1.56,7.25,7.25,0,0,1-2.49,2,7.75,7.75,0,0,1-3.57.83,5.31,5.31,0,0,1-3.83-1.42,4.75,4.75,0,0,1-1.49-3.57,4.6,4.6,0,0,1,1.46-3.63,7,7,0,0,1,3.84-1.59Zm-6,7.67a3.3,3.3,0,0,0,2.12.7,6.51,6.51,0,0,0,2.9-.69,3.9,3.9,0,0,0,2.36-3.76V15.13a5,5,0,0,1-1.34.55,11.86,11.86,0,0,1-1.6.31l-1.72.22a6.43,6.43,0,0,0-2.31.65,2.5,2.5,0,0,0-1.31,2.36A2.35,2.35,0,0,0,109.12,21.16Z"/><path class="cls-1" d="M124,6.85h2.69V9.24a7.58,7.58,0,0,1,2.53-2.13,6.75,6.75,0,0,1,3-.64c2.39,0,4,.83,4.84,2.5a8.78,8.78,0,0,1,.7,3.92V23.71h-2.88V13.08a5.82,5.82,0,0,0-.46-2.49A2.76,2.76,0,0,0,131.64,9a5.8,5.8,0,0,0-1.65.2,4.28,4.28,0,0,0-2.05,1.39,4.2,4.2,0,0,0-.92,1.72,11.77,11.77,0,0,0-.21,2.54v8.84H124Z"/><path class="cls-1" d="M150.94,13.49a1.54,1.54,0,0,0,1.31-.82,2.59,2.59,0,0,0,.18-1.09,2.3,2.3,0,0,0-1-2.1,5.56,5.56,0,0,0-3-.65A3.75,3.75,0,0,0,145.3,10a3.92,3.92,0,0,0-.67,2H142c.06-2.07.73-3.52,2-4.33a8.21,8.21,0,0,1,4.51-1.22,9.23,9.23,0,0,1,4.83,1.13,3.85,3.85,0,0,1,1.84,3.53v9.71a1.27,1.27,0,0,0,.18.71c.12.18.38.26.76.26a3.32,3.32,0,0,0,.43,0,5,5,0,0,0,.5-.07v2.09a7.12,7.12,0,0,1-1,.24,7.75,7.75,0,0,1-.95.05A2.33,2.33,0,0,1,153,23a4,4,0,0,1-.49-1.56,7.25,7.25,0,0,1-2.49,2,7.75,7.75,0,0,1-3.57.83,5.33,5.33,0,0,1-3.84-1.42,4.74,4.74,0,0,1-1.48-3.57,4.6,4.6,0,0,1,1.46-3.63,7,7,0,0,1,3.84-1.59Zm-6,7.67a3.35,3.35,0,0,0,2.13.7,6.51,6.51,0,0,0,2.9-.69,3.9,3.9,0,0,0,2.36-3.76V15.13a5.1,5.1,0,0,1-1.34.55,12,12,0,0,1-1.61.31l-1.71.22a6.56,6.56,0,0,0-2.32.65,2.51,2.51,0,0,0-1.3,2.36A2.37,2.37,0,0,0,145,21.16Z"/><path class="cls-1" d="M168.87,13.49a1.53,1.53,0,0,0,1.3-.82,2.42,2.42,0,0,0,.19-1.09,2.3,2.3,0,0,0-1-2.1,5.59,5.59,0,0,0-3-.65,3.75,3.75,0,0,0-3.15,1.2,3.92,3.92,0,0,0-.67,2h-2.65c.05-2.07.73-3.52,2-4.33a8.26,8.26,0,0,1,4.51-1.22,9.25,9.25,0,0,1,4.84,1.13,3.87,3.87,0,0,1,1.84,3.53v9.71a1.27,1.27,0,0,0,.18.71c.12.18.37.26.76.26a3.32,3.32,0,0,0,.43,0c.15,0,.32,0,.5-.07v2.09a7.18,7.18,0,0,1-1,.24,7.45,7.45,0,0,1-.94.05,2.35,2.35,0,0,1-2.13-1,4,4,0,0,1-.48-1.56,7.25,7.25,0,0,1-2.49,2,7.75,7.75,0,0,1-3.57.83,5.33,5.33,0,0,1-3.84-1.42,4.74,4.74,0,0,1-1.48-3.57,4.57,4.57,0,0,1,1.46-3.63,7,7,0,0,1,3.84-1.59Zm-6,7.67a3.35,3.35,0,0,0,2.13.7,6.46,6.46,0,0,0,2.89-.69,3.88,3.88,0,0,0,2.36-3.76V15.13a4.89,4.89,0,0,1-1.33.55,12,12,0,0,1-1.61.31l-1.71.22a6.56,6.56,0,0,0-2.32.65,2.51,2.51,0,0,0-1.3,2.36A2.34,2.34,0,0,0,162.9,21.16Z"/></g></g></svg>