<svg xmlns="http://www.w3.org/2000/svg" viewBox="0 0 556.93 530.43"><defs><style>.cls-1{fill:#fff;}.cls-2{fill:#f1ff39;}</style></defs><title>Asset 13</title><g id="Layer_2" data-name="Layer 2"><g id="Layer_1-2" data-name="Layer 1"><path class="cls-1" d="M415.65,148.16c6-5.07,14.43-6.64,22.27-5.82s15.29,3.78,22.5,7q14.58,6.4,28.57,14l-1.41-2.87a60.71,60.71,0,0,0-17.4-29.26c-2.3-2.14-4.81-4.14-6.43-6.83s-2.21-5.82-2.91-8.86C454,86,435,60.1,410.93,41.76s-53.11-29.5-82.76-35.71A286.4,286.4,0,0,0,212.26,5.8l1.07.7a34.42,34.42,0,0,0-14,32.54c1.29,8.66,5.87,17.79,2,25.65-3.51,7.18-12.51,9.75-17.71,15.82-4.89,5.71-5.82,13.74-6.16,21.26-1.82,39.68,6.87,80,26,114.8s37.28,65.39,84.38,81.52c9.42,3.23,21.89,8.79,31.12,5.05,6.77-2.73,8.93-9.6,14.2-14.64,19.5-18.65,48.3-22.4,74.38-29.32,4.39-1.17,8.94-2.55,12.22-5.7s4.8-8.6,2.19-12.33c-5.76-8.25-21.05,1.13-28.26-5.9-4.18-4.08-2.69-11.31.77-16s8.46-8.18,11.56-13.14,3.41-12.6-1.57-15.66c-1.48-.9-3.24-1.28-4.66-2.28-3.66-2.57-3.56-8.27-1.34-12.16s6-6.63,9-10a32.42,32.42,0,0,0,8.14-18.79Z"/><path class="cls-1" d="M89.81,196.52a84.36,84.36,0,0,1-5.6,38.5c-7-9.27-8.34-21.91-15.22-31.31-11-15.07-36.5-16.22-48.85-2.19-9.28,10.54-10.43,26.34-6.57,39.84.7,2.44,1.7,5,3.86,6.37,7.57,4.68,15.72-10.74,24-7.49,3.71,1.45,5.08,6.12,4.7,10.09s-2,7.77-2.13,11.75c-.43,10.7,11.88,19.73,21.95,16.12,3.15-1.13,6.42-3.25,9.56-2.09s4.36,4.93,7.18,6.61c5.4,3.19,12.08-4.2,10.59-10.29s-7.47-9.87-13.16-12.49c-1.48-22,16-24.51,30.49-24.4L103.81,258c-1.88,6.19-3.78,12.49-3.85,19-.09,7.75,2.45,15.48,1.38,23.17-2.32,16.71-21.86,26.84-38.5,24s-33.36-10.88-43.67-24.24C6.59,283.6.24,259.9,0,239.32s8.51-45.16,27.31-53.51c18.41-8.17,43.19-4.89,60.35,8.62Z"/><path class="cls-1" d="M425.94,158.8a41,41,0,0,1-17.28,26.91c-3.09,2.09-6.53,3.79-9,6.58-6.78,7.65-3.58,19.87,2,28.4a146.6,146.6,0,0,1,41.73-10.33c10.45-1,25.34-2.57,32.83,4.78,5.3,5.2,4.27,15.21,3.59,22.6s-3.89,14.35-8,20.54c-2.44,3.67-4.56,9.82-.44,11.39l16.48-38.43c2-4.61,4-9.37,4.16-14.39.28-8.84-6.32-14.15-12.54-20.45-7.37-7.45-12.95-7.14-26.89-17.11-8.94-6.39-18.95-10.83-26.52-18.79Z"/><path class="cls-2" d="M469.44,266.34c-4.53-4.74-13.17-6.28-17.34-.16-2.93,4.29-.9,8.95,3.22,11.34,1.23.73,1.11-4.2.35-5-5.38-5.52-7.87-12.42-12.61-18.35a51.68,51.68,0,0,0-17.81-14.42c-6.89-3.27-12.75-2.89-20.17-2.45-4.05.24-8.42.48-11.05-3.21-2.21-3.08-1.29-5.24.4-8.28a58.27,58.27,0,0,1,4.26-6.36l-2.56-1.91c.91,4,3.64,3.87,5.94,6.6l-1.1-2.38.13.51c.11.44.63,2.8,1.56,2.54,10.55-2.86,21.4-4.63,32.08-6.93s24.86-4.23,35,.74c3.83,1.87,8.92,5.79,8.94,10.43a35.32,35.32,0,0,1-3.11,13.64c-2,4.31-4.89,8.15-6.64,12.59a30.48,30.48,0,0,0-1.68,14.11c.13,1.53.7,4.94,2.79,4.29,1.91-.6,1.47-6.49,1.34-7.71-.23-2.16,2.26-5.5,3.24-7.33,1.25-2.34,2.51-4.66,3.54-7.11,2-4.84,2.79-10,3.53-15.15,1.38-9.81.65-19.67-7.63-26.36-9.39-7.58-24.21-6.66-35.29-4.35-12.21,2.54-24.23,6-36.4,8.73L404,217c-.83-3.61-3.63-4.43-5.84-7.05l1.16,2.51-.12-.5c-.3-1.22-1.2-3.87-2.56-1.92-5.75,8.21-10.36,19.21-5.73,29,4.71,10,13.68,5.45,22.1,4.37,10.07-1.29,19.34,5.11,26.16,11.9s9.2,15.92,16.19,22.24l.35-5c-2.5-1.22-3.85-2-1.1-4.43a9.1,9.1,0,0,1,4.89-2.24,11.76,11.76,0,0,1,9.79,3.19C469.64,269.42,470,266.89,469.44,266.34Z"/><path class="cls-2" d="M487.43,320.42C492.57,349,475.76,377,474.05,406c-1.12,18.9,3.44,40.51-9,54.74a9.86,9.86,0,0,1-4.36,3.21c-3.87,1.2-7.93-1.83-9.71-5.47s-2-7.81-3-11.73c-4.35-17-21.8-26.59-37.67-34-58.52-27.28-116-43.92-172.85-74.56-10.92-5.88-24.79-19.47-32-29.52-4.26-5.9-7-12.74-9.55-19.53-18.32-47.94-26.53-98.68-38.67-148.54l0-2c-10.14-9.7-26.64-5.63-39.79-.72s-29.24,9.64-40.05.7c-8.33-6.89-9.57-19.74-5.67-29.83s11.84-18,19.78-25.35C126.8,50.6,167.26,22.26,212.89,6.45l.29,2C202.61,19.39,198.71,30.12,204.8,44c1.81,4.16,5.15,14.85,5.55,19.37,1,11.07-10.76,18.37-17.2,27.42-7.85,11-7.93,25.65-6.81,39.13,2.71,32.49,10.77,64.82,26.36,93.45s39,53.43,68.13,68.06c15.35,7.72,26.73,16.07,42.11,8.41,6-3,18.61-17.11,24.45-20.37,24.16-13.48,46.85-16.7,75.56-26.24,4.63-1.54,10.12-.31,14.11,2.31a7.92,7.92,0,0,1,3.44,8.74c-1.59,5.48-8.08,4.51-12.94,6.05-27.54,8.71-39.77,12.79-71.34,26.54a1.49,1.49,0,0,0-.49.34h0a1.56,1.56,0,0,0-.44,1.42c1.73,9,3.86,19.24,7.17,27.69,1,2.61,2.66,3.55,5.3,4.49,1.73.61,10.42-2.89,12.22-3.26,9.1-1.92,12.9-5.42,22-7.34,2.88-.6,11,1,13.85,1.63,3.09.68,9.74,7,12.22,9,6.69,5.29,4.32,4.89,11,10.18l-.81-.81c5-.55,25,11,26.48,15.88s1.66,6.06,1.07,11.1c-1.74,14.64-3.93,28.45,1.76,40.25.05.11.12.1.16,0,8.12-23,7.31-43.89,8.63-68.3.69-12.69,3-29.11-.62-41.29-3.06-10.3-7.34-17.93-10.13-27.44,8.65,3.15,12.84,12.8,15.44,21.63a194.3,194.3,0,0,1,6.73,33.85"/><path class="cls-2" d="M76.65,291.56c0-3.25-4.29-4-7.46-4.68-11-2.5-10.37-.9-14.37.44-2.48.82-5,1.6-7.53,2.18A23.79,23.79,0,0,1,28.72,286c-2.13-1.47-5.25-3.23-6.9-1.24a3.79,3.79,0,0,0-.32,3.62c1.7,5.23,7.42,7.85,12.64,9.55,13.63,4.43,29.53,6.39,41.5-1.48,1.27-.83,2.57-1.91,2.84-3.4s-1.15-3.27-2.58-2.74Z"/><path class="cls-2" d="M90.46,350c5,19.76,10.85,38.73,11.82,59.08,2,41.48-15.41,87.05-44.15,117-3.48,3.62-10.49,6.58-12.49,2,25.47-43.29,35.8-94.19,34.51-144.39-.69-26.77-.88-27.76,10.12-33.42Z"/><path class="cls-2" d="M263.89,104.93a9.15,9.15,0,0,0-3.29,4.16,4.2,4.2,0,0,0,1.44,4.79c2.18,1.33,4.92-.28,7-1.78,20-14.35,46.37-22,69.51-13.76l.55-.31a39.17,39.17,0,0,1,10.47-3c4.37-.41,8.73.64,13,1.8,7.24,2,14.46,4.32,21,8.07s12.31,9,15.63,15.78c.86,1.74,2.57,3.93,4.21,2.91l-1.24-.12c3.82-3.62,3-10.26-.28-14.35s-8.36-6.27-13.22-8.29l-44.41-18.5c-10.26-4.27-21.33-8.63-32.19-6.27-5.65,1.22-10.74,4.19-15.7,7.13q-17.54,10.41-34.77,21.31"/><path d="M417.09,146.67c-6-1.24-12.15,1.22-17.27,4.56s-9.62,7.6-14.93,10.63c-2.06,1.18-5.27,1.83-6.28-.31,5.24-6,13.34-8.91,18.25-15.14,6.68-8.49,5.55-21.33-.47-30.31s-15.92-14.63-26.06-18.36-22-5.81-32-1.27c-.35,4.16,7.31,6.21,6,10.19-1,3.09-5.47,2.1-8.72,2a19.06,19.06,0,0,0-6.62,1.41q-25.33,8.66-49.77,19.66c-5.9,2.65-12.63,6.65-12.86,13.12a5,5,0,0,0,1,3.43c1.58,1.77,4.41,1.38,6.7.77a114.8,114.8,0,0,0,36.45-17c4.32-3,8.73-6.51,14-7s11.35,3.52,10.62,8.75a6.59,6.59,0,0,1-3.57,4.9c.25,1.62,2.29,2.3,3.92,2.07s3.18-1,4.82-.89a7.65,7.65,0,0,1,4,1.82c5,3.82,8.21,9.43,11.65,14.69s7.51,10.53,13.32,12.94a21.3,21.3,0,0,0,9.36,1.92c3.54-.25,5-2.08,7.28-4.43,6.08-6.34,14-11.46,21.79-15.42,3-1.53,6.4-2.93,9.69-2.14Z"/><path class="cls-1" d="M451.67,225.8c-5.27-1.48-10.62-3-16.09-3.09s-11.2,1.28-15.27,4.94A6.46,6.46,0,0,0,418.1,231a5.23,5.23,0,0,0,2.5,5.13,12.29,12.29,0,0,0,5.75,1.65,28.45,28.45,0,0,0,14-1.87,17.51,17.51,0,0,0,9.69-10Z"/><path class="cls-1" d="M469.72,233.36c-2.9,3.27-5.83,6.58-7.73,10.47s-2.7,8.51-1.19,12.76a5.53,5.53,0,0,0,1.87,2.78,4.62,4.62,0,0,0,4.82,0,9.24,9.24,0,0,0,3.2-3.54,21.05,21.05,0,0,0,3.17-10.76,14.57,14.57,0,0,0-4.56-10.54Z"/><path d="M431.57,281.87c-1.85-2.58,2.91-2.73,3.88-2.65s1.88.26,2.81.39l7,1c.32.05.36-1.14,0-1.19l-8-1.15c-1.58-.22-3.59-.73-5.06.16a3.1,3.1,0,0,0-.84,4.48c.27.37.43-.76.24-1Z"/><path class="cls-2" d="M385.83,300.7c30.66,4.51,42.08,29.67,71.45,39.58,1.14.38,2.52.7,3.45-.07,1.37-1.13.49-3.32-.46-4.81-2.7-4.2-3.3-9.32-6-13.52-2.88-4.48-6.85-12.5-10.59-16.29-7.95-8.06-20.22-7.85-31.46-9.14s-17.72.91-28.9,2.68Z"/><path class="cls-1" d="M414.75,298.66c5.53-3.21,13.4,1.51,18.3,5.61s8.18,9.46,15.9,10.18a10.16,10.16,0,0,1,4,.88c1.62.9,2.4,2.77,3.07,4.5l7.53,19.58c1.05,2.73,2.1,7.73,6.08,4.8,4.17-15,3.35-24-.06-40-1.52-7.16-2.87-16.26-10-17.74-2.18-.45-4.52-.08-6.58-.93-2.73-1.12-4.75-5.61-6.86-7.68-5.82-5.7-12.43-4.32-20.37-2.44-11.48,2.72-25.3,7.11-36.78,9.83-7.7,1.82-15.49,3.68-22.47,7.41-1.21.65-2.5,1.48-2.89,2.8-1,3.4,2.44,6.18,5.92,6.85,14.62,2.81,30.71-3.37,45.23-4.05Z"/><path class="cls-2" d="M556.72,339.58c.29,0,.27-1,0-1s-.27,1,0,1Z"/><path class="cls-2" d="M468.94,268.11c-4.22-2.52-5.71-4.08-16-5.18-5.78-.62-9.36-11.34-15-12.75s-10.38-10.14-15.48-7.33c-2.6,1.43-6.58,17.38-6.16,20.32.34,2.42,2.59,4.18,4.94,4.84s4.84.5,7.28.62c10.95.55,13.5,3.55,27.35,10.88,2.45,1.3,11.92,8.51,14.67,8.15s-1.6-4.23-1.65-7.08,2.21-7.54.83-10"/><path class="cls-1" d="M434.72,168.7c-1.3-4.27-10-14.65-11.33-18.92a4.67,4.67,0,0,0-1.58-2.73c-1.76-1.15-4,.42-5.46,1.92a141.43,141.43,0,0,0-18.46,23.48c-1.76,2.81-3.46,5.81-3.76,9.11s1.18,7,4.24,8.26c4.05,1.69,8.41-1.36,11.64-4.33,7.16-6.59,17.87-10.78,23.89-18.42"/></g></g></svg>