<svg xmlns="http://www.w3.org/2000/svg" viewBox="0 0 99.19 76.08"><defs><style>.cls-1{fill:none;stroke:#000;stroke-miterlimit:10;stroke-width:0.65px;}.cls-2{fill:#ff0;}</style></defs><title>Asset 22</title><g id="Layer_2" data-name="Layer 2"><g id="Layer_1-2" data-name="Layer 1"><path d="M11.34,44.17c.72.23,3.4,1.18,4,1.8a37.63,37.63,0,0,0,9.25,7.57c2.54,1.46,5.39,2.58,8,1.9,2.46-.63,4.33-2.72,6.37-4.36,2.68-2.16,6-3.62,9.34-3.19,4.17.52,7.92,3.77,12,5a12.09,12.09,0,0,0,10.13-1.51c1.44-1,2.74-2.27,4.39-2.7a3.7,3.7,0,0,1,3.7,1.2A33.94,33.94,0,0,1,53.75,75.16c-18.26,4.49-36.81-7.09-41.43-25.88l-1.64-4.45Z" transform="translate(-0.44 -0.05)"/><path d="M2.72,14.52s0-.16,0-.16,0,.16,0,.16Z" transform="translate(-0.44 -0.05)"/><path d="M1.45,13.07a5.58,5.58,0,0,0-1,3A7.88,7.88,0,0,0,1,19.92c1.14,2.33,4.17.75,5.69-.2,4.39-2.74,7.42-7,10-11.39a12.08,12.08,0,0,0,1.72-3.67,8,8,0,0,0,.1-2A3.31,3.31,0,0,0,18,.74l0,0-.14.09c-.31.19-.11,1.47,0,1.76a5.79,5.79,0,0,0,.23.74c.12.36.14.17,0-.57,0,0-.25.81-.29.89a14,14,0,0,1-.8,1.6c-.61,1.1-1.26,2.18-1.94,3.23a34.33,34.33,0,0,1-4.44,5.68A16.44,16.44,0,0,1,4.7,18.18a3.89,3.89,0,0,1-2.88.15C.11,17.5,1,14.9,1.5,13.58a2.17,2.17,0,0,0-.05-.51Z" transform="translate(-0.44 -0.05)"/><path d="M1.72,13.06A38.69,38.69,0,0,1,8.78,4.32c1.66-1.4,7.71-5.18,8.87-1.53.12.36.17-.36.18-.44a3,3,0,0,0-.12-1.2c-.64-1.65-3-1.09-4.22-.62a15,15,0,0,0-4.63,3c-3,2.62-5.08,6-7.15,9.43,0,0,0,.14,0,.15Z" transform="translate(-0.44 -0.05)"/><path d="M2.41,20.77a13.56,13.56,0,0,0,1.24.85l1.3.77,2.61,1.54.07-.05a3,3,0,0,0,.14-1.83c0-.2-.08-.52-.24-.64a1.16,1.16,0,0,0-.4-.16l-1.57-.57L4,20.13c-.27-.09-.53-.2-.79-.28a8.27,8.27,0,0,0-.83-.19,1.75,1.75,0,0,0,0,1.11Z" transform="translate(-0.44 -0.05)"/><path d="M17.93,1.85a13.88,13.88,0,0,0,1,1.72c.36.51.73,1,1.12,1.48a26.56,26.56,0,0,0,2.52,2.68s.1-.35.09-.29a4.21,4.21,0,0,0,0-.71,5.49,5.49,0,0,0-.05-.7c0-.09,0-.23-.11-.29A21.29,21.29,0,0,1,20,3.57C19.65,3.2,19.3,2.81,19,2.4s-.68-.73-1-1.1c0,0-.05.19-.05.2a.84.84,0,0,0,0,.35Z" transform="translate(-0.44 -0.05)"/><path d="M22.54,6.27a18,18,0,0,1-1.43,4.86,22.55,22.55,0,0,1-3.17,4.76,19.76,19.76,0,0,1-4.57,4,24.45,24.45,0,0,1-2.58,1.37A10.91,10.91,0,0,0,8.2,22.44c-.13.11-.12,1.23.06,1.25a3.35,3.35,0,0,0,1.56-.46l1.39-.62A26.89,26.89,0,0,0,14,21.07a21.17,21.17,0,0,0,4.55-3.49,15.69,15.69,0,0,0,4.08-11s-.06-.43-.08-.28Z" transform="translate(-0.44 -0.05)"/><path d="M19.48,3.69A19.9,19.9,0,0,0,22.3,3.3,5.92,5.92,0,0,1,25,3.8a4.37,4.37,0,0,1,2.07,1.89c.55,1.07.09,2.17-.25,3.23a34.34,34.34,0,0,1-4.74,9.4,23.58,23.58,0,0,1-7.84,7.39A12.23,12.23,0,0,1,9,27.57,4,4,0,0,1,6.64,27c-1.33-.83-1.15-2.2-.56-3.47a2.4,2.4,0,0,0,.08-1.13c0-.08-.14-.78-.21-.64-1.14,2.39-1.55,6.69,1.68,7.61,2,.58,4-.69,5.66-1.72a45.63,45.63,0,0,0,4.19-3.13,27.76,27.76,0,0,0,7.2-8c1.65-3,3.13-6.56,3-10-.05-1.75-.5-3.36-2.12-4.28a5.41,5.41,0,0,0-6.13.69c-.06.06-.06.74,0,.75Z" transform="translate(-0.44 -0.05)"/><path d="M7.64,29.19a8.74,8.74,0,0,0,2.64,1.62,7,7,0,0,0,1.5.37c.24,0,.49.05.74.06s.57.08.76-.09a.68.68,0,0,0,0-.54c-.18-.14-.44-.08-.67-.09s-.49,0-.74-.06a10.81,10.81,0,0,1-1.5-.32,7.77,7.77,0,0,1-2.7-1.34s-.08.33,0,.39Z" transform="translate(-0.44 -0.05)"/><path d="M27,4.45a4.76,4.76,0,0,0,.61.5,6.89,6.89,0,0,1,.7.62,9,9,0,0,1,1.07,1.32,9.47,9.47,0,0,1,.79,1.47A15.29,15.29,0,0,1,30.7,10c0,.15.09,0,.1-.08a2,2,0,0,0,0-.6,6.83,6.83,0,0,0-1.33-3.19A7.16,7.16,0,0,0,28.36,5a6.26,6.26,0,0,0-.59-.46A1.68,1.68,0,0,0,27,4.1s0,.32,0,.35Z" transform="translate(-0.44 -0.05)"/><path d="M12.47,30.76c2.21.91,4.73-1.45,6.37-2.69a41.2,41.2,0,0,0,5.93-5.35,30,30,0,0,0,4.33-6.37,18.46,18.46,0,0,0,2.27-6.77,6,6,0,0,0,0-1.34s-.12-.6-.19-.42a5.82,5.82,0,0,0-.27,1.44,14.08,14.08,0,0,1-.52,2.13,25.15,25.15,0,0,1-1.52,3.73,30.52,30.52,0,0,1-4.3,6.26,46.06,46.06,0,0,1-5.48,5.34c-1,.82-2,1.58-3,2.38s-2.19,1.69-3.56,1.35c0,0-.06.28,0,.31Z" transform="translate(-0.44 -0.05)"/><path d="M29.57,48a1,1,0,0,0-1.06.5,1.24,1.24,0,0,0-.09.38,2.84,2.84,0,0,0,0,.77,1.11,1.11,0,0,0,.27.65.89.89,0,0,0,1,.25.77.77,0,0,0,.34-.45,1.61,1.61,0,0,0,.05-.44,2.27,2.27,0,0,0,0-.58c-.08-.36-.34-.78-.77-.68,0,0,0,.1,0,.11a2.44,2.44,0,0,0,0,.27s0,.39.07.38a.59.59,0,0,1,.63.38.19.19,0,0,1,0,.08v0c0-.06,0,0,0,0a.55.55,0,0,1,0-.18,1.34,1.34,0,0,1,0-.2s0,0,0,0a.11.11,0,0,1,0,.06s0,0,0,0,0,0,0,0a.35.35,0,0,0-.05.08.66.66,0,0,1-.17.12.91.91,0,0,1-1.14-.41v0l0,0v0s0,0,0,0a1.77,1.77,0,0,1,0,.23v.07a.84.84,0,0,1,0-.12,1.43,1.43,0,0,1,1-.83c.06,0,.05-.5,0-.51Z" transform="translate(-0.44 -0.05)"/><path d="M26.76,49.82a.62.62,0,0,0-.6.47,1.28,1.28,0,0,0-.05.27,2.18,2.18,0,0,0,0,.51.73.73,0,0,0,.6.62.69.69,0,0,0,.41-.11.76.76,0,0,0,.31-.33,1.33,1.33,0,0,0,.09-.59.89.89,0,0,0-.47-.85s0,.1,0,.11,0,.1,0,.12a.75.75,0,0,1,.34.34.68.68,0,0,1,.07.2s0,.05,0,0,0,0,0,0h0s0,0,0,0h0v0a.62.62,0,0,1-.69.34l-.24,0a.65.65,0,0,1-.22-.11h0l-.1-.12a.3.3,0,0,1,0-.08s0,0,0,0,0-.06,0,0,0,.09,0,.07v.16c0-.06,0,0,0,0s0,0,0,0a.66.66,0,0,1,.05-.15.64.64,0,0,1,.53-.39s0-.22,0-.25a1.11,1.11,0,0,0,0-.17s0-.07,0-.07Z" transform="translate(-0.44 -0.05)"/><path d="M26.16,48.39v0a1.2,1.2,0,0,1,0,.2v.19a.49.49,0,0,1,0,.12v0s0,.07,0,0v0h0l.06-.12a.58.58,0,0,1,.1-.12l0,0a.57.57,0,0,1,.76,0h0a.75.75,0,0,1,.14.17h0s0-.07,0-.09a1.93,1.93,0,0,0,0-.24,1.69,1.69,0,0,0,0-.5l0,.29c0,.32,0,.39,0,.22v0s0-.09,0-.13a2.23,2.23,0,0,0-.05-.36.56.56,0,0,0-.13-.24.73.73,0,0,0-.39-.2.63.63,0,0,0-.64.52,2.42,2.42,0,0,0,0,.71,2.11,2.11,0,0,0,.1.5c0,.06.06,0,.06,0a1.27,1.27,0,0,0,0-.28,1.62,1.62,0,0,0-.06-.58Z" transform="translate(-0.44 -0.05)"/><path d="M65.27,57.06a1.33,1.33,0,0,0-1.42.83,1.52,1.52,0,0,0-.07.6,1.64,1.64,0,0,0,.09.58,1.29,1.29,0,0,0,.55.65,1.09,1.09,0,0,0,.43.14.39.39,0,0,0,.47-.45c0-.06,0-.2,0-.24s-.08,0-.15,0H65a1.27,1.27,0,0,1-.34,0,1.06,1.06,0,0,1-.58-.39,1.18,1.18,0,0,1-.16-.29s0,0,0,0,0,.08,0,.06,0,.08,0,.05,0-.12,0-.17a1.34,1.34,0,0,1,.51-.66,1.42,1.42,0,0,1,.84-.31s0-.33,0-.33Z" transform="translate(-0.44 -0.05)"/><path d="M63.05,55.28a.91.91,0,0,0-.8.25.74.74,0,0,0-.19.43,3.11,3.11,0,0,0,0,.61,2.53,2.53,0,0,0,.08.48.7.7,0,0,0,.65.53.48.48,0,0,0,.31-.19.91.91,0,0,0,.17-.39,2.58,2.58,0,0,0,0-.48,1.27,1.27,0,0,0-.05-.39A.23.23,0,0,0,63,56s0,.29,0,.32a.8.8,0,0,1,.13.19s0,0,0,0v0s0,.05,0,0a1.13,1.13,0,0,1,0-.26v0s0,0,0,0l0,0a.38.38,0,0,1-.09.12h0a.48.48,0,0,1-.29.1.56.56,0,0,1-.41-.13l0,0a.79.79,0,0,1-.18-.22s0,0,0-.05,0,0,0,0h0s0,0,0,0,0,0,0,.15a2.29,2.29,0,0,1,0,.37c0-.06,0,.06,0,0s0-.06,0,0l.06-.13a1.16,1.16,0,0,1,.2-.24h0a1.11,1.11,0,0,1,.63-.26c.06,0,0-.3,0-.34a1.06,1.06,0,0,0,0-.25s0-.09,0-.1Z" transform="translate(-0.44 -0.05)"/><path d="M25.32,34.67a.9.9,0,0,0-.82.15,1.05,1.05,0,0,0-.39.81,1.62,1.62,0,0,0,.29,1.19.69.69,0,0,0,.32.21.73.73,0,0,0,.36,0,1.17,1.17,0,0,0,.77-.53.35.35,0,0,0,0-.15.78.78,0,0,1-.6.06,2.42,2.42,0,0,1-.35-.12,1.28,1.28,0,0,1-.3-.17,1.16,1.16,0,0,1-.24-.2,1,1,0,0,1-.09-.13l0,0s0,0,0,0,0,0,0,0,0,0,0,0,0,.15,0,.22,0-.05,0,0v0s0,0,0-.06a.3.3,0,0,1,0-.1,1.25,1.25,0,0,1,.22-.37,1.06,1.06,0,0,1,.81-.38s.05-.34,0-.35Z" transform="translate(-0.44 -0.05)"/><path d="M26,35.15l-.4-.34-.2-.17s-.06-.06-.09-.07a.45.45,0,0,0-.11,0c-.05,0-.05.26-.05.28a1.41,1.41,0,0,0,0,.2v.06l0,.09.11.1a.25.25,0,0,0,.09,0l.2.07.4.15s0-.17,0-.17,0-.08,0-.12,0-.08,0-.09Z" transform="translate(-0.44 -0.05)"/><path d="M27.54,34.35a.71.71,0,0,0-.76.53,1.51,1.51,0,0,0-.06.35,2.72,2.72,0,0,0,0,.64.72.72,0,0,0,.29.5.75.75,0,0,0,.48.14.68.68,0,0,0,.26-.12A1.37,1.37,0,0,0,28,36.2a1.22,1.22,0,0,0,.32-1.12,1,1,0,0,0-.4-.54,1.22,1.22,0,0,0-.33-.14l-.17-.07a.42.42,0,0,0-.19,0s0,.15,0,.15h.13a.39.39,0,0,0,.15,0,.44.44,0,0,1,.25.06,1.13,1.13,0,0,1,.43.38.61.61,0,0,1,.1.55.48.48,0,0,1-.27.21.81.81,0,0,1-.41,0,1.58,1.58,0,0,1-.43,0,.6.6,0,0,1-.32-.27l0,0s0,0,0,0,0,0,0,0,0,.06,0,0,0,0,0,0,0,.09,0,0,0,.07,0,.06v0s0,.09,0,0,0,0,0,0a.06.06,0,0,0,0,0h0s0,0,0,0a.78.78,0,0,1,.7-.63c.05,0,0-.25,0-.28a.68.68,0,0,0,0-.2s0-.08,0-.08Z" transform="translate(-0.44 -0.05)"/><path d="M25.56,32.71s0,0,0-.05v0s0,0,0,0,0-.06,0,0h0s0,.07,0,0v.14s0,.07,0,0,0,0,0,0v0a.43.43,0,0,0,0,0s0,0,0,0v0l.05-.09a.64.64,0,0,1,.13-.15h0a.54.54,0,0,1,.34-.14.52.52,0,0,1,.34.12h0a.62.62,0,0,1,.14.14s0,0,0,.08a.08.08,0,0,1,0,0s0,0,0,0v0s0,.07,0,0c0,.07,0-.08,0,0,0-.12,0-.24,0-.35s0-.09,0-.06,0-.06,0,0v0l0,0a1.15,1.15,0,0,0-.06.17,1.48,1.48,0,0,0,0,.42.86.86,0,0,0,0,.16s0,.09,0,.11.1-.11.11-.14a2.2,2.2,0,0,0,0-.36c0-.13,0-.27,0-.4a1.1,1.1,0,0,0-.06-.26.62.62,0,0,0-.36-.4.48.48,0,0,0-.5.07.81.81,0,0,0-.3.5,2.25,2.25,0,0,0,0,.64,1,1,0,0,0,.11.44s0,0,0,0a.59.59,0,0,0,0-.14v-.19a1.13,1.13,0,0,0,0-.18Z" transform="translate(-0.44 -0.05)"/><path d="M69.82,39.39a.64.64,0,0,0-.66-.12.42.42,0,0,0-.25.22,1,1,0,0,0-.08.25,2.74,2.74,0,0,0,0,.64,1,1,0,0,0,.2.51.6.6,0,0,0,.34.2.53.53,0,0,0,.6-.33,1.57,1.57,0,0,0,.1-.68,1,1,0,0,0-.15-.6s-.06.2-.06.22a1.69,1.69,0,0,0,0,.23.37.37,0,0,0,0,.15s0-.13,0-.06a.14.14,0,0,0,0,.06s0,0,0,0l0,0s0,0,0,0h0v0s0,0,0,0v0s0,0,0,0V40s0-.08,0,0,0,0,0,0v0s0,.05,0,0,0,0,0,0h0s0,0,0,0a.76.76,0,0,1-.11.14v0a.1.1,0,0,1,0,0h0a.54.54,0,0,1-.66,0h0A.61.61,0,0,1,69,40l0,0s0,0,0,0v0a0,0,0,0,1,0,0s0,.06,0,0a1.15,1.15,0,0,1,0,.37.34.34,0,0,1,0,.1v-.05h0a.41.41,0,0,1,0-.09.85.85,0,0,1,.16-.17l0,0a.62.62,0,0,1,.68-.12s0-.1,0-.09a.86.86,0,0,0,0-.16,1.15,1.15,0,0,0,0-.19.58.58,0,0,0,0-.14Z" transform="translate(-0.44 -0.05)"/><path d="M67.89,38.41a1.55,1.55,0,0,1,.28-.39,1.57,1.57,0,0,1,.19-.18l.1-.07a.09.09,0,0,1,.05,0l0,0a.44.44,0,0,1,.16.1,2.14,2.14,0,0,1,.13.19c0,.07,0,.13.07.19a.15.15,0,0,1,0,.06s0,0,0,0v0c0,.07,0-.06,0,0,0-.12,0-.08,0,0V38s0,0,0,0,0,0,0,0,0,.05,0,.05a.13.13,0,0,0,0,.06s0,0,0,0,0,0,0,0a.8.8,0,0,1-.09.26s0,.09,0,.12v.16s0,.23,0,.22A.19.19,0,0,0,69,38.8a.43.43,0,0,0,.08-.27,3,3,0,0,0,0-.67.62.62,0,0,0-.07-.23.64.64,0,0,0-.1-.13l-.15-.09-.08,0-.1,0-.06,0-.06.06-.11.12a2.27,2.27,0,0,0-.4.62.33.33,0,0,0,0,.14s0,.1,0,.08Z" transform="translate(-0.44 -0.05)"/><path d="M66.5,42.25a2,2,0,0,0-1,.12,1.47,1.47,0,0,0-.71.66,2.73,2.73,0,0,0-.27,1.26,4.64,4.64,0,0,0,.21,1.61c.25.68,1,1.42,1.75,1.05a2,2,0,0,0,1-1.77,4.53,4.53,0,0,0-.13-1.68,1.73,1.73,0,0,0-.22-.5c-.08-.11-.2-.3-.35-.3s0,1,0,1.08a5.72,5.72,0,0,1,.41.67c0,.08.06.21.09.27s0,0,0,0v-.28c0-.08,0,0,0,0s0,0,0,0a.29.29,0,0,0,0,.09l0,.15A1.43,1.43,0,0,1,67,45a1.51,1.51,0,0,1-.6.52A1.24,1.24,0,0,1,65,44.85a2,2,0,0,1-.17-.32,1.21,1.21,0,0,1-.05-.18s0,0,0,0,0,.2,0,.28,0,.18,0,.07a1,1,0,0,0,0-.14,2,2,0,0,1,.18-.4A2.51,2.51,0,0,1,66.52,43c.09,0,.07-.68,0-.7Z" transform="translate(-0.44 -0.05)"/><path d="M40.08,15.8a6,6,0,0,1-2,5.78,2,2,0,0,0,0,1.46l3.77,2.51a3.81,3.81,0,0,0,.08-.74c0-.16,0-.64-.12-.74l-3.77-2.49,0,1.46a8.57,8.57,0,0,0,2-8.06c0-.18-.08.14-.08.17a2.37,2.37,0,0,0,0,.65Z" transform="translate(-0.44 -0.05)"/><path d="M40.44,15.68c1-.15,2-.68,2.89-.14a2.16,2.16,0,0,1,.87,1c0,.11.08.22.12.33s0,.1,0,0A5.45,5.45,0,0,1,44.09,18a14.22,14.22,0,0,1-2.4,5.24,1.91,1.91,0,0,0-.51,1.31c0,.23.06,1.13.46.7a8.41,8.41,0,0,0,1.51-2.46,14.42,14.42,0,0,0,1.41-6.11,3.28,3.28,0,0,0-.93-2.45c-1-.84-2.35-.23-3.21.5a1.84,1.84,0,0,0,0,.94Z" transform="translate(-0.44 -0.05)"/><path d="M37,24.15a6.4,6.4,0,0,0,1.56,1.33,7.66,7.66,0,0,0,1.88.82l0-1.29A9.71,9.71,0,0,1,39,27.68c-.47.63-1.36,1.71-2.28,1.33-.39-.16-.57-.57-.88-.83a5.55,5.55,0,0,0-.48-.29c-.21-.27-.23-.06,0,.64,0-.07,0-.13.07-.19l.15-.38a28.19,28.19,0,0,0,1.26-3.43,2,2,0,0,0,0-.54s0-.3-.07-.25A4.46,4.46,0,0,0,36.1,25c-.19.48-.38,1-.58,1.45a4.83,4.83,0,0,0-.42,1.32c0,.37-.1,1.08.24,1.34.12.1.29.15.42.24a2.24,2.24,0,0,1,.42.45,1.17,1.17,0,0,0,.88.49c.81,0,1.46-.79,1.91-1.37a8.74,8.74,0,0,0,1.44-2.67,2,2,0,0,0,.05-.73c0-.08,0-.54-.1-.57a8.69,8.69,0,0,1-3.42-1.68s0,.37,0,.38,0,.38.05.47Z" transform="translate(-0.44 -0.05)"/><path class="cls-1" d="M77.88,50.49a3.67,3.67,0,0,0-3.68-1.2c-1.63.42-2.92,1.72-4.34,2.68a11.9,11.9,0,0,1-10,1.5c-4.08-1.21-7.81-4.46-11.94-5-3.36-.43-6.59,1-9.24,3.18-2,1.63-3.87,3.71-6.3,4.34-2.6.67-5.42-.45-7.94-1.92a37.45,37.45,0,0,1-9.19-7.59" transform="translate(-0.44 -0.05)"/><path d="M78.31,49.91c3.35-9.28,1.61-20.57-3.29-29A33,33,0,0,0,49.3,4.82,33.81,33.81,0,0,0,31.56,8c-.49.23.16,2.53.06,2.58a34.51,34.51,0,0,1,28.53-.27,32.57,32.57,0,0,1,18.1,39.11c0,.1,0,.55.06.46Z" transform="translate(-0.44 -0.05)"/><path d="M11.8,30.35a29.06,29.06,0,0,0-1.37,9.44,31.13,31.13,0,0,0,.42,4.72c.14.84.3,1.68.51,2.5A6.16,6.16,0,0,0,12,49a3.47,3.47,0,0,0,.07-.94c-.26-1.32-.71-2.59-1-3.91a25.09,25.09,0,0,1-.5-4.49,29.77,29.77,0,0,1,1.21-9c0-.05,0-.25,0-.22Z" transform="translate(-0.44 -0.05)"/><path class="cls-2" d="M19.82,53.94a9.22,9.22,0,0,0,7.83,5.79c4.77.57,9.25-1.54,13.73-2.8,4-1.13,8.47-1.63,12.12.76,1.71,1.13,3.94,3.63,2.78,5.8a5.93,5.93,0,0,1-4.18,2.65c-2,.39-4.49.3-6-1.11-2.31-2.11,1.52-4.54,2.26-2.5l-.08-1v.28c0,.24.13,1.48.17.67a2.33,2.33,0,0,0-.33-1.75,1.61,1.61,0,0,0-2.28.1c-1,1-1,2.82-.71,4.08,1,4.41,8.44,3.5,10.76.8a5.89,5.89,0,0,0,.85-5.16,7.7,7.7,0,0,0-4.15-4.88C47.18,53,41.27,55.57,36,57.2c-3.18,1-6.65,1.85-10,1a8.56,8.56,0,0,1-6.21-4.87c0,.06-.07.41,0,.56Z" transform="translate(-0.44 -0.05)"/><path class="cls-2" d="M99.53,32.08c.14,0,.13-1.33,0-1.33s-.13,1.33,0,1.33Z" transform="translate(-0.44 -0.05)"/><path d="M67.39,56.8a4,4,0,0,0-1.18,1.34,3,3,0,0,0,0,2.12,1.23,1.23,0,0,0,1,.93.92.92,0,0,0,.86-.71,2.6,2.6,0,0,0,0-1.27.77.77,0,0,0-.14-.39c-.07-.08-.15,0-.24,0s-.07.27-.07.32a.72.72,0,0,0,.07.41,1.28,1.28,0,0,1,.15.25l.06.13s0,.06,0,0,0-.39,0-.41,0-.22,0-.14h0v0a.89.89,0,0,1-.08.17.77.77,0,0,1-.72.4,1,1,0,0,1-.79-.6,1.21,1.21,0,0,1-.07-.2c0-.05,0,0,0,0s0-.05,0-.07,0,0,0,0a.49.49,0,0,1,0,.12c0,.05,0,.08,0,0s0-.09,0-.13a2.35,2.35,0,0,1,.14-.37,6.5,6.5,0,0,1,1-1.36c.08-.09,0-.31,0-.41s0-.29-.09-.23Z" transform="translate(-0.44 -0.05)"/><path class="cls-2" d="M66.17,63a1,1,0,0,0-.85.16,1.5,1.5,0,0,0-.52.74,2.89,2.89,0,0,0-.06,1.34,1.47,1.47,0,0,0,.49.86,1.75,1.75,0,0,0,1.88.13,2,2,0,0,0,.92-2,2.89,2.89,0,0,0-.35-1.32,2.6,2.6,0,0,0-.4-.54.72.72,0,0,0-.22-.17,1.47,1.47,0,0,0-.29,0c-.07,0-.06.46,0,.5a4.89,4.89,0,0,0,.4.39,2.42,2.42,0,0,1,.33.31,1.87,1.87,0,0,1,.39.8.85.85,0,0,1-.14.62,1.67,1.67,0,0,1-.59.56,1.85,1.85,0,0,1-1.62.11,1.25,1.25,0,0,1-.61-.55l-.06-.14s0,0,0-.07,0,0,0,0,0,.08,0,.11,0,.06,0,0,0,0,0,0,0-.06,0-.09a1.6,1.6,0,0,1,1.3-1.23s0-.35,0-.36Z" transform="translate(-0.44 -0.05)"/><path class="cls-2" d="M67.44,59.64a.62.62,0,0,0-.64.47,1.58,1.58,0,0,0,0,.75.67.67,0,0,0,1.09.46,1.12,1.12,0,0,0,.41-1,1.38,1.38,0,0,0-.17-.63L68,59.54c0-.06-.06-.14-.1-.2a.37.37,0,0,0-.24-.1c-.06,0-.07.52,0,.58a1.29,1.29,0,0,1,.18.16s0,.05.07,0l0,0,0,0a.57.57,0,0,1,.18.32.06.06,0,0,0,0,0s0,0,0,0h0s0,0,0,0a.58.58,0,0,1-.06.17.48.48,0,0,1-.27.19l-.16,0a1.38,1.38,0,0,1-.2,0,.68.68,0,0,1-.37-.07.61.61,0,0,1-.27-.23l0-.06s0-.05,0,0,0,0,0,0,0,.1,0,.08,0,.13,0,.07,0,0,0,0h0v0a.65.65,0,0,1,.59-.5s0-.2,0-.23,0-.22,0-.23Z" transform="translate(-0.44 -0.05)"/></g></g></svg>