<svg xmlns="http://www.w3.org/2000/svg" viewBox="0 0 210.85 63.52"><defs><style>.cls-1{fill:#f1ff39;}</style></defs><title>Asset 21</title><g id="Layer_2" data-name="Layer 2"><g id="Layer_1-2" data-name="Layer 1"><path class="cls-1" d="M45.44,50.49a12.07,12.07,0,0,1,8.24,1.68c.07,0,.11-.62.11-.67s0-.6-.14-.66a15.79,15.79,0,0,0-4-1,11.34,11.34,0,0,0-4.21.43s0,.26,0,.26Z" transform="translate(-0.02)"/><path class="cls-1" d="M51.64,53.05a22.63,22.63,0,0,1,15.1-13.52c1.87-.47,3.68-.62,5.23-1.9a22.5,22.5,0,0,0,3.2-3.75,29.42,29.42,0,0,1,9.41-8c.39-.21-.14-1.94,0-2a29.48,29.48,0,0,0-9.23,7.64A26.44,26.44,0,0,1,71.63,36c-1.59,1.3-3.56,1.46-5.46,2A21.74,21.74,0,0,0,51.54,52.07a4.69,4.69,0,0,0,.1,1Z" transform="translate(-0.02)"/><path class="cls-1" d="M83.75,26.08a6.52,6.52,0,0,1,2.71.1,9.29,9.29,0,0,1,2.37,1.54A65.42,65.42,0,0,1,94,33.08c1.6,1.7,3.22,3.38,4.84,5.06s3.93,3.28,4.2,5.53a8.6,8.6,0,0,0,.39,2.13,4.62,4.62,0,0,0,1.74,1.85c1.62,1.22,2.13,2.78,2.87,4.58a12.78,12.78,0,0,0,3.14,4.54c.91.85,3.26,3,4.45,2.17.27-.17.17-1.41,0-1.64a6.73,6.73,0,0,0-2.39-1.63A12.45,12.45,0,0,1,111,53.92a13.42,13.42,0,0,1-3.09-4.82A8.37,8.37,0,0,0,105.11,45a3.57,3.57,0,0,1-1.8-2.89,6.35,6.35,0,0,0-.55-2.27A10.17,10.17,0,0,0,101,37.74l-2.76-2.89q-2.59-2.7-5.2-5.37a24.59,24.59,0,0,0-4.54-4.17c-1.38-.83-3.51-1.44-4.73-.08-.07.07-.06.85,0,.85Z" transform="translate(-0.02)"/><path class="cls-1" d="M100.5,39.22c2.64.14,4.51-.86,6.82-1.95a4.07,4.07,0,0,1,3.29-.42c1.06.45,1.65,1.63,2.34,2.49A3.93,3.93,0,0,0,115.28,41c.51.06,1-.3,1.47-.23s.84.65,1.11,1.08A14.41,14.41,0,0,0,120,44.48c.7.69,1.93,2,3,1.77.19,0,.11-1.42,0-1.56a17.93,17.93,0,0,0-2.72-2,10.24,10.24,0,0,1-2.38-2.66,3.29,3.29,0,0,0-.68-.89c-.48-.34-.8-.13-1.3,0-1.31.29-2.35-.6-3.14-1.54-1.42-1.7-2.91-2.65-5.13-1.62-1.17.54-2.23,1.27-3.43,1.73a17.18,17.18,0,0,1-3.72.93c-.07,0,0,.55,0,.55Z" transform="translate(-0.02)"/><path class="cls-1" d="M121.42,43.72c0-.16,4.55-.77,5-.89a24.11,24.11,0,0,0,5.45-2.07c.82-.42,1.61-.89,2.38-1.38s1.22-.07,2,.42a4.79,4.79,0,0,0,4.87.44c.39-.22-.16-1.87-.05-1.94-1.75,1.05-3.8.44-5.38-.64-.36-.24-.58-.48-1-.33a7.29,7.29,0,0,0-1.36.87,30.28,30.28,0,0,1-2.9,1.59,31.84,31.84,0,0,1-6.08,2.15c-.56.13-1.13.25-1.7.35a2.31,2.31,0,0,0-1.13.31c-.35.29-.3.72-.28,1.13s.11.35.12,0Z" transform="translate(-0.02)"/><path class="cls-1" d="M141.39,40.6c3.9.12,6.89,2.21,9.86,4.53a99.69,99.69,0,0,0,10.28,7.14c3.27,1.93,6.88,3.8,10.31,1.18,1.28-1,2.43-1.93,4.1-2a5.87,5.87,0,0,1,4.28,1.7,6.76,6.76,0,0,0,.12-1c0-.31.07-.95-.13-1.22a5.09,5.09,0,0,0-4-1.89,6.62,6.62,0,0,0-4.16,1.8,6,6,0,0,1-5.07,1.5A17,17,0,0,1,161.67,50a118.39,118.39,0,0,1-10.3-6.67c-2.83-2.07-6.3-4.63-10-3.76-.13,0-.08,1,0,1Z" transform="translate(-0.02)"/><path class="cls-1" d="M177.32,59.67a22.84,22.84,0,0,1,3.4-3A12.65,12.65,0,0,1,185,55c3.2-.62,7.26.22,8.14,3.85.09.38.17-.19.18-.28a5.26,5.26,0,0,0-.05-1.43c.05,1.1.07,1.41.06.91,0-.14,0-.29,0-.43s0-.4-.07-.6a5.15,5.15,0,0,0-.32-1.08,4.81,4.81,0,0,0-1.46-1.77A7.05,7.05,0,0,0,186.14,53c-3.44.49-7.13,2.56-8.86,5.65-.1.18.1.94,0,1Z" transform="translate(-0.02)"/><path class="cls-1" d="M86.86,29.53c2.14,2.17,4.4,4.25,6.73,6.21,1.2,1,2.41,2,3.63,3L99,40.1a12.11,12.11,0,0,0,2,1.48s.06-.42,0-.49a36.67,36.67,0,0,0-3.52-2.77c-1.22-1-2.44-2-3.64-3-2.36-2-4.68-4-7-6,0,0,0,.11,0,.14Z" transform="translate(-0.02)"/><path class="cls-1" d="M87.47,29.5A3.8,3.8,0,0,0,84,28.76c-.06,0,0,.32,0,.36a32.25,32.25,0,0,0,3.15,4.77,23.27,23.27,0,0,0,1.86,2c.67.63,2.1,1.32.76,2.06-.9.5-3.26-.39-3.71.62s.85,2.08,1.26,2.63c2.44,3.27,4.75,6.87,7.68,9.72.87.84,5.76,4.72,5.7,1.57a4.38,4.38,0,0,0-.42-1.43c-.05-.15-.16-1.38,0-1.47s.78.77.87.87c.4.46.78.93,1.21,1.36,1.83,1.86,3.66,3.71,5.55,5.51a3.63,3.63,0,0,0,0-1.07c-2.6-5.37-4.87-10.88-7.43-16.26,0,.1-.12.67,0,.91,2.4,5.51,5,10.89,7.42,16.42l0-1.07c-1.31-1.32-2.65-2.6-4-3.88s-2.74-2.39-4-3.69c0,0,0,.07,0,.08a6.3,6.3,0,0,0-.08,1.62c0,.22.55,2,.53,2-.31.41-1.48,0-1.8-.19a11.26,11.26,0,0,1-2.63-1.72c-3.1-2.65-5.44-6.27-8-9.41-.34-.41-.67-.85-1-1.25s-.93-.95,0-1.22,1.8.48,2.72.21a1.52,1.52,0,0,0,1-2,2,2,0,0,0-.69-1c-.79-.75-1.61-1.45-2.35-2.25A22.47,22.47,0,0,1,84,28.77v.35a3.94,3.94,0,0,1,3.46.67s0-.24,0-.29Z" transform="translate(-0.02)"/><path class="cls-1" d="M111.4,40.38a8.11,8.11,0,0,0-4.8-1.66c-.06,0,0,.54,0,.58a23.79,23.79,0,0,1,5.24,5.36h0c1.36-1.1,2.89.3,3.94,1.14.47.38,1.48,1.18,2.11.74a1.1,1.1,0,0,0,.34-1,1.58,1.58,0,0,0-.71-1.21c-.81-.6-1.74-1-2.58-1.62s-1.66-1.13-2.51-1.67a25.46,25.46,0,0,0-2.7-1.63s-.12.76,0,.87c1.91,1.41,4.15,2.33,6.17,3.55.48.29,2.74,1.3,2.09,2.14s-2-.45-2.52-.85a4.93,4.93,0,0,0-2.36-1.35,2.33,2.33,0,0,0-1.05.14c-.34.09-.38,0-.59-.3L111,43a23.17,23.17,0,0,0-4.43-4.25v.58a8.76,8.76,0,0,1,4.8,1.4s0-.27,0-.32Z" transform="translate(-0.02)"/><path class="cls-1" d="M140.3,40.78c-.22,2.6-.21,6,2.09,7.72l0-.89a12.91,12.91,0,0,0-3-1.35s-.11.7,0,.78c1.15.69,1.54,2,2.42,3a11.26,11.26,0,0,0,3.55,2.14c2.76,1.3,5.9,2.42,8.81.9,0,0,0-.06,0-.06-3,1.25-6.13,0-8.82-1.3a10.22,10.22,0,0,1-3.74-2.52c-.75-1-1.17-2.2-2.24-2.91l0,.78a12.89,12.89,0,0,1,3,1.46s.16-.75,0-.89c-2.09-1.58-2.18-4.29-2-6.7,0,0,0-.29,0-.13Z" transform="translate(-0.02)"/><polygon class="cls-1" points="154.97 52.54 154.97 52.52 154.97 52.54 154.97 52.54"/><path class="cls-1" d="M155,52.5l-.27-.26s0,0,0,0a0,0,0,0,0,0,0h0l.26.27s0,0,0,0v0Z" transform="translate(-0.02)"/><path class="cls-1" d="M140.37,41.65c3,1.3,4.68,4.29,6.91,6.49a12.59,12.59,0,0,0,4.25,2.71c1.27.51,3.67.94,4,2.56.08.4.11-.5.1-.6-.21-1.48-1.43-2.07-2.73-2.54a16.7,16.7,0,0,1-5.38-2.9c-2.32-2-4-4.95-7.16-5.78,0,0,0,0,0,.06Z" transform="translate(-0.02)"/><path class="cls-1" d="M109.38,35.67c2.41-9,10.45-15.88,19.38-18a34.64,34.64,0,0,1,28.65,6.54,22.38,22.38,0,0,1,8.17,12.55c.08.32.14-.16.16-.23a3.31,3.31,0,0,0,0-1.13c-1.53-9.27-10.28-15.48-18.7-18.08-10-3.08-21.45-1.81-29.56,5.08a24.75,24.75,0,0,0-8.09,13.05s0,.26,0,.22Z" transform="translate(-0.02)"/><path class="cls-1" d="M165.78,36.19c-.48,2.25-3.92,1.82-5.51,2.52-2,.88-3.65,3-6,2.68,0,0,0,.17,0,.18,2.56.87,4.18-2.06,6.39-2.67,1.13-.32,2.4-.11,3.49-.58a2.53,2.53,0,0,0,1.66-1.93s0-.23,0-.2Z" transform="translate(-0.02)"/><path class="cls-1" d="M151.84,41.87a31.91,31.91,0,0,1,6.26-.22,17.48,17.48,0,0,1,3.29.45c.89.21,1.74.6,2.64.8,1.86.41,3.42-1.08,5.22-1.31a7.52,7.52,0,0,1,2.46.08c.87.17,1.74.81,2.59.88a2,2,0,0,0,0-1c-1.06-1.2-3.21-1.44-4.72-1.3a7.85,7.85,0,0,0-2.71.8,4.7,4.7,0,0,1-2.68.67c-1-.1-1.87-.45-2.82-.6a17.52,17.52,0,0,0-3.07-.18,29.78,29.78,0,0,0-3.13.25c-1.12.15-2.2.47-3.32.59,0,0,0,.08,0,.08Z" transform="translate(-0.02)"/><path class="cls-1" d="M166.26,36.6a2,2,0,0,1,1.47-1.47,1.21,1.21,0,0,1,1,.24,1.45,1.45,0,0,1,.4.42,1.67,1.67,0,0,1,.12.23l0,.1c.07.23,0-.73,0-.45a2.69,2.69,0,0,0,0,.75s0,.16.05.16,0-.16,0-.16a3.42,3.42,0,0,0,0-1.15.89.89,0,0,0-.24-.46,1.45,1.45,0,0,0-1-.39c-.93,0-1.55,1-1.79,1.76a1.22,1.22,0,0,0,0,.27s0,.17,0,.15Z" transform="translate(-0.02)"/><path class="cls-1" d="M169.93,35.55c2-3.1,5.07-6.12,8.9-6.57a8.5,8.5,0,0,1,4.8.87,7.37,7.37,0,0,1,1.93,1.44,18.77,18.77,0,0,1,1.37,2.09s.06-.81,0-1c-.75-3.47-4.79-5.16-8-4.76-4.12.52-7.17,3.89-9,7.38-.06.12.06.49,0,.53Z" transform="translate(-0.02)"/><path class="cls-1" d="M186.7,34.72c.34-.14.65-.33,1-.47a6,6,0,0,1,1-.28,4.22,4.22,0,0,1,2.28.14,4.31,4.31,0,0,1,2.81,3.32c0,.16,0,.14.07,0a2,2,0,0,0,0-.65,4.52,4.52,0,0,0-2.6-3.47,3.89,3.89,0,0,0-4.57,1,1.33,1.33,0,0,0,0,.4Z" transform="translate(-0.02)"/><path class="cls-1" d="M195.26,37.88c1.09-.29,2.26-.9,3.36-.29,1.62.89.07,1.75-1,2.06a22.85,22.85,0,0,1-7.91,1.23c-1.41-.08-2.81-.32-4.22-.35a29.37,29.37,0,0,0-4.09.27c-1.44.18-2.87.4-4.32.52s-3-.23-4.28.22a.94.94,0,0,0,0,.55c1.41.91,3.6.52,5.2.36s3.33-.42,5-.56c3.43-.27,6.81.68,10.22.11a13.63,13.63,0,0,0,4.61-1.53c.73-.44,1.53-.8,1.68-1.72a2.4,2.4,0,0,0-.43-1.82c-1-1.25-2.76-.59-3.87.15-.1.07,0,.8,0,.8Z" transform="translate(-0.02)"/><path class="cls-1" d="M47.05,22.64a2.68,2.68,0,0,1,2.14-1.15c1-.19,2-.39,3-.54a21.07,21.07,0,0,1,6.14-.14,17.83,17.83,0,0,1,5.35,2.13,5.17,5.17,0,0,0,2.57.68,2.4,2.4,0,0,0,2-1.18c.06-.09-.06-.48,0-.51-1.37,1.06-3.33.68-4.76,0a17.52,17.52,0,0,0-5.72-2.14,21.58,21.58,0,0,0-6.16.33c-1.54.27-4,.38-4.62,2.09,0,.11,0,.4,0,.44Z" transform="translate(-0.02)"/><path class="cls-1" d="M46.76,20.78a1.66,1.66,0,0,1-.15-.33c0-.06,0-.12,0-.18-.05-.29,0,.37,0,.37a3.2,3.2,0,0,1,.18-.52,2.07,2.07,0,0,1,.88-.9,3.85,3.85,0,0,1,3.21.26,2.62,2.62,0,0,0,0-.52c0-.08,0-.47-.07-.52-1.11-.52-2.68-1-3.69,0a2.21,2.21,0,0,0-.65,1.34,4.16,4.16,0,0,0,0,1.27.91.91,0,0,0,.27.51s0-.34,0-.36a1.1,1.1,0,0,0,0-.44Z" transform="translate(-0.02)"/><path class="cls-1" d="M49.62,18.07c.27-.35.43-.78.68-1.14a5.36,5.36,0,0,1,1.05-1.13A5.42,5.42,0,0,1,54,14.65a5.55,5.55,0,0,1,2.9.47,5.3,5.3,0,0,1,1.32.82c.27.22.66.86,1,.9.09,0,0-.83,0-.91-.7-2-3.43-3-5.4-2.66a5.38,5.38,0,0,0-4.3,4,6.71,6.71,0,0,0,.06.77Z" transform="translate(-0.02)"/><path class="cls-1" d="M57,13.92c-.2-1.41,1.72-2.66,2.74-3.26a15.13,15.13,0,0,1,3.73-1.51,15.5,15.5,0,0,1,8,.1A15.71,15.71,0,0,1,81.73,19.32c-.09-.27.15-1.2,0-1.67A15,15,0,0,0,69,7.26c-4.2-.42-13.17,1.39-12.09,7.25a2.47,2.47,0,0,0,0-.59Z" transform="translate(-0.02)"/><path class="cls-1" d="M82.12,18.7a9.68,9.68,0,0,1,4.07-.42,7.84,7.84,0,0,1,3.59,1,4.13,4.13,0,0,1,.71.74c.1-.45.07-.5-.09-.13a1.21,1.21,0,0,1-.34.47,3.62,3.62,0,0,1-1.41.81,11,11,0,0,1-4.52.29c-3-.3-6.08-1.18-9.15-.88a37.42,37.42,0,0,0-4.82,1c-1.62.37-3.2.37-4.82.58a2.24,2.24,0,0,0,0,1.09c1.79.48,3.93-.17,5.7-.53a20.74,20.74,0,0,1,5.71-.6c3.69.27,7.33,1.87,11.06,1.16a3.39,3.39,0,0,0,2.66-4.76c-.6-1.19-2.4-1.36-3.55-1.49a5.77,5.77,0,0,0-4.83,1.22c-.06.05,0,.49,0,.49Z" transform="translate(-0.02)"/><path class="cls-1" d="M197.29,26.25a8.77,8.77,0,0,1-3.7.8c.54,1,1.12,1.93,1.74,2.86a.82.82,0,0,0,.4.38c.37.12.68-.27.87-.6l1.09-1.94" transform="translate(-0.02)"/><path class="cls-1" d="M197.41,27.7c.72.91,2.06,2.48,2.78,3.39a10.14,10.14,0,0,0-.5-4.05L202,25.48a9.92,9.92,0,0,1-7.55-2.21h-.09a11,11,0,0,0,1.76,3.27" transform="translate(-0.02)"/><path class="cls-1" d="M107.92,13.69a8.78,8.78,0,0,1-3.7.81c.54,1,1.12,1.93,1.74,2.86a.87.87,0,0,0,.4.38c.36.11.68-.28.87-.61l1.09-1.94" transform="translate(-0.02)"/><path class="cls-1" d="M108,15.14c.72.91,2.06,2.49,2.78,3.4a10.09,10.09,0,0,0-.5-4l2.31-1.57a9.88,9.88,0,0,1-7.55-2.21H105A11,11,0,0,0,106.75,14" transform="translate(-0.02)"/><path class="cls-1" d="M156.67,4.09a8.78,8.78,0,0,1-3.71.8c.54,1,1.13,1.93,1.74,2.86a.84.84,0,0,0,.41.38c.36.12.68-.27.86-.6l1.1-1.94" transform="translate(-0.02)"/><path class="cls-1" d="M156.78,5.54c.72.91,2.07,2.48,2.79,3.39a10.07,10.07,0,0,0-.5-4l2.31-1.57a9.88,9.88,0,0,1-7.55-2.21h-.09a11.29,11.29,0,0,0,1.75,3.26" transform="translate(-0.02)"/><path class="cls-1" d="M45.14,7.05a8.94,8.94,0,0,1-3.71.8c.55,1,1.13,1.93,1.75,2.86a.87.87,0,0,0,.4.38c.36.11.68-.27.87-.61l1.09-1.93" transform="translate(-0.02)"/><path class="cls-1" d="M45.25,8.49C46,9.4,47.32,11,48,11.89a10.12,10.12,0,0,0-.5-4.05l2.31-1.56A9.93,9.93,0,0,1,42.3,4.06h-.09A11,11,0,0,0,44,7.34" transform="translate(-0.02)"/><path class="cls-1" d="M173.5.59a6.34,6.34,0,0,1-5.44-.45.59.59,0,0,0-.41-.13c-.38.07-.25.66,0,1a4.8,4.8,0,0,0,2.09,1.37L168,4.13A6.32,6.32,0,0,0,173.36.67" transform="translate(-0.02)"/><path class="cls-1" d="M89,6.39A5.14,5.14,0,0,1,84.48,6a.53.53,0,0,0-.34-.11c-.31.06-.2.55,0,.78a4,4,0,0,0,1.72,1.14L84.45,9.3a5.2,5.2,0,0,0,4.39-2.84" transform="translate(-0.02)"/><path class="cls-1" d="M210.85,54.71c-3.16.58-6.33,1.06-9.49,1.62s-6.19,1.05-9.3,1.53c-6.3,1-12.61,1.8-18.95,2.44A335.44,335.44,0,0,1,135.21,62a333.08,333.08,0,0,1-38-2.66C84.53,57.68,71.82,55.7,59,55.54c-13-.15-26.88,1.26-38.55,7.32-.12.06,0,.66,0,.66A93.47,93.47,0,0,1,37.2,58.38a102.68,102.68,0,0,1,17.58-1.82c12.65-.29,25.25,1.28,37.79,2.78s25.31,2.82,38.06,3.21a343,343,0,0,0,37.93-1q10.6-.88,21.13-2.42c3.52-.51,7-1.12,10.5-1.77s7.12-1.52,10.67-2.39c0,0,0-.29,0-.29Z" transform="translate(-0.02)"/><path class="cls-1" d="M27.84,25.93s0-.08,0-.08,0,.08,0,.08Z" transform="translate(-0.02)"/><path class="cls-1" d="M28.26,26.79c1.29,10.88-2.43,21.71-.42,32.56.07.41.21,1,.6.56s.2-1.71.1-2.18C26.33,47.36,30.2,36.8,28.4,26.38c-.09-.5-.15.26-.14.41Z" transform="translate(-0.02)"/><path class="cls-1" d="M32.16,29.43c-1.52,1.39-3.3,3-3.73,5.09a1.09,1.09,0,0,0,0,.44s0,.2.09.08a12.13,12.13,0,0,1,.6-1.44A9.68,9.68,0,0,1,30,32.2a27.16,27.16,0,0,1,2.18-2.49.41.41,0,0,0,0-.28Z" transform="translate(-0.02)"/><path class="cls-1" d="M33.23,33.33a14,14,0,0,1-2.72-.4,3,3,0,0,0-2.12.38c-.06,0,0,.29,0,.28a2.54,2.54,0,0,1,2.19-.39,7.58,7.58,0,0,0,2.63.33s0-.2,0-.2Z" transform="translate(-0.02)"/><path class="cls-1" d="M34.67,35.25H34.6A8.48,8.48,0,0,1,32.85,37a19.72,19.72,0,0,0-1.94,1.83A14.94,14.94,0,0,0,29.32,41a7.15,7.15,0,0,0-1.15,2.33s0,.47,0,.44.14-.2.19-.33l.33-.72a13.81,13.81,0,0,1,.7-1.25,14.92,14.92,0,0,1,1.7-2.17c.61-.65,1.31-1.18,2-1.78a4.77,4.77,0,0,0,1.59-2.11s0-.14,0-.14Z" transform="translate(-0.02)"/><path class="cls-1" d="M35.09,38.26a16.4,16.4,0,0,0-1.73.27,6.56,6.56,0,0,0-1.69.7,7.9,7.9,0,0,0-2.84,2.31s0,.35,0,.34a9.83,9.83,0,0,0,1.31-.94,13.54,13.54,0,0,1,1.57-1c.52-.28,1.07-.51,1.59-.78a11.46,11.46,0,0,1,1.77-.75s0-.14,0-.14Z" transform="translate(-0.02)"/><path class="cls-1" d="M23.08,32.29a13.29,13.29,0,0,1,3.54,4.31,18.08,18.08,0,0,1,1.05,2.48c.26.77.33,1.63.65,2.37.1.24.17-.27.17-.32.05-3.74-2.37-7.25-5.4-9.26,0,0-.08.36,0,.42Z" transform="translate(-0.02)"/><path class="cls-1" d="M22.18,39.84a13.2,13.2,0,0,1,3.39,3.83c.43.78.85,1.55,1.22,2.36l.54,1.22c.09.23.19.75.48.77s.12-.85.11-.94a5.84,5.84,0,0,0-1-2.35,7.47,7.47,0,0,0-.63-.85c-.24-.26-.45-.57-.7-.82a40.66,40.66,0,0,0-3.44-3.25s0,0,0,0Z" transform="translate(-0.02)"/><path class="cls-1" d="M20.88,41.88a9.06,9.06,0,0,1,2.15.66,9.78,9.78,0,0,1,1.06.57c.16.1.32.2.47.31a2.29,2.29,0,0,0,.41.28s0-.23,0-.26a3.29,3.29,0,0,0-.93-.62,8.81,8.81,0,0,0-1-.47,9.15,9.15,0,0,0-2.19-.56s0,.09,0,.09Z" transform="translate(-0.02)"/><path class="cls-1" d="M34.59,43.49l-1,.43-.48.22c-.17.08-.33.09-.49.15a10.12,10.12,0,0,0-1.73,1,8.42,8.42,0,0,0-1.56,1.36,6,6,0,0,0-1.16,1.75s0,.26,0,.24c.2-.25.34-.54.53-.79a7.43,7.43,0,0,1,.64-.73,14.41,14.41,0,0,1,1.53-1.28c.57-.42,1.2-.73,1.78-1.14a5.92,5.92,0,0,1,.48-.35l.43-.25,1-.52s0-.12,0-.12Z" transform="translate(-0.02)"/><path class="cls-1" d="M25.83,15a5.84,5.84,0,0,1,6,3c.47,1,.34,2.15.9,3.09a5,5,0,0,0,2.36,1.7c2.77,1.26,4.82,4.13,4.07,7.31a7.27,7.27,0,0,1-2,3.49A36.9,36.9,0,0,1,34,35.78c-.09.07-.1.67,0,.68,1.42,0,2.73-1.28,3.57-2.32a8.28,8.28,0,0,0,1.75-3.8A7.63,7.63,0,0,0,37.63,24a11.46,11.46,0,0,0-3.46-2.14,3,3,0,0,1-1.71-2.4,10.18,10.18,0,0,0-.34-1.66,4.91,4.91,0,0,0-6.29-2.88s0,.09,0,.09Z" transform="translate(-0.02)"/><path class="cls-1" d="M27.4,14.55c-2.57.26-6.07,1.69-6.73,4.5a3.72,3.72,0,0,0,.64,3.06,2.77,2.77,0,0,1,.58,2.63,5.29,5.29,0,0,1-1.21,1.65s0,.35,0,.34c.95-.18,1.39-1.62,1.44-2.46a4.31,4.31,0,0,0-1-2.84c-1.26-1.95.33-3.84,1.9-4.9a11.65,11.65,0,0,1,4.34-1.75s0-.23,0-.23Z" transform="translate(-0.02)"/><path class="cls-1" d="M21.06,26.38a8.77,8.77,0,0,0-4.42,6.77A9.34,9.34,0,0,0,17,36.94c.37,1.27,1,2.35.86,3.75a25.54,25.54,0,0,1-1,3.52s0,.16,0,.14a7.74,7.74,0,0,0,1.24-4.05c0-1.72-.91-3-1.22-4.69a8.78,8.78,0,0,1,4.2-8.85c.09-.05,0-.38,0-.38Z" transform="translate(-0.02)"/><path class="cls-1" d="M17,43.78a.72.72,0,0,1,.63.25,1.27,1.27,0,0,1,.2.31.58.58,0,0,1,0,.19c0,.13,0,0,0,0s0,0,0,0,0,0,0,.07a1.42,1.42,0,0,1-.08.18,1.81,1.81,0,0,1-.22.32c-.19.22-.44.38-.61.61a.79.79,0,0,0-.07.48s.05.41.12.37a1.76,1.76,0,0,0,.4-.37,3.61,3.61,0,0,0,.33-.44,2.13,2.13,0,0,0,.33-1.18,1.1,1.1,0,0,0-.11-.56,2.11,2.11,0,0,0-.21-.31.69.69,0,0,0-.73-.25c-.06,0,0,.3,0,.29Z" transform="translate(-0.02)"/><path class="cls-1" d="M17,46.72a10.37,10.37,0,0,0,4.13,3.94,11.19,11.19,0,0,0,2.56,1c.78.18,2.11.57,2.75,0a.37.37,0,0,0,0-.34,2.09,2.09,0,0,0-1.3-.3c-.44,0-.89-.08-1.33-.16a11.11,11.11,0,0,1-2.6-.83A11.24,11.24,0,0,1,17,46.56a.26.26,0,0,0,0,.16Z" transform="translate(-0.02)"/><path class="cls-1" d="M35.53,38.12a4.24,4.24,0,0,1,3,3.79A10.39,10.39,0,0,1,37.1,47.4a8,8,0,0,1-3.17,3.44,6.67,6.67,0,0,1-4.46.55c-.15,0-.14.75,0,.83,1.62.94,3.76.31,5.21-.71A9.7,9.7,0,0,0,38,46.8a10.64,10.64,0,0,0,.74-5.73,3.61,3.61,0,0,0-3.17-3s0,0,0,.06Z" transform="translate(-0.02)"/><path class="cls-1" d="M34.4,36.06a1.52,1.52,0,0,0-.6,1.64,1.38,1.38,0,0,0,1.35,1.16,1.38,1.38,0,0,0,.53-.09.92.92,0,0,0,.21-.13l.11-.09a.59.59,0,0,0,.09-.2c0-.06,0-.32,0-.35s0,0-.08,0,0,0-.07,0l-.19.08a1.86,1.86,0,0,1-.38.12,1.45,1.45,0,0,1-.8-.08,1.11,1.11,0,0,1-.59-.54,1.4,1.4,0,0,1-.1-.35s0,0,0,0,0,.06,0,0a1.2,1.2,0,0,1,0-.2,1.51,1.51,0,0,1,.53-.84s0-.08,0-.08Z" transform="translate(-0.02)"/><path class="cls-1" d="M2.37,18.67a.34.34,0,0,0-.17.38.58.58,0,0,0,.21.39.24.24,0,0,0,.23,0s0-.08,0-.08a.36.36,0,0,1-.33-.13.33.33,0,0,1-.08-.31.25.25,0,0,1,.14-.16s0-.09,0-.09Z" transform="translate(-0.02)"/><path class="cls-1" d="M2.93,18.63H2.35s0,.08,0,.08h.58s0-.08,0-.08Z" transform="translate(-0.02)"/><path class="cls-1" d="M1.91,15.84a.46.46,0,0,0-.38.42.58.58,0,0,0,.23.62.55.55,0,0,0,.66-.19.68.68,0,0,0,.11-.39.71.71,0,0,0-.12-.38.67.67,0,0,0-.34-.23.41.41,0,0,0-.22,0,.36.36,0,0,0-.21.09.16.16,0,0,0,0,.1.89.89,0,0,1,.62.11.54.54,0,0,1,.21.26s0,.05,0,.07h0s0,0,0,0a.66.66,0,0,1-.05.15.59.59,0,0,1-.55.28.38.38,0,0,1-.26-.14.41.41,0,0,1-.07-.11s0-.07,0-.09A.44.44,0,0,1,1.92,16s0-.14,0-.14Z" transform="translate(-0.02)"/><path class="cls-1" d="M2.2,12.39a1.1,1.1,0,0,0-.78.91,1.2,1.2,0,0,0,.43,1.22,1.11,1.11,0,0,0,1.28-.06,1,1,0,0,0,.4-.5,1.19,1.19,0,0,0,0-.7,1.33,1.33,0,0,0-.44-.72c-.18-.15-.54-.39-.78-.23,0,0,0,.18,0,.19a1.13,1.13,0,0,0,.32.05,1.4,1.4,0,0,1,.29.09,1,1,0,0,1,.47.46.8.8,0,0,1,.1.67.88.88,0,0,1-.36.47,1.34,1.34,0,0,1-1.09.13.91.91,0,0,1-.64-.84,1.21,1.21,0,0,1,.77-1.06s0-.08,0-.08Z" transform="translate(-0.02)"/><path class="cls-1" d="M4.39,16a.43.43,0,0,0-.21.47.46.46,0,0,0,.33.44.51.51,0,0,0,.55-.33.67.67,0,0,0-.15-.7.65.65,0,0,0-.34-.17.37.37,0,0,0-.18,0,.38.38,0,0,0-.16.12s0,.22,0,.22a.53.53,0,0,0,.12,0H4.5a.82.82,0,0,1,.27,0,.55.55,0,0,1,.22.14.23.23,0,0,1,.07.1v.05h0v0a.57.57,0,0,1-.44.42.38.38,0,0,1-.41-.25A.41.41,0,0,1,4.39,16s0,0,0,0Z" transform="translate(-0.02)"/><path class="cls-1" d="M4.42,14.32a.55.55,0,0,0-.15.52.47.47,0,0,0,.35.41A.51.51,0,0,0,5.15,15a.63.63,0,0,0,0-.65.69.69,0,0,0-.27-.24.34.34,0,0,0-.35,0s0,.3,0,.3l.12,0h.14a.73.73,0,0,1,.24.07.33.33,0,0,1,.16.17.08.08,0,0,1,0,0h0a.33.33,0,0,1,0,.14.55.55,0,0,1-.42.3.43.43,0,0,1-.42-.23.43.43,0,0,1,.1-.53s0-.06,0-.07Z" transform="translate(-0.02)"/><path class="cls-1" d="M4.42,18.54a.38.38,0,0,0-.21.44.47.47,0,0,0,.28.45.5.5,0,0,0,.57-.33A.66.66,0,0,0,5,18.45a.79.79,0,0,0-.33-.23.54.54,0,0,0-.21,0,.49.49,0,0,0-.21,0s0,.08,0,.08h.31a.59.59,0,0,1,.28.1.6.6,0,0,1,.21.21.41.41,0,0,1,0,.34.53.53,0,0,1-.44.34.38.38,0,0,1-.38-.25.34.34,0,0,1,.18-.43s0-.08,0-.08Z" transform="translate(-0.02)"/><path class="cls-1" d="M6.42,10.84a.5.5,0,0,0-.55.2,1.14,1.14,0,0,0-.14.77,3.5,3.5,0,0,0,.1.8.84.84,0,0,0,.32.52.83.83,0,0,0,1-.1.79.79,0,0,0,.29-.4,1.31,1.31,0,0,0,0-.68,1.11,1.11,0,0,0-.35-.61,1.86,1.86,0,0,0-.28-.21.53.53,0,0,0-.37-.05s0,.22,0,.23a4.61,4.61,0,0,1,.51.22,1.18,1.18,0,0,1,.37.4.53.53,0,0,1,.08.44.73.73,0,0,1-.26.34,1,1,0,0,1-.8.15c-.38-.11-.48-.49-.52-.84a.89.89,0,0,1,.09-.66.5.5,0,0,1,.54-.26s0-.25,0-.26Z" transform="translate(-0.02)"/><path class="cls-1" d="M7.12,15.72a.77.77,0,0,1,.4.85.74.74,0,0,1-.27.36.86.86,0,0,1-.19.11l-.11,0a.24.24,0,0,0-.1.06.23.23,0,0,0,0,.2s0,0,.08,0H7l.13-.07a1,1,0,0,0,.22-.19,1,1,0,0,0,.22-.53.91.91,0,0,0-.47-.94s0,.09,0,.1Z" transform="translate(-0.02)"/><path class="cls-1" d="M6.68,15.79a1.89,1.89,0,0,0-.87.68,1.18,1.18,0,0,0-.12.49,1.35,1.35,0,0,0,.09.56.63.63,0,0,0,.76.31.87.87,0,0,0,.61-.67,2,2,0,0,0,0-.73.87.87,0,0,0-.24-.5s0,.07,0,.08a.31.31,0,0,0,0,.09,3,3,0,0,1,.19.5.55.55,0,0,1,0,.36.8.8,0,0,1-.54.53.64.64,0,0,1-.66-.15.65.65,0,0,1-.1-.15.11.11,0,0,1,0-.08s0-.09,0-.06V17a.36.36,0,0,1,0-.1,1,1,0,0,1,.09-.21A2.28,2.28,0,0,1,6.68,16s0-.17,0-.17Z" transform="translate(-0.02)"/><path class="cls-1" d="M7.14,14.11a.48.48,0,0,1,.39.29.19.19,0,0,1,0,.07s0,0,0,0,0,0,0,0,0,0,0,.06a.37.37,0,0,1-.16.17.48.48,0,0,1-.45,0,.34.34,0,0,1-.18-.15l0,0v0h0a.43.43,0,0,1,0-.05.75.75,0,0,1,.15-.24L7,14.18a.42.42,0,0,1,.14-.06.19.19,0,0,0,0-.15H7a.2.2,0,0,0-.12.06.56.56,0,0,0-.16.25,1,1,0,0,0,0,.41.38.38,0,0,0,.15.24.49.49,0,0,0,.53,0,.53.53,0,0,0,.2-.58.46.46,0,0,0-.44-.4s0,.13,0,.13Z" transform="translate(-0.02)"/><path class="cls-1" d="M.72,15.26a.39.39,0,0,0-.46.13.61.61,0,0,0-.06.4.53.53,0,0,0,.1.32.36.36,0,0,0,.27.14s0-.28,0-.31a.4.4,0,0,0-.24-.16.53.53,0,0,0-.3.07S0,16,0,16a.59.59,0,0,1,.29.05.63.63,0,0,1,.23.2v-.32a.34.34,0,0,1-.25-.13.54.54,0,0,1-.07-.13h0v.11s0,0,0,0v0a.38.38,0,0,1,.47-.21s0-.13,0-.14a.34.34,0,0,0,0-.1.06.06,0,0,0,0,0Z" transform="translate(-0.02)"/><path class="cls-1" d="M42.69,42.32a12.64,12.64,0,0,1,.2,3.52,31.28,31.28,0,0,0-.23,3.21c0,2.27.25,4.54.23,6.82,0,.17,0,1.14.32,1.14s.26-1,.26-1.16c0-2.57-.49-5.14-.3-7.72a27.09,27.09,0,0,0,.15-3.71,6.33,6.33,0,0,0-.58-2.72,2.51,2.51,0,0,0-.05.62Z" transform="translate(-0.02)"/><path class="cls-1" d="M41.24,39.36a3.66,3.66,0,0,0,.21-1.67c-.06-.67-.47-1.46-.1-2.08s1.17-.54,1.69-.36a1.37,1.37,0,0,1,.9,1.36,9.55,9.55,0,0,0-.1,1.19,2.92,2.92,0,0,0,.09.66.35.35,0,0,0,.19.27s.06-.33.06-.34a1,1,0,0,0-.06-.43c0-.09-.06-.19-.1-.28s0,.07,0,.11,0,0,0,0a5.54,5.54,0,0,0,0-.56,5.62,5.62,0,0,0,0-1.23c-.07-.54-.28-1.18-.87-1.31a1.87,1.87,0,0,0-.94.06,1.55,1.55,0,0,0-.79.41,1.76,1.76,0,0,0-.31,1.48c.06.39.19.77.23,1.16a3.91,3.91,0,0,1-.16,1.52.78.78,0,0,0,0,.09Z" transform="translate(-0.02)"/><path class="cls-1" d="M43.91,38.45c.72.94,2,2.15,1.47,3.46a4.36,4.36,0,0,0-.52,1.52c0,.2,0,1.49.45,1.26.11-.06.06-.48,0-.57s-.13-.26-.2-.38,0-.18-.06-.05a1.06,1.06,0,0,1,.06-.19c.11-.29.28-.56.39-.84a3.84,3.84,0,0,0,.16-1.84,3.35,3.35,0,0,0-1.76-2.61s0,.21,0,.24Z" transform="translate(-0.02)"/><path class="cls-1" d="M45.28,44.62c.24.49.6.91.81,1.43a1.56,1.56,0,0,1,.16.79,1.89,1.89,0,0,1-.24.65c-.45.8-1.23,1.41-1.44,2.33,0,0,0,.42,0,.4.23,0,.33-.34.46-.52l.51-.66a4.18,4.18,0,0,0,.76-1.52,3.33,3.33,0,0,0-.1-1.77,4,4,0,0,0-.4-.8,2.2,2.2,0,0,0-.56-.68,1,1,0,0,0,0,.35Z" transform="translate(-0.02)"/><path class="cls-1" d="M43.3,53.86c0,.14.11,0,.15,0l.12-.1.24-.22a3.57,3.57,0,0,0,.42-.51,4,4,0,0,0,.52-1.16,4.33,4.33,0,0,0,.14-1.29,5.08,5.08,0,0,0-.07-.67,1.41,1.41,0,0,0-.18-.58c0-.06-.06.31-.06.35a4.32,4.32,0,0,1,.17,1.24,3.58,3.58,0,0,1-.38,1.28,3.32,3.32,0,0,1-.8,1c-.15.14-.32.25-.37.45a.61.61,0,0,0,0,.51c0,.05,0-.27,0-.29Z" transform="translate(-0.02)"/><path class="cls-1" d="M41.31,39.48a1.77,1.77,0,0,0-.54.25,1.92,1.92,0,0,0-.43.62A3.66,3.66,0,0,0,40,41.84a4.42,4.42,0,0,0,.25,1.65,5.8,5.8,0,0,0,.41.78c.09.15.13.33.22.47s0,.06,0-.15l0,.08c0,.06-.09.15-.15.21s-.06.46-.05.61.05.43.13.34A2,2,0,0,0,41,44.1a12.74,12.74,0,0,0-.75-1.53,2,2,0,0,1,.11-1.47,3.09,3.09,0,0,1,.4-.71,6,6,0,0,1,.56-.76.24.24,0,0,0,0-.15Z" transform="translate(-0.02)"/><path class="cls-1" d="M40.94,44.86c-1.09.29-1.34,1.73-1.29,2.69a3.15,3.15,0,0,0,1.61,2.74l0,0a.82.82,0,0,0,.11-.73c-.06-.19-.09-.3-.25-.39a2.9,2.9,0,0,1-.29-.19A2.67,2.67,0,0,1,40,47.8,1.34,1.34,0,0,1,40,46.66,5.11,5.11,0,0,1,41,45.25s0-.41,0-.39Z" transform="translate(-0.02)"/><path class="cls-1" d="M41.31,49.79a5.86,5.86,0,0,0,.33,3.26,3,3,0,0,0,.82,1.13,2.2,2.2,0,0,0,.53.32.49.49,0,0,0,.31.07.66.66,0,0,0,.31-.26.5.5,0,0,0,0-.4,1,1,0,0,0-.49-.45,3,3,0,0,1-.5-.26,2.54,2.54,0,0,1-.79-.84,5.84,5.84,0,0,1-.48-2.52s0-.14,0-.05Z" transform="translate(-0.02)"/><path class="cls-1" d="M44.6,37.5a.31.31,0,0,0-.09.14.49.49,0,0,0,0,.12.66.66,0,0,0,0,.14.22.22,0,0,0,.08.13.24.24,0,0,0,.14,0h.08l0,0,0,0a.2.2,0,0,0,0-.11h-.06l-.06,0a.27.27,0,0,1-.12,0,.14.14,0,0,1-.09-.08,0,0,0,0,1,0,0v0h0v0h0v0h0a.21.21,0,0,1,0-.06h0a0,0,0,0,0,0,0V37.5Z" transform="translate(-0.02)"/><path class="cls-1" d="M45,37.45l-.19,0-.09,0h-.06s0,0,0,0,0,0,0,.06,0,0,0,0,0,0,0,0h.16l.18,0s0-.07,0-.07a.07.07,0,0,0,0-.05v0Z" transform="translate(-0.02)"/><path class="cls-1" d="M44.81,37.58a.41.41,0,0,1,.3.09h0a.63.63,0,0,1,.11.12l.07.11v0s0-.06,0,0,0-.11,0-.17a1.93,1.93,0,0,1,0-.24h0c0-.05,0,0,0,0v0a.36.36,0,0,1-.08.12h0a.35.35,0,0,1-.42,0h0a.34.34,0,0,1-.09-.12v0h0s0,0,0,0,0,.09,0,.06,0,0,0,0v.08s0,.06,0,0,0,.12,0,.08,0,.11,0,.07,0,.09,0,.06h0s0,.07,0,0v0a.82.82,0,0,1,.11-.17.76.76,0,0,0,0-.16v-.22c0-.07,0-.14,0-.21s0-.08,0-.1-.06,0-.08.05a.52.52,0,0,0-.06.13.78.78,0,0,0,0,.22,2.37,2.37,0,0,0,0,.46.7.7,0,0,0,.1.34.33.33,0,0,0,.19.11.42.42,0,0,0,.37-.2.69.69,0,0,0,0-.13,1.78,1.78,0,0,0,0-.46,1.13,1.13,0,0,0-.06-.32.25.25,0,0,0-.26-.14.33.33,0,0,0-.23.1s0,.08,0,.09v.12s0,.17,0,.16Z" transform="translate(-0.02)"/><path class="cls-1" d="M44.93,36.18a1.56,1.56,0,0,0,0,.48.38.38,0,0,0,.1.27.23.23,0,0,0,.26,0,.32.32,0,0,0,.1-.13.5.5,0,0,0,0-.13,1,1,0,0,0,0-.29.3.3,0,0,0-.08-.18.45.45,0,0,0-.14-.1A.34.34,0,0,0,45,36h0l0,0,0,0a.14.14,0,0,0,0,.09,1,1,0,0,0,0,.34.3.3,0,0,0,0,.13v0s0,0,0,0h0l0,0,.05,0a.24.24,0,0,1,.11-.06l.11,0,.09.05h0s0,0,0,0v0s0,0,0,0,0,0,0,0a.43.43,0,0,1,0-.16v0h0v0l0,0h0a.27.27,0,0,1-.32,0h0l0,0v0h0s0,0,0,0,0,.08,0,.12v.06h0s0,0,0,0v0s0,0,0,0v-.06a.71.71,0,0,0,0-.14,1.08,1.08,0,0,0,0-.18v0a.11.11,0,0,0,0-.06s0,0,0,0Z" transform="translate(-0.02)"/><path class="cls-1" d="M45,34.7a.66.66,0,0,0-.09-.19.35.35,0,0,0-.13-.14h0l0,0,0,0a.34.34,0,0,0-.06.12.65.65,0,0,0,0,.2,2.9,2.9,0,0,0,0,.51.63.63,0,0,0,.13.36.18.18,0,0,0,.1.07.23.23,0,0,0,.11,0,.49.49,0,0,0,.21-.14.44.44,0,0,0,.08-.11.61.61,0,0,0,.05-.12.88.88,0,0,0,0-.28.83.83,0,0,0,0-.15.32.32,0,0,0-.19-.15.17.17,0,0,0-.12,0l-.06,0s0,0,0,.06a.63.63,0,0,0,0,.24h.05l0,0H45a.32.32,0,0,1,.18.12l0,0v0h0s0,0,0,0a.57.57,0,0,1,0-.13v0h0s0,0,0,.05a.11.11,0,0,1-.07,0H45a.49.49,0,0,1-.25-.12l0,0L44.66,35l0,0a.28.28,0,0,1-.08-.11v0s0,0,0,0h0s0,0,0,0,0-.05,0,0V35s0,0,0,0v.25c0,.05,0,0,0,0s0,.06,0,0v0s0,0,0,0h0s0,0,0,0a.31.31,0,0,1,.09-.11h0l0,0h0l0,0h0l.09,0h0l0,.06s0,0,0,0A.57.57,0,0,0,45,35v-.18s0-.11,0-.16Z" transform="translate(-0.02)"/><path class="cls-1" d="M46.58,34.72a.34.34,0,0,0-.41.1.82.82,0,0,0-.2.54,2.24,2.24,0,0,0,.09.89.8.8,0,0,0,.32.4.58.58,0,0,0,.22.08,1,1,0,0,0,.66-.41.85.85,0,0,0,.17-.43,1.1,1.1,0,0,0-.06-.54.83.83,0,0,0-.14-.22,1,1,0,0,0-.21-.2.8.8,0,0,0-.25-.11.28.28,0,0,0-.26.09c0,.05,0,.18,0,.24s0,.23,0,.24a.65.65,0,0,0,.24,0,.65.65,0,0,1,.24,0l.21.06a.38.38,0,0,1,.15.18.23.23,0,0,1,0,.11s0,0,0,0v0a.47.47,0,0,1-.09.22.38.38,0,0,1-.19.14.65.65,0,0,1-.24,0,1.54,1.54,0,0,1-.3-.11,1,1,0,0,1-.28-.16h0a.86.86,0,0,1-.21-.29s0,0,0-.06a.09.09,0,0,1,0,0s0,0,0,0a.88.88,0,0,1,0,.28s0,0,0,0a.07.07,0,0,1,0,0,.5.5,0,0,1,.51-.39s0-.27,0-.3,0-.14,0-.21,0-.07,0-.08Z" transform="translate(-0.02)"/><path class="cls-1" d="M46.24,37.09a.23.23,0,0,0-.16.1.57.57,0,0,0,0,.14,1.77,1.77,0,0,0,0,.46.62.62,0,0,0,.07.23.39.39,0,0,0,.1.08.23.23,0,0,0,.21,0c.22-.07.23-.36.24-.55a2.34,2.34,0,0,0,0-.38.44.44,0,0,0-.06-.16.43.43,0,0,0-.15-.15.53.53,0,0,0-.25,0s0,0-.06,0a.58.58,0,0,0,0,.14.91.91,0,0,0,0,.17.34.34,0,0,0,0,.14s0,0,0,.06l0,0h0a.5.5,0,0,1,.34.09h0a.39.39,0,0,1,.08.1h0s0,0,0,0,0-.05,0,0,0-.07,0,0a1.48,1.48,0,0,1,0-.21V37.3s0,0,0,0,0,0,0,0,0,0,0,0h0s0,0,0,0l0,0a.25.25,0,0,1-.08.1l0,0a.26.26,0,0,1-.33,0h0l-.07-.08,0,0s0,0,0,0v0a1.29,1.29,0,0,1,0,.34h0v0l0,0a.39.39,0,0,1,.08-.1h0l0,0s0,0,0-.06a.53.53,0,0,0,0-.13.57.57,0,0,0,0-.13s0-.06,0-.06Z" transform="translate(-0.02)"/><path class="cls-1" d="M48.23,35.87a.82.82,0,0,0-.23.33,1.11,1.11,0,0,0,0,.17,1.6,1.6,0,0,0,0,.38.5.5,0,0,0,.08.27.29.29,0,0,0,.26.11l.06,0a.23.23,0,0,0,.07-.07.51.51,0,0,0,.1-.21,1.09,1.09,0,0,0,0-.26.28.28,0,0,0,0-.09v0a.49.49,0,0,0,0-.12.6.6,0,0,0-.19-.3,1,1,0,0,0-.17-.1.19.19,0,0,0-.08,0,.09.09,0,0,0-.09,0l0,0,0,0a.22.22,0,0,0,0,.11.43.43,0,0,0,0,.16s0,0,0,0,0,.05,0,.06h.13l.09,0,.1,0a.24.24,0,0,1,.16,0,.26.26,0,0,1,.09.14h0v-.09h0l0,0h0a.16.16,0,0,1-.1,0h-.12a.29.29,0,0,1-.24-.06h0l0,0v0h0s0,0,0,0,0,0,0,0h0l0,.19a1,1,0,0,1,0,.17v0a0,0,0,0,1,0,0s0,0,0,0v0a1.21,1.21,0,0,1,.18-.28.08.08,0,0,0,0-.05.17.17,0,0,1,0-.07v-.18c0-.06,0-.11,0-.17s0-.09,0-.08Z" transform="translate(-0.02)"/></g></g></svg>