<svg xmlns="http://www.w3.org/2000/svg" viewBox="0 0 97.31 86.56"><defs><style>.cls-1{fill:#f1ff39;}</style></defs><title>Asset 25</title><g id="Layer_2" data-name="Layer 2"><g id="Layer_1-2" data-name="Layer 1"><path class="cls-1" d="M35.85,81.64a6.73,6.73,0,0,1-6.35-2.35,33.46,33.46,0,0,1-4.33-8.35,45.3,45.3,0,0,1-3.06-10.88c-.51-4,2.14-7.35,5.66-8.87a18,18,0,0,1,4.29-.95,7.82,7.82,0,0,0,3.94-2c2.28-2.06,3.94-4.75,6.07-7a33.23,33.23,0,0,1,16.24-9.63,27,27,0,0,1,17.15,1.91,25.16,25.16,0,0,1,7.48,5.31c2.13,2.21,4.7,4.5,6.09,7.26,1.63,3.26,2.2,7.23,2.74,10.81a24.08,24.08,0,0,1-1.51,12.31A24.82,24.82,0,0,1,78.41,82.12,26.28,26.28,0,0,1,60,84.46c-3.82-1-7.38-2.77-11.24-3.61-4.33-.94-8.64-.2-13,.36-.13,0,0,1.14,0,1.14,4.24-.57,8.49-1.31,12.74-.48,3.77.74,7.27,2.38,11,3.39a26.37,26.37,0,0,0,18.08-1.91,25.1,25.1,0,0,0,12.81-13.7,26.21,26.21,0,0,0,1.66-9.19,46.42,46.42,0,0,0-1.3-9.52,23.41,23.41,0,0,0-1.49-5,15.71,15.71,0,0,0-3-4.29,46.05,46.05,0,0,0-7-6.72,26.91,26.91,0,0,0-18.42-4.54c-6.74.81-12.84,4.33-17.69,9-2.51,2.39-4.37,5.32-6.81,7.74a8.22,8.22,0,0,1-4.51,2.45A13.94,13.94,0,0,0,26.89,51,9.39,9.39,0,0,0,22,57.68c-.32,2.75.58,5.68,1.32,8.29a55.79,55.79,0,0,0,4.11,10.26c1.05,2,2.24,4.42,4.49,5.36a7.68,7.68,0,0,0,4,.33S35.88,81.63,35.85,81.64Z" transform="translate(-0.17)"/><path class="cls-1" d="M22.51,55.66a4.41,4.41,0,0,0-.92.15,2.89,2.89,0,0,0-1,.25,3,3,0,0,0-1.17,1.27,8.44,8.44,0,0,0-.7,3.94,17.47,17.47,0,0,0,2.86,9.14,1.29,1.29,0,0,0,0-.48c-1-2.7-2.43-5.46-2.6-8.38a5.65,5.65,0,0,1,.89-3.72,2.35,2.35,0,0,1,1.3-.89c.53-.13,1,0,1.34-.54.06-.09.12-.71,0-.74Z" transform="translate(-0.17)"/><path class="cls-1" d="M18.13,70a27,27,0,0,0,4.08,9.82C23,81,24.09,82.82,25.6,83a2.18,2.18,0,0,0,1.89-1,4.18,4.18,0,0,1,.82-.75,1.46,1.46,0,0,1,.61-.23c.23,0,.43,0,.65,0s.2-1,.07-1.14c-1-1.38-2.5,1.07-3.39,1.34-1.58.5-2.88-1.55-3.65-2.61a29.52,29.52,0,0,1-4.43-8.76c0-.11-.05.12,0,.15Z" transform="translate(-0.17)"/><path class="cls-1" d="M18.37,57.63c-.07.74-1.46.3-1.89.27a1.6,1.6,0,0,0-1.57.9c-.68,1.25-.4,3.08-.3,4.42a29.07,29.07,0,0,0,.86,5.17,15.85,15.85,0,0,0,1.8,4.73c.1.15.18-.3.18-.3A1.59,1.59,0,0,0,17.4,72c-.52-1.49-1.14-2.93-1.57-4.44A24.81,24.81,0,0,1,15,62.93c-.13-1.32-.48-3.81,1.44-3.91.64,0,1.08.17,1.61-.26a1.14,1.14,0,0,0,.46-1c0-.08-.06-.42-.09-.16Z" transform="translate(-0.17)"/><path class="cls-1" d="M13.46,69.87A36.34,36.34,0,0,0,17.53,80.8c.76,1.36,1.66,3.36,3.37,3.64s2.4-1.56,2-3c-.17-.6-.35.35-.35.52,0,.66-1.15.85-1.59.79a3,3,0,0,1-1.74-1.08,20.53,20.53,0,0,1-2.44-4,57,57,0,0,1-3.3-8c0-.1,0,.11,0,.13Z" transform="translate(-0.17)"/><path class="cls-1" d="M14.42,60.8c-.55-.35-.69-1.26-1.45-1.24s-1.05.74-1.16,1.34a17.35,17.35,0,0,0-.16,2.79c0,1.09,0,2.19,0,3.28a26.54,26.54,0,0,0,.86,6,17.52,17.52,0,0,0,1,2.7c.34.72.64,1.52,1.4,1.82.09,0,0-.47,0-.51C14.36,75.39,13.51,74,13,72.41a22.15,22.15,0,0,1-.93-4.84A45.31,45.31,0,0,1,12,62.36c0-.67.34-2,1.34-1.66.51.19.5.95,1.11.83.13,0,.1-.67,0-.73Z" transform="translate(-0.17)"/><path class="cls-1" d="M10.45,73.18a10.5,10.5,0,0,1,1.37,2.39c.32.69.63,1.39.9,2.1.56,1.46,1,3,1.73,4.38a8.66,8.66,0,0,0,2.66,3.52c.62.4,1.39.42,1.73-.32a2.34,2.34,0,0,0-.09-2.2c-.15-.16-.24.32-.24.37a2.29,2.29,0,0,0,0,.94h0l0-.86s-.3.27-.33.28a1.28,1.28,0,0,1-1.11-.28,6.07,6.07,0,0,1-1.3-1.28A13.72,13.72,0,0,1,14,78.86c-.48-1.13-.92-2.28-1.48-3.38a8.26,8.26,0,0,0-.86-1.42,10.12,10.12,0,0,0-1.19-1.17s-.06.23,0,.29Z" transform="translate(-0.17)"/><path class="cls-1" d="M11.45,61.6c-.79-.18-1.22-1.18-2.13-.88a2,2,0,0,0-1.15,1.77,23.12,23.12,0,0,0,.05,6.05,22.1,22.1,0,0,0,1.34,5.6,14.88,14.88,0,0,0,1.29,2.55c.4.64,1,1.75,1.82,1.85.22,0,.1-.86.05-1-.72-1.47-1.84-2.68-2.55-4.16a17.8,17.8,0,0,1-1.5-4.93,20.48,20.48,0,0,1-.25-4.88c.08-.86.67-2.07,1.73-1.62.48.21.86.91,1.35.36.08-.09.11-.72-.05-.76Z" transform="translate(-0.17)"/><path class="cls-1" d="M14.88,83.37c0,.24-.56.32-.75.32a1.58,1.58,0,0,1-.91-.45,8.45,8.45,0,0,1-1.35-1.74c-.81-1.27-1.56-2.59-2.27-3.91A24.92,24.92,0,0,1,7.73,73.4,17.33,17.33,0,0,1,7,68.77c0-.09-.08-.55-.16-.25a10.53,10.53,0,0,0,.35,5.1,24.31,24.31,0,0,0,2.35,5.57,28.64,28.64,0,0,0,3,4.86c.41.49,1.14,1.27,1.86,1a1.44,1.44,0,0,0,.65-1.44c0-.18-.16-.61-.21-.19Z" transform="translate(-0.17)"/><path class="cls-1" d="M8.23,63.08c-.64.23-1.58-.73-2.06.05A2.49,2.49,0,0,0,6,64.4c0,.64,0,1.28,0,1.92a29.72,29.72,0,0,0,.32,3.89,7.13,7.13,0,0,0,1.07,3.41c.1.11.15-.26.16-.28a2.13,2.13,0,0,0,0-.71c-.25-1-.58-2.09-.77-3.16a29.25,29.25,0,0,1-.33-3c0-.48,0-1-.08-1.45s-.14-.92.37-1.07,1.24.42,1.61-.36c0-.06,0-.58,0-.56Z" transform="translate(-0.17)"/><path class="cls-1" d="M5.91,64c-.8,1.12-1.58,2.26-2.41,3.36-.66.85-1.8,1.83-2,2.91a4.1,4.1,0,0,0,.18,1.9C2,73.55,2.35,75,2.75,76.36c.63,2.21,1.17,5,3.07,6.47a7.39,7.39,0,0,0,2.75,1.29A10,10,0,0,0,13,84.4c.26-.06.23-1.15,0-1.22-1.08-.28-2.25-.18-3.36-.35a8.79,8.79,0,0,1-3-1c-2-1.18-2.66-3.3-3.34-5.43-.33-1-.66-2-1-3.06S1.28,71,2,70.07a45.79,45.79,0,0,0,4-5.55,1.11,1.11,0,0,0,0-.55Z" transform="translate(-0.17)"/><path class="cls-1" d="M1.59,72.23A2.6,2.6,0,0,0,.38,75.59a10.54,10.54,0,0,0,.5.94,9.77,9.77,0,0,1,.48,1.16A14.62,14.62,0,0,1,1.84,80c0,.26.13.61.43.68A2.79,2.79,0,0,0,3.5,80.5c.24-.07.75-.17.9-.38a1.35,1.35,0,0,0,.07-1L4.33,79c-.07-.14-.16-.16-.27-.08a2.09,2.09,0,0,0-.23.08c-.19.06-.37.1-.55.14s-.38.08-.56.1l-.26,0a.49.49,0,0,1-.17,0,.11.11,0,0,0-.14.06s-.06-.47-.07-.55S2,78.38,2,78.2A9.45,9.45,0,0,0,1.67,77a13.09,13.09,0,0,0-1-2.21,1.05,1.05,0,0,0-.13-.26c0-.11,0-.08,0,.09l0-.1A4.46,4.46,0,0,1,.8,74c.26-.31.57-.59.85-.88a1.46,1.46,0,0,0-.06-.93Z" transform="translate(-0.17)"/><path class="cls-1" d="M38.66,56.16s0-.06,0-.06,0,.06,0,.06Z" transform="translate(-0.17)"/><path class="cls-1" d="M39,56.86c1,8.63-1.93,17.2-.36,25.81.07.36.19.86.52.48s.18-1.47.09-1.88c-1.74-8.19,1.3-16.54-.14-24.77-.07-.43-.12.23-.11.36Z" transform="translate(-0.17)"/><path class="cls-1" d="M42.08,58.92c-1.21,1.1-2.62,2.35-3,4a1,1,0,0,0,0,.38s0,.17.08.07c.15-.38.28-.77.47-1.14a8,8,0,0,1,.7-1.11,23,23,0,0,1,1.72-2s0-.25,0-.24Z" transform="translate(-0.17)"/><path class="cls-1" d="M42.92,62a10.34,10.34,0,0,1-2.14-.32,2.42,2.42,0,0,0-1.69.3c-.05,0,0,.25,0,.24a2,2,0,0,1,1.73-.3,6.15,6.15,0,0,0,2.09.25s0-.17,0-.17Z" transform="translate(-0.17)"/><path class="cls-1" d="M44.07,63.53H44a6.88,6.88,0,0,1-1.39,1.41,16.1,16.1,0,0,0-1.53,1.45,11.42,11.42,0,0,0-1.26,1.67,5.73,5.73,0,0,0-.92,1.85s0,.4.05.38.12-.16.16-.25.16-.38.26-.57a9.72,9.72,0,0,1,.55-1,11,11,0,0,1,1.35-1.71c.48-.51,1-.93,1.55-1.41a3.75,3.75,0,0,0,1.25-1.68s0-.13,0-.13Z" transform="translate(-0.17)"/><path class="cls-1" d="M44.4,65.91c-.46,0-.93.11-1.38.2a5.12,5.12,0,0,0-1.33.55,6.12,6.12,0,0,0-2.25,1.84s0,.31,0,.3a6.64,6.64,0,0,0,1-.73,9.79,9.79,0,0,1,1.25-.8c.41-.22.85-.4,1.26-.62A7.91,7.91,0,0,1,44.4,66s0-.13,0-.13Z" transform="translate(-0.17)"/><path class="cls-1" d="M34.89,61.21a10.68,10.68,0,0,1,2.8,3.43,14.29,14.29,0,0,1,.83,2c.11.33.2.68.28,1a4,4,0,0,0,.23.84c.11.2.15-.23.15-.28a7.09,7.09,0,0,0-.43-2.49,6.55,6.55,0,0,0-.89-1.89,11,11,0,0,0-3-3s-.07.31,0,.36Z" transform="translate(-0.17)"/><path class="cls-1" d="M34.18,67.17A11,11,0,0,1,36.76,70c.36.62.67,1.25,1,1.9.14.29.26.6.39.89a4.25,4.25,0,0,0,.41.86l0,0h.07c.16,0,.12-.6.11-.69a5.86,5.86,0,0,0-1.82-3.27,26.82,26.82,0,0,0-2.75-2.58s0,0,0,0Z" transform="translate(-0.17)"/><path class="cls-1" d="M33.15,68.79a6.92,6.92,0,0,1,1.71.53,7.45,7.45,0,0,1,.83.45,4.13,4.13,0,0,1,.38.25,1.36,1.36,0,0,0,.32.21s0-.2,0-.22a2.6,2.6,0,0,0-.7-.47,6,6,0,0,0-.81-.39,7.45,7.45,0,0,0-1.73-.44s0,.08,0,.08Z" transform="translate(-0.17)"/><path class="cls-1" d="M44,70.06c-.26.1-.51.22-.77.33l-.38.17a.53.53,0,0,1-.17.08.78.78,0,0,0-.21,0,7.26,7.26,0,0,0-1.37.81,6.37,6.37,0,0,0-1.24,1.08A4.81,4.81,0,0,0,38.94,74s0,.23,0,.2.27-.42.42-.62A6.91,6.91,0,0,1,39.9,73a11.77,11.77,0,0,1,1.21-1c.21-.16.42-.3.64-.44s.52-.29.76-.46.24-.21.38-.29l.35-.2.76-.42s0-.1,0-.09Z" transform="translate(-0.17)"/><path class="cls-1" d="M37.07,47.48a4.68,4.68,0,0,1,4.64,2.25c.45.82.33,1.82.81,2.61a3.78,3.78,0,0,0,1.78,1.31A5.28,5.28,0,0,1,47.69,59,5.54,5.54,0,0,1,46,62.19c-.74.71-1.67,1.09-2.45,1.74-.07.06-.09.58,0,.59,1.11,0,2.17-1,2.83-1.82a6.71,6.71,0,0,0,1.38-3,6.11,6.11,0,0,0-1.23-4.93A7.35,7.35,0,0,0,43.87,53a2.43,2.43,0,0,1-1.55-2,6.68,6.68,0,0,0-.27-1.33,3.87,3.87,0,0,0-5-2.26s0,.08,0,.08Z" transform="translate(-0.17)"/><path class="cls-1" d="M38.31,47.15c-2,.19-4.8,1.33-5.32,3.55a2.94,2.94,0,0,0,.5,2.45A2.16,2.16,0,0,1,34,55.2a4.43,4.43,0,0,1-1,1.31s0,.3,0,.3c.76-.11,1.1-1.31,1.15-2a3.5,3.5,0,0,0-.78-2.27c-1-1.52.26-3,1.5-3.85a9.25,9.25,0,0,1,3.43-1.38s0-.2,0-.2Z" transform="translate(-0.17)"/><path class="cls-1" d="M33.3,56.51a6.9,6.9,0,0,0-3.51,5.35,7.55,7.55,0,0,0,.24,3,6.77,6.77,0,0,1,.68,2.93,19.33,19.33,0,0,1-.77,2.8s0,.15,0,.13a5.89,5.89,0,0,0,1-3.21c0-1.43-.77-2.53-1-3.89a7,7,0,0,1,3.35-6.82c.08,0,0-.33,0-.32Z" transform="translate(-0.17)"/><path class="cls-1" d="M30.12,70.3a.58.58,0,0,1,.49.2.82.82,0,0,1,.16.25s0,0,0,0,0,.08,0,.09,0,0,0,0v0s0,0,0,0l-.06.15a2.2,2.2,0,0,1-.17.25c-.15.17-.36.3-.49.48a.73.73,0,0,0-.06.41s0,.36.1.32a.91.91,0,0,0,.32-.3,1.7,1.7,0,0,0,.26-.34A1.72,1.72,0,0,0,31,71a.94.94,0,0,0-.09-.47,2.07,2.07,0,0,0-.17-.24.56.56,0,0,0-.58-.19c-.05,0,0,.26,0,.25Z" transform="translate(-0.17)"/><path class="cls-1" d="M30.05,72.62a8.1,8.1,0,0,0,3.27,3.14,9.07,9.07,0,0,0,2,.78c.61.15,1.68.46,2.17-.05a.3.3,0,0,0,0-.29c-.31-.28-.63-.23-1-.26s-.7-.07-1.05-.13a8.67,8.67,0,0,1-2.06-.65,9,9,0,0,1-3.32-2.68s0,.11,0,.14Z" transform="translate(-0.17)"/><path class="cls-1" d="M44.75,65.81a3.38,3.38,0,0,1,2.38,3A8.24,8.24,0,0,1,46,73.12a6.26,6.26,0,0,1-2.5,2.72,5.51,5.51,0,0,1-3.53.44c-.13,0-.12.65,0,.72,1.28.76,3,.25,4.13-.55a7.74,7.74,0,0,0,2.61-3.74,8.51,8.51,0,0,0,.58-4.59,2.82,2.82,0,0,0-2.51-2.36s0,0,0,0Z" transform="translate(-0.17)"/><path class="cls-1" d="M43.85,64.19a1.15,1.15,0,0,0-.46,1.22,1,1,0,0,0,.36.62,1.11,1.11,0,0,0,.67.25,1.47,1.47,0,0,0,.42-.06l.18-.1a.56.56,0,0,0,.16-.18s0-.17,0-.16h-.06l-.06,0-.14.07a1.6,1.6,0,0,1-.31.1,1.26,1.26,0,0,1-.64-.08.9.9,0,0,1-.52-1.07,1.07,1.07,0,0,1,.42-.62.23.23,0,0,0,0,0Z" transform="translate(-0.17)"/><path class="cls-1" d="M51.62,65.16s0-.06,0-.06,0,.06,0,.06Z" transform="translate(-0.17)"/><path class="cls-1" d="M51.79,65.56c.52,5.4-1.24,10.74-.31,16.14.06.34.2.87.52.48s.18-1.47.09-1.88c-1.11-5,.79-10.09-.19-15.08-.06-.3-.12.27-.11.34Z" transform="translate(-0.17)"/><path class="cls-1" d="M53.72,66.8a4.57,4.57,0,0,0-1.84,2.43,2,2,0,0,0,0,.35s0,.19.07.13c.12-.22.19-.46.3-.69a5,5,0,0,1,.42-.7A13.09,13.09,0,0,1,53.73,67s0-.25,0-.24Z" transform="translate(-0.17)"/><path class="cls-1" d="M54.24,68.7a1.9,1.9,0,0,1-.67-.08,4.66,4.66,0,0,0-.65-.12,1.61,1.61,0,0,0-1,.18c-.05,0,0,.25,0,.24A1.18,1.18,0,0,1,53,68.73c.21,0,.41.12.62.15a2.09,2.09,0,0,0,.66,0s0-.18,0-.18Z" transform="translate(-0.17)"/><path class="cls-1" d="M54.93,69.64s-.31.3-.35.34a3.47,3.47,0,0,1-.42.34,9.94,9.94,0,0,0-.84.76A7.88,7.88,0,0,0,52,72.9a2.73,2.73,0,0,0-.23.45c0,.1-.08.43,0,.53s.21-.3.24-.37a6.19,6.19,0,0,1,.3-.57,7,7,0,0,1,1.48-1.72,5.17,5.17,0,0,0,.87-.88,1.21,1.21,0,0,0,.27-.48c0-.06,0-.17,0-.22Z" transform="translate(-0.17)"/><path class="cls-1" d="M55.14,71.11c-.28,0-.57,0-.84,0a2.07,2.07,0,0,0-.82.32,5.41,5.41,0,0,0-.72.45l-.33.28c0,.05-.12.1-.17.16a2.91,2.91,0,0,0-.17.3s0,.3,0,.29a.36.36,0,0,0,.15,0,.49.49,0,0,0,.14-.11l.35-.26a6.06,6.06,0,0,1,.76-.48c.26-.14.53-.25.77-.4a4.92,4.92,0,0,1,.43-.26l.43-.19s0-.13,0-.13Z" transform="translate(-0.17)"/><path class="cls-1" d="M49.3,68.32A6.67,6.67,0,0,1,51,70.46a11.9,11.9,0,0,1,.5,1.24c.14.38.18.83.33,1.16.05.1.09.09.14,0a1.28,1.28,0,0,0,.06-.52c-.09.53-.1.69,0,.48a.55.55,0,0,0,0-.17,2,2,0,0,0,0-.34,4.07,4.07,0,0,0-.06-.6,4.69,4.69,0,0,0-.17-.72,4.18,4.18,0,0,0-.58-1.29A7.37,7.37,0,0,0,49.31,68s-.07.3,0,.36Z" transform="translate(-0.17)"/><path class="cls-1" d="M48.87,71.91a6,6,0,0,1,1.57,1.83c.22.42.4.85.58,1.29.09.2.16.4.24.59l.12.3c0,.08.07.2.14.25s.17-.19.18-.26a2.51,2.51,0,0,0,0-.82s0,1,0,.37c0-.12,0-.24,0-.37a2,2,0,0,0-.15-.49,3.35,3.35,0,0,0-.3-.52,1.74,1.74,0,0,0-.3-.36c-.12-.1-.24-.2-.35-.31a2.31,2.31,0,0,0-.19-.14l-.19-.18-.42-.39a7.94,7.94,0,0,0-.93-.81s0,0,0,0Z" transform="translate(-0.17)"/><path class="cls-1" d="M48.23,72.91a4.63,4.63,0,0,1,1.05.35,4.16,4.16,0,0,1,.51.28l.23.16c.06,0,.13.13.2.13s0-.2,0-.22a.62.62,0,0,0-.22-.17.72.72,0,0,0-.21-.12,2.84,2.84,0,0,0-.5-.23,4.31,4.31,0,0,0-1.06-.25s0,.07,0,.07Z" transform="translate(-0.17)"/><path class="cls-1" d="M54.9,73.66l-.47.19-.24.1a.36.36,0,0,1-.11,0c-.07,0,0,0-.12,0a2.34,2.34,0,0,0-.44.24c-.14.08-.28.16-.41.25a3.48,3.48,0,0,0-.76.67,2.57,2.57,0,0,0-.56.9s0,.23,0,.2a.59.59,0,0,0,.13-.18l.13-.18c.1-.11.2-.23.31-.33a8.81,8.81,0,0,1,.75-.62l.39-.27c.15-.1.32-.18.47-.29a.29.29,0,0,0,.07-.08.34.34,0,0,1,.16-.13l.21-.13.47-.27s0-.1,0-.1Z" transform="translate(-0.17)"/><path class="cls-1" d="M50.64,59.83a3.07,3.07,0,0,1,2.9,1.6c.21.45.17,1,.42,1.42a2.37,2.37,0,0,0,1.19.87,3.09,3.09,0,0,1,1.94,3.35,3.27,3.27,0,0,1-1,1.61,16.8,16.8,0,0,0-1.5,1.13c-.07.08-.1.54,0,.58a.56.56,0,0,0,.56,0,2.72,2.72,0,0,0,.42-.27,4.32,4.32,0,0,0,.77-.77,4.22,4.22,0,0,0,.83-1.78A3.92,3.92,0,0,0,56.33,64a5.81,5.81,0,0,0-1.64-1,1.35,1.35,0,0,1-.8-1.14,4.38,4.38,0,0,0-.2-.94,2.42,2.42,0,0,0-1.12-1.18,2,2,0,0,0-1.93,0s0,.07,0,.07Z" transform="translate(-0.17)"/><path class="cls-1" d="M51.4,59.57c-1.27.09-3,.79-3.28,2.17a2,2,0,0,0,.32,1.63,1.14,1.14,0,0,1,.27,1.11,4,4,0,0,1-.58.83s0,.28,0,.29c.26,0,.43-.28.53-.49a1.77,1.77,0,0,0,.19-.75,2,2,0,0,0-.07-.73,3.33,3.33,0,0,0-.42-.76c-.57-.87.22-1.73.92-2.21a6.16,6.16,0,0,1,2.11-.89s0-.2,0-.2Z" transform="translate(-0.17)"/><path class="cls-1" d="M48.32,65.3a4.18,4.18,0,0,0-2.17,3.29,5.05,5.05,0,0,0,.15,2,4,4,0,0,1,.4,1.63c-.07.61-.32,1.17-.44,1.78,0,0,0,.14,0,.12a2.13,2.13,0,0,0,.47-.95,3.12,3.12,0,0,0,.17-1.05,3.61,3.61,0,0,0-.15-1.08,12.4,12.4,0,0,1-.46-1.29,4.23,4.23,0,0,1,2-4.14c.07,0,0-.33,0-.32Z" transform="translate(-0.17)"/><path class="cls-1" d="M46.37,73.88a.37.37,0,0,1,.31.14.83.83,0,0,1,.09.16s0-.16,0-.09h0a.4.4,0,0,0,0,.11v.07h0a.62.62,0,0,1,0-.13s0-.08,0,0,0,0,0,0l0,.08-.11.13a.93.93,0,0,1-.14.14.77.77,0,0,0-.16.15.74.74,0,0,0,0,.42s0,.34.1.32.17-.15.23-.22a2.49,2.49,0,0,0,.19-.3,1.39,1.39,0,0,0,.08-.92s0-.08,0-.08h0l0,0a.38.38,0,0,0-.45-.23s0,.25,0,.25Z" transform="translate(-0.17)"/><path class="cls-1" d="M46.33,75.28a4.66,4.66,0,0,0,.87,1.2,5.46,5.46,0,0,0,2.42,1.33,3.49,3.49,0,0,0,.72.12,1,1,0,0,0,.34,0c.13,0,.19-.15.26-.26a.34.34,0,0,0,0-.26.59.59,0,0,0-.23-.24,1.38,1.38,0,0,0-.35,0,5.23,5.23,0,0,1-.68-.07,5.14,5.14,0,0,1-1.27-.37A4.89,4.89,0,0,1,47.25,76a5.66,5.66,0,0,1-.91-.85s0,.11,0,.14Z" transform="translate(-0.17)"/><path class="cls-1" d="M55.36,71.08A2.17,2.17,0,0,1,56.78,73a4.82,4.82,0,0,1-.7,2.44,3.79,3.79,0,0,1-1.52,1.65,2.91,2.91,0,0,1-1.07.34,9.67,9.67,0,0,1-1.08,0c-.16,0-.11.64,0,.71a1.59,1.59,0,0,0,1.31.24,3.46,3.46,0,0,0,1.16-.47,4.65,4.65,0,0,0,1.66-2.27,5.6,5.6,0,0,0,.4-3.15A1.64,1.64,0,0,0,55.35,71s0,0,0,0Z" transform="translate(-0.17)"/><path class="cls-1" d="M54.81,70.07a.73.73,0,0,0-.29.79.66.66,0,0,0,.65.55.75.75,0,0,0,.26,0l.1-.06,0,0s0-.06.05-.09,0-.14,0-.15h0l0,0-.09,0a.6.6,0,0,1-.19.06.74.74,0,0,1-.39,0,.51.51,0,0,1-.32-.59.7.7,0,0,1,.26-.39s0,0,0,0Z" transform="translate(-0.17)"/><path class="cls-1" d="M84.91,52.72s0-.06,0-.06,0,.06,0,.06Z" transform="translate(-0.17)"/><path class="cls-1" d="M85.07,53.31c.46,8.11-1.19,16.21-.35,24.31,0,.27.08,1.08.48.95s.25-1.48.22-1.69C84.38,69,86.09,61,85.19,53c0-.41-.13.14-.12.27Z" transform="translate(-0.17)"/><path class="cls-1" d="M86.85,55.34a8.75,8.75,0,0,0-1.7,3.87,1,1,0,0,0,0,.35s.06.13.08,0c.09-.35.16-.71.26-1.07s.24-.7.38-1c.29-.66.64-1.29,1-1.91,0,0,0-.24,0-.24Z" transform="translate(-0.17)"/><path class="cls-1" d="M87.33,58.27a1.28,1.28,0,0,1-.64-.11,3.35,3.35,0,0,0-.61-.2,1,1,0,0,0-.93.3.37.37,0,0,0,0,.15s0,.11,0,.09a.81.81,0,0,1,.45-.34.91.91,0,0,1,.49,0c.2.06.38.17.58.22a1.31,1.31,0,0,0,.65,0s0-.18,0-.18Z" transform="translate(-0.17)"/><path class="cls-1" d="M88,59.72h0s0,0,0,0a7,7,0,0,1-.86,1.41,13.4,13.4,0,0,0-.89,1.45,14.58,14.58,0,0,0-.68,1.57,6.71,6.71,0,0,0-.47,1.7s0,.32.07.27.08-.21.11-.3.08-.32.13-.48c.09-.32.19-.63.31-.94a11.8,11.8,0,0,1,.79-1.69c.27-.46.61-.89.89-1.35A3.76,3.76,0,0,0,88,59.83s0-.11,0-.11Z" transform="translate(-0.17)"/><path class="cls-1" d="M88.17,62a5.36,5.36,0,0,0-.81.22,2,2,0,0,0-.73.48,6,6,0,0,0-.69.73c-.11.14-.21.28-.31.43a3.2,3.2,0,0,0-.29.62s0,.29,0,.27a.46.46,0,0,0,.15-.09,1.27,1.27,0,0,0,.13-.19c.11-.13.21-.27.31-.4a6.87,6.87,0,0,1,.69-.74c.23-.22.49-.41.72-.63a3.86,3.86,0,0,1,.8-.57s0-.13,0-.13Z" transform="translate(-0.17)"/><path class="cls-1" d="M82.77,57.53a10.56,10.56,0,0,1,1.59,3.29c.17.61.32,1.25.43,1.88.06.31.1.63.14.95a2.34,2.34,0,0,0,.18.79c.08.17.13-.1.14-.16A6.76,6.76,0,0,0,85.06,62a10.75,10.75,0,0,0-.55-1.94,9.73,9.73,0,0,0-1.73-2.93s-.06.28,0,.36Z" transform="translate(-0.17)"/><path class="cls-1" d="M82.37,63.18a11.19,11.19,0,0,1,1.43,2.63c.43,1.1.57,2.28.93,3.4,0,0,.06.23.13.22h0c.17,0,.14-.57.14-.66l0,.33,0-.16c0-.12,0-.25,0-.37a2.85,2.85,0,0,0-.11-.65,7.41,7.41,0,0,0-.25-.8A8.68,8.68,0,0,0,84,65.74a24.76,24.76,0,0,0-1.62-2.58v0Z" transform="translate(-0.17)"/><path class="cls-1" d="M81.79,64.72a3.08,3.08,0,0,1,1,.52,4.09,4.09,0,0,1,.44.39,2.62,2.62,0,0,1,.22.25c0,.06.11.18.19.22s0-.19,0-.21a.79.79,0,0,0-.19-.25c-.07-.08-.15-.15-.22-.22a3.82,3.82,0,0,0-.46-.36,2.73,2.73,0,0,0-1-.41s0,.07,0,.07Z" transform="translate(-0.17)"/><path class="cls-1" d="M87.94,65.92l-.44.33a2.08,2.08,0,0,1-.45.3,1.69,1.69,0,0,0-.41.35c-.13.14-.26.27-.39.42a5.14,5.14,0,0,0-.67,1,5,5,0,0,0-.52,1.35s0,.2,0,.18a5.31,5.31,0,0,0,.23-.55,5.18,5.18,0,0,1,.31-.57,7.68,7.68,0,0,1,.7-1,5.46,5.46,0,0,1,.39-.45l.18-.18L87,67c.06-.06,0-.1.11-.18a2.81,2.81,0,0,1,.39-.38L88,66s0-.1,0-.1Z" transform="translate(-0.17)"/><path class="cls-1" d="M84,44.47c1.66-.38,2.62,1.63,2.8,2.94a6,6,0,0,0,.37,1.92,4.34,4.34,0,0,0,1.24,1.25C89.8,51.75,90.18,54,90,55.67a6.67,6.67,0,0,1-1,2.79c-.39.6-.93,1.07-1.36,1.63,0,.07-.1.59,0,.59.76,0,1.23-1,1.55-1.56a8.62,8.62,0,0,0,.81-2.58,8.71,8.71,0,0,0-.69-5.21,5.43,5.43,0,0,0-1.54-1.66c-1-.83-.72-2.16-1-3.28s-1.42-2.89-2.8-2c0,0,0,.08,0,.07Z" transform="translate(-0.17)"/><path class="cls-1" d="M84.71,44.15a4,4,0,0,0-3,3.47,4.2,4.2,0,0,0,.26,2.16,3.3,3.3,0,0,1,.32,1.88,4.66,4.66,0,0,1-.56,1.39s0,.31,0,.29c.5-.15.62-1.22.65-1.67a4.35,4.35,0,0,0-.3-2,3.39,3.39,0,0,1-.27-2.08,4.13,4.13,0,0,1,.63-1.46,4.48,4.48,0,0,1,2.3-1.76s0-.2,0-.2Z" transform="translate(-0.17)"/><path class="cls-1" d="M81.86,53.05a7.72,7.72,0,0,0-2,5.28,10.89,10.89,0,0,0,.21,3,9.09,9.09,0,0,1,.28,2.85c-.07.79-.27,1.55-.37,2.34,0,0,0,.14,0,.1a7.52,7.52,0,0,0,.59-3.11A32.07,32.07,0,0,0,80,60c-.24-2.2.24-5,1.87-6.6.06-.06,0-.33,0-.31Z" transform="translate(-0.17)"/><path class="cls-1" d="M80.06,66.16c.14,0,.23.09.29.2a1.13,1.13,0,0,1,.08.24c0,.09,0,0,0-.09v0a.86.86,0,0,0,0,.16s0-.07,0,0h0c0,.08,0,0,0,0a.36.36,0,0,1,0,.11,1.89,1.89,0,0,1-.11.25c-.08.17-.21.31-.28.48a.94.94,0,0,0,0,.47s0,.28.11.21a.41.41,0,0,0,.13-.19,1.74,1.74,0,0,0,.1-.19,2.85,2.85,0,0,0,.17-.46,2.63,2.63,0,0,0,.09-.55.93.93,0,0,0-.08-.53l0,.09c0-.18-.17-.69-.46-.56,0,0,0,.26,0,.25Z" transform="translate(-0.17)"/><path class="cls-1" d="M80,68.35a6.73,6.73,0,0,0,1.85,3,4,4,0,0,0,1.19.75,2.24,2.24,0,0,0,.63.16,1.3,1.3,0,0,0,.34,0,.55.55,0,0,0,.25-.27.34.34,0,0,0,0-.28.55.55,0,0,0-.29-.23c-.09,0-.21,0-.31,0a3.73,3.73,0,0,1-.58-.12,3.52,3.52,0,0,1-1.19-.64A7,7,0,0,1,80,68.23s0,.1,0,.12Z" transform="translate(-0.17)"/><path class="cls-1" d="M88.37,61.89c1.08.42,1.29,2,1.31,3a12.74,12.74,0,0,1-.51,3.41,7.16,7.16,0,0,1-1.25,2.75,2.05,2.05,0,0,1-2.28.73c-.13,0-.09.64,0,.72,1,.87,2.12-.09,2.68-.94A10.06,10.06,0,0,0,89.6,68a11.35,11.35,0,0,0,.23-3.94c-.12-.81-.5-2.11-1.46-2.24,0,0,0,0,0,0Z" transform="translate(-0.17)"/><path class="cls-1" d="M87.86,60.35a1.35,1.35,0,0,0-.28,1c0,.34.15.87.56.94a.4.4,0,0,0,.26-.05.48.48,0,0,0,.22-.28s0-.16,0-.15a.18.18,0,0,0-.1.07l-.13.09a.43.43,0,0,1-.25,0,.59.59,0,0,1-.44-.41,1.42,1.42,0,0,1-.07-.65,1.24,1.24,0,0,1,.24-.62s0,0,0,0Z" transform="translate(-0.17)"/><path class="cls-1" d="M42.47,48.61c-.15.07-.15.24-.14.38a.42.42,0,0,0,.17.33.1.1,0,0,0,.09,0,.19.19,0,0,0,.1,0s0-.14,0-.14a.22.22,0,0,1-.14,0l-.06,0a.12.12,0,0,1,0-.05.37.37,0,0,1-.07-.12h0v0h0s0,0,0,0,0,0,0,0h0v0a.19.19,0,0,1,.11-.12s0-.07,0-.09v-.08Z" transform="translate(-0.17)"/><path class="cls-1" d="M42.91,48.59h-.46a.24.24,0,0,0,0,.12h.46s0-.14,0-.14Z" transform="translate(-0.17)"/><path class="cls-1" d="M42.11,46.36a.35.35,0,0,0-.31.34.65.65,0,0,0,0,.24.63.63,0,0,0,0,.19.34.34,0,0,0,.17.2.41.41,0,0,0,.52-.16.59.59,0,0,0,.1-.39.73.73,0,0,0-.11-.38.61.61,0,0,0-.28-.19.47.47,0,0,0-.17,0,.12.12,0,0,0-.08,0,.2.2,0,0,0-.08.08s0,.07,0,.09,0,.07,0,.08l.06,0h.19a.5.5,0,0,1,.24.09.38.38,0,0,1,.16.19v-.07h0a.49.49,0,0,1,0,.11.51.51,0,0,1-.44.22.32.32,0,0,1-.2-.1.59.59,0,0,1,0-.08v0s0,0,0,0,0,0,0,0v0h0v0h0s0,0,0-.06a.3.3,0,0,1,.06-.11.32.32,0,0,1,.2-.12s0-.23,0-.23Z" transform="translate(-0.17)"/><path class="cls-1" d="M42.34,43.65a.81.81,0,0,0-.63.67,1.51,1.51,0,0,0,0,.76.77.77,0,0,0,.32.43.74.74,0,0,0,.5.13,1,1,0,0,0,.51-.23A.92.92,0,0,0,43.4,45a1.23,1.23,0,0,0,0-.71,1.14,1.14,0,0,0-.36-.58,1.42,1.42,0,0,0-.28-.2.31.31,0,0,0-.17,0h-.08s-.06,0-.08.08,0,.12,0,.16,0,.13,0,.16a.15.15,0,0,0,0,.06h.06l.13,0a.64.64,0,0,1,.24,0,.83.83,0,0,1,.37.32,1.22,1.22,0,0,1,.1.24.07.07,0,0,0,0,.05s0,0,0,0l0,.11a.65.65,0,0,1-.27.36,1,1,0,0,1-.42.12,1.44,1.44,0,0,1-.46,0,.72.72,0,0,1-.36-.26.69.69,0,0,1-.1-.19s0,0,0,0,0-.05,0,0,0,0,0,0v0h0s0,0,0,0v-.07a.74.74,0,0,1,0-.14,1.23,1.23,0,0,1,.12-.26.85.85,0,0,1,.42-.35s0-.15,0-.15Z" transform="translate(-0.17)"/><path class="cls-1" d="M44.07,46.53c-.17.06-.19.24-.18.4a.42.42,0,0,0,.27.39.39.39,0,0,0,.44-.25.94.94,0,0,0,0-.16,1.23,1.23,0,0,0,0-.27.56.56,0,0,0-.14-.3.47.47,0,0,0-.27-.16h-.07a.12.12,0,0,0-.08,0l-.06.05,0,0,0,.06a.58.58,0,0,0,0,.19s0,.06,0,.09a.24.24,0,0,0,0,.09l0,0h.27a.46.46,0,0,1,.28.08h0s.07,0,.08.08h0v-.09s0,0,0,0l0,.08a.45.45,0,0,1-.25.24.29.29,0,0,1-.3,0,.25.25,0,0,1-.08-.1.14.14,0,0,1,0-.06v0h0v0a0,0,0,0,0,0,0l0-.08a.3.3,0,0,1,.12-.13s0-.07,0-.07Z" transform="translate(-0.17)"/><path class="cls-1" d="M44.09,45.19a.46.46,0,0,0-.12.46.41.41,0,0,0,.28.36.45.45,0,0,0,.43-.18.58.58,0,0,0,.06-.34.73.73,0,0,0-.09-.32.56.56,0,0,0-.23-.25.28.28,0,0,0-.13,0h-.07a.12.12,0,0,0-.07.05s0,.09,0,.12v.16a.76.76,0,0,0,0,.15s0,.06,0,.07h.21a.62.62,0,0,1,.19,0,.22.22,0,0,1,.12.09v0h0V45.5h0v0a.14.14,0,0,0,0,.06.45.45,0,0,1-.34.24.32.32,0,0,1-.32-.16l0-.1v-.05a.36.36,0,0,1,.11-.21s0,0,0,0v-.06Z" transform="translate(-0.17)"/><path class="cls-1" d="M44.09,48.52c-.17,0-.19.25-.18.4s.07.36.24.41a.39.39,0,0,0,.45-.28.61.61,0,0,0-.06-.6.57.57,0,0,0-.26-.2.48.48,0,0,0-.17,0s-.12,0-.16.06,0,.14,0,.14l.12,0a.28.28,0,0,0,.13,0,.63.63,0,0,1,.22.07.61.61,0,0,1,.16.16.76.76,0,0,1,0,.11s0,0,0,0h0a.14.14,0,0,1,0,.06.44.44,0,0,1-.35.25.31.31,0,0,1-.29-.18.09.09,0,0,1,0,0h0a.06.06,0,0,1,0,0,.23.23,0,0,1,.14-.15.24.24,0,0,0,0-.15Z" transform="translate(-0.17)"/><path class="cls-1" d="M45.67,42.34a.4.4,0,0,0-.44.14.69.69,0,0,0-.11.28,2.75,2.75,0,0,0,0,.5,3.76,3.76,0,0,0,.1.75.71.71,0,0,0,.26.43.63.63,0,0,0,.77-.09.81.81,0,0,0,.24-.34,1.34,1.34,0,0,0,0-.35,1.49,1.49,0,0,0,0-.42,1,1,0,0,0-.29-.52,1.3,1.3,0,0,0-.23-.18.39.39,0,0,0-.14,0,.27.27,0,0,0-.15,0s0,.16,0,.2,0,.17,0,.2a.56.56,0,0,0,.2.14.76.76,0,0,1,.49.38,1,1,0,0,1,.07.18h0a.74.74,0,0,0,0-.15s0,0,0,0,0,0,0,0a.57.57,0,0,1-.2.26.84.84,0,0,1-.64.09.44.44,0,0,1-.26-.18.54.54,0,0,1-.1-.2.29.29,0,0,0,0-.09v-.05s0,0,0,0a.66.66,0,0,1,0-.14s0,.06,0,0a.22.22,0,0,1,0,.08s0,0,0,0a.19.19,0,0,1,0-.08.43.43,0,0,1,0-.12.43.43,0,0,1,.42-.23s0-.21,0-.23,0-.1,0-.16,0,0,0-.06Z" transform="translate(-0.17)"/><path class="cls-1" d="M46.23,46.38a.76.76,0,0,1,.29.35.45.45,0,0,1,0,.11.09.09,0,0,1,0,0v-.06s-.05.15-.06.16a.59.59,0,0,1-.3.24l-.1,0c-.06,0-.07,0-.09.09a.62.62,0,0,0,0,.19.34.34,0,0,0,.06.2h0a.54.54,0,0,0,.38-.26.93.93,0,0,0,.17-.49.77.77,0,0,0-.39-.82s0,.17,0,.19Z" transform="translate(-0.17)"/><path class="cls-1" d="M45.88,46.3a1.35,1.35,0,0,0-.69.5.86.86,0,0,0-.11.47,1.34,1.34,0,0,0,.09.63.48.48,0,0,0,.6.25.7.7,0,0,0,.5-.55,2.26,2.26,0,0,0,0-.82,2.76,2.76,0,0,0-.08-.27c0-.07,0-.1-.13-.09s0,.24,0,.26.05.18.08.27,0,.13.07.2,0,0,0,.06,0-.07,0,0v-.12h0a.45.45,0,0,1,0,.08.59.59,0,0,1-.4.4.51.51,0,0,1-.52-.09.38.38,0,0,1-.09-.13s0,0,0-.05,0,0,0,0h0a.34.34,0,0,1,0,.1v.06s0,0,0,0v0l.06-.16a1.79,1.79,0,0,1,.66-.62s0-.12,0-.15,0-.16,0-.15Z" transform="translate(-0.17)"/><path class="cls-1" d="M46.25,45.12a.39.39,0,0,1,.29.21l0,.07h0v-.1h0v0s0,0,0,0v0a.18.18,0,0,1,0,.07h0a.38.38,0,0,1-.5,0h0a.25.25,0,0,1-.08-.1s0,0,0,0v0h0v0s0,.09,0,.07v.06h0s0,0,0,0,0,0,0,0v0s0,0,0,0l0-.06.09-.11h0l.1-.07h0l.11-.08s0,0,0,0V45a.28.28,0,0,0,0-.09.06.06,0,0,0,0,0,.45.45,0,0,0-.11,0,.12.12,0,0,0-.1,0,.36.36,0,0,0-.13.21.63.63,0,0,0,0,.19,1.67,1.67,0,0,0,0,.32.39.39,0,0,0,.13.21.38.38,0,0,0,.42,0,.37.37,0,0,0,.14-.18.47.47,0,0,0,0-.17,1.13,1.13,0,0,0,0-.26.37.37,0,0,0-.36-.33s0,.24,0,.24Z" transform="translate(-0.17)"/><path class="cls-1" d="M52.55,53.86a.82.82,0,0,0-.63.67,1.82,1.82,0,0,0,0,.77.84.84,0,0,0,.32.42.72.72,0,0,0,.51.13,1.11,1.11,0,0,0,.51-.22,1,1,0,0,0,.32-.42,1.38,1.38,0,0,0,0-.7,1.26,1.26,0,0,0-.37-.59,1.38,1.38,0,0,0-.28-.19.31.31,0,0,0-.16-.06h-.09s0,0-.08.07a.49.49,0,0,0,0,.17s0,.13,0,.16l.06.05h.05l.13,0a.69.69,0,0,1,.25,0,.72.72,0,0,1,.36.33.64.64,0,0,1,.1.24.07.07,0,0,1,0,0s0,0,0,0,0,.08,0,.11a.66.66,0,0,1-.27.36.82.82,0,0,1-.43.12,1.14,1.14,0,0,1-.45,0,.68.68,0,0,1-.37-.25A.82.82,0,0,1,52,54.9s0,0,0-.06,0-.05,0,0h0v0h0a.13.13,0,0,1,0-.06l0-.14a1.11,1.11,0,0,1,.12-.27,1,1,0,0,1,.42-.35s0-.15,0-.15Z" transform="translate(-0.17)"/><path class="cls-1" d="M54.28,56.74a.36.36,0,0,0-.17.4.39.39,0,0,0,.27.39.39.39,0,0,0,.44-.24.51.51,0,0,0,0-.17,1.11,1.11,0,0,0,0-.26.75.75,0,0,0-.15-.31.47.47,0,0,0-.27-.16h-.07a.08.08,0,0,0-.07,0l-.07.05,0,0a.09.09,0,0,0,0,.06.31.31,0,0,0,0,.19v.1a.37.37,0,0,0,0,.09l0,0h.12s0,0,.07,0h.09a.47.47,0,0,1,.28.07h0a.14.14,0,0,1,.07.08s0,0,0,0V57h0a.16.16,0,0,1,0,.09.45.45,0,0,1-.25.24.29.29,0,0,1-.3,0,.44.44,0,0,1-.08-.11l0-.06v0h0s0,0,0,0,0,0,0,0,0,0,0,0a.13.13,0,0,1,0-.08.25.25,0,0,1,.11-.12s0-.08,0-.08Z" transform="translate(-0.17)"/><path class="cls-1" d="M54.3,55.4a.48.48,0,0,0-.12.47.41.41,0,0,0,.29.35.4.4,0,0,0,.42-.18A.5.5,0,0,0,55,55.7a.72.72,0,0,0-.08-.32.66.66,0,0,0-.23-.24.25.25,0,0,0-.14,0h-.07a.12.12,0,0,0-.07,0s0,.09,0,.12v.16a.77.77,0,0,0,0,.15s0,.07,0,.07,0,0,0,0h.15l.19,0a.22.22,0,0,1,.13.1v0s0,0,0,0v-.08s0,0,0,0,0,0,0,0a.14.14,0,0,1,0,.06.41.41,0,0,1-.33.24.32.32,0,0,1-.33-.16.3.3,0,0,1,0-.1v-.05a.43.43,0,0,1,.11-.2s0-.05,0-.06V55.4Z" transform="translate(-0.17)"/><path class="cls-1" d="M54.31,58.73c-.18.05-.19.25-.18.4s.06.37.23.42a.41.41,0,0,0,.45-.28.66.66,0,0,0-.05-.61.82.82,0,0,0-.26-.2l-.17-.05a.36.36,0,0,0-.17.07s0,.13,0,.13l.11,0h.13a.79.79,0,0,1,.22.06.37.37,0,0,1,.16.17s0,.07.05.1h0v0a.14.14,0,0,1,0,.06.42.42,0,0,1-.34.25.32.32,0,0,1-.3-.19s0,0,0,0h0v0a.32.32,0,0,1,.14-.16s0-.15,0-.15Z" transform="translate(-0.17)"/><path class="cls-1" d="M55.88,52.55a.38.38,0,0,0-.43.14.49.49,0,0,0-.11.28,2.1,2.1,0,0,0,0,.5,3.75,3.75,0,0,0,.09.75.71.71,0,0,0,.27.44.64.64,0,0,0,.76-.1.71.71,0,0,0,.24-.33,1.1,1.1,0,0,0,0-.35,2.86,2.86,0,0,0,0-.42,1,1,0,0,0-.3-.53,1.37,1.37,0,0,0-.23-.17A.25.25,0,0,0,56,52.7a.28.28,0,0,0-.15.06s0,.16,0,.2,0,.16,0,.2a.86.86,0,0,0,.2.13l.2.08a.72.72,0,0,1,.29.31.53.53,0,0,1,.08.17s0,0,0,0a.61.61,0,0,0,0-.14h0v0a.51.51,0,0,1-.2.26.83.83,0,0,1-.63.1.52.52,0,0,1-.27-.19.72.72,0,0,1-.09-.2.24.24,0,0,1,0-.09v0s0-.05,0-.06,0-.09,0-.14,0,.07,0,0v0s0,0,0-.08a.34.34,0,0,1,.06-.12A.42.42,0,0,1,55.9,53s0-.2,0-.22a.81.81,0,0,0,0-.16s0-.06,0-.07Z" transform="translate(-0.17)"/><path class="cls-1" d="M56.44,56.59a.73.73,0,0,1,.29.36.36.36,0,0,1,0,.11.06.06,0,0,0,0,0s0-.05,0-.05-.05.14-.06.16a.64.64,0,0,1-.3.24l-.1,0c-.05,0-.07,0-.09.1a.41.41,0,0,0,0,.19.35.35,0,0,0,0,.2h0a.6.6,0,0,0,.38-.26.91.91,0,0,0,.17-.49.76.76,0,0,0-.38-.82s0,.16,0,.18Z" transform="translate(-0.17)"/><path class="cls-1" d="M56.09,56.51a1.39,1.39,0,0,0-.69.5,1.13,1.13,0,0,0-.11.48,1.46,1.46,0,0,0,.09.62.5.5,0,0,0,.61.26.69.69,0,0,0,.49-.56,2.06,2.06,0,0,0,0-.82,1.38,1.38,0,0,0-.08-.27c0-.06,0-.09-.12-.09s0,.24,0,.27.05.18.08.27,0,.12.07.19a.13.13,0,0,1,0,.06c0,.06,0-.06,0,0V57.3h0a.2.2,0,0,1,0,.07.61.61,0,0,1-.4.4.51.51,0,0,1-.53-.09.38.38,0,0,1-.09-.13l0,0s0,0,0,0h0v.15h0s0,0,0-.06a.52.52,0,0,1,.06-.16,1.84,1.84,0,0,1,.65-.62s0-.12,0-.15,0-.15,0-.15Z" transform="translate(-0.17)"/><path class="cls-1" d="M56.46,55.33a.37.37,0,0,1,.29.21l0,.08s0,0,0,0h0v-.1h0s0,0,0,0v0h0v0l0,.06h0a.41.41,0,0,1-.51,0h0a.44.44,0,0,1-.08-.11h0v0h0s0,0,0,0v0s0,.09,0,.07v.06h0v0h0v0s0,0,0,0l0-.06a.31.31,0,0,1,.09-.11h0l.09-.08h0a.39.39,0,0,1,.1-.08.06.06,0,0,0,0,0,.28.28,0,0,0,0-.09s0-.06,0-.08,0,0,0,0l-.12,0a.21.21,0,0,0-.1,0,.36.36,0,0,0-.13.22,1,1,0,0,0,0,.5.28.28,0,0,0,.12.21.4.4,0,0,0,.42,0,.43.43,0,0,0,.15-.18l0-.17a1.23,1.23,0,0,0,0-.27.36.36,0,0,0-.35-.32s0,.23,0,.23Z" transform="translate(-0.17)"/><path class="cls-1" d="M65.32,38.54a.82.82,0,0,0-.63.67,1.68,1.68,0,0,0,0,.77.78.78,0,0,0,.32.42.72.72,0,0,0,.51.13,1.13,1.13,0,0,0,.5-.22.93.93,0,0,0,.32-.42,1.32,1.32,0,0,0,0-.71A1.29,1.29,0,0,0,66,38.6a1.38,1.38,0,0,0-.28-.19.31.31,0,0,0-.16-.06H65.5a.14.14,0,0,0-.08.07.45.45,0,0,0,0,.16s0,.14,0,.17,0,0,0,.05h.06l.13,0a.69.69,0,0,1,.25,0,.77.77,0,0,1,.36.33.64.64,0,0,1,.1.24.06.06,0,0,0,0,0s0,0,0,0,0,.07,0,.11a.71.71,0,0,1-.27.36.82.82,0,0,1-.43.12,1.14,1.14,0,0,1-.45,0,.65.65,0,0,1-.37-.26,1,1,0,0,1-.1-.18s0,0,0-.06,0-.05,0,0,0,0,0,0v0h0a.2.2,0,0,1,0-.07.89.89,0,0,1,0-.14A1.23,1.23,0,0,1,64.9,39a.9.9,0,0,1,.42-.35s0-.15,0-.15Z" transform="translate(-0.17)"/><path class="cls-1" d="M67.05,41.42c-.16.06-.19.25-.18.4a.42.42,0,0,0,.27.39.39.39,0,0,0,.44-.24.35.35,0,0,0,0-.17.74.74,0,0,0,0-.26.62.62,0,0,0-.14-.31.47.47,0,0,0-.27-.16h-.07a.08.08,0,0,0-.07,0l-.07.05,0,0,0,.06a.62.62,0,0,0,0,.19.31.31,0,0,1,0,.1.24.24,0,0,0,0,.08s0,0,0,0h.27a.57.57,0,0,1,.29.08h0a.16.16,0,0,1,.07.07h0v-.09h0l0,.09a.49.49,0,0,1-.25.24.32.32,0,0,1-.3,0,.39.39,0,0,1-.08-.1.14.14,0,0,1,0-.06v0h0s0,0,0,0v0l0-.08a.49.49,0,0,1,.12-.13s0-.07,0-.07Z" transform="translate(-0.17)"/><path class="cls-1" d="M67.07,40.08a.48.48,0,0,0-.12.47.39.39,0,0,0,.29.35.41.41,0,0,0,.42-.18.5.5,0,0,0,.06-.34.62.62,0,0,0-.09-.32.75.75,0,0,0-.22-.25.35.35,0,0,0-.14,0H67.2a.12.12,0,0,0-.07.05.25.25,0,0,0,0,.12v.16a.77.77,0,0,0,0,.15s0,.06,0,.07h.21a.62.62,0,0,1,.19,0,.17.17,0,0,1,.12.1l0,0s0,0,0,0,0-.06,0-.08h0s0,0,0,.06a.43.43,0,0,1-.34.24.3.3,0,0,1-.32-.16.42.42,0,0,1,0-.1V40.4a.36.36,0,0,1,.11-.2.15.15,0,0,0,0-.06v-.06Z" transform="translate(-0.17)"/><path class="cls-1" d="M67.08,43.41c-.18.05-.19.25-.19.4s.07.37.24.42a.41.41,0,0,0,.45-.28.63.63,0,0,0-.06-.61.57.57,0,0,0-.26-.2l-.16,0c-.06,0-.12,0-.17.07s0,.13,0,.13a.53.53,0,0,1,.12,0h.13a.46.46,0,0,1,.22.06.44.44,0,0,1,.16.17.42.42,0,0,1,0,.1s0,0,0,0v0a.14.14,0,0,1,0,.06.39.39,0,0,1-.34.24.31.31,0,0,1-.3-.18s0,0,0,0h0s0,0,0,0a.26.26,0,0,1,.14-.15s0-.15,0-.15Z" transform="translate(-0.17)"/><path class="cls-1" d="M68.65,37.23a.38.38,0,0,0-.43.14.49.49,0,0,0-.11.28,2.74,2.74,0,0,0,0,.5,4.67,4.67,0,0,0,.1.75.74.74,0,0,0,.26.44.65.65,0,0,0,.77-.1.69.69,0,0,0,.24-.34,1,1,0,0,0,0-.34,1.93,1.93,0,0,0,0-.42,1,1,0,0,0-.29-.53,1,1,0,0,0-.23-.17.25.25,0,0,0-.14-.06.28.28,0,0,0-.15.06s0,.16,0,.2,0,.16,0,.2a.86.86,0,0,0,.2.13l.2.08a.76.76,0,0,1,.29.3.67.67,0,0,1,.07.18h0a.75.75,0,0,0,0-.15s0,0,0,0a.06.06,0,0,0,0,0,.57.57,0,0,1-.2.26.83.83,0,0,1-.63.1.48.48,0,0,1-.27-.19.72.72,0,0,1-.09-.2.24.24,0,0,1,0-.09v0s0-.05,0-.06,0-.09,0-.14,0,.07,0,0a.22.22,0,0,0,0,.08v0a.24.24,0,0,1,0-.08.61.61,0,0,1,0-.12.43.43,0,0,1,.42-.23s0-.21,0-.22a.81.81,0,0,0,0-.16s0-.06,0-.07Z" transform="translate(-0.17)"/><path class="cls-1" d="M69.21,41.27a.79.79,0,0,1,.29.36.42.42,0,0,1,0,.1v.05s0-.05,0-.05-.05.14-.06.15a.54.54,0,0,1-.3.24l-.1,0c-.06,0-.07,0-.09.1a.58.58,0,0,0,0,.19.47.47,0,0,0,.06.2h0a.54.54,0,0,0,.38-.26.85.85,0,0,0,.17-.48.77.77,0,0,0-.39-.82s0,.16,0,.18Z" transform="translate(-0.17)"/><path class="cls-1" d="M68.86,41.19a1.39,1.39,0,0,0-.69.5,1.09,1.09,0,0,0-.11.48,1.32,1.32,0,0,0,.09.62.5.5,0,0,0,.61.26.7.7,0,0,0,.49-.56,2.26,2.26,0,0,0,0-.82,2.76,2.76,0,0,0-.08-.27c0-.06,0-.1-.12-.09s0,.24,0,.27,0,.18.08.27,0,.12.07.19a.13.13,0,0,1,0,.06c0,.06,0-.06,0,0V42h0a.23.23,0,0,1,0,.07.63.63,0,0,1-.41.4.49.49,0,0,1-.52-.09.38.38,0,0,1-.09-.13s0,0,0,0,0,0,0,0,0,0,0,0a.28.28,0,0,1,0,.09v.06h0s0,0,0-.06a.77.77,0,0,1,.07-.16,1.76,1.76,0,0,1,.65-.62s0-.12,0-.15,0-.15,0-.15Z" transform="translate(-0.17)"/><path class="cls-1" d="M69.23,40a.37.37,0,0,1,.29.21l0,.08h0s0,0,0,0h0v-.1s0,0,0,0v0h0v0a.18.18,0,0,1,0,.07h0a.42.42,0,0,1-.51,0h0a.39.39,0,0,1-.08-.1h0v0s0,.09,0,.07v.06h0v0s0,0,0,0v0s0,0,0,0l0-.06.09-.11h0l.09-.08h0l.11-.07a.06.06,0,0,0,0,0,.14.14,0,0,0,0-.09V39.8s0,0,0,0a.21.21,0,0,0-.11,0s-.07,0-.1,0a.36.36,0,0,0-.13.21.69.69,0,0,0,0,.2,1.62,1.62,0,0,0,0,.31.33.33,0,0,0,.13.21.38.38,0,0,0,.42,0,.29.29,0,0,0,.14-.17.55.55,0,0,0,0-.17.82.82,0,0,0,0-.27.38.38,0,0,0-.36-.33s0,.24,0,.24Z" transform="translate(-0.17)"/><path class="cls-1" d="M41.16,45.83a.31.31,0,0,0-.37.09.37.37,0,0,0,0,.11.61.61,0,0,0,0,.14,1,1,0,0,0,0,.25.61.61,0,0,0,.1.37.36.36,0,0,0,.22.11s0-.08,0-.08a.92.92,0,0,0,0-.16,1.09,1.09,0,0,0,0-.18.21.21,0,0,0,0-.13.3.3,0,0,0-.08-.08l-.11,0-.12,0-.11.08,0,0v.09a.28.28,0,0,0,0,.09s0,0,0,0a.43.43,0,0,1,.16.05.18.18,0,0,1,.07,0l.08.05h0a.69.69,0,0,1,.11.13v-.55a.25.25,0,0,1-.16-.06h0l-.07-.09v0h0v0s0,.07,0,.12v.18s0,.06,0,0h0s0,0,0,0v0l0,0a.47.47,0,0,1,.06-.09h0a.3.3,0,0,1,.3-.07s0-.23,0-.25a1,1,0,0,0,0-.17s0-.06,0-.07Z" transform="translate(-0.17)"/><path class="cls-1" d="M62,66.22a16.42,16.42,0,0,1,.27,5A37,37,0,0,0,62,75.6c0,1.44.13,2.89.21,4.33a26.18,26.18,0,0,0,.22,4.16c0,.13.14.31.23.11a4.94,4.94,0,0,0,.13-2c0-.77-.06-1.53-.11-2.3-.12-1.81-.31-3.61-.27-5.42.06-2.87.83-6-.39-8.78-.06-.13-.08.44-.06.51Z" transform="translate(-0.17)"/><path class="cls-1" d="M60.14,62.6a4.47,4.47,0,0,0,.25-2.05c-.07-.85-.58-1.83-.13-2.64s1.42-.74,2.08-.56a1.75,1.75,0,0,1,1.2,1.89c0,.45-.12.89-.12,1.35s0,.84.3,1.08c.06,0,.07-.21.07-.23a1,1,0,0,0,0-.42.88.88,0,0,1-.16-.52c0-.23.05-.46.07-.69a5.63,5.63,0,0,0,0-1.36,1.71,1.71,0,0,0-1.06-1.59,2.44,2.44,0,0,0-1.17,0,1.92,1.92,0,0,0-1,.48,2.1,2.1,0,0,0-.38,1.75c.07.5.24,1,.29,1.47a4.74,4.74,0,0,1-.21,1.94.35.35,0,0,0,0,.07Z" transform="translate(-0.17)"/><path class="cls-1" d="M63.47,61.44c1.06,1.22,2.62,2.77,1.86,4.54a4.84,4.84,0,0,0-.63,1.8c0,.32,0,1.46.52,1.39.1,0,0-.47,0-.53a2.48,2.48,0,0,1-.3-.49,1,1,0,0,1,.13-.71c.15-.32.33-.63.45-1a4.4,4.4,0,0,0,.14-2,4.51,4.51,0,0,0-2.17-3.23.73.73,0,0,0,0,.21Z" transform="translate(-0.17)"/><path class="cls-1" d="M65.2,69.15a15,15,0,0,1,1,1.78,2.21,2.21,0,0,1-.13,2c-.53,1-1.48,1.72-1.78,2.79,0,0,0,.42,0,.37a3.31,3.31,0,0,0,.59-.75c.21-.3.44-.58.66-.87a4.86,4.86,0,0,0,.87-1.71,3.76,3.76,0,0,0-.07-1.94,4.31,4.31,0,0,0-1.21-2s0,.26,0,.31Z" transform="translate(-0.17)"/><path class="cls-1" d="M62.7,80.77s.27-.24.31-.27.22-.19.33-.29a4.55,4.55,0,0,0,.52-.64,4.87,4.87,0,0,0,.64-1.39,5.69,5.69,0,0,0,.18-1.54,3.35,3.35,0,0,0-.29-1.5c0-.1-.06.29,0,.33a4.59,4.59,0,0,1,.2,1.69,4.43,4.43,0,0,1-.47,1.55,4.16,4.16,0,0,1-1,1.26c-.28.25-.71.6-.45,1,.06.09.07-.2.06-.23Z" transform="translate(-0.17)"/><path class="cls-1" d="M60.23,62.8a3,3,0,0,0-.67.4A2.67,2.67,0,0,0,59,64a4.34,4.34,0,0,0-.42,1.77,4.77,4.77,0,0,0,.3,1.87,7.18,7.18,0,0,0,.5,1,2.19,2.19,0,0,1,.29.62.56.56,0,0,1-.2.5c-.1.11-.06.39,0,.52s0,.37.12.3a2.15,2.15,0,0,0,.25-1.85,16.55,16.55,0,0,0-.93-1.89A2.93,2.93,0,0,1,59,64.66a5.25,5.25,0,0,1,1.21-1.73s0-.13,0-.13Z" transform="translate(-0.17)"/><path class="cls-1" d="M59.77,69.57c-1.25.49-1.64,2-1.57,3.26a3.76,3.76,0,0,0,2,3.23h0a.93.93,0,0,0,.14-.14.59.59,0,0,0,0-.47.78.78,0,0,0-.25-.36,4.05,4.05,0,0,1-.35-.21,2.91,2.91,0,0,1-.6-.56,3.24,3.24,0,0,1-.74-1.42c-.22-1.11.67-2.25,1.4-3,0,0,0-.35,0-.34Z" transform="translate(-0.17)"/><path class="cls-1" d="M60.24,75.7a7.48,7.48,0,0,0,.43,3.89,3.77,3.77,0,0,0,1,1.34c.38.3,1,.72,1.43.28a.38.38,0,0,0,0-.36c-.33-.38-.85-.47-1.26-.76a3.45,3.45,0,0,1-1-1,7,7,0,0,1-.58-3.29s0-.16,0,0Z" transform="translate(-0.17)"/><path class="cls-1" d="M64.33,60.34a.39.39,0,0,0-.1.16.66.66,0,0,0,0,.28.34.34,0,0,0,.1.16.43.43,0,0,0,.17.06l.1,0a.18.18,0,0,0,.09-.06.06.06,0,0,0,0-.06v0l-.07,0h-.08a.3.3,0,0,1-.16,0,.29.29,0,0,1-.11-.11l0-.07h0v0h0s0,0,0,0v0a.22.22,0,0,1,.09-.14,0,0,0,0,0,0,0v-.06a.13.13,0,0,0,0-.06v0Z" transform="translate(-0.17)"/><path class="cls-1" d="M64.85,60.27l-.23-.05-.12,0h-.08s0,0,0,0,0,0,0,0a.07.07,0,0,0,0,0l0,0h.09l.11,0,.23,0s0,0,0-.06,0-.06,0-.06Z" transform="translate(-0.17)"/><path class="cls-1" d="M64.6,60.33a.44.44,0,0,1,.41.11h0a.8.8,0,0,1,.13.13l0,.07v0s0,0,0,0v0s0,0,0,0,0-.08,0-.12v-.15s0-.07,0,0v0s0,0,0,0h0a.41.41,0,0,1-.1.13h0a.42.42,0,0,1-.52,0v0a.41.41,0,0,1-.1-.13v0s0,0,0,0a0,0,0,0,0,0,0s0,0,0,0,0,.08,0,0,0-.06,0,.05v.18c0,.09,0,.06,0,0s0,0,0,0a.06.06,0,0,1,0,0h0v0a.67.67,0,0,1,.09-.14.2.2,0,0,0,0-.13,1,1,0,0,0,0-.17.62.62,0,0,0,0-.19v0a.09.09,0,0,1,0-.1h0a.2.2,0,0,0-.11.13.79.79,0,0,0-.06.22,2.25,2.25,0,0,0,0,.58.5.5,0,0,0,.18.35.31.31,0,0,0,.32.05.44.44,0,0,0,.28-.22.57.57,0,0,0,.07-.22,1.62,1.62,0,0,0,0-.58.61.61,0,0,0-.09-.18.37.37,0,0,0-.16-.09.44.44,0,0,0-.37.08s0,0,0,0a.24.24,0,0,0,0,.12s0,.16,0,.16Z" transform="translate(-0.17)"/><path class="cls-1" d="M64.75,58.73a1.6,1.6,0,0,0,0,.49.39.39,0,0,0,.11.29.29.29,0,0,0,.32,0,.3.3,0,0,0,.12-.15.28.28,0,0,0,0-.13.82.82,0,0,0,0-.27.37.37,0,0,0-.09-.2.45.45,0,0,0-.17-.11.38.38,0,0,0-.21,0,.14.14,0,0,0-.09,0l0,.05a.2.2,0,0,0,0,.08.45.45,0,0,0,0,.11V59s0,.07,0,.1,0,.06,0,.07,0,0,0,0h0l.11-.08L65,59h.13a.34.34,0,0,1,.12.06h0l0,.06v0h0v0a0,0,0,0,1,0,0,.33.33,0,0,1,0-.1s0,0,0-.06h0v0s0,0,0,0v0l0,0h0a.32.32,0,0,1-.39,0h0l0-.05,0,0h0s0,0,0,0v.14h0v0h0v-.08a.81.81,0,0,0,0-.27v0a.07.07,0,0,0,0,0s0,0,0,0Z" transform="translate(-0.17)"/><path class="cls-1" d="M64.77,56.89a1.06,1.06,0,0,0-.11-.21.54.54,0,0,0-.15-.15s0,0,0,0l0,0-.07.06a.91.91,0,0,0-.07.14.59.59,0,0,0,0,.22,1.93,1.93,0,0,0,0,.48.6.6,0,0,0,.14.39.21.21,0,0,0,.12.07.28.28,0,0,0,.13,0,.56.56,0,0,0,.27-.15.54.54,0,0,0,.16-.26.76.76,0,0,0,0-.26.85.85,0,0,0,0-.17.41.41,0,0,0-.24-.19.25.25,0,0,0-.15,0,.22.22,0,0,0-.13.08s0,.09,0,.12,0,.1,0,.09l.06,0,.07,0a.23.23,0,0,1,.14,0,.36.36,0,0,1,.22.18s0,0,0,.06h0s0,0,0,0v-.06h0a.14.14,0,0,1-.07.1.33.33,0,0,1-.26,0l-.16-.05-.08-.06-.07-.05v0a.71.71,0,0,1-.1-.14v0s0,0,0,0v0s0,0,0,0h0a.09.09,0,0,1,0,.05v.21h0s0,0,0,0v0h0v0s0,0,0,0a.71.71,0,0,1,.1-.14h0l0-.05s0,0,.06,0a.26.26,0,0,1,.11.07h0a.28.28,0,0,1,.09.1s0,0,0,0,0-.08,0-.11V57s0-.09,0-.14Z" transform="translate(-0.17)"/><path class="cls-1" d="M66.81,56.94a.46.46,0,0,0-.51.14,1,1,0,0,0-.23.61,1.43,1.43,0,0,0,.49,1.4.69.69,0,0,0,.28.11,1.12,1.12,0,0,0,.31-.05,1.13,1.13,0,0,0,.51-.38,1.17,1.17,0,0,0,.14-1.1,1.1,1.1,0,0,0-.44-.49.91.91,0,0,0-.31-.12.38.38,0,0,0-.32.1.63.63,0,0,0,0,.41H67l.24,0a.75.75,0,0,1,.41.12.61.61,0,0,1,.23.41.64.64,0,0,1-.15.4.59.59,0,0,1-.41.21,1.3,1.3,0,0,1-.51-.11,1,1,0,0,1-.42-.3.86.86,0,0,1-.13-.2.51.51,0,0,1-.07-.22.64.64,0,0,0,0,.14s0,.07,0,0a.76.76,0,0,1,0-.11.64.64,0,0,1,.15-.25.5.5,0,0,1,.48-.19s0-.24,0-.26a1.09,1.09,0,0,0,0-.18s0-.07,0-.07Z" transform="translate(-0.17)"/><path class="cls-1" d="M66.39,59.87a.28.28,0,0,0-.19.12.37.37,0,0,0,0,.15,1.21,1.21,0,0,0,0,.38.52.52,0,0,0,.14.36.38.38,0,0,0,.26.09.36.36,0,0,0,.2-.11.55.55,0,0,0,.12-.27,1.62,1.62,0,0,0,0-.31,1.65,1.65,0,0,0,0-.32.45.45,0,0,0-.13-.22.5.5,0,0,0-.25-.13.38.38,0,0,0-.15,0s-.06,0-.07,0a.1.1,0,0,0,0,0l0,.07a.39.39,0,0,0,0,.15.19.19,0,0,0,0,.08.12.12,0,0,0,0,.08l.06.07s0,0,.07,0h.13a.51.51,0,0,1,.24.1h0l.11.12s0,0,0,0,0,0,0,0,0,0,0,0,0,0,0,0a.88.88,0,0,1,0-.23c0-.07,0,0,0,0s0,0,0,0,0,0,0,0,0,0,0,0l0,0a.27.27,0,0,1-.09.12h0a.32.32,0,0,1-.41,0h0a.48.48,0,0,1-.09-.11,0,0,0,0,1,0,0s0,0,0,0h0a1.22,1.22,0,0,1,0,.27s0,0,0,0a.41.41,0,0,1,.17-.25s0-.33,0-.32Z" transform="translate(-0.17)"/><path class="cls-1" d="M68.87,58.38a1.3,1.3,0,0,0-.19.22.63.63,0,0,0-.1.3,2.67,2.67,0,0,0,0,.4.79.79,0,0,0,.06.22.29.29,0,0,0,.14.15.34.34,0,0,0,.2,0,.25.25,0,0,0,.19-.11.84.84,0,0,0,.13-.27.88.88,0,0,0,0-.16V59a.78.78,0,0,0-.07-.25.58.58,0,0,0-.16-.19.8.8,0,0,0-.24-.13.2.2,0,0,0-.13,0h0a.18.18,0,0,0-.07.05l0,0a.28.28,0,0,0,0,.13.45.45,0,0,0,0,.11l0,0h.16l.13,0a.49.49,0,0,1,.24,0,.3.3,0,0,1,.17.16l0,.11s0,0,0,0h0a.08.08,0,0,1,0,0,.16.16,0,0,1-.15.08h-.22a.4.4,0,0,1-.21-.07h0l0,0,0,0v0h0v0a1.34,1.34,0,0,1,0,.2v0h0s0,0,0,0v0s0,0,0,0v0a1.08,1.08,0,0,1,.23-.34.41.41,0,0,0,0-.11.61.61,0,0,0,0-.19.32.32,0,0,0,0-.14s0,0,0,0Z" transform="translate(-0.17)"/><path class="cls-1" d="M71.52,57.45a25.82,25.82,0,0,1,.5,8.08,62.21,62.21,0,0,0-.36,6.26c0,2.19.16,4.38.29,6.58s0,4.54.27,6.74c0,.17.2.83.31.31.42-2.1,0-4.49-.09-6.61-.18-2.82-.44-5.65-.36-8.48.12-4.51,1-9-.5-13.39,0-.12-.08.42-.06.51Z" transform="translate(-0.17)"/><path class="cls-1" d="M68.78,51.86A8,8,0,0,0,69,47.77a5.91,5.91,0,0,1-.21-3,2,2,0,0,1,1.69-1.31,3.08,3.08,0,0,1,2.25.33,3,3,0,0,1,1.15,2.31c0,.84-.18,1.67-.19,2.52a2.34,2.34,0,0,0,.41,1.64c.06.06.07-.22.07-.24a1,1,0,0,0,0-.41A3.33,3.33,0,0,1,74,47.44a10.05,10.05,0,0,0,0-1.9A2.83,2.83,0,0,0,72.49,43a3.31,3.31,0,0,0-1.87,0,2.56,2.56,0,0,0-1.4.7,3.25,3.25,0,0,0-.56,2.64c.1.74.33,1.46.42,2.2a8,8,0,0,1-.31,3.22.54.54,0,0,0,0,.08Z" transform="translate(-0.17)"/><path class="cls-1" d="M73.75,50c1.82,2,4,4.56,2.76,7.45a7.84,7.84,0,0,0-.9,2.73c0,.57,0,1.75.73,1.9.08,0,0-.48,0-.53a2.7,2.7,0,0,1-.47-.75A2,2,0,0,1,76,59.42c.21-.53.49-1,.68-1.55a6.45,6.45,0,0,0,.24-3,7.72,7.72,0,0,0-3.2-5.13s0,.18,0,.21Z" transform="translate(-0.17)"/><path class="cls-1" d="M76.32,62.1a17.81,17.81,0,0,1,1.56,2.76,4.12,4.12,0,0,1-.15,3.4C77,69.8,75.57,71,75,72.64c0,.06,0,.41,0,.38.32-.39.56-.83.84-1.25s.68-.93,1-1.4a7.72,7.72,0,0,0,1.31-2.76,6.85,6.85,0,0,0-1.91-5.82.51.51,0,0,0,0,.31Z" transform="translate(-0.17)"/><path class="cls-1" d="M72.57,80.51c-.06-.26.77-.82.93-1a6.53,6.53,0,0,0,.8-1,7.56,7.56,0,0,0,1-2.18,7.32,7.32,0,0,0-.14-4.58c0-.1-.06.27,0,.32a7.92,7.92,0,0,1,.31,2.74,7.46,7.46,0,0,1-.75,2.64,6.86,6.86,0,0,1-1.47,2c-.4.37-.91.77-.63,1.38,0,.08.06-.23,0-.27Z" transform="translate(-0.17)"/><path class="cls-1" d="M68.92,52.23a4.34,4.34,0,0,0-1.77,2,6.67,6.67,0,0,0-.61,2.56,7.56,7.56,0,0,0,.33,2.59c.39,1.17,2,2.76,1,3.93-.14.16.06.83.07.81a2.87,2.87,0,0,0,.41-2.34c-.22-1.15-1-2-1.41-3.14a6.21,6.21,0,0,1,2-6.27s0-.13,0-.13Z" transform="translate(-0.17)"/><path class="cls-1" d="M68.23,63c-1.79,1-2.43,3.21-2.3,5.13a6.21,6.21,0,0,0,.87,2.81,5.45,5.45,0,0,0,1.63,1.7c.24.16.33.25.6.12.11-.06.06-.42,0-.5a1.46,1.46,0,0,0-.52-.5,5.48,5.48,0,0,1-.49-.35,5.23,5.23,0,0,1-.81-.82,5.12,5.12,0,0,1-1.08-2.38c-.3-1.84.82-3.66,2.11-4.87,0,0,0-.35,0-.34Z" transform="translate(-0.17)"/><path class="cls-1" d="M68.94,72.54a12.56,12.56,0,0,0,.61,5.77A5.85,5.85,0,0,0,71,80.44c.55.48,1.42,1.09,2.15.65.06,0,0-.32,0-.36-.58-.45-1.33-.61-1.91-1.06a5.31,5.31,0,0,1-1.43-1.73C69,76.3,69,74.4,69,72.6c0,0,0-.17,0-.06Z" transform="translate(-0.17)"/><path class="cls-1" d="M75,48.38a.62.62,0,0,0-.15.59.44.44,0,0,0,.13.24.4.4,0,0,0,.26.1.47.47,0,0,0,.16,0,.38.38,0,0,0,.13-.09s0,0,0-.06,0,0,0,0a.43.43,0,0,1-.45,0,.46.46,0,0,1-.17-.17.56.56,0,0,1,0-.12h0s0,0,0,0a.37.37,0,0,1,.14-.23.25.25,0,0,0,0-.09.13.13,0,0,0,0-.06v0Z" transform="translate(-0.17)"/><path class="cls-1" d="M75.79,48.24l-.33-.07-.17,0-.07,0h0l-.05,0s0,.09,0,.09l0,0h.12l.18,0,.34.07s0-.12,0-.13Z" transform="translate(-0.17)"/><path class="cls-1" d="M75.43,48.21a.68.68,0,0,1,.81.37l.05.08s0,.08,0,0,0,.05,0,0v-.22s0,0,0,0a.13.13,0,0,1,0,.06s0,0,0,0v0s0,0,0,.06a.63.63,0,0,1-.36.28.56.56,0,0,1-.5-.08h0a.53.53,0,0,1-.16-.2v0h0l0-.06s0,0,0,0v0s0,0,0,0h0v.17h0s0,0,0,0h0s0,0,0-.06,0,0,0,0l0,0a.77.77,0,0,1,.14-.21s0,0,.05-.07l0-.19a1.48,1.48,0,0,0,0-.21.14.14,0,0,0,0-.07.05.05,0,0,1,0,0s0-.05,0,0-.07,0-.09.07a.61.61,0,0,0-.07.1,1.21,1.21,0,0,0-.09.31,2.41,2.41,0,0,0,0,.6.83.83,0,0,0,.23.55.5.5,0,0,0,.48.12.72.72,0,0,0,.43-.33.82.82,0,0,0,.11-.31,2.09,2.09,0,0,0,0-.61.59.59,0,0,0-.14-.31.54.54,0,0,0-.22-.15.58.58,0,0,0-.57.07s0,.13,0,.17,0,.16,0,.16Z" transform="translate(-0.17)"/><path class="cls-1" d="M75.67,45.88a2.07,2.07,0,0,0-.06.61.62.62,0,0,0,.15.4.39.39,0,0,0,.48,0,.65.65,0,0,0,.21-.67.48.48,0,0,0-.13-.3.56.56,0,0,0-.24-.16.56.56,0,0,0-.31,0,.35.35,0,0,0-.26.21.74.74,0,0,0,0,.26s0,.21,0,.2,0,0,.07-.06h0c.22-.2.65-.29.81,0v0s0,.06,0,0a.29.29,0,0,1,0-.13s0,0,0,0l0,0a.43.43,0,0,1-.14.16.48.48,0,0,1-.4.09.35.35,0,0,1-.17-.15.11.11,0,0,1,0-.08s0,0,0,0v0h0a1.42,1.42,0,0,1,0-.2.82.82,0,0,0,0-.27s0-.15,0-.07Z" transform="translate(-0.17)"/><path class="cls-1" d="M75.67,43a1,1,0,0,0-.37-.52s0,0-.06,0l0,0a.39.39,0,0,0-.08.1.72.72,0,0,0-.12.21,1.93,1.93,0,0,0-.07.83.92.92,0,0,0,.19.53.37.37,0,0,0,.17.13.46.46,0,0,0,.2,0,.66.66,0,0,0,.4-.17.71.71,0,0,0,.24-.37.87.87,0,0,0,0-.55c-.13-.26-.55-.49-.77-.2,0,0,0,.09,0,.11s0,.1,0,.09a.43.43,0,0,1,.31-.08.62.62,0,0,1,.33.17.4.4,0,0,1,.1.15.11.11,0,0,1,0,.07v0s0,0,0,0,0-.09,0-.05a.39.39,0,0,1-.07.16.31.31,0,0,1-.13.1.55.55,0,0,1-.33.05.76.76,0,0,1-.35-.14.6.6,0,0,1-.22-.28l0,0h0s0,0,0,0h0c0,.05,0,0,0,0s0,0,0,.07v0h0s0,0,0,0v0s0,0,0,0,0,0,0,0,0,0,0,0a.24.24,0,0,1,0-.09.75.75,0,0,1,.1-.2.31.31,0,0,1,.07-.09s0,0,0,0,0,0,.05,0a.39.39,0,0,1,.11.06l.11.08a.6.6,0,0,1,.14.21s0,0,0,0a.37.37,0,0,0,0-.11.93.93,0,0,0,0-.29Z" transform="translate(-0.17)"/><path class="cls-1" d="M78.73,43.11a.69.69,0,0,0-.76.23,1.51,1.51,0,0,0-.33.91,2.07,2.07,0,0,0,.67,1.9,1.07,1.07,0,0,0,.92.15,1.45,1.45,0,0,0,.76-.53,1.71,1.71,0,0,0,.2-1.59,1.45,1.45,0,0,0-.65-.73,1.26,1.26,0,0,0-.46-.16.64.64,0,0,0-.48.14c-.06,0,0,.41,0,.41a1.55,1.55,0,0,1,1.31.19,1,1,0,0,1,.12,1.4.85.85,0,0,1-.59.38,1.51,1.51,0,0,1-.81-.11,1.47,1.47,0,0,1-.92-1.15s0,0,0,0a.83.83,0,0,1,.06-.21,1.18,1.18,0,0,1,.23-.39.7.7,0,0,1,.73-.29s.08-.48,0-.51Z" transform="translate(-0.17)"/><path class="cls-1" d="M78.1,47.67c-.37.09-.37.55-.34.86A.72.72,0,0,0,78,49a.48.48,0,0,0,.39.14.61.61,0,0,0,.45-.51,2.24,2.24,0,0,0,0-.73.74.74,0,0,0-.19-.36.69.69,0,0,0-.37-.21.6.6,0,0,0-.23,0,.2.2,0,0,0-.11,0s-.07.08-.1.12,0,.14,0,.18,0,.12,0,.14l.09.05a.06.06,0,0,0,.07,0h.17a.75.75,0,0,1,.29.09.61.61,0,0,1,.24.21.34.34,0,0,1,.06.12s0,0,0,0,0,0,0,0v0a.65.65,0,0,1,0-.14s0,0,0,0,0,0,0,0v0a.54.54,0,0,1-.07.13.44.44,0,0,1-.19.19.46.46,0,0,1-.57-.15.56.56,0,0,1-.07-.13v0a.91.91,0,0,1,0,.17h0s0-.06,0-.08a.63.63,0,0,1,.26-.32s0-.33,0-.32Z" transform="translate(-0.17)"/><path class="cls-1" d="M81.79,45.37a1.92,1.92,0,0,0-.32.43,1.33,1.33,0,0,0-.1.71.72.72,0,0,0,.19.52.55.55,0,0,0,.33.14.38.38,0,0,0,.18,0,.52.52,0,0,0,.17-.12,1.08,1.08,0,0,0,.2-.45,1.09,1.09,0,0,0-.2-.89.93.93,0,0,0-.45-.28.46.46,0,0,0-.26,0,.29.29,0,0,0-.13,0l-.06,0a.19.19,0,0,0,0,.1s0,.06,0,.09,0,.07,0,.09,0,0,.08,0h.09l.21,0a.82.82,0,0,1,.38,0,.56.56,0,0,1,.28.22.61.61,0,0,1,.07.17.21.21,0,0,1,0,.13.3.3,0,0,1-.15.23.6.6,0,0,1-.27.07.76.76,0,0,1-.3,0,.43.43,0,0,1-.23-.19l0-.09c0-.06,0,.09,0,.06v.15s0-.08,0-.11,0-.07,0-.11a2.19,2.19,0,0,1,.31-.44s0-.09,0-.11v-.19s0-.1,0-.14,0,0,0,0Z" transform="translate(-0.17)"/><path class="cls-1" d="M80.59,85.4a.38.38,0,0,0-.42.28.89.89,0,0,0,0,.22,1.35,1.35,0,0,0,0,.4.32.32,0,0,0,.17.22.44.44,0,0,0,.49-.09.42.42,0,0,0,.12-.28,1.08,1.08,0,0,0,0-.4.49.49,0,0,0-.06-.17.44.44,0,0,0-.25-.2.33.33,0,0,0-.17,0,.46.46,0,0,0-.16.11s0,.21,0,.21l.13,0,.07,0h.06a.72.72,0,0,1,.24.14h0l.09.1a.14.14,0,0,1,0,.06s0,0,0,0h0a.57.57,0,0,1,0-.13v-.06h0s0,0,0,0v0h0s0,0,0,0v0l-.07.09h0a.42.42,0,0,1-.57,0h0a.36.36,0,0,1-.07-.1h0v0h0s0,0,0,0a.92.92,0,0,1,0,.16.22.22,0,0,1,0,.08s0,0,0,0v0h0l0-.05A.41.41,0,0,1,80.3,86h0a.33.33,0,0,1,.31-.1s0-.21,0-.23a.88.88,0,0,0,0-.17s0-.06,0-.07Z" transform="translate(-0.17)"/><path class="cls-1" d="M87,30.31a6.16,6.16,0,0,0-1.16,3.19,2.94,2.94,0,0,0,.39,1.72,1.39,1.39,0,0,0,1,.63,2.31,2.31,0,0,0,1.14-.43,2.4,2.4,0,0,0,.88-.88,2.61,2.61,0,0,0-.12-2.63A3.78,3.78,0,0,0,88,30.77a2.53,2.53,0,0,0-1.61-.44c-.13,0-.11.67,0,.7.41.09.82.14,1.22.27a3.21,3.21,0,0,1,1.07.59,2.34,2.34,0,0,1,.66,1,1.12,1.12,0,0,1,0,.93,2.13,2.13,0,0,1-.68.78,1.5,1.5,0,0,1-1,.29,1.59,1.59,0,0,1-1.52-1.09c0-.16,0,0,0,0v0h0c0,.08,0,0,0,0s0-.12,0-.16a3,3,0,0,1,.21-.6,6.39,6.39,0,0,1,.75-1.29,1.4,1.4,0,0,0,.09-.86c0-.05-.12-.64-.22-.48Z" transform="translate(-0.17)"/><path class="cls-1" d="M88.26,24.23s0-.09,0-.09,0,.09,0,.09Z" transform="translate(-0.17)"/><path class="cls-1" d="M83.36,23.28A1.84,1.84,0,0,0,82.26,25a2.9,2.9,0,0,0,.7,2.21,1.48,1.48,0,0,0,1.92.14,2.49,2.49,0,0,0,.85-2,2,2,0,0,0-1.16-2.09s-.12.55,0,.6a1.48,1.48,0,0,1,1,1.3,1.34,1.34,0,0,1,0,.33,1.62,1.62,0,0,1-.12.43,1.74,1.74,0,0,1-.5.75,1.45,1.45,0,0,1-1.7.15,2,2,0,0,1-.85-1.47v-.13l0-.23a1.82,1.82,0,0,1,.17-.44,1.39,1.39,0,0,1,.78-.65c.15-.06,0-.67,0-.65Z" transform="translate(-0.17)"/><path class="cls-1" d="M88.07,18.21a1.75,1.75,0,0,0-.34,1.65,2.15,2.15,0,0,0,.9,1.38,1.55,1.55,0,0,0,.75.24.3.3,0,0,0,.19,0l.15-.14a1.66,1.66,0,0,0,.22-.32A2.7,2.7,0,0,0,90,19.1a1.76,1.76,0,0,0-.43-.78,1.2,1.2,0,0,0-.34-.21.61.61,0,0,0-.42,0s0,.23,0,.25a2.76,2.76,0,0,1,1,1c0,.09.08.18.11.27a.83.83,0,0,1,0,.15.46.46,0,0,1,0,.1c0,.08,0,0,0,0s0-.05,0,0V20a1.09,1.09,0,0,1-.08.31,1.24,1.24,0,0,1-.37.5c-.16.12-.48,0-.65-.05a1.75,1.75,0,0,1-1-.94,1.35,1.35,0,0,1-.11-.34.87.87,0,0,0,0-.1v0c0,.06,0,0,0-.05a1.35,1.35,0,0,1,.27-.79.44.44,0,0,0,0-.24Z" transform="translate(-0.17)"/><path class="cls-1" d="M81.34,9.59c-1.89,1.72-1.74,5.62.74,6.73a3.69,3.69,0,0,0,3.5-.27,3.4,3.4,0,0,0,1.29-3.29A3.43,3.43,0,0,0,84.66,9.7s-.17.79,0,.85a3,3,0,0,1,2,2.14,2.42,2.42,0,0,1-1,2.46,3.56,3.56,0,0,1-3,.59,3.13,3.13,0,0,1-2.32-2.13,3.32,3.32,0,0,1,1-3.3c.09-.08.06-.35,0-.46s0-.33-.11-.26Z" transform="translate(-0.17)"/><path class="cls-1" d="M91.78,23.89a2.32,2.32,0,0,0,2,3.13,1.44,1.44,0,0,0,1.39-1.09,3.29,3.29,0,0,0-.31-2.42,1.75,1.75,0,0,0-1.73-1c-.13,0-.1.44-.1.53s0,.54.13.52a1.53,1.53,0,0,1,1.4.53,2.2,2.2,0,0,1,.41.67,1.31,1.31,0,0,1,0,.15s0,.17,0,.09,0,.14,0,0h0s0,.14,0,0v.05c0-.07,0,.09,0,.1a.88.88,0,0,1,0,.15,1.34,1.34,0,0,1-.22.36,1.3,1.3,0,0,1-.68.45,1.87,1.87,0,0,1-1.64-.37,2,2,0,0,1-.61-.73.73.73,0,0,1,0-.7.7.7,0,0,0,0-.38s0-.2-.08-.1Z" transform="translate(-0.17)"/><path class="cls-1" d="M94.52,10.8c0,.13-.18.22-.27.33a3,3,0,0,0-.2.29,2.32,2.32,0,0,0-.22.57,2.61,2.61,0,0,0,0,1.18,1.49,1.49,0,0,0,.73,1,1.9,1.9,0,0,0,1.33,0,2.29,2.29,0,0,0,1.56-1.93,2,2,0,0,0-1.11-1.9A3.9,3.9,0,0,0,95,9.84a.74.74,0,0,0-.33,0,1.09,1.09,0,0,0-.31.14,1.89,1.89,0,0,0-.56.49c-.07.08,0,.27,0,.36s0,.26.08.21a1.43,1.43,0,0,1,.43-.25c.16-.07.34-.08.5-.14a2.54,2.54,0,0,1,1-.2,1.1,1.1,0,0,1,.51.09,2.27,2.27,0,0,1,.46.3,1.85,1.85,0,0,1,.61.87,2,2,0,0,1-1.06,2.14,2.19,2.19,0,0,1-1.09.34,1.6,1.6,0,0,1-.58-.07.91.91,0,0,1-.48-.38,2.09,2.09,0,0,1-.35-1.57,2.38,2.38,0,0,1,.24-.74c0-.07.37-.59.47-.5s0-.16,0-.12Z" transform="translate(-0.17)"/><path class="cls-1" d="M87.42,5.72a3,3,0,0,0,1,2.88,2.38,2.38,0,0,0,2.86.25,3.05,3.05,0,0,0,1.27-2.66,2.69,2.69,0,0,0-1.44-2.45,2.93,2.93,0,0,0-1.57-.3,2.51,2.51,0,0,0-.76.2,2.21,2.21,0,0,0-.34.18.63.63,0,0,0-.28.44c0,.12-.07.45,0,.55s.09.11.18.07a1.51,1.51,0,0,0,.26-.18,2.87,2.87,0,0,1,.57-.24A2.67,2.67,0,0,1,90.4,4.4a2.38,2.38,0,0,1,1.88,1.35,2.1,2.1,0,0,1-.63,2.09,2.32,2.32,0,0,1-2.42.65A2.46,2.46,0,0,1,87.5,6a.69.69,0,0,0,0-.32c0-.06,0-.09-.07,0Z" transform="translate(-0.17)"/><path class="cls-1" d="M81.66,0a1.72,1.72,0,0,0-.86,1.45,3.84,3.84,0,0,0,.09,1.35,1.64,1.64,0,0,0,.41.78,1.45,1.45,0,0,0,1.53.27,1.63,1.63,0,0,0,1-1.27,2.6,2.6,0,0,0-.06-1.24A.76.76,0,0,0,83.56,1a.74.74,0,0,0-.4-.14.5.5,0,0,0-.4.25,1.14,1.14,0,0,0-.06.61s0,.5.12.47a.58.58,0,0,1,.26,0,.85.85,0,0,1,.32,0,.67.67,0,0,1,.24.16l0,.05s0,.06,0,0,0,.1,0,0c0-.71,0-.94,0-.68,0,0,0,0,0,0s0,0,0,0l0,.08a.45.45,0,0,1,0,.1,1.46,1.46,0,0,1-.21.28,1.43,1.43,0,0,1-.56.38,1.44,1.44,0,0,1-1.28,0,1.21,1.21,0,0,1-.42-.45l0,0,0-.08,0-.06c0-.05,0,.08,0,0a.24.24,0,0,0,0-.09l0,.07V1.85s0,.14,0,.06,0,0,0,.07v.07c0-.06,0-.12,0,0V2s0,0,0,.05S81,2,81,2s0,0,0,0l0-.06a.88.88,0,0,1,.12-.28,1.22,1.22,0,0,1,.52-.51s.06-.12.08-.17a2.82,2.82,0,0,0,0-.41S81.74,0,81.66,0Z" transform="translate(-0.17)"/></g></g></svg>