<svg xmlns="http://www.w3.org/2000/svg" viewBox="0 0 175 38.4"><defs><style>.b3cca100-426c-40fb-aafd-b7183b0e7f5f{fill:#fff;}</style></defs><title>Asset 15</title><g id="f412f03e-ed8a-489e-946c-5d9de1ee8934" data-name="Layer 2"><g id="b735045b-4e59-4ca4-bb28-329e7a42af54" data-name="Layer 1"><path class="b3cca100-426c-40fb-aafd-b7183b0e7f5f" d="M2.3,33.8.7,31.4H2.2l.9,1.3L4,31.4H5.6L3.9,33.8l1.9,2.7H4.2L3.1,34.9l-1,1.6H.5Z"/><path class="b3cca100-426c-40fb-aafd-b7183b0e7f5f" d="M12.3,33.5H7.4V32.4h4.9Zm0,2.1H7.4V34.5h4.9Z"/><path class="b3cca100-426c-40fb-aafd-b7183b0e7f5f" d="M16.1,30.6H14.7V29.5h1.4Zm-1.4.8h1.4v5.1H14.7Z"/><path class="b3cca100-426c-40fb-aafd-b7183b0e7f5f" d="M17,31.4h1.3v.7h.1a1.8,1.8,0,0,1,1.5-.8c1.5,0,1.8.8,1.8,2.1v3.1H20.4V33.6q0-1.2-.9-1.2c-.8,0-1.1.4-1.1,1.4v2.7H17Z"/><path class="b3cca100-426c-40fb-aafd-b7183b0e7f5f" d="M26.2,35.8h0a1.6,1.6,0,0,1-1.5.8c-1.6,0-2.3-1.3-2.3-2.7a2.3,2.3,0,0,1,2.2-2.6,1.7,1.7,0,0,1,1.5.7h0V29.5h1.4v7H26.2ZM25,32.3c-.9,0-1.2.8-1.2,1.6s.3,1.7,1.2,1.7,1.2-.8,1.2-1.7S25.9,32.3,25,32.3Z"/><path class="b3cca100-426c-40fb-aafd-b7183b0e7f5f" d="M29.5,34.3c.1.9.5,1.3,1.3,1.3a1.3,1.3,0,0,0,1.1-.7h1.2a2.3,2.3,0,0,1-2.4,1.7A2.5,2.5,0,0,1,28.1,34a2.6,2.6,0,1,1,5.1.3Zm2.3-.9c-.2-.7-.5-1.1-1.1-1.1a1.1,1.1,0,0,0-1.2,1.1Z"/><path class="b3cca100-426c-40fb-aafd-b7183b0e7f5f" d="M33.8,31.4h1.3v.7h0a1.7,1.7,0,0,1,1.5-.8c1.6,0,2.3,1.3,2.3,2.7s-.7,2.6-2.2,2.6a1.7,1.7,0,0,1-1.5-.7h0v2.4H33.8ZM37.5,34c0-.8-.3-1.7-1.2-1.7s-1.2.8-1.2,1.7.3,1.6,1.2,1.6S37.5,34.8,37.5,34Z"/><path class="b3cca100-426c-40fb-aafd-b7183b0e7f5f" d="M40.7,34.3a1.1,1.1,0,0,0,1.2,1.3,1.2,1.2,0,0,0,1.1-.7h1.3a2.3,2.3,0,0,1-2.4,1.7A2.5,2.5,0,0,1,39.3,34a2.5,2.5,0,0,1,2.6-2.7c1.7,0,2.5,1.4,2.4,3Zm2.3-.9c-.2-.7-.5-1.1-1.1-1.1a1.1,1.1,0,0,0-1.2,1.1Z"/><path class="b3cca100-426c-40fb-aafd-b7183b0e7f5f" d="M45,31.4h1.3v.7h0a2.1,2.1,0,0,1,1.6-.8c1.4,0,1.8.8,1.8,2.1v3.1H48.3V33.6c0-.8-.2-1.2-.9-1.2s-1,.4-1,1.4v2.7H45Z"/><path class="b3cca100-426c-40fb-aafd-b7183b0e7f5f" d="M54.2,35.8h-.1a1.5,1.5,0,0,1-1.5.8,2.4,2.4,0,0,1-2.3-2.7,2.4,2.4,0,0,1,2.3-2.6,1.7,1.7,0,0,1,1.5.7h0V29.5h1.4v7H54.2ZM53,32.3c-1,0-1.3.8-1.3,1.6s.4,1.7,1.3,1.7,1.1-.8,1.1-1.7S53.9,32.3,53,32.3Z"/><path class="b3cca100-426c-40fb-aafd-b7183b0e7f5f" d="M57.5,34.3c0,.9.4,1.3,1.2,1.3a1.2,1.2,0,0,0,1.1-.7H61a2.2,2.2,0,0,1-2.3,1.7A2.5,2.5,0,0,1,56.1,34a2.5,2.5,0,0,1,2.6-2.7c1.7,0,2.5,1.4,2.4,3Zm2.2-.9c-.1-.7-.4-1.1-1.1-1.1a1.1,1.1,0,0,0-1.1,1.1Z"/><path class="b3cca100-426c-40fb-aafd-b7183b0e7f5f" d="M61.7,31.4h1.4v.7h0a1.9,1.9,0,0,1,1.5-.8c1.5,0,1.9.8,1.9,2.1v3.1H65.1V33.6c0-.8-.2-1.2-.9-1.2s-1.1.4-1.1,1.4v2.7H61.7Z"/><path class="b3cca100-426c-40fb-aafd-b7183b0e7f5f" d="M69.1,31.4h1v1h-1v2.5c0,.4.1.5.6.5h.4v1.1h-.8c-.8,0-1.6-.2-1.6-1.2V32.4h-.8v-1h.8V29.9h1.4Z"/><path class="b3cca100-426c-40fb-aafd-b7183b0e7f5f" d="M70.6,29.5H72v7H70.6Z"/><path class="b3cca100-426c-40fb-aafd-b7183b0e7f5f" d="M75.4,37.1a1.6,1.6,0,0,1-1.7,1.2h-.9V37.1h.8a.6.6,0,0,0,.5-.9l-1.8-4.8h1.5L75,34.9h0l1.1-3.5h1.4Z"/><path class="b3cca100-426c-40fb-aafd-b7183b0e7f5f" d="M82.8,31.3A2.5,2.5,0,0,1,85.4,34a2.5,2.5,0,0,1-2.6,2.6A2.5,2.5,0,0,1,80.1,34,2.5,2.5,0,0,1,82.8,31.3Zm0,4.3c.9,0,1.2-.8,1.2-1.6s-.3-1.7-1.2-1.7-1.3.8-1.3,1.7S81.8,35.6,82.8,35.6Z"/><path class="b3cca100-426c-40fb-aafd-b7183b0e7f5f" d="M85.9,31.4h1.3v1h0a1.8,1.8,0,0,1,1.6-1.1h.3v1.3h-.5c-1,0-1.3.7-1.3,1.6v2.3H85.9Z"/><path class="b3cca100-426c-40fb-aafd-b7183b0e7f5f" d="M94.3,36.2c0,.8-.3,2.2-2.6,2.2a2,2,0,0,1-2.2-1.6h1.4a.9.9,0,0,0,1,.7c.8,0,1.1-.6,1.1-1.3v-.6h0a1.7,1.7,0,0,1-1.5.7c-1.5,0-2.2-1.1-2.2-2.5a2.3,2.3,0,0,1,2.2-2.5,1.5,1.5,0,0,1,1.5.8h0v-.7h1.3ZM93,33.9c0-.8-.3-1.6-1.2-1.6s-1.1.7-1.1,1.5.3,1.5,1.1,1.5A1.3,1.3,0,0,0,93,33.9Z"/><path class="b3cca100-426c-40fb-aafd-b7183b0e7f5f" d="M95,33c.1-1.3,1.2-1.7,2.4-1.7s2.2.2,2.2,1.4v2.7c0,.4,0,.9.2,1.1H98.4a.9.9,0,0,1-.1-.5,2.7,2.7,0,0,1-1.7.6c-1,0-1.8-.5-1.8-1.5s.9-1.4,1.8-1.5,1.6-.1,1.6-.7-.4-.7-.9-.7-.9.2-.9.8Zm3.2,1c-.2.2-.7.2-1.1.3s-.9.2-.9.7.4.7.9.7a1,1,0,0,0,1.1-1.2Z"/><path class="b3cca100-426c-40fb-aafd-b7183b0e7f5f" d="M100.5,31.4h1.3v.7h0a2.1,2.1,0,0,1,1.6-.8c1.4,0,1.8.8,1.8,2.1v3.1h-1.4V33.6c0-.8-.2-1.2-.9-1.2s-1,.4-1,1.4v2.7h-1.4Z"/><path class="b3cca100-426c-40fb-aafd-b7183b0e7f5f" d="M107.3,30.6h-1.4V29.5h1.4Zm-1.4.8h1.4v5.1h-1.4Z"/><path class="b3cca100-426c-40fb-aafd-b7183b0e7f5f" d="M107.9,35.4l2.6-2.9h-2.4V31.4h4.2v1.1l-2.6,2.9h2.8v1.1h-4.6Z"/><path class="b3cca100-426c-40fb-aafd-b7183b0e7f5f" d="M114.2,34.3c.1.9.5,1.3,1.3,1.3s1-.4,1-.7h1.3a2.3,2.3,0,0,1-2.4,1.7,2.5,2.5,0,0,1-2.6-2.6,2.6,2.6,0,1,1,5.1.3Zm2.3-.9c-.2-.7-.5-1.1-1.1-1.1a1.1,1.1,0,0,0-1.2,1.1Z"/><path class="b3cca100-426c-40fb-aafd-b7183b0e7f5f" d="M122.1,35.8h0a1.7,1.7,0,0,1-1.6.8c-1.5,0-2.2-1.3-2.2-2.7a2.3,2.3,0,0,1,2.2-2.6,1.7,1.7,0,0,1,1.5.7h0V29.5h1.4v7h-1.3Zm-1.2-3.5c-.9,0-1.2.8-1.2,1.6s.3,1.7,1.2,1.7,1.2-.8,1.2-1.7S121.8,32.3,120.9,32.3Z"/><path class="b3cca100-426c-40fb-aafd-b7183b0e7f5f" d="M128.5,30.8h-2.1V29.5h5.7v1.3H130v5.7h-1.5Z"/><path class="b3cca100-426c-40fb-aafd-b7183b0e7f5f" d="M132.7,29.5h5.2v1.3h-3.7v1.5h3.4v1.2h-3.4v1.7H138v1.3h-5.3Z"/><path class="b3cca100-426c-40fb-aafd-b7183b0e7f5f" d="M138.6,29.5h3c1.8,0,3.2,1.1,3.2,3.5s-1,3.5-3.2,3.5h-3Zm1.6,5.7h1.3c.9,0,1.8-.6,1.8-2.1s-.5-2.3-2-2.3h-1.1Z"/><path class="b3cca100-426c-40fb-aafd-b7183b0e7f5f" d="M149.2,34.3a1.1,1.1,0,0,0,1.2,1.3,1.2,1.2,0,0,0,1.1-.7h1.2a2.2,2.2,0,0,1-2.3,1.7,2.5,2.5,0,0,1-2.6-2.6,2.5,2.5,0,0,1,2.6-2.7c1.7,0,2.5,1.4,2.4,3Zm2.2-.9c-.1-.7-.4-1.1-1.1-1.1a1.1,1.1,0,0,0-1.1,1.1Z"/><path class="b3cca100-426c-40fb-aafd-b7183b0e7f5f" d="M156.1,36.5h-1.6l-1.7-5.1h1.4l1.1,3.5h0l1.1-3.5h1.4Z"/><path class="b3cca100-426c-40fb-aafd-b7183b0e7f5f" d="M159.1,34.3a1.1,1.1,0,0,0,1.2,1.3,1.2,1.2,0,0,0,1.1-.7h1.2a2.2,2.2,0,0,1-2.3,1.7,2.5,2.5,0,0,1-2.6-2.6,2.5,2.5,0,0,1,2.6-2.7c1.7,0,2.5,1.4,2.4,3Zm2.2-.9c-.1-.7-.4-1.1-1.1-1.1a1.1,1.1,0,0,0-1.1,1.1Z"/><path class="b3cca100-426c-40fb-aafd-b7183b0e7f5f" d="M163.4,31.4h1.3v.7h0a2.1,2.1,0,0,1,1.5-.8c1.5,0,1.9.8,1.9,2.1v3.1h-1.4V33.6c0-.8-.2-1.2-.9-1.2s-1.1.4-1.1,1.4v2.7h-1.3Z"/><path class="b3cca100-426c-40fb-aafd-b7183b0e7f5f" d="M170.7,31.4h1v1h-1v2.5c0,.4.1.5.6.5h.4v1.1h-.8c-.8,0-1.6-.2-1.6-1.2V32.4h-.8v-1h.8V29.9h1.4Z"/><path class="b3cca100-426c-40fb-aafd-b7183b0e7f5f" d="M6.5,6.4H0V.5H20.2V6.4H13.7V23.7H6.5Z"/><path class="b3cca100-426c-40fb-aafd-b7183b0e7f5f" d="M21.3.5H40.8V6.4H28.4V9.3H40.8v5.6H28.4v2.9H40.8v5.9H21.3Z"/><path class="b3cca100-426c-40fb-aafd-b7183b0e7f5f" d="M42,.5H53.8c7.7,0,10.5,5.7,10.5,11.6S60.5,23.7,52.4,23.7H42Zm7.2,17.3H52c4.5,0,5.1-3.7,5.1-5.8s-.4-5.6-5.6-5.6H49.2Z"/><path class="b3cca100-426c-40fb-aafd-b7183b0e7f5f" d="M74.5,14.8l-2.1-3.7-2.2,3.7H65l5-7.4L65.2.4h5.2l2,3.5,2-3.5h5.2l-4.8,7,5,7.4Z"/><path class="b3cca100-426c-40fb-aafd-b7183b0e7f5f" d="M87,16.2a5.8,5.8,0,0,0,.9,3.2c1,1.6,2.9,2.3,5.5,2.3a8.3,8.3,0,0,0,3.2-.5,3.5,3.5,0,0,0,2.8-3.5A3.2,3.2,0,0,0,98.2,15a12.8,12.8,0,0,0-3.7-1.3L91.3,13A14.4,14.4,0,0,1,87,11.4a4.7,4.7,0,0,1-2.2-4.3A6.4,6.4,0,0,1,87,2a8.6,8.6,0,0,1,6.1-2,10.2,10.2,0,0,1,6.1,1.8c1.7,1.1,2.6,3,2.6,5.6h-3a5.5,5.5,0,0,0-1-2.9Q96.5,2.7,93,2.7c-1.9,0-3.2.4-4,1.2a3.6,3.6,0,0,0-1.2,2.7,2.7,2.7,0,0,0,1.4,2.5,23.9,23.9,0,0,0,4.2,1.2l3.2.8a9.9,9.9,0,0,1,3.7,1.4,5.7,5.7,0,0,1,2.2,4.7,6,6,0,0,1-2.8,5.5,12.9,12.9,0,0,1-6.5,1.7,10.1,10.1,0,0,1-6.8-2.2,7.8,7.8,0,0,1-2.4-6Z"/><path class="b3cca100-426c-40fb-aafd-b7183b0e7f5f" d="M115.1,13.5a1.7,1.7,0,0,0,1.3-.8,3.1,3.1,0,0,0,.2-1.1,2.2,2.2,0,0,0-1.1-2.1,4.6,4.6,0,0,0-2.9-.7,3.9,3.9,0,0,0-3.2,1.2,4.7,4.7,0,0,0-.6,2h-2.7c.1-2.1.8-3.5,2-4.3a7.8,7.8,0,0,1,4.6-1.3,8.8,8.8,0,0,1,4.8,1.2,3.8,3.8,0,0,1,1.8,3.5v9.7a1.4,1.4,0,0,0,.2.7c.1.2.4.3.8.3h.9v2.1l-1,.2h-.9a2.5,2.5,0,0,1-2.2-1.1,4.4,4.4,0,0,1-.5-1.5,6.7,6.7,0,0,1-2.4,1.9,7.4,7.4,0,0,1-3.6.9,5.3,5.3,0,0,1-3.9-1.5,4.8,4.8,0,0,1-1.4-3.5,4.6,4.6,0,0,1,1.4-3.7,7.6,7.6,0,0,1,3.9-1.5Zm-6,7.7a3.8,3.8,0,0,0,2.1.7,7.3,7.3,0,0,0,2.9-.7,3.9,3.9,0,0,0,2.4-3.8V15.1l-1.3.6-1.6.3-1.8.2a5.7,5.7,0,0,0-2.3.7,2.7,2.7,0,0,0-.4,4.3Z"/><path class="b3cca100-426c-40fb-aafd-b7183b0e7f5f" d="M124,6.8h2.7V9.2a8,8,0,0,1,2.5-2.1,7.3,7.3,0,0,1,3-.6c2.4,0,4,.8,4.8,2.5a8.2,8.2,0,0,1,.7,3.9V23.7h-2.9V13.1a6,6,0,0,0-.4-2.5A2.7,2.7,0,0,0,131.6,9l-1.6.2a4.9,4.9,0,0,0-2.1,1.4,7,7,0,0,0-.9,1.7,16.1,16.1,0,0,0-.2,2.6v8.8H124Z"/><path class="b3cca100-426c-40fb-aafd-b7183b0e7f5f" d="M150.9,13.5a1.6,1.6,0,0,0,1.3-.8,1.8,1.8,0,0,0,.2-1.1,2.2,2.2,0,0,0-1-2.1,5,5,0,0,0-2.9-.7,3.8,3.8,0,0,0-3.2,1.2,4.7,4.7,0,0,0-.7,2H142c0-2.1.7-3.5,2-4.3a7.7,7.7,0,0,1,4.5-1.3,8.5,8.5,0,0,1,4.8,1.2,3.7,3.7,0,0,1,1.9,3.5v9.7a.8.8,0,0,0,.2.7c.1.2.3.3.7.3h1v2.1l-1,.2h-1A2.2,2.2,0,0,1,153,23a4.4,4.4,0,0,1-.5-1.5,7.2,7.2,0,0,1-2.5,1.9,7.4,7.4,0,0,1-3.6.9,5.2,5.2,0,0,1-3.8-1.5,4.5,4.5,0,0,1-1.5-3.5,4.7,4.7,0,0,1,1.5-3.7,7.3,7.3,0,0,1,3.8-1.5ZM145,21.2a3.8,3.8,0,0,0,2.1.7,7.3,7.3,0,0,0,2.9-.7,3.9,3.9,0,0,0,2.4-3.8V15.1l-1.4.6-1.6.3-1.7.2a5.7,5.7,0,0,0-2.3.7,2.4,2.4,0,0,0-1.3,2.3A2.5,2.5,0,0,0,145,21.2Z"/><path class="b3cca100-426c-40fb-aafd-b7183b0e7f5f" d="M168.9,13.5a1.7,1.7,0,0,0,1.3-.8,3.1,3.1,0,0,0,.2-1.1,2.2,2.2,0,0,0-1.1-2.1,4.8,4.8,0,0,0-2.9-.7,3.9,3.9,0,0,0-3.2,1.2,4.7,4.7,0,0,0-.6,2h-2.7c.1-2.1.7-3.5,2-4.3a7.7,7.7,0,0,1,4.5-1.3,9.1,9.1,0,0,1,4.9,1.2,3.8,3.8,0,0,1,1.8,3.5v9.7a1.4,1.4,0,0,0,.2.7c.1.2.4.3.8.3h.9v2.1l-1,.2h-1a2.5,2.5,0,0,1-2.1-1.1,4.4,4.4,0,0,1-.5-1.5,7.2,7.2,0,0,1-2.5,1.9,6.8,6.8,0,0,1-3.5.9,5.3,5.3,0,0,1-3.9-1.5,4.5,4.5,0,0,1-1.5-3.5,4.7,4.7,0,0,1,1.5-3.7,7.6,7.6,0,0,1,3.9-1.5Zm-6,7.7a3.8,3.8,0,0,0,2.1.7,7.3,7.3,0,0,0,2.9-.7,3.9,3.9,0,0,0,2.4-3.8V15.1l-1.4.6-1.6.3-1.7.2a5.7,5.7,0,0,0-2.3.7,2.4,2.4,0,0,0-1.3,2.3A2.5,2.5,0,0,0,162.9,21.2Z"/></g></g></svg>