<svg xmlns="http://www.w3.org/2000/svg" viewBox="0 0 92.56 84.42"><defs><style>.cls-1{fill:#1c1e21;}.cls-2,.cls-3{fill:none;stroke:#1c1e21;stroke-miterlimit:10;}.cls-2{stroke-width:0.42px;}.cls-3{stroke-width:0.21px;}</style></defs><title>Asset 24</title><g id="Layer_2" data-name="Layer 2"><g id="Layer_1-2" data-name="Layer 1"><path class="cls-1" d="M87.84,36c.19.47.45,1-.06,1.37s-1.16.11-1.62.08c-1.41-.12-2.82-.17-4.24-.22-2.74-.08-5.5-.27-8.24-.21-.06,0-.05.6-.05.62,0,1.74,0,3.48,0,5.22l0-.4a50.8,50.8,0,0,0-6.4.24q-3.08.18-6.15.31c-4.18.17-8.36.27-12.55.21-8.29-.13-16.46-1.34-24.72-1.89a64.62,64.62,0,0,0-13.9.4c-.25,0-.08,1.92.05,1.9,8.15-1.17,16.36-.18,24.5.63a179.14,179.14,0,0,0,25,.72q3.44-.14,6.89-.33a53.33,53.33,0,0,0,7.37-.59c.07,0,0-.56,0-.59,0-1.73,0-3.46,0-5.19l0,.41A116.25,116.25,0,0,0,86,39.17c1.32,0,2.33-.13,2.38-1.61a4.48,4.48,0,0,0-.5-2.47c.07.12-.1.71,0,.95Z" transform="translate(-0.32)"/><path class="cls-1" d="M10.17,42.54c-.69-1.15.55-2.11,1.54-2.39a11.34,11.34,0,0,1,3.49-.08c2.65.1,5.31.16,8,.24l15.41.45c10.44.3,20.9.48,31.33,1,0,0,0-.52,0-.54C70,40.11,70,39,70,38s-.11-1.94,1-2.22a38.57,38.57,0,0,1,6.36-.58q3.15-.2,6.31-.23c1.62,0,4.88-.41,5.12,2l0-1.5,0,.34c-.07.48.11,1.23.06,1.57.2-1.36.17-3-1.28-3.65-1.21-.53-2.82-.33-4.12-.32-1.53,0-3.07.06-4.61.13s-2.9.16-4.36.28l-2.17.2a4.43,4.43,0,0,0-1.88.35c-.58.41-.52,1.24-.53,1.88,0,1.54,0,3.09,0,4.63l0-.54c-18.31-.17-36.62-1.09-54.94-1.41-1.73,0-4.24-.1-5,1.88a2.6,2.6,0,0,0,.2,2.34s.08-.41,0-.53Z" transform="translate(-0.32)"/><path class="cls-1" d="M10.59,42.35A56.4,56.4,0,0,0,10.79,62a57.32,57.32,0,0,0,2.59,9.57,33.43,33.43,0,0,0,2,4.69c.52.95,1.43,2.63,2.58,2.85.41.08.18-1.7,0-1.9A20.71,20.71,0,0,1,15.46,74c-.61-1.19-1.11-2.43-1.6-3.67a53.4,53.4,0,0,1-2.6-8.82,56.51,56.51,0,0,1-.48-18.53c0-.14-.11-1-.19-.59Z" transform="translate(-0.32)"/><path class="cls-1" d="M87,39.53a74.75,74.75,0,0,1-1.21,22.28,93.07,93.07,0,0,1-2.26,9.61,24.5,24.5,0,0,1-1.6,4c-.7,1.33-1.8,2.41-2.44,3.75-.08.17-.16,1.54.14,1.5,1.17-.17,2.12-2.37,2.62-3.33A25.72,25.72,0,0,0,84,72.73a102.86,102.86,0,0,0,2.45-11.11c1.26-7.29,2-15,.6-22.35,0-.18-.06.21,0,.26Z" transform="translate(-0.32)"/><path class="cls-1" d="M6.28,78.52c2.11,2.34,4.94-.41,7.28-.53,1.44-.08,2,1,3.14,1.57s2.05,0,2.9-.71a11.78,11.78,0,0,1,2.32-1.79c1.57-.71,3.23.26,4.71.76A27.48,27.48,0,0,0,35,79.42a16.09,16.09,0,0,0,8-1.8,32.63,32.63,0,0,0,3.37-2.5,5.41,5.41,0,0,1,4.46-1,24.28,24.28,0,0,1,4.59,1.61c1.78.73,3.54,1.49,5.3,2.25,3.24,1.4,6.37,3,9.75,4,7,2.28,15.13,3.55,22.21.76.44-.18-.21-3.37-.09-3.41-13.41,3.77-26.37-2.45-39-6.32a12.72,12.72,0,0,0-4.78-1,7.15,7.15,0,0,0-3.69,1.93,15.5,15.5,0,0,1-7.51,3.21,23,23,0,0,1-8.46-.55,35.62,35.62,0,0,1-4.13-1.36,3.89,3.89,0,0,0-3.93.2c-1,.7-1.77,1.88-2.93,2.32-1.42.54-2.1-.7-3.24-1.22C12,75.3,9,80.46,6.29,78.14c0,0-.07.32,0,.38Z" transform="translate(-0.32)"/><path class="cls-1" d="M32.69,38.33c.12-2.21.11-4.43.14-6.64,0-1-.37-2.66.85-3a11.5,11.5,0,0,1,3.31.09c4.49.31,8.95.82,13.43,1a133.11,133.11,0,0,0,13.4.11,45.77,45.77,0,0,1,6.29-.37,4.39,4.39,0,0,1,2.65,1c.23.22.36.54.58.75.23.54.29.35.2-.58a2.11,2.11,0,0,1-.31.52c-.29.41-.15,1.35-.12,1.82,0,.13.15,1.23.31,1,.8-1.05.68-2.73.5-4a3.75,3.75,0,0,0-2.11-3.07c-1.75-.78-3.8-.33-5.63-.16-2.18.2-4.37.31-6.56.35C55.3,27.34,51,27.09,46.7,27c-2.19-.06-4.39-.1-6.58-.11s-4.23-.19-6.29-.06C32,26.92,32.51,29.7,32.51,31c0,2.41-.08,4.82,0,7.23,0,.36.16.72.19.12Z" transform="translate(-0.32)"/><path class="cls-1" d="M39.19,26.74c.35-.28.4-1,.46-1.38a10.17,10.17,0,0,0,0-2,8.55,8.55,0,0,0-.34-1.87c-.21-.69-.71-1.29-.89-2l.1,1.44,0-.2-.1.48c.23-.44.85-.59,1.28-.74a10.32,10.32,0,0,1,1.52-.4,16.45,16.45,0,0,1,2.89-.19,31,31,0,0,1,6.51.7c.21.05.44.09.65.16s.35.25.61.37c.15-1.09.11-1.39-.13-.9l-.11.15a4.76,4.76,0,0,1-.56.54,3.68,3.68,0,0,0-1.38,2,8.15,8.15,0,0,0-.07,2.83c.08.61.18,1.59.86,1.8.18.05.07-1.69,0-1.87A8.8,8.8,0,0,0,50,24.41c.46.65-.13.92,0,.52.05-.1.07-.21.12-.31a3.57,3.57,0,0,1,.33-.56c.53-.69,1.4-1.07,1.67-2a5,5,0,0,0,0-3c-.35-.85-1.52-.86-2.29-1a30.64,30.64,0,0,0-6.56-.28,18.89,18.89,0,0,0-3.1.49c-.77.19-1.8.34-1.92,1.25a4.63,4.63,0,0,0,.06,1.74,6.09,6.09,0,0,0,.62,1.22,4,4,0,0,1,.48,1.51,9,9,0,0,1-.3,2c0,.08,0,.75.08.68Z" transform="translate(-0.32)"/><path class="cls-1" d="M57.26,27c.56-.41.57-1.21.59-1.85a7.22,7.22,0,0,0-.41-2.73,4.08,4.08,0,0,0-1.55-1.93c-.21-.16-.36-.39-.56-.54-.24,1.46-.21,1.94.09,1.43a1.24,1.24,0,0,1,.18-.22A3.55,3.55,0,0,1,57,20.41a17.6,17.6,0,0,1,6.79-1,18.4,18.4,0,0,1,3.3.5,17.92,17.92,0,0,1,1.72.53,6.32,6.32,0,0,1,.6.25c.66.34.47.9.46-.37L70,19.1c-.15.94-1.16,1.25-1.83,1.75A3.21,3.21,0,0,0,67,22.59a8.51,8.51,0,0,0-.2,2.89c0,.65.08,1.86.68,2.28.1.06.18-1,.18-1a4.4,4.4,0,0,0-.14-1.53,2.46,2.46,0,0,0-.27-.76l0-.11,0,1a2.72,2.72,0,0,0,.14-.43,2.89,2.89,0,0,1,1-1.21c.83-.62,1.7-.95,1.93-2.06a7.18,7.18,0,0,0,.05-2.07,2.23,2.23,0,0,0-.45-1.4c-.68-.69-2.12-.89-3-1.08a17.43,17.43,0,0,0-7.12,0,13.05,13.05,0,0,0-3.46,1.1A2.25,2.25,0,0,0,55,20.47a3.82,3.82,0,0,0,.26,1.77c.23.42.7.61,1.08.88a3.39,3.39,0,0,1,1,1.23,2.46,2.46,0,0,1-.1,1.95,3.73,3.73,0,0,0,0,.73Z" transform="translate(-0.32)"/><path class="cls-1" d="M65.89,31.9a1.13,1.13,0,0,0-1.26-.25,1.76,1.76,0,0,0-.93,1A4.09,4.09,0,0,0,63.38,34a3.8,3.8,0,0,0,.18,1.5,1.48,1.48,0,0,0,1.92.93,1.93,1.93,0,0,0,.92-.64,2.06,2.06,0,0,0,.38-1.23,2.91,2.91,0,0,0-1.42-2.69s0,.33,0,.36,0,.3.07.35a2.71,2.71,0,0,1,.87.78,2,2,0,0,1,.41,1,1.65,1.65,0,0,1-1.13,1.38,1.46,1.46,0,0,1-1.74-.44,2.26,2.26,0,0,1,0-2.17,1.93,1.93,0,0,1,.94-1,1.45,1.45,0,0,1,1.19,0,.36.36,0,0,0,0-.18Z" transform="translate(-0.32)"/><path class="cls-1" d="M59.05,31.66a5.93,5.93,0,0,0-2-.27,2.44,2.44,0,0,0-1.56.76,2.48,2.48,0,0,0-.57,1.42,3.77,3.77,0,0,0,.22,1.79,2.15,2.15,0,0,0,2.48,1.25,2.45,2.45,0,0,0,1.31-.73,2.32,2.32,0,0,0,.53-1.49A3.39,3.39,0,0,0,59,32.46a2.19,2.19,0,0,0-.59-.66,1.85,1.85,0,0,0-.33-.21.72.72,0,0,0-.2-.09c-.11,0-.14,0-.24.06s-.06.48,0,.55a.74.74,0,0,0,.28.22l.31.16a2,2,0,0,1,.52.45,2.08,2.08,0,0,1,.54,1.16c0-.08,0,.08,0,.08a1.68,1.68,0,0,1-.09.32,1.87,1.87,0,0,1-.34.56,2.41,2.41,0,0,1-1.12.68A2.18,2.18,0,0,1,55.4,35,1.71,1.71,0,0,1,55,34a2.12,2.12,0,0,1,.53-1.19,2.58,2.58,0,0,1,1.57-.77A6.25,6.25,0,0,1,59.06,32s0-.32,0-.34Z" transform="translate(-0.32)"/><path class="cls-1" d="M46.52,31.25a1.64,1.64,0,0,0-2.36,1,3.13,3.13,0,0,0,1,3.26,2.72,2.72,0,0,0,3.37.27,3.05,3.05,0,0,0,.87-3.06,2.4,2.4,0,0,0-1-1.42,2.16,2.16,0,0,0-1.8-.38c-.12,0-.06.84,0,.84a2.9,2.9,0,0,1,1.31.14,2.36,2.36,0,0,1,1.06.84,1.16,1.16,0,0,1,.23,1,2.27,2.27,0,0,1-.67,1.08,2.56,2.56,0,0,1-2.85.24,3.06,3.06,0,0,1-1.15-1,1.4,1.4,0,0,1-.3-1.26,1.88,1.88,0,0,1,2.28-1.17s.07-.38,0-.43Z" transform="translate(-0.32)"/><path class="cls-1" d="M83.28,33c0-2.4-.15-4.81-.25-7.22,0-1.16-.12-2.31-.14-3.47a3.69,3.69,0,0,1,.28-1.77c.2-.41.75-1.15,1.22-.6a3.79,3.79,0,0,1,.53,1.51,8.79,8.79,0,0,1,.21,2.66c-.09,1.1-.36,2.18-.47,3.27a25.57,25.57,0,0,0,.24,6.48c.08.54.15-.19.13-.36a39,39,0,0,1-.28-4.95c.08-1.32.41-2.61.51-3.93a12.73,12.73,0,0,0-.14-3.08,11.17,11.17,0,0,0-.45-1.79c-.11-.33-.24-.81-.66-.82-.87,0-1.16,1.47-1.22,2.1a23.79,23.79,0,0,0,0,3.48c.11,2.84.16,5.7.38,8.54,0,.19.06.08.06,0Z" transform="translate(-0.32)"/><path class="cls-1" d="M83.15,19.89c-.92.32-1.76.83-2.66,1.18a8.1,8.1,0,0,1-2.75.58A5,5,0,0,1,75.13,21c-.73-.41-1.51-1.12-2.39-.75-.09.05,0,.62,0,.68a4.23,4.23,0,0,1,.89,5.58,1.81,1.81,0,0,0,0,.71,5.61,5.61,0,0,1,2.76-.05,11.82,11.82,0,0,0,2.44.74,4.54,4.54,0,0,0,2.22-.9,3,3,0,0,1,1-.36,3.48,3.48,0,0,1,1.11.13,1.41,1.41,0,0,0,0-.54c-.51-.61-1.36-.39-2-.08a5.46,5.46,0,0,1-2.26,1,10.33,10.33,0,0,1-2.52-.72,5.6,5.6,0,0,0-2.76.06l0,.71a5.59,5.59,0,0,0-1-6.95l0,.68c.88-.37,1.66.34,2.38.75a5.05,5.05,0,0,0,2.61.61,10,10,0,0,0,5.4-2.13s0-.31,0-.31Z" transform="translate(-0.32)"/><path class="cls-1" d="M69.93,41.61a.47.47,0,0,1,0-.76v0a.5.5,0,0,0,0,.8v0Z" transform="translate(-0.32)"/><circle class="cls-2" cx="66.49" cy="13.63" r="0.84"/><circle class="cls-2" cx="62.71" cy="9.01" r="1.26"/><circle class="cls-2" cx="65.65" cy="11.11" r="0.84"/><circle class="cls-2" cx="63.55" cy="14.05" r="0.42"/><circle class="cls-2" cx="61.87" cy="11.53" r="0.42"/><circle class="cls-2" cx="59.78" cy="9.43" r="0.84"/><circle class="cls-2" cx="58.1" cy="6.92" r="0.84"/><circle class="cls-2" cx="63.55" cy="12.37" r="0.42"/><circle class="cls-2" cx="58.52" cy="11.53" r="0.42"/><circle class="cls-2" cx="60.2" cy="14.05" r="0.42"/><circle class="cls-2" cx="61.87" cy="14.88" r="0.42"/><circle class="cls-2" cx="66.07" cy="15.72" r="0.42"/><circle class="cls-2" cx="57.26" cy="5.24" r="0.42"/><circle class="cls-2" cx="54.75" cy="6.92" r="0.84"/><circle class="cls-2" cx="55.17" cy="10.69" r="0.42"/><circle class="cls-2" cx="57.26" cy="13.63" r="0.84"/><circle class="cls-2" cx="58.52" cy="15.72" r="0.42"/><circle class="cls-2" cx="54.33" cy="3.98" r="0.42"/><circle class="cls-2" cx="51.81" cy="3.98" r="0.42"/><circle class="cls-2" cx="52.65" cy="2.31" r="0.42"/><circle class="cls-2" cx="52.65" cy="5.66" r="0.42"/><circle class="cls-2" cx="53.49" cy="8.18" r="0.42"/><circle class="cls-2" cx="55.17" cy="9.01" r="0.42"/><circle class="cls-2" cx="56.84" cy="9.01" r="0.42"/><circle class="cls-2" cx="61.87" cy="6.5" r="0.42"/><circle class="cls-2" cx="60.2" cy="4.82" r="0.42"/><circle class="cls-2" cx="64.81" cy="6.08" r="0.84"/><circle class="cls-2" cx="56" cy="2.31" r="0.42"/><circle class="cls-2" cx="50.97" cy="0.63" r="0.42"/><circle class="cls-2" cx="47.2" cy="15.3" r="0.84"/><circle class="cls-2" cx="38.4" cy="9.01" r="1.26"/><circle class="cls-2" cx="46.36" cy="12.79" r="0.84"/><circle class="cls-2" cx="44.27" cy="15.72" r="0.42"/><circle class="cls-2" cx="42.59" cy="14.88" r="0.42"/><circle class="cls-2" cx="34.62" cy="15.3" r="0.84"/><circle class="cls-2" cx="32.94" cy="11.95" r="0.84"/><circle class="cls-2" cx="44.27" cy="14.05" r="0.42"/><circle class="cls-2" cx="39.23" cy="13.21" r="0.42"/><circle class="cls-2" cx="40.91" cy="15.72" r="0.42"/><circle class="cls-2" cx="42.59" cy="16.56" r="0.42"/><circle class="cls-3" cx="46.78" cy="17.4" r="0.42"/><circle class="cls-2" cx="40.91" cy="14.05" r="0.42"/><circle class="cls-2" cx="32.94" cy="6.92" r="0.84"/><circle class="cls-2" cx="35.88" cy="12.37" r="0.42"/><circle class="cls-2" cx="27.07" cy="3.56" r="0.84"/><circle class="cls-3" cx="39.23" cy="17.4" r="0.42"/><circle class="cls-2" cx="28.33" cy="5.66" r="0.42"/><circle class="cls-2" cx="29.17" cy="7.34" r="0.42"/><circle class="cls-2" cx="30.01" cy="4.82" r="0.42"/><circle class="cls-2" cx="31.69" cy="9.01" r="0.42"/><circle class="cls-2" cx="34.2" cy="9.85" r="0.42"/><circle class="cls-2" cx="35.88" cy="10.69" r="0.42"/><circle class="cls-2" cx="38.4" cy="11.53" r="0.42"/><circle class="cls-2" cx="45.1" cy="12.37" r="0.42"/><circle class="cls-2" cx="37.56" cy="14.88" r="0.42"/><circle class="cls-2" cx="42.17" cy="11.95" r="0.84"/><circle class="cls-2" cx="35.04" cy="7.34" r="0.42"/><circle class="cls-2" cx="25.82" cy="5.66" r="0.42"/><path class="cls-1" d="M6.46,69.26,6.1,70.41c-.12.37-.27.74-.37,1.11a1.29,1.29,0,0,0,0,.39c0,.08,0,.26.07.32a1.14,1.14,0,0,0,1.61-.18,1.64,1.64,0,0,0,.47-.84A1.85,1.85,0,0,0,7.72,70c0-.08-.11-.18-.2-.19A5,5,0,0,1,7,69.7a3.12,3.12,0,0,0-.53-.11l-.53,0c-.08,0-.07.35-.07.4s0,.37.09.39a3.74,3.74,0,0,0,.82.08c.13,0,.26,0,.39,0l.19,0a.67.67,0,0,1,.24,0,.57.57,0,0,1,.12.15l0,.07s0,0,0,0,0,0,0,0,0,.06,0,0,0,.07,0,0v-.12s0,.05,0,0a.06.06,0,0,1,0,0s0,0,0,.06a1.56,1.56,0,0,1-1.15,1,.86.86,0,0,1-.79-.25l0,.71c.13-.44.22-.9.34-1.35l.33-1.32a.46.46,0,0,0,0-.2s0-.11,0-.06Z" transform="translate(-0.32)"/><path class="cls-1" d="M1.68,69.83a1,1,0,0,0-.69.11,1.45,1.45,0,0,0-.46.58,2.53,2.53,0,0,0-.21,1,2.69,2.69,0,0,0,.17,1.16,1.14,1.14,0,0,0,1.34.62,1.66,1.66,0,0,0,.37-.14L2.37,73a1,1,0,0,0,.16-.19A1.88,1.88,0,0,0,3,72.06,2.46,2.46,0,0,0,3,71.4c0-.11,0-.22,0-.33a.65.65,0,0,0,0-.13.8.8,0,0,0-.13-.13l-.56-.54L2,70c-.08-.08-.17-.21-.29-.22s0,.37,0,.41a2.23,2.23,0,0,0,.43.49l.44.43s.31.34.34.32,0-.15,0-.08a.53.53,0,0,1,0,.12,1.06,1.06,0,0,1-.38.46s-.09,0-.13,0l-.15.1a1.36,1.36,0,0,1-.33.14,1.09,1.09,0,0,1-1.2-.31.71.71,0,0,1-.13-.22.19.19,0,0,1,0-.07s0,.08,0,0,0-.12,0,0c0-.05,0,0,0,0s0,0,0,.06v.07c0-.09,0,.09,0,0s0-.05,0-.08,0,0,0,0l0-.07a.5.5,0,0,1,.05-.13,1.48,1.48,0,0,1,1.08-.86c.09,0,.07-.34.07-.4s0-.37-.09-.39Z" transform="translate(-0.32)"/><path class="cls-1" d="M5.24,62.4a2.28,2.28,0,0,0-1.47.33,3,3,0,0,0-.94,1.11,3.57,3.57,0,0,0-.27,1.77A2.64,2.64,0,0,0,3,67.05a1.91,1.91,0,0,0,2.31.77,2.15,2.15,0,0,0,.77-2.21c-.1-.72-.58-1.51-1.4-1.41-.06,0,0,.39,0,.39a1.24,1.24,0,0,1,1.23,1,.68.68,0,0,1,0,.59,1,1,0,0,1-.55.51,1.93,1.93,0,0,1-2-.4,2,2,0,0,1-.6-.9s0-.13,0-.07,0,.19,0,0A2,2,0,0,1,3,64.76a3,3,0,0,1,1-1A5.37,5.37,0,0,1,5.25,63c.09,0,.06-.59,0-.59Z" transform="translate(-0.32)"/></g></g></svg>