<svg xmlns="http://www.w3.org/2000/svg" viewBox="0 0 2354.34 1311.98"><defs><style>.cls-1{opacity:0.19;}.cls-2{fill:#1c1e21;}</style></defs><title>Asset 4</title><g id="Layer_2" data-name="Layer 2"><g id="Layer_1-2" data-name="Layer 1"><g class="cls-1"><path class="cls-2" d="M1586.65,1248.94c-29.82-10.7-59-23.5-86.48-39.23a401.14,401.14,0,0,1-36.08-23.16q-8.19-5.94-16-12.35c-2.63-2.17-5.3-4.33-7.79-6.67-1.78-1.68-3.91-3.47-5-5.7-1.55-3.07-1.62-7.12.78-9.68,4.46-4.74,11.62-6.94,17.66-8.71a202.68,202.68,0,0,1,22.77-4.88c16.49-2.83,33.14-4.63,49.8-6.1,33.2-2.94,66.71-4.3,99.6-10,26-4.53,55.13-10.89,76.69-27,8.9-6.67,15.17-15.28,17-26.42,1.16-6.87.84-13.84,1.38-20.76a60.31,60.31,0,0,1,4.86-19.49c10.93-25.07,34.51-43.61,56.14-59.11A744.75,744.75,0,0,1,1858.1,922c25.62-14,53.66-24.42,83.09-25.76a160.84,160.84,0,0,1,39.65,3c10.71,2.21,22.12,5.14,31,11.87,3.48,2.64,6.57,6,7.66,10.33.39,1.54.93-.58.75-1.27-2-8.08-9.15-13.21-16.25-16.78-11-5.5-23.22-8.17-35.32-9.54-29.46-3.34-58.86,2.06-86.09,13.49-27.95,11.72-53.91,28.86-79.28,45.24-24.6,15.88-50.28,33.32-68,57.05-6.85,9.17-12.32,19.56-14.39,30.9-2.86,15.64.89,32-10.63,44.93-8.17,9.19-19.77,15.09-31,19.66-14.46,5.89-29.71,9.8-45,12.8-34.07,6.69-68.86,8.35-103.38,11.35-17.62,1.53-35.25,3.35-52.69,6.31a200.56,200.56,0,0,0-23.79,5.23c-6,1.79-12.63,4-17.42,8.16-8.71,7.59-1.6,16.48,5.21,22.43a323.4,323.4,0,0,0,34.5,25.93c26.88,17.76,55.89,32.22,85.73,44.26q12,4.82,24.09,9.13c.48.17.56-1.6.13-1.76Z"/></g><g class="cls-1"><path class="cls-2" d="M1450.4,1231.43c-36.06-9-72.21-23.12-101.51-46.48-11.44-9.12-21.9-19.83-29.33-32.51a67.45,67.45,0,0,1-7.76-18.5c-2.5-10.76,1-20.37,10.06-26.74,12.81-9,30-10.81,45.15-11.51,18.46-.84,37,.4,55.41,1,35,1.17,70-.83,102.27-15.81,24.45-11.35,45-29.38,60.33-51.48,14.65-21.15,22.77-45,32.61-68.5,13.53-32.35,30.12-63.51,53-90.28,23.65-27.69,53-50,85.33-66.5,68.5-34.92,149-50.13,225.58-45.3,10.1.64,20.2,1.37,30.25,2.5.87.09,1-3.61-.09-3.78-41.54-6.81-84.42-5.1-125.89,1.5-38.13,6.07-75.73,16.65-111.06,32.28-33.78,14.95-65,35-91,61.39-25.42,25.69-44.57,56.39-59.49,89.16-11.68,25.67-19.71,53.09-34.62,77.19-14.49,23.42-34.47,43.1-59,55.9-33.1,17.28-70,20-106.65,18.74-19-.62-38-1.89-57-1-15.33.73-32.5,2.61-45.42,11.7-24.76,17.43-4.67,51.06,10.42,67.64,23.32,25.63,56.11,42,88.44,53.16,9.89,3.41,19.93,6.31,30.08,8.83.48.12.71-2.42-.06-2.62Z"/></g><g class="cls-1"><path class="cls-2" d="M1279.47,1249.35c-48.4-16-95.87-37.58-136.22-69.16-30.57-23.93-58.86-55.08-69.82-93.17-4.5-15.64-6.33-32.44-1.1-48.12,5.55-16.63,17.53-30.32,32.26-39.56,49.37-31,109.53-10,163.54-13.3,48-3,98.4-22.34,127.31-62.4,14.55-20.15,22.92-43.79,33.82-65.93a572.74,572.74,0,0,1,39-67c31.45-46.71,69-89.11,110.15-127.52,34.72-32.46,72.19-61.89,114.89-83.17,46.12-23,96.28-36,147.58-39.82,46.77-3.48,96.18-.92,140.76,14.72a149.52,149.52,0,0,1,26,11.59c.85.5,1.25-3.23.29-3.79-39.76-23.21-87.38-29.13-132.73-29.18-51.93,0-103.67,8.78-152,27.93-45.46,18-86.28,44.91-123.09,76.88-42.57,37-81.71,78.37-115.31,123.69a616.22,616.22,0,0,0-43.49,67.13c-12.41,22.26-21.82,45.82-33.42,68.45-11.8,23-28.17,42.6-50.23,56.34-22.25,13.85-47.82,22.24-73.71,25.8-56.05,7.7-115.8-15.47-169.28,9.67-16.43,7.73-30.76,20.11-39.1,36.4-6.86,13.4-8.85,28-7.25,42.85,3.91,36.4,24.88,68.4,50.42,93.62,34.49,34.06,78.14,58.25,122.88,76.1,12.45,5,25.14,9.29,38,13.24.36.11.59-2-.06-2.25Z"/></g><g class="cls-1"><path class="cls-2" d="M977,1239.08c-63.18-28.24-124.53-66.81-168.25-121.38-33.72-42.1-55.59-95.35-46.46-149.91,4.21-25.17,13.79-49.89,31.69-68.5,22.69-23.59,54.59-34.81,86.83-36.3,20.88-1,41.65,2,62.31,4.62,21.18,2.68,42.3,4.34,63.66,3.68a380.56,380.56,0,0,0,115.2-21.75c32.19-11.43,62.85-27.32,89.1-49.34,26.74-22.42,47.56-50.25,65.18-80.19,15.4-26.15,29.3-53.14,45-79.13a761.26,761.26,0,0,1,50.17-73.79,559.62,559.62,0,0,1,149.48-134.28c57.46-35.2,120.21-59.38,185.54-75.36a902.33,902.33,0,0,1,204.29-25.71c65.68-.72,132.47,5.62,195.62,24.41,14.4,4.28,29,9,42.81,15,1,.42,1.22-3.25.28-3.65C2089.29,341.6,2025.13,330.12,1960,327c-70.72-3.41-142,2.39-211.49,15.88-64.2,12.48-127.51,31.66-185.9,61.44-64,32.66-121.69,76.56-169.06,130.71-39.77,45.45-71.52,96.83-100.53,149.6-17,31-34.42,62-58.45,88.24-24.46,26.72-54.35,47.21-87.36,61.92a373.74,373.74,0,0,1-115.74,30.1,362.2,362.2,0,0,1-62.57.72c-21.66-1.66-43.08-5.56-64.76-6.94-34.93-2.22-71,3.89-99.16,26-19.78,15.53-32.17,36.69-39.27,60.54-14.29,48.07-5.31,98.82,19.22,141.95,31.88,56.07,85,98,140.51,129,16.69,9.33,33.87,17.74,51.38,25.44.6.27.77-2.19.17-2.46Z"/></g><g class="cls-1"><path class="cls-2" d="M720.47,1213.77c-71.24-36.87-139.26-83.36-192.36-144.08-42.29-48.37-75.23-107.47-82.12-172.2a234.72,234.72,0,0,1,8.13-90.35c4.71-16.16,11.75-31.16,25.23-41.81,15.2-12,34.91-17.24,53.82-19.7,41.78-5.45,84.49,1.18,126.17,4.54,41.24,3.33,82.6,3.82,123-6.51C842,728.4,890.43,691.14,927,642.34c17.44-23.3,31.62-48.68,47.66-72.92a878.6,878.6,0,0,1,72.68-94.61c57.47-65.4,123.41-123.1,193.65-174.39,65.56-47.87,135-90.51,209.23-123.69,159.93-71.52,342.18-99.77,516-75.16q31.08,4.4,61.66,11.69c1,.23,1.26-4.21-.11-4.57C1940.88,85.47,1849.55,82.27,1760.32,90a959.35,959.35,0,0,0-261.4,59.79C1422.7,179,1350.82,218.26,1283.31,264c-74.57,50.56-145,107.88-207.31,173.09a949.7,949.7,0,0,0-77.8,92.13c-20.27,27.46-37.38,56.72-56.11,85.17-34.19,51.92-79.17,96-138.92,116.71-38,13.17-78.29,16.33-118.23,14.38-43.41-2.11-86.73-9.42-130.28-7.92-35.49,1.21-76.55,9.61-94.17,44.16-12.66,24.83-17,55.85-17.71,83.41-3.87,140.8,108.31,252,220.38,319.76,18.59,11.24,37.7,21.56,57.15,31.23.53.27.73-2.09.16-2.39Z"/></g><g class="cls-1"><path class="cls-2" d="M408,1198.26c-84.26-39.3-165.24-87.65-235.4-149C114.85,998.83,63.45,938.49,32.05,868,18.31,837.2,8.57,804.55,4.42,771,.72,741.1,1,711.83,14.54,684.27c14.14-28.65,38.87-50.45,67.95-63.22,43.71-19.2,92.1-17.51,138.45-11.57,26.89,3.45,53.73,7.74,80.89,8.25a332.35,332.35,0,0,0,74.76-7.2c41.31-8.73,82.2-24.83,116.51-49.72,36.45-26.43,61.14-63.13,84-101.19,18-30,37.17-58.59,60.32-84.9,45.72-52,100.9-95.15,159.13-132.2,68.91-43.82,142.92-79.35,218.89-109.09,85.74-33.58,174.37-59.66,264.21-79.65,96-21.36,193.47-35.63,291.39-44.08,25-2.15,50-3.87,74.93-5.78,1.06-.08,1-3.93-.09-3.92-101.58,1.42-203.65,14.61-303.35,33.59C1249.3,51.34,1157.17,75.43,1067.65,107c-80,28.24-158.23,62.49-231.78,105C772.48,248.6,712,291.52,660.31,343.65a516,516,0,0,0-60,72.08c-25.42,37.28-44.69,78.54-76,111.59C457.62,597.73,352.76,619,259.62,608.07c-50.59-6-101.29-15.45-151.61-2.22-32.44,8.52-62.4,26.11-82.59,53.28-35.81,48.18-27.89,112.09-12,166.37,20.3,69.42,61.49,131,110.86,183.16C186,1073.9,260.92,1125.82,340,1167.91c22.22,11.83,44.86,22.85,67.8,33.23.65.29.87-2.57.19-2.88Z"/></g><g class="cls-1"><path class="cls-2" d="M1791,1309.32c-29.83-10.7-59-23.5-86.48-39.23a400.61,400.61,0,0,1-36.08-23.17q-8.19-5.93-16-12.35c-2.64-2.16-5.3-4.33-7.79-6.67-1.79-1.68-3.92-3.47-5-5.7-1.54-3.07-1.62-7.11.79-9.67,4.45-4.75,11.61-7,17.65-8.72a201.09,201.09,0,0,1,22.78-4.87c16.49-2.84,33.13-4.64,49.79-6.11,33.21-2.94,66.71-4.29,99.6-10,26-4.52,55.14-10.89,76.7-27,8.9-6.66,15.17-15.28,17-26.42,1.15-6.86.83-13.84,1.38-20.76a60.29,60.29,0,0,1,4.85-19.49c10.93-25.06,34.51-43.6,56.15-59.11a746.5,746.5,0,0,1,76.12-47.64c25.62-14,53.66-24.42,83.08-25.76a160.8,160.8,0,0,1,39.65,3c10.71,2.2,22.13,5.14,31,11.86,3.49,2.64,6.57,6,7.67,10.33.39,1.54.92-.58.75-1.26-2-8.08-9.16-13.22-16.26-16.79-11-5.5-23.21-8.17-35.31-9.54-29.46-3.34-58.87,2.07-86.1,13.49-27.94,11.72-53.9,28.87-79.28,45.25-24.6,15.88-50.28,33.31-68,57-6.85,9.17-12.32,19.56-14.39,30.9-2.86,15.65.89,31.95-10.64,44.93-8.17,9.19-19.77,15.09-31,19.67-14.46,5.88-29.7,9.79-45,12.79-34.06,6.7-68.86,8.36-103.38,11.36-17.62,1.53-35.24,3.34-52.69,6.3a201.44,201.44,0,0,0-23.79,5.23c-6,1.79-12.62,4-17.41,8.17-8.71,7.58-1.61,16.47,5.21,22.42a322.81,322.81,0,0,0,34.5,25.94c26.88,17.75,55.88,32.21,85.73,44.25,8,3.22,16,6.24,24.09,9.13.48.17.56-1.6.13-1.75Z"/></g><g class="cls-1"><path class="cls-2" d="M1654.76,1291.81c-36.06-9-72.21-23.12-101.52-46.49-11.43-9.12-21.9-19.83-29.33-32.51a67.76,67.76,0,0,1-7.76-18.5c-2.5-10.76,1-20.36,10.07-26.74,12.81-9,29.94-10.81,45.14-11.5,18.47-.85,37,.39,55.42,1,35,1.17,70-.84,102.27-15.81,24.44-11.36,45-29.39,60.32-51.49,14.66-21.14,22.78-45,32.62-68.5,13.53-32.35,30.11-63.51,53-90.28,23.65-27.69,53-50,85.34-66.5,68.5-34.92,149-50.12,225.58-45.29,10.09.63,20.2,1.37,30.25,2.49.86.1,1-3.6-.09-3.78-41.55-6.8-84.43-5.1-125.9,1.5a449.54,449.54,0,0,0-111.05,32.29c-33.79,14.94-65,35-91,61.38-25.41,25.69-44.57,56.4-59.48,89.17-11.69,25.66-19.71,53.08-34.62,77.18-14.49,23.43-34.47,43.11-59,55.9-33.09,17.28-70,20-106.65,18.75-19-.63-38-1.9-57-1-15.32.73-32.5,2.6-45.41,11.69-24.77,17.43-4.67,51.06,10.41,67.64,23.33,25.64,56.11,42,88.44,53.16,9.89,3.41,19.94,6.31,30.09,8.83.48.12.7-2.42-.06-2.61Z"/></g><g class="cls-1"><path class="cls-2" d="M1483.83,1309.72c-48.4-16-95.88-37.58-136.22-69.16-30.58-23.93-58.86-55.08-69.82-93.16-4.5-15.65-6.33-32.45-1.1-48.13,5.55-16.63,17.53-30.31,32.26-39.55,49.36-31,109.52-10,163.54-13.31,48-3,98.4-22.34,127.31-62.39,14.54-20.16,22.91-43.8,33.81-65.94a575,575,0,0,1,39-67c31.45-46.71,69.05-89.1,110.15-127.52,34.72-32.45,72.18-61.89,114.89-83.17,46.11-23,96.28-36,147.58-39.81,46.76-3.48,96.17-.93,140.76,14.71a150.18,150.18,0,0,1,26,11.59c.86.51,1.25-3.23.3-3.79-39.76-23.21-87.39-29.13-132.73-29.18-51.93,0-103.67,8.78-152,27.93-45.46,18-86.28,44.91-123.09,76.88-42.57,37-81.72,78.38-115.31,123.69a617.79,617.79,0,0,0-43.5,67.13c-12.4,22.26-21.82,45.82-33.42,68.46-11.8,23-28.16,42.6-50.22,56.33-22.25,13.85-47.82,22.25-73.72,25.8-56,7.7-115.79-15.47-169.28,9.68-16.42,7.72-30.76,20.1-39.09,36.39-6.86,13.4-8.85,28-7.26,42.85,3.91,36.4,24.89,68.41,50.42,93.62,34.49,34.06,78.15,58.26,122.88,76.1,12.46,5,25.15,9.3,38,13.24.37.11.59-2-.05-2.25Z"/></g><g class="cls-1"><path class="cls-2" d="M1181.31,1299.46c-63.19-28.24-124.53-66.82-168.25-121.39-33.72-42.09-55.59-95.35-46.47-149.9,4.22-25.18,13.8-49.9,31.7-68.51,22.69-23.59,54.58-34.81,86.82-36.29,20.89-1,41.66,2,62.32,4.61,21.17,2.68,42.3,4.34,63.65,3.68a380.68,380.68,0,0,0,115.21-21.75c32.19-11.43,62.85-27.31,89.1-49.33,26.73-22.43,47.56-50.26,65.18-80.19,15.39-26.16,29.3-53.15,45-79.14a763.63,763.63,0,0,1,50.16-73.79,559.46,559.46,0,0,1,149.49-134.27c57.46-35.21,120.21-59.38,185.54-75.37A902.73,902.73,0,0,1,2115,392.12c65.68-.72,132.48,5.62,195.62,24.4,14.41,4.29,29,9,42.81,15,1,.42,1.23-3.25.29-3.65-60.1-25.86-124.26-37.34-189.44-40.48-70.72-3.41-142,2.39-211.48,15.89-64.21,12.47-127.52,31.65-185.9,61.43-64,32.66-121.69,76.56-169.07,130.71-39.76,45.45-71.51,96.83-100.52,149.6-17,31-34.42,62-58.46,88.24-24.45,26.72-54.35,47.22-87.35,61.93a374.37,374.37,0,0,1-115.74,30.1,361.32,361.32,0,0,1-62.58.71c-21.65-1.66-43.07-5.56-64.75-6.93-34.94-2.23-71,3.89-99.16,26-19.79,15.52-32.18,36.68-39.27,60.53-14.3,48.08-5.31,98.82,19.22,142,31.88,56.07,85,98,140.5,129,16.7,9.33,33.88,17.74,51.38,25.44.6.27.77-2.19.18-2.45Z"/></g><g class="cls-1"><path class="cls-2" d="M924.83,1274.15c-71.24-36.88-139.27-83.37-192.36-144.09-42.3-48.37-75.23-107.47-82.12-172.2a234.74,234.74,0,0,1,8.13-90.35c4.7-16.15,11.75-31.16,25.23-41.81,15.2-12,34.91-17.24,53.81-19.7,41.79-5.44,84.49,1.18,126.18,4.55,41.24,3.33,82.6,3.81,123-6.51,59.7-15.27,108.13-52.53,144.66-101.33C1148.77,679.41,1163,654,1179,629.8a875.35,875.35,0,0,1,72.68-94.61c57.46-65.41,123.41-123.11,193.65-174.4,65.55-47.87,135-90.51,209.23-123.68,159.93-71.53,342.17-99.78,516-75.17q31.08,4.41,61.66,11.7c1,.22,1.26-4.21-.11-4.58-86.86-23.21-178.19-26.41-267.42-18.71a959.89,959.89,0,0,0-261.4,59.79c-76.21,29.26-148.09,68.5-215.6,114.27-74.58,50.56-145,107.88-207.31,173.09a950.89,950.89,0,0,0-77.8,92.13c-20.27,27.46-37.38,56.72-56.12,85.17-34.19,51.92-79.16,96-138.92,116.71-38,13.17-78.29,16.33-118.22,14.39-43.41-2.12-86.74-9.42-130.29-7.93-35.49,1.22-76.54,9.62-94.16,44.16-12.67,24.83-17,55.85-17.72,83.41-3.87,140.8,108.31,252,220.38,319.76,18.59,11.24,37.7,21.57,57.15,31.23.54.27.74-2.09.17-2.38Z"/></g><g class="cls-1"><path class="cls-2" d="M612.3,1258.63c-84.25-39.3-165.23-87.65-235.4-149C319.2,1059.2,267.81,998.87,236.4,928.4c-13.73-30.82-23.48-63.48-27.62-97-3.7-29.92-3.48-59.19,10.12-86.74C233,716,257.77,694.19,286.84,681.42c43.72-19.2,92.1-17.51,138.46-11.57,26.89,3.45,53.73,7.74,80.89,8.25a331.63,331.63,0,0,0,74.75-7.2c41.31-8.72,82.2-24.82,116.52-49.72,36.44-26.43,61.14-63.13,84-101.18,18-30,37.17-58.59,60.32-84.9,45.72-52,100.89-95.16,159.13-132.2,68.9-43.83,142.92-79.35,218.89-109.1,85.73-33.57,174.37-59.66,264.21-79.65,96-21.36,193.47-35.63,291.38-44.07,25-2.16,50-3.87,74.94-5.78,1.06-.08,1-3.94-.1-3.93C1748.64,61.79,1646.58,75,1546.88,94c-93.23,17.75-185.36,41.84-274.87,73.42-80,28.24-158.23,62.49-231.79,105C976.84,309,916.3,351.9,864.67,404a515.54,515.54,0,0,0-60,72.09c-25.41,37.27-44.68,78.53-76,111.59C662,658.1,557.12,679.4,464,668.45c-50.6-6-101.29-15.45-151.62-2.23-32.44,8.52-62.4,26.12-82.58,53.28-35.81,48.19-27.89,112.09-12,166.37,20.29,69.42,61.48,131,110.85,183.16,61.76,65.25,136.66,117.17,215.7,159.25,22.23,11.84,44.87,22.85,67.8,33.23.66.3.87-2.56.19-2.88Z"/></g></g></g></svg>