<svg xmlns="http://www.w3.org/2000/svg" viewBox="0 0 517.91 598.99"><defs><style>.cls-1{fill:#1c1e21;}.cls-2{fill:#f1ff39;}.cls-3{fill:#fff;}</style></defs><title>Asset 12</title><g id="Layer_2" data-name="Layer 2"><g id="Layer_1-2" data-name="Layer 1"><path class="cls-1" d="M218.69,3.62c6.54,4.67,14.17,7.55,21.71,10.34,84.81,31.37,163.86,61.32,221.84,135.72,41,52.54,63.22,122,49.41,187.17-4.25,20-11.92,39.64-24.5,55.83-21.93,28.23-56.37,43.52-90.18,55.13-73.76,25.33-153.87,39.59-215.85,86.93-11.66,8.9-23.39,20.8-23.15,35.46"/><path class="cls-2" d="M218.39,7.12C231,15.84,246.72,20,260.92,25.43c13.65,5.2,27.26,10.51,40.74,16.15,26.07,10.91,51.69,23.07,75.74,38,51.11,31.62,94.35,76.63,118,132.41,12.13,28.59,19.18,59.7,18.11,90.86-1.08,31.57-10,64.9-31.15,89.08-19.84,22.64-47.89,36.14-75.69,46.28-29.34,10.7-59.54,18.87-89.39,27.94-29.48,8.95-58.88,18.65-86.72,31.94a297.86,297.86,0,0,0-39.47,22.45c-12,8.16-24.22,17.33-30.77,30.71a41.9,41.9,0,0,0-4.17,19c0,.94.24,4.63,1.7,4.75s1.88-2.44,1.92-3.54c.45-15.19,15.77-25.65,26.86-33.75A287.38,287.38,0,0,1,227,513.29c28.69-14.42,59.19-24.72,89.8-34.19,30.12-9.31,60.6-17.69,90.19-28.63,28-10.36,56.21-23.82,76.33-46.57,20.88-23.61,30.57-55,33.62-85.89s-1-62.15-10.49-91.57c-18.58-57.86-58.15-107-107.44-141.93C351.07,50.6,295.42,30.35,240.7,10.34c-7.57-2.77-15-5.67-21.71-10.23-1.57-1.06-2.38,5.78-.6,7Z"/><path class="cls-1" d="M46.77,490.06a353.68,353.68,0,0,1-6.83,51.66c6.91-21,22.76-38,40.18-51.69,42.08-33,191.49-39.62,244.42-47.25-121,35.3-189.35-8.93-214.71-22.18"/><path class="cls-2" d="M46.09,489.56a416.76,416.76,0,0,1-7.5,50.07c-.32,1.47,1.06,9.08,2.48,5,4.85-13.76,13.46-25.71,23.76-35.92,7.3-7.25,15.31-14.28,24.39-19.21,15.26-8.28,32.72-12.62,49.54-16.43,42.53-9.66,86.25-13.84,129.59-18.05,18.79-1.82,37.65-3.35,56.34-6l-.31-12.65c-38,10.88-77.82,16-117.27,11.37-25.64-3-50.17-10.73-74-20.56-7.69-3.18-15.7-6.49-23.07-10.36-1.62-.85-2.32,6.44-.52,7.38,6.77,3.55,13.15,8.19,19.83,12A180,180,0,0,0,159.25,450c29.74,10.29,61.29,14.11,92.66,12.27,24.7-1.46,49.06-6.25,72.78-13.18,3.17-.93,2.46-13.05-.31-12.65-38.48,5.62-77.41,8.05-116,13.11-22.28,2.92-44.55,6.33-66.49,11.26-17.43,3.91-35.13,8.7-51,17-10.07,5.27-18.69,12.86-26.62,20.92-11.25,11.44-20.42,24.68-25.46,40l2.48,5.05a330.1,330.1,0,0,0,6.17-53.27c0-1.54-1.12-3.68-1.36-1Z"/><path class="cls-1" d="M215.31,8.4c10.11,24.17,20.37,48.6,36,69.6,23.93,32.08,51.3,60.8,63.8,100,9.06,28.4,3.67,39.75,0,63.07-2.33,14.87,2.28,32-.05,46.83-5.57,35.45-12.67,73.84-39.39,97.79-22.91,20.53-55.48,25.86-86.21,27.41s-62.37.37-91.2,11.1S43.67,461.79,46,492.46"/><path class="cls-2" d="M214.45,10.81c8,24,18.14,48.2,32.51,69.14,13.26,19.33,28.86,36.94,42,56.37,12.59,18.64,25.22,40.87,27.3,63.73.74,8.09-.64,15.89-2.15,23.81-2.2,11.55-3.82,22.72-3.21,34.52s1.17,22.51-.77,34.11c-1.79,10.66-3.87,21.26-6.67,31.71-5.37,20-14.23,40.05-30.26,53.81-37,31.73-89.89,24.09-134.74,28.41-25,2.41-50.32,8.79-69.68,25.65-17.69,15.41-29.44,38.13-25.32,62,.86,5,5,5.37,5.25-.13.83-20.26,13-37.5,29.06-49.14,19.4-14,43.1-18.64,66.55-20.49,44.82-3.55,98.05,2.28,133.83-30.94,15.72-14.6,24.89-34.07,30.91-54.36a287.91,287.91,0,0,0,7.2-32.33c2.1-12.09,3.89-23.81,3.14-36.12-.7-11.6-1.49-22.34.6-33.84,1.73-9.47,3.48-18.87,3.7-28.53.53-23.56-8.73-47-20.16-67.19-12.81-22.65-29.95-42.38-45.87-62.83a249.38,249.38,0,0,1-22.88-34.67C228.13,31.24,222.69,18.36,216.17,6c-1.72-3.27-2.16,3.49-1.72,4.81Z"/><path class="cls-2" d="M234.26,52.47a94.46,94.46,0,0,0-50.48,4.74c-8.81,3.39-13.89,9.76-21.35,15-6.26,4.36-12.67,7.48-17.59,13.59-4.17,5.18-7.91,6.56-11.15,12.37-7.44,13.34-16.47,30.05-28.18,39.86-3.19,2.68-5.64,6.09-8.79,8.82-2.93,2.54-5.79,11.46-3.45,14.91,4.36-12.54,12.37-17.94,22.13-25.09,2.13-1.56,6.8-1.71,8.85-3.37a21.58,21.58,0,0,0,5-6.65c8.07-15,11.69-34.27,25.42-45.49,9.16-7.48,8.64.57,6.91,7.95-1.94,8.25-6.69,18.54-9,26.64-.6,2.11-3.28,8.33-2.32,10.3,2.28,4.65,11.42.31,16.46-.88,9.2-2.16,20.34-1.83,29.54-4C186.13,92,209.86,64.67,234.39,52.48Z"/><path class="cls-2" d="M97.48,169.09c-1.15-.1-1.24-1.75-1-2.87a96.8,96.8,0,0,1,3.72-11.53A2.6,2.6,0,0,0,97,156.3c-.79-1.94,1.7-3.87,3.77-3.55s3.68,1.91,5.37,3.15c6.48,4.74,15.2,4.8,23.17,3.9a33.89,33.89,0,0,1,6.74-.38c6,.52,11.31,4.85,13.66,10.38a22.15,22.15,0,0,1-.55,17.5c-1.22,2.71-2.91,5.27-3.4,8.2a10.78,10.78,0,0,0,7.36,11.71l-.5-.26c1.45,1.29.54,3.67-.46,5.34l-30,50.17c-4.93,8.26-10,17-10.44,26.56l.42-1a9.77,9.77,0,0,0-.27,4.43,7.79,7.79,0,0,0-.14-4.75c-1.16,2.15.57,5-.47,7.2-.92,2-3.69,2.41-5.66,1.51s-3.33-2.74-4.59-4.5a100.36,100.36,0,0,0-11-13.65c-4.2-4.09-9.25-7.49-14.94-8.9a37.74,37.74,0,0,0-13-.51c-1.75.18-4.06.09-4.6-1.59A2.6,2.6,0,0,1,59,264.35a7.06,7.06,0,0,1,3.57-.32c5.42.5,11.57,1.46,15.72-2.06,2.26-1.92,3.41-4.81,4.86-7.4s3.63-5.15,6.59-5.5c3.94-.45,7.08,3.16,10.84,4.45a9.88,9.88,0,0,0,9.87-2.17c.78-.75,2.91-.55,2.34-1.47a2.59,2.59,0,0,0-3.31-.87,6.5,6.5,0,0,1-4.7,1.57c-1.56,0-2.38-1.38-3.66-2.27a17,17,0,0,1-3.66-4.18c-2.8-4.37-3.64-8-7.14-11.85s-9.3-5.44-14.49-5.23a4.64,4.64,0,0,0-3.53,1.39c-1.45,1.83-.13,4.52,1.38,6.29a32,32,0,0,0,6.74,6,6.67,6.67,0,0,1,2,1.64c3.29,4.74-6.94,1-8.31-.11-3.23-2.53-5.39-6.35-7.37-9.87-1-1.76-.27-7.46.7-9.23,2.09-3.84,1.64-4.81.25-8.32-.91-2.29-2.19-1.26-4.09-2.83s-4.59-6.59-3.35-8.72a6.15,6.15,0,0,1,1.7-1.67c6.38-4.67,13.78-7.7,20.76-11.4,3.51-1.85,6.91-3.88,10.32-5.91l23.31-13.85c.37-.23.8-.57.7-1a1.06,1.06,0,0,0-.38-.51q-4.43-3.81-9.14-7.25a5.31,5.31,0,0,0-1.91-1,3.66,3.66,0,0,0-3,1c-2.73,2.28-3.37,6.77-6.65,8.13a76.2,76.2,0,0,1,4.28-14.33,4.08,4.08,0,0,0-3.15.63,1.5,1.5,0,0,1,.56-2Z"/><path class="cls-2" d="M94.65,312.62l-16.89,9c-5.31,2.84-10.65,5.69-15.4,9.39A53,53,0,0,0,48,348.33a30.51,30.51,0,0,0-3.83,12.94,27.49,27.49,0,0,0,3.39,13.48,38.27,38.27,0,0,0,29.06,20c6,.7,12.29-.05,18,1.88l-.25,1a10.65,10.65,0,0,0-7.26-5.36c-3.07-.6-6.23.2-9.35.28-7.87.2-15.39-4.3-20.05-10.63S51,367.62,50.57,359.76c-.19-3.68,0-7.53,1.71-10.79s5.38-5.73,9-5.08c2.64.47,11.52,12.91,13.51,14.71,24.44,22,48.88,24,81.71,21.95,5.58-.36,13.44-1.91,19-1.3s10.89,2.56,16.4,3.51c7.56,1.31,15.3.73,23,.93,16.33.43,32.62,4.38,48.85,2.6,4-.45,8.14-1.29,11.52-3.52s5.94-5.95,8.26-9.47l15-22.71a93.34,93.34,0,0,0,7.31-12.42c6.45-14.11,5.49-30.33,4.4-45.8l-1.35-.62a1,1,0,0,0,1.74.48,332.36,332.36,0,0,0,6.72-107.36c-.93-9.18-2.3-18.54-6.64-26.68-3.43-6.45-8.55-11.82-13.56-17.14-24.61-26.19-48.2-53.94-64.13-86.16l-1.34-.26C208.06,69.52,189.42,90.9,171.14,112a222.37,222.37,0,0,0-16.25,20.26c-5.94,8.69-10.62,18.17-15,27.74A582.83,582.83,0,0,0,94.53,307.45Z"/><path d="M163,74.82c1.59,4.05-.68,8.48-1.39,12.78-.74,4.47-.2,7.9-1,12.36-1.34,7.62-8.4,16.63-10.63,24-.43,1.43.62,1.16,1.41,2.43,1.11,1.8,6.76-.76,8.87-.86,9.16-.45,14.52-2.61,23.69-2.61,7.15,0,9.22.39,13.66.24,8.88-.31,17.53,2.56,26,5.39l-4.46.81a19.31,19.31,0,0,1,11.77,2.94l-6.19-.74a21.08,21.08,0,0,1,9.64,8.84l-7-3.24c7.34,2.31,11,10.36,13.71,17.55-5.52-5.77-10.1-12.53-16.45-17.38s-15.34-7.47-22.36-3.66a2.55,2.55,0,0,0-1.44,1.48c-.22.94-.77,3.3-.08,4,11.95,11.56,24.91,23.35,30,39.55.82,2.66.44,7.18-1.22,9.41s-8.91,2.24-10.86.26l7.2.75a24,24,0,0,1-8.58.2,41.62,41.62,0,0,0,10.69,1.46,33.18,33.18,0,0,1-18.27.44l14.6,3.3a63.83,63.83,0,0,1-18.39-3.11c0,2.28,4.25,2.51,4.4,4.78.07,1.15-1,2-2,2.61a76.46,76.46,0,0,1-49.85,10.75c-2.79-.36-5.67-.94-7.86-2.7-3.79-3.05-4.29-8.7-3.31-13.47s3.09-9.32,3.42-14.18a20.1,20.1,0,0,0-13.06-19.75c-9.81-3.43-21.27,1.23-30.8-2.91-2.13-.92-4.11-2.27-6.39-2.68s-5.07.56-5.68,2.8a28.61,28.61,0,0,1,16-16.36c2.3-.92,2.66-2.05,4.6-3.59,2.48-2,10.65-2.12,11.85-5.05,6.77-16.63,11.45-34.6,23.22-48.15,3.57-4.11,7.79-8.27,13.18-9Z"/><path class="cls-3" d="M85.63,303.19c-.38-.43-.61-.5-1-.07a3,3,0,0,0-.76,1.48,4.42,4.42,0,0,0,.47,3.36,2.2,2.2,0,0,0,2.81.69,3.42,3.42,0,0,0,1.61-3.19c0-1.42-.68-3-2.2-3.33s-2.23,1-2.35,2.33.11,3.27,1.53,3.61,1.83-1.33,1.92-2.32-.57-4.15-2-2.44a4.31,4.31,0,0,0-.09,4.86c.09.12.34.3.49.14a5.1,5.1,0,0,0,.84-5.5c-.08-.19-.33-.57-.58-.36a4.58,4.58,0,0,0-.44,5.93c.18.23.36.2.54,0a3.79,3.79,0,0,0,.83-2.73c0-.53-.24-1.46-.93-1.47-1.36,0-1.45,2.36-.58,3,.15.1.28,0,.37-.13a3.51,3.51,0,0,0,.22-3.63c-.08-.14-.29-.5-.51-.3a4.93,4.93,0,0,0-1.21,4.48c0,.41.34,1.4.87.82,1-1.06.88-2.86.59-4.17-.09-.38-.44-1-.83-.5a3.85,3.85,0,0,0-.57,3c.06.31.21,1.12.69.9s.37-1.26.33-1.62c.07.69-.13.63.21.24l-.89-.84c0,.26,0,.3,0,.12s0-.15,0,0a3.86,3.86,0,0,0-.29.69l.82,0c.16.42,0,.24.18-.1a2.22,2.22,0,0,1,.43-.62l-.39-.11c0-.53,0-.64-.18-.32l.36-.13,0,0,.24.68,0-.08,0,.88c-.05.2-.12.16,0,.19l.29-.1c.19,0,.19-.13,0-.43,0-.44,0-.55-.14-.35s-.33.39-.41.47h.54a2.6,2.6,0,0,1-.23-.4c0,.06,0,.27,0,.18a1.93,1.93,0,0,1,.55-.72l-.59-.35c0-.14.09-.13,0,0s-.29.44-.44.57l.5.15c0,.29,0,.59,0,.89a.55.55,0,0,1,.09-.14c.15-.08.28-.24.46-.33h-.36a1.19,1.19,0,0,1,.25.13,2,2,0,0,1-.19-1.32.23.23,0,0,0,0-.16s-.22.14-.26.16c-.24.06-.33-.08-.53-.13s.12-.13,0,0c-.38.91-.4,1.29,0,1.15a.05.05,0,0,0,0,0c.27-.13.38-.31.71-.35a1.63,1.63,0,0,1,.76.1,2.6,2.6,0,0,1,.57.39c.09-.08-.1-.57-.05-.57l-.18.32c-.52.76-2,1.49-2.6.36-.13-.26-.08-.39.09-.65a2.55,2.55,0,0,1,.44-.43,3.07,3.07,0,0,0,.47-.85,1,1,0,0,0-.08-.9Z"/><path class="cls-3" d="M92.7,305.82a12.53,12.53,0,0,0-.15,3.18l1.08,0c0-1.33,0-2.67,0-4,0-.32-.09-1.32-.58-1.31s-.51,1-.51,1.33a26.41,26.41,0,0,0,.67,5.39c.08.39.31.77.69.53s.31-1.21.28-1.57c-.13-1.42-.26-2.85-.47-4.27l-1.06.74a35.4,35.4,0,0,1,.53,5.42l1.33,0a56.71,56.71,0,0,0-.86-6.22c-.07-.42-.29-1.5-.92-1.21s-.51,1.7-.45,2.17a35.07,35.07,0,0,0,.52,4.24c.08.35.32.91.75.71s.43-1.15.44-1.53a43,43,0,0,0-.34-4.38l-1.37,1a50.54,50.54,0,0,0,1,6.11c.13.5.45,1,.93.56s.32-1.68.18-2.22a32.68,32.68,0,0,1-.69-5.32c0-.3-.21-1.07-.64-1s-.47,1-.45,1.35c.12,1.54.32,3.07.53,4.61l1-1a13.9,13.9,0,0,1-.48-4.06l-1.09,0c0,1.34,0,2.67,0,4,0,.31.09,1.3.57,1.29s.51-1,.51-1.32a13.34,13.34,0,0,0-.18-3.16c-.17-.66-.59-.58-.75,0Z"/><path class="cls-3" d="M98.1,310.52c-.14,1.24-.26,2.48-.35,3.73l1.42-.48c-.33-1.06-.72-2.1-1.1-3.14-.21-.61-.74-.7-1-.13a3.79,3.79,0,0,0-.14,2.49c0,.22.09-.33,0,0-.05.14-.1.66-.11.68a7.58,7.58,0,0,0,0,1.65,1.11,1.11,0,0,0,.58,1c.8.36,1.08-2,1.11-2.35a9.26,9.26,0,0,0-.12-2.52L97,313.37c.32.91.61,1.83,1,2.72.16.39.49.71.86.37a2.53,2.53,0,0,0,.44-1.74c0-1.29,0-2.58-.11-3.87,0-.34-.07-1.21-.51-1.3s-.55.69-.58,1Z"/><path class="cls-3" d="M81.07,310.57c.29,1.15.56,2.32.9,3.46.12.41.44,1.16.94.71s.45-1.53.38-2.12L83,310l-1.48,1c.19,1.11.38,2.22.59,3.33.07.39.24,1.45.83,1.44s.72-1.08.76-1.48a8.22,8.22,0,0,0-.77-4.71c-.5-1-1.15-.44-1.3.44-.22,1.24-.4,3.39.84,4.21.69.45.71-1.52.68-1.76l0-.29c0,.48,0,.53,0,.14.15,0,0-.22,0-.3l-1.3.43a1.29,1.29,0,0,1,.26.82l1.6,0c-.25-1.24-.51-2.48-.77-3.72-.09-.45-.49-1.2-1-.74s-.49,1.62-.4,2.23l.38,2.62,1.33-1.41c-.39-1.13-.85-2.23-1.28-3.34-.17-.43-.53-.5-.76-.09a2.65,2.65,0,0,0-.1,1.8Z"/><path class="cls-3" d="M75,198.39a7.88,7.88,0,0,0-2,3c-2,5-3.36,10.77-.28,15,3.3,4.54,9.91,4.79,14.79,7.57,4.24,2.41,7,6.69,9.62,10.83s5.27,8.46,9.4,11.07,10.18,2.9,13.47-.71a15.92,15.92,0,0,0,2.94-6.11c5.48-17.5,12.95-35.77,18.43-53.27,1.79-5.74,3.42-13-1.57-16.37-3.75-2.53-11.2-.44-15.36,1.34-18.15,7.75-33.47,14.64-48.76,27.09l-.34.29Z"/><path class="cls-3" d="M80.6,264.48a1.65,1.65,0,0,0-.58,2.37,5,5,0,0,0,2.18,1.67,47.38,47.38,0,0,1,20.11,20.26,1.73,1.73,0,0,0,.42.58c.76.58,1.7-.49,2-1.4,1.14-3.6.77-7.48.38-11.23L103.8,264c-.32-3.13-.75-6.51-2.94-8.76a2.77,2.77,0,0,0-1.48-.9,3.5,3.5,0,0,0-2.21.68l-17,10Z"/><path class="cls-3" d="M87.85,297.15c1.25.58.65,2.68-.63,3.18s-2.71,0-4.06-.25c-4.62-.93-9.32.66-14,1.56-.45.09-1,.13-1.26-.25a1,1,0,0,1-.13-.6,5,5,0,0,1,3.59-4.25,14.47,14.47,0,0,1,5.87-.33l9.28.76Z"/><path class="cls-3" d="M308.09,218.87c-.29,10.25-3.25,14.75-8.86,23.34-5.17,7.93-12,15.38-21.11,17.77-4.11,1.08-11.19-.29-12.54,3.74s1.81,8,4.77,11q9.19,9.24,19.19,17.61c2.55,2.13,5.85,4.36,9,3.15,2.84-1.11,4.66-4.89,7.69-4.51,2.78.34,3.73,3.85,3.92,6.65a105.8,105.8,0,0,1-.41,18.75,20.25,20.25,0,0,1-1.68,6.92,43.18,43.18,0,0,1-3.37,4.95,71.86,71.86,0,0,0-4.58,8.74c-3.54,7.06-8.37,13.37-13.17,19.64l.52-.68a62.19,62.19,0,0,1-9,10.65,17,17,0,0,1-5.81,4c-3.05,1.09-6.41.64-9.58,0a84.33,84.33,0,0,1-15.31-4.68c-4.12-1.71-8.11-3.75-12.34-5.21-15.54-5.34-31.64-4.85-47.79-1.77-17.94,1-27.35,1.91-43.67,3.23-7.48.6-14.95-1.37-22.42-2-8.55-.78-17.16-1.58-25.41-4-2.35-.68-5.08-2-5.21-4.44-.12-2.1,1.86-3.71,3.77-4.59,6-2.72,12.82-2.06,19.37-2.19a75.54,75.54,0,0,0,24.36-4.54c2.94-1.07,6-2.53,7.42-5.34,1.09-2.21.87-4.83.55-7.28A120.33,120.33,0,0,0,128.64,279c-1-1.58-2.11-3.45-1.51-5.24s3.91-2.05,4-.17l-.28-.84A147.28,147.28,0,0,0,165,303.34c5.14,3.33,10.49,6.33,15.82,9.33,5.8,3.26,11.67,6.55,18.09,8.26,5.1,1.36,11.44,1.28,14.59-2.94a16.24,16.24,0,0,0,2.27-5.48c2.05-7.48,4.11-15,4.47-22.77s-1.11-15.8-5.58-22.13c-5.1-7.21-13.37-11.35-20.25-16.89S181.51,236.52,184,228c2.37-8.15,8.55-12.86,16.45-16,7.23-2.83,14.72-4.13,22-7l2.7-1.21a2.68,2.68,0,0,1,.82-.25,31.43,31.43,0,0,0,2.93-1.5c5.18-2.33,3.82-2.6,8.53-8.88a11.72,11.72,0,0,0,1.69-9c-4.07-14-14.6-25.11-23.18-37-1.75-2.42-3.48-5.64-2-8.21,1.77-3,6.35-2.37,9.33-.59,8.42,5,12.6,15.68,21.51,19.79,1.1-1.45.26-3.51-.64-5.09a153.29,153.29,0,0,0-9.25-14.41c-2.53-3.5-5.27-6.95-8.82-9.42-7.94-5.5-18.34-5.16-27.82-7-2.5-.48-5.66-2.36-4.65-4.7l-.13.78a60.26,60.26,0,0,1,36.88-63.47c1.39-.57,3.25-1,3.94.89a3.39,3.39,0,0,1,.13.55c3.8,21.44,11.18,43.15,26.47,58.67,6.07,6.16,13.2,11.16,19.8,16.75a140.61,140.61,0,0,1,18.92,19.42c3,3.79,5.91,7.8,7.56,12.36a42.74,42.74,0,0,1,2.1,11.67c.87,12.63,2,31.37-1.15,43.62Z"/><path class="cls-3" d="M133.73,98.11a346.31,346.31,0,0,1-22.3,32.65,1.49,1.49,0,0,0,1.91.51,4.44,4.44,0,0,0,1.57-1.48l13.24-17.59c3-4,6.16-8.72,4.93-13.54Z"/><path class="cls-3" d="M128.58,140c-1.78,4.35-3.59,8.91-3.17,13.58.23,2.54,1.12,5,1.07,7.56s-1.47,5.37-4,5.81c-1.76.31-3.48-.63-5-1.62a45.75,45.75,0,0,1-7.22-6,1.35,1.35,0,0,1,0-2.38c6.51-5.63,14.3-10.4,18.1-18.13Z"/><path class="cls-3" d="M100,155.44a94.52,94.52,0,0,0-4.08,15.78c3.69.21,6.22-4.92,9.87-4.35-1,2.94-3.4,5.1-5.75,7.11l-5.53,4.73c-1.09.93-2.41,1.93-3.82,1.65a35.52,35.52,0,0,1,5-22.07c.82-1.34,2-2.77,3.55-2.75Z"/><path class="cls-3" d="M59.69,266.16a34.62,34.62,0,0,0,8.15,27.29c-1.29.85-2.93-.36-3.9-1.56a26.41,26.41,0,0,1-4.33-24.65Z"/><path class="cls-3" d="M58.7,265.58a25.21,25.21,0,0,0,3,24.88,11.74,11.74,0,0,1-6.88-6.06L58,293.76c-.28-1-2.05-.56-2.29.48s.38,2.05.87,3a12.17,12.17,0,0,1,.54,9.61c.3-1.23,2.41,0,2,1.18s-1.74,1.7-2.83,2.34a8,8,0,0,0-2.93,10.16c1.11,2.12,3.17,3.66,4.12,5.86,2.17,5.07-2.34,10.24-5.54,14.72a35.22,35.22,0,0,0-5,30.63,33,33,0,0,0,22.15,21.5c8.35,2.29,17.62,1.11,25.39,4.94a70.07,70.07,0,0,1-31.46-5C53,389.23,45.73,382.77,42,372.62c-3.08-8.3,1.34-18.79,4.45-26.44,1.64-4.06,4.89-8.64,5.59-13,.89-5.53-3.69-9.35-3.72-14.52,0-3.06,2.16-5.66,3.09-8.58C53,305,50.73,299.64,49.7,294.4a34.76,34.76,0,0,1,8.47-29.86Z"/><path class="cls-3" d="M62,202.88c-.14,2.37-1.45,4.49-2.19,6.75-2.52,7.62,1.5,15.71,5.4,22.73l7.14,12.84c1.36,2.46,2.77,5.28,1.89,7.94-.79,2.37-3.17,3.85-4.33,6.06a26.65,26.65,0,0,1-1.57,3.38c-.73,1-2.22,1.67-3.23.94-1.29-.94-.6-3,.25-4.34,2-3.21,4.32-6.6,4.08-10.38-.31-4.73-4.44-8.13-7.17-12-5.14-7.3-5.47-16.86-5.16-25.79a9.46,9.46,0,0,1,.91-4.51,3.38,3.38,0,0,1,3.9-1.74Z"/><path class="cls-2" d="M186.72,16.42c.54,0,.52-2.2-.06-2.2s-.52,2.2.06,2.2Z"/><path class="cls-2" d="M59,307.35a1.65,1.65,0,0,1,1.47-.73,10.11,10.11,0,0,0,1.28,3.93,12.46,12.46,0,0,1,1.58-4.26,11.1,11.1,0,0,0,1.18,5l1.2-2.85A5,5,0,0,0,67.22,311a4.13,4.13,0,0,1,1.53-3.15l1.68,4.77,1.22-1.81,2.54,8.75.63-8.57,1.44,4.69a1.13,1.13,0,0,0,.56.81c.32.12.73-.3.49-.54a4.73,4.73,0,0,0,3.65,3,21.18,21.18,0,0,0,4.91.18c3.26,0,6.77.65,9,3,1.13,1.21,1.82,2.76,2.86,4.05,2.59,3.19,7.12,4.35,11.17,3.67s7.67-3,10.8-5.62c1.38-1.17,2.8-2.72,2.57-4.51a5.86,5.86,0,0,0-1.7-3c-2.79-3.19-5.69-6.45-9.49-8.33a31.75,31.75,0,0,0-5.94-2c-7.5-2-15.16-4.07-22.91-3.57-8.17.53-16.55,3.82-24.27,1.12l-.46,1.39a3.77,3.77,0,0,1,1.85,1.18Z"/><path class="cls-2" d="M190.92,152.53a51.83,51.83,0,0,1,11.49,3,17.51,17.51,0,0,1,8.84,7.63l-14.75-6.53a172.38,172.38,0,0,1,16,11.82c5.29,4.59,10.37,10.84,9.45,17.78A181.61,181.61,0,0,0,201,163.33c-2.55-2.35-5.53-4.77-9-4.65l12.9,11c5.3,4.51,10.74,9.21,13.75,15.47a131.65,131.65,0,0,0-25.18-10,7.6,7.6,0,0,0,2.9-7.47,7.67,7.67,0,0,1-6.34,6.11,22,22,0,0,1-2.17-11.59,13.79,13.79,0,0,0-1.08,10.38A35.39,35.39,0,0,1,184.83,160a21.71,21.71,0,0,0-1.6,11.06,32.7,32.7,0,0,1-3.1-10.16,73.43,73.43,0,0,0-2.14,8.78c.08-1.52-2.23-1.92-2.92-3.28a3.12,3.12,0,0,1-.21-1.69,13.08,13.08,0,0,1,17.22-11.37Z"/><path d="M61.82,207.27a11.49,11.49,0,0,0,7.3,9.38,18.59,18.59,0,0,0,11.93,28.66,1.65,1.65,0,0,0,.66,0c1.24-.25.65-2.16-.21-3.09L75,235.19c-1.58-1.72-3.26-4.17-2.08-6.18a4.31,4.31,0,0,1,2.48-1.73c4.85-1.54,10.12,1.22,13.62,4.93s5.88,8.34,9.32,12.11,8.57,6.69,13.49,5.38a12,12,0,0,1-13.57,2.15c-3.12-1.58-6.39-4.65-9.53-3.12A8.08,8.08,0,0,0,86.24,251a83,83,0,0,1-7.63,8.06c-3.13,2.89-7.58,5.69-11.37,3.74.64-2.52,3.47-3.73,5.14-5.73,2.7-3.25,2-8.25-.18-11.89s-5.43-6.48-7.91-9.89a27.8,27.8,0,0,1-2-28.86Z"/><path d="M60.45,267.58c7,.42,14.21,1,20.4,4.27C91.71,277.6,97.17,290.4,107.54,297a2.4,2.4,0,0,0,1.79.52c.93-.25,1.21-1.42,1.31-2.38l1-8.56a45.36,45.36,0,0,1,14.62,26.28c.39,2.31-.32,5.66-2.65,5.43a3.82,3.82,0,0,1-2.06-1.14c-5.44-4.83-11-10.17-17.78-12.76-7.11-2.7-13.91-1.64-21.41-.38a101.3,101.3,0,0,1-13,1.31c-3.69.14-7.62,0-10.74-1.95s-4.93-6.46-2.85-9.51l2.78.54-2.22-8c2.62,4.08,6,5.3,10.34,7.38,1.56-2.67-.36-3.72-2.25-6.17-4.57-5.95-6.88-14.61-2.81-20.92Z"/><path d="M58.83,309.42c-2,2-5.46,3.22-5.52,6.05-.06,2.3.11,5.16,1.63,6.89,1.29,1.46,2.32,2.23,2.44,4.18.14,2.27,1.37,4.23,1.15,6.49s.24,4.85,2.12,6.13,4.61.75,6.9.09l18.67-5.36a20.66,20.66,0,0,0,6.55-2.72,7.08,7.08,0,0,0,3.23-6c-.19-2.58-2.31-4.68-4.69-5.66a23.19,23.19,0,0,0-7.61-1.21A13.26,13.26,0,0,1,78,317.13a4.76,4.76,0,0,1-2.71-4.77,17.72,17.72,0,0,0-.58,6.56,19.65,19.65,0,0,1-2.22-9.63,7.05,7.05,0,0,0-1,3.61l-1-5.21a6.32,6.32,0,0,0-.68,4.09l-1.18-2.94a3.3,3.3,0,0,0-1.14,3,18.15,18.15,0,0,1-1.6-6.19,8.73,8.73,0,0,0-1.9,6.5l-1.74-2.72-.45,2.36A5.09,5.09,0,0,0,59.76,308a3.26,3.26,0,0,1-1.51,1.68Z"/><path d="M276.72,381.6a30.7,30.7,0,0,1-17.1,11c-5.77,1.36-11.78,1-17.7.77a521.55,521.55,0,0,0-77.94,2.5c-10.68,1.15-21.67,2.74-30.88,8.28a6.47,6.47,0,0,1-2.34,1,6.19,6.19,0,0,1-3-.63c-17.38-6.68-36.39-7.61-54.38-12.41s-25.61-25.86-21-42.86c.57-2.12,1.45-4.34,3.32-5.48,2.15-1.32,5-.78,7.14.61a23.29,23.29,0,0,1,5.18,5.48,95,95,0,0,0,15.93,16c3.54,2.79,8.45,3.8,12.63,5.46,4.79,1.89,9.7,2.32,14.81,3,7.64,1,14.41,3.71,22.1,3.91,14.07.36,28.1,2.34,42.12,1.07,9.12-.83,18.32-.36,27.46-.91,4.23-.25,7.87-1.62,12-.78,6.5,1.3,15.25,2.21,21.65,3.94a74.79,74.79,0,0,0,12.89,2.62c5.92.57,10.06,1.35,16,.56,3.84-.51,7.81-1.08,11.05-3.19Z"/><path class="cls-3" d="M200.72,168.29c5.82,3.7,12,7.81,14.49,14.24l-9.46-4a2.62,2.62,0,0,1-1.9-2.21l-2.34-7.95Z"/><path class="cls-1" d="M217.3,7.43c-16.91.24-30.77,12.91-42.46,25.13C145.48,63.24,118,97,103.33,136.87"/><path class="cls-2" d="M217.23,4.45c-14.11.07-25.95,8-36.08,17.12-11.32,10.22-21.62,21.67-31.45,33.31-19.84,23.49-37.09,49.18-48,78.09-.81,2.17-1,5.79.2,7.87,1,1.74,2.16,2.15,3-.07,10.41-28.32,27.28-53.7,46.53-76.76,9.43-11.29,19.24-22.47,29.54-33,10-10.15,21.65-19.6,36.39-20.63,1.49-.11,1.34-6-.15-6Z"/><path class="cls-1" d="M351.36,468.47a272.2,272.2,0,0,1,71.45,91.78c-35.53-21.38-80.81-18-120.74-6.78s-78,29.5-118.87,36.34C119.28,600.49,51,580.87,2.45,537.89"/><path class="cls-2" d="M350.78,471c14.13,14,28.33,27.32,40.46,43.19a271.06,271.06,0,0,1,30.17,49.66l1.84-8.51c-52.05-30.73-114.83-10.85-167.43,7.24-29.18,10-58.39,20.4-89.36,23A222.57,222.57,0,0,1,84.6,577,219.29,219.29,0,0,1,3,532c-1.86-1.63-2.79,3.54-2.87,4.35-.23,2.36,0,5.79,1.87,7.49A223,223,0,0,0,152.47,599c30.41-.59,59.52-8.67,88.09-18.57,29.13-10.09,57.75-22.14,88.25-27.62,31.61-5.68,65.32-4.29,93.56,12.39,3,1.78,2.4-7.38,1.84-8.51a278,278,0,0,0-31.35-49.85c-11.83-14.92-25.44-30.33-41.23-41.16-1.56-1.07-1.77,4.48-.85,5.39Z"/><path class="cls-2" d="M340.86,471.56c2.38,3.66,6.32,5.09,10,7.17a85.72,85.72,0,0,1,9.2,6,83.51,83.51,0,0,1,17.43,18c10.5,14.43,16.07,31.08,24.61,46.55,1.7,3.07,2.33-2.76,2-3.92-4.94-18.54-12.65-37.51-24.31-52.9a87.61,87.61,0,0,0-17.49-17.55c-4.57-3.38-15.81-11.72-21.34-7.14-1,.82-.75,2.82-.13,3.78Z"/></g></g></svg>