<svg xmlns="http://www.w3.org/2000/svg" viewBox="0 0 2354.4 1312"><defs><style>.f5f3227e-34dc-48dc-afdb-9eb894b2ee4c{opacity:0.19;}.af5dfa2b-555b-404e-8bb8-6c2f063cf2ff{fill:#f1ff39;}</style></defs><title>Asset 14</title><g id="fb19e76c-826c-484d-959a-8a63f788d299" data-name="Layer 2"><g id="ba6b47e8-17b1-4d1a-8929-4b11a1cad1f7" data-name="Layer 1"><g class="f5f3227e-34dc-48dc-afdb-9eb894b2ee4c"><path class="af5dfa2b-555b-404e-8bb8-6c2f063cf2ff" d="M1586.7,1248.9c-29.9-10.7-59-23.5-86.5-39.2a402.5,402.5,0,0,1-36.1-23.2c-5.5-3.9-10.8-8-16-12.3-2.6-2.2-5.3-4.3-7.8-6.7s-3.9-3.4-5-5.7-1.7-7.1.7-9.6c4.5-4.8,11.7-7,17.7-8.8a196.5,196.5,0,0,1,22.8-4.8c16.5-2.9,33.1-4.7,49.8-6.1,33.2-3,66.7-4.3,99.6-10.1,26-4.5,55.1-10.9,76.7-27,8.9-6.7,15.1-15.3,17-26.4,1.2-6.9.9-13.9,1.4-20.8a57.7,57.7,0,0,1,4.9-19.5c10.9-25,34.5-43.6,56.1-59.1a757,757,0,0,1,76.1-47.6c25.6-14,53.7-24.4,83.1-25.8a159.3,159.3,0,0,1,39.6,3c10.8,2.2,22.2,5.2,31,11.9,3.5,2.6,6.6,6,7.7,10.3.4,1.6.9-.6.8-1.2-2.1-8.1-9.2-13.3-16.3-16.8-10.9-5.5-23.2-8.2-35.3-9.6-29.5-3.3-58.9,2.1-86.1,13.5s-53.9,28.9-79.3,45.3-50.3,33.3-68,57c-6.9,9.2-12.3,19.6-14.4,30.9-2.9,15.7.9,32-10.6,44.9-8,9.1-19.4,14.9-30.4,19.5-14.6,6-30.1,10-45.6,13-34.1,6.7-68.9,8.4-103.4,11.4-17.6,1.5-35.2,3.3-52.7,6.3a194.2,194.2,0,0,0-23.8,5.2c-6,1.8-12.6,4-17.4,8.2-8.7,7.5-1.6,16.4,5.2,22.4a323.5,323.5,0,0,0,34.5,25.9c26.9,17.8,55.9,32.2,85.7,44.3,8,3.2,16,6.2,24.1,9.1.5.2.6-1.6.2-1.8Z"/></g><g class="f5f3227e-34dc-48dc-afdb-9eb894b2ee4c"><path class="af5dfa2b-555b-404e-8bb8-6c2f063cf2ff" d="M1450.4,1231.4c-36-9-72.2-23.1-101.5-46.5-11.4-9.1-21.9-19.8-29.3-32.5a65.6,65.6,0,0,1-7.8-18.5c-2.5-10.7,1-20.3,10.1-26.7,12.8-9,29.9-10.8,45.1-11.5,18.5-.8,37,.4,55.4,1,35,1.2,70.1-.8,102.3-15.8a151.9,151.9,0,0,0,60.3-51.5c14.7-21.1,22.8-45,32.7-68.5,13.5-32.3,30.1-63.5,52.9-90.3s53-50,85.4-66.5c68.5-34.9,149-50.1,225.5-45.3,10.1.7,20.2,1.4,30.3,2.5.9.1,1-3.6-.1-3.8-41.5-6.8-84.4-5.1-125.9,1.5-38.1,6.1-75.7,16.7-111,32.3-33.8,15-65,35.1-91.1,61.4s-44.6,56.4-59.5,89.2c-11.7,25.7-19.7,53.1-34.6,77.2s-34.5,43.1-59,55.9c-33.1,17.2-70,19.9-106.6,18.7-19-.6-38.1-1.9-57.1-1-15.3.8-32.5,2.6-45.4,11.7-24.7,17.4-4.6,51.1,10.4,67.7,23.4,25.6,56.2,42,88.5,53.1,9.9,3.4,19.9,6.3,30.1,8.8.5.2.7-2.4-.1-2.6Z"/></g><g class="f5f3227e-34dc-48dc-afdb-9eb894b2ee4c"><path class="af5dfa2b-555b-404e-8bb8-6c2f063cf2ff" d="M1279.5,1249.3c-48.4-16-95.9-37.5-136.2-69.1-30.6-23.9-58.9-55.1-69.8-93.2-4.5-15.6-6.4-32.4-1.1-48.1s17.5-30.3,32.2-39.6c49.4-30.9,109.5-9.9,163.5-13.3,48.1-2.9,98.4-22.3,127.4-62.4,14.5-20.1,22.9-43.7,33.8-65.9a559.5,559.5,0,0,1,39-67c31.4-46.7,69-89.1,110.1-127.5,34.7-32.5,72.2-61.9,114.9-83.2,46.1-23,96.3-36,147.6-39.8,46.7-3.5,96.2-1,140.7,14.7a147.4,147.4,0,0,1,26,11.6c.9.5,1.3-3.3.3-3.8-39.8-23.2-87.4-29.2-132.7-29.2-51.5-.1-102.7,8.6-150.7,27.4-46,18-87.3,45.1-124.4,77.4-42.6,37-81.7,78.4-115.3,123.7a615.5,615.5,0,0,0-43.5,67.1c-12.4,22.3-21.9,45.9-33.5,68.5s-28.1,42.6-50.2,56.3-47.8,22.3-73.7,25.8c-56,7.7-115.8-15.5-169.3,9.7-16.4,7.7-30.7,20.1-39.1,36.4-6.8,13.4-8.8,28-7.2,42.8,3.9,36.4,24.9,68.4,50.4,93.7,34.5,34,78.1,58.2,122.9,76.1,12.4,4.9,25.1,9.3,37.9,13.2.4.1.6-2,0-2.3Z"/></g><g class="f5f3227e-34dc-48dc-afdb-9eb894b2ee4c"><path class="af5dfa2b-555b-404e-8bb8-6c2f063cf2ff" d="M977,1239.1c-63.2-28.3-124.6-66.8-168.3-121.4-33.7-42.1-55.6-95.4-46.4-149.9,4.2-25.2,13.7-49.9,31.6-68.5,22.7-23.6,54.6-34.8,86.9-36.3,20.9-1,41.6,2,62.3,4.6s42.3,4.4,63.6,3.7a377.3,377.3,0,0,0,115.2-21.8c32.2-11.4,62.9-27.3,89.1-49.3s47.6-50.3,65.2-80.2c15.4-26.1,29.3-53.1,45-79.1a754.5,754.5,0,0,1,50.2-73.8,557.3,557.3,0,0,1,149.5-134.3c57.4-35.2,120.2-59.4,185.5-75.4a907.2,907.2,0,0,1,204.3-25.7c65.7-.7,132.5,5.7,195.6,24.4a401.6,401.6,0,0,1,42.8,15c1,.4,1.2-3.2.3-3.6-60.1-25.9-124.3-37.4-189.4-40.5-70.7-3.4-142,2.4-211.5,15.9-64.2,12.4-127.5,31.6-185.9,61.4-64.1,32.7-121.7,76.6-169.1,130.7-39.8,45.5-71.5,96.8-100.5,149.6-17.1,31-34.4,62-58.5,88.2s-54.3,47.3-87.3,62a377.1,377.1,0,0,1-115.8,30.1,362.3,362.3,0,0,1-62.5.7c-21.7-1.7-43.1-5.6-64.8-6.9-34.9-2.3-71,3.8-99.1,25.9-19.8,15.5-32.2,36.7-39.3,60.5-14.3,48.1-5.3,98.9,19.2,142,31.9,56.1,85,98,140.5,129,16.7,9.3,33.9,17.7,51.4,25.4.6.3.8-2.1.2-2.4Z"/></g><g class="f5f3227e-34dc-48dc-afdb-9eb894b2ee4c"><path class="af5dfa2b-555b-404e-8bb8-6c2f063cf2ff" d="M720.5,1213.8c-71.3-36.9-139.3-83.4-192.4-144.1-42.3-48.4-75.2-107.5-82.1-172.2a236,236,0,0,1,8.1-90.4c4.7-16.1,11.8-31.1,25.3-41.8,15.2-12,34.9-17.2,53.8-19.7,41.8-5.4,84.5,1.2,126.2,4.6s82.6,3.8,122.9-6.5C842,728.4,890.4,691.1,927,642.3c17.4-23.3,31.6-48.6,47.7-72.9a875.5,875.5,0,0,1,72.6-94.6c57.5-65.4,123.4-123.1,193.7-174.4,65.5-47.9,135-90.5,209.2-123.7,159.9-71.5,342.2-99.7,516-75.1q31,4.4,61.7,11.7c.9.2,1.2-4.2-.2-4.6-86.8-23.2-178.1-26.4-267.4-18.7a959,959,0,0,0-258.8,58.8c-77.9,29.6-151.3,69.7-220.1,116.5-73.9,50.3-143.6,107.2-205.4,171.8a950.5,950.5,0,0,0-77.8,92.2c-20.6,27.9-37.9,57.6-57,86.5-34,51.3-78.9,94.8-138,115.3-38,13.2-78.3,16.4-118.2,14.4-44.3-2.1-88.4-9.7-132.8-7.8-34.8,1.5-74.5,10.3-91.7,44.1-12.7,24.8-17,55.8-17.7,83.4-3.9,140.8,108.3,252,220.4,319.7,18.6,11.3,37.7,21.6,57.1,31.3.6.2.8-2.1.2-2.4Z"/></g><g class="f5f3227e-34dc-48dc-afdb-9eb894b2ee4c"><path class="af5dfa2b-555b-404e-8bb8-6c2f063cf2ff" d="M408,1198.3c-84.3-39.3-165.3-87.7-235.4-149C114.9,998.8,63.5,938.5,32.1,868,18.3,837.2,8.6,804.5,4.4,771,.7,741.1,1,711.8,14.6,684.3s38.8-50.5,67.9-63.2c43.8-19.2,92-17.6,138.5-11.6,26.8,3.4,53.7,7.7,80.8,8.2a330,330,0,0,0,74.8-7.2c41.3-8.7,82.2-24.8,116.5-49.7,36.5-26.4,61.2-63.1,84-101.2,18-30,37.2-58.6,60.3-84.9,45.7-51.9,100.9-95.1,159.2-132.2,68.9-43.8,142.9-79.3,218.8-109.1,85.8-33.5,174.4-59.6,264.3-79.6,95.9-21.4,193.4-35.7,291.3-44.1,25-2.2,50-3.9,75-5.8,1-.1.9-3.9-.1-3.9-101.6,1.4-203.7,14.6-303.4,33.6-93.2,17.7-185.3,41.8-274.8,73.4-80.1,28.2-158.3,62.5-231.8,105C772.5,248.6,712,291.5,660.3,343.7a516.1,516.1,0,0,0-60,72c-25.4,37.3-44.7,78.6-76,111.6-66.7,70.4-171.5,91.7-264.7,80.8-50.6-6-101.3-15.5-151.6-2.3-32.4,8.6-62.4,26.2-82.6,53.3-35.8,48.2-27.9,112.1-12,166.4,20.3,69.4,61.5,131,110.9,183.2,61.7,65.2,136.6,117.1,215.7,159.2q33.3,17.7,67.8,33.2c.6.3.8-2.5.2-2.8Z"/></g><g class="f5f3227e-34dc-48dc-afdb-9eb894b2ee4c"><path class="af5dfa2b-555b-404e-8bb8-6c2f063cf2ff" d="M1791,1309.3c-29.8-10.7-58.9-23.5-86.5-39.2a387.2,387.2,0,0,1-36-23.2c-5.5-3.9-10.8-8-16.1-12.3-2.6-2.2-5.3-4.4-7.7-6.7s-4-3.5-5.1-5.7-1.6-7.1.8-9.7c4.4-4.7,11.6-6.9,17.7-8.7s15.1-3.5,22.7-4.9c16.5-2.8,33.2-4.6,49.8-6.1,33.2-2.9,66.7-4.3,99.6-10,26-4.5,55.2-10.9,76.7-27,8.9-6.7,15.2-15.3,17.1-26.4,1.1-6.9.8-13.9,1.4-20.8a59.4,59.4,0,0,1,4.8-19.5c10.9-25.1,34.5-43.6,56.2-59.1a728.7,728.7,0,0,1,76.1-47.6c25.6-14.1,53.6-24.5,83.1-25.8a159.7,159.7,0,0,1,39.6,3c10.7,2.2,22.1,5.1,31,11.9,3.5,2.6,6.6,6,7.7,10.3.3,1.5.9-.6.7-1.3-2-8.1-9.1-13.2-16.2-16.8-11-5.5-23.3-8.1-35.4-9.5-29.4-3.3-58.8,2.1-86.1,13.5s-53.9,28.9-79.2,45.2-50.3,33.4-68.1,57.1c-6.8,9.1-12.3,19.5-14.3,30.9-2.9,15.6.8,31.9-10.7,44.9-8,9-19.3,14.9-30.3,19.4-14.7,6-30.2,10-45.7,13.1-34,6.7-68.8,8.3-103.3,11.3-17.7,1.6-35.3,3.4-52.7,6.3a194.6,194.6,0,0,0-23.8,5.3c-6,1.7-12.7,4-17.4,8.1-8.8,7.6-1.6,16.5,5.2,22.5a323.5,323.5,0,0,0,34.5,25.9c26.8,17.7,55.9,32.2,85.7,44.2,8,3.3,16,6.3,24.1,9.2.5.1.6-1.6.1-1.8Z"/></g><g class="f5f3227e-34dc-48dc-afdb-9eb894b2ee4c"><path class="af5dfa2b-555b-404e-8bb8-6c2f063cf2ff" d="M1654.8,1291.8c-36.1-9-72.2-23.1-101.5-46.5-11.5-9.1-21.9-19.8-29.4-32.5a68.3,68.3,0,0,1-7.7-18.5c-2.5-10.7,1-20.4,10-26.7,12.8-9,30-10.8,45.2-11.5,18.4-.9,36.9.4,55.4,1,35,1.1,70-.9,102.3-15.8a151.9,151.9,0,0,0,60.3-51.5c14.6-21.2,22.8-45,32.6-68.5,13.5-32.4,30.1-63.5,53-90.3s52.9-50,85.3-66.5c68.5-34.9,149.1-50.1,225.6-45.3,10.1.6,20.2,1.4,30.3,2.5.8.1.9-3.6-.1-3.8-41.6-6.8-84.5-5.1-125.9,1.5-38.2,6.1-75.8,16.7-111.1,32.3-33.8,15-65,35.1-91,61.4s-44.6,56.4-59.5,89.2c-11.7,25.6-19.7,53-34.6,77.1s-34.5,43.1-59,55.9c-33.1,17.3-70,20-106.7,18.8-19-.6-38-1.9-57-1-15.3.7-32.5,2.6-45.4,11.7-24.8,17.4-4.7,51,10.4,67.6,23.3,25.7,56.1,42.1,88.4,53.2,9.9,3.4,20,6.3,30.1,8.8.5.1.7-2.4,0-2.6Z"/></g><g class="f5f3227e-34dc-48dc-afdb-9eb894b2ee4c"><path class="af5dfa2b-555b-404e-8bb8-6c2f063cf2ff" d="M1483.8,1309.7c-48.4-16-95.8-37.6-136.2-69.1-30.5-24-58.8-55.1-69.8-93.2-4.5-15.6-6.3-32.4-1.1-48.1s17.5-30.3,32.3-39.6c49.3-31,109.5-10,163.5-13.3,48-3,98.4-22.3,127.3-62.4,14.6-20.1,22.9-43.8,33.8-65.9a597.9,597.9,0,0,1,39-67.1c31.5-46.7,69.1-89.1,110.2-127.5,34.7-32.4,72.1-61.9,114.9-83.2,46.1-22.9,96.2-35.9,147.5-39.8,46.8-3.4,96.2-.9,140.8,14.8a154.6,154.6,0,0,1,26,11.5c.8.6,1.2-3.2.3-3.7-39.8-23.3-87.4-29.2-132.8-29.2-51.4-.1-102.7,8.6-150.6,27.4-46,18-87.3,45.1-124.5,77.4-42.5,37-81.7,78.4-115.3,123.7a615.5,615.5,0,0,0-43.5,67.1c-12.4,22.3-21.8,45.8-33.4,68.5s-28.2,42.6-50.2,56.3-47.8,22.2-73.7,25.8c-56.1,7.7-115.8-15.5-169.3,9.7-16.4,7.7-30.8,20.1-39.1,36.4-6.9,13.4-8.9,28-7.3,42.8,3.9,36.4,24.9,68.4,50.5,93.6,34.4,34.1,78.1,58.3,122.8,76.1,12.5,5,25.2,9.3,38,13.3.4.1.6-2.1-.1-2.3Z"/></g><g class="f5f3227e-34dc-48dc-afdb-9eb894b2ee4c"><path class="af5dfa2b-555b-404e-8bb8-6c2f063cf2ff" d="M1181.3,1299.5c-63.2-28.3-124.5-66.9-168.2-121.4-33.7-42.1-55.6-95.4-46.5-149.9,4.2-25.2,13.8-49.9,31.7-68.5,22.7-23.6,54.6-34.9,86.8-36.3,20.9-1,41.7,2,62.3,4.6s42.3,4.3,63.7,3.7a383.4,383.4,0,0,0,115.2-21.8c32.2-11.4,62.8-27.3,89.1-49.3s47.6-50.3,65.2-80.2c15.4-26.2,29.3-53.2,45-79.2a783,783,0,0,1,50.1-73.7,560.3,560.3,0,0,1,149.5-134.3c57.5-35.2,120.2-59.4,185.6-75.4A906.4,906.4,0,0,1,2115,392.1c65.7-.7,132.5,5.6,195.7,24.4,14.4,4.3,29,9,42.8,15,1,.4,1.2-3.3.3-3.7-60.1-25.8-124.3-37.3-189.5-40.5-70.7-3.4-142,2.4-211.5,15.9-64.2,12.5-127.5,31.7-185.9,61.5-64,32.6-121.7,76.5-169,130.7-39.8,45.4-71.5,96.8-100.6,149.6-17,31-34.4,62-58.4,88.2s-54.4,47.2-87.4,61.9a370.9,370.9,0,0,1-115.7,30.1,353.8,353.8,0,0,1-62.6.8c-21.6-1.7-43.1-5.6-64.7-7-35-2.2-71.1,3.9-99.2,26-19.8,15.5-32.2,36.7-39.3,60.5-14.3,48.1-5.3,98.8,19.3,142,31.8,56,85,97.9,140.5,129,16.7,9.3,33.8,17.7,51.3,25.4.7.3.8-2.2.2-2.4Z"/></g><g class="f5f3227e-34dc-48dc-afdb-9eb894b2ee4c"><path class="af5dfa2b-555b-404e-8bb8-6c2f063cf2ff" d="M924.8,1274.1c-71.2-36.8-139.2-83.3-192.3-144-42.3-48.4-75.2-107.5-82.1-172.2a233.9,233.9,0,0,1,8.1-90.4c4.7-16.1,11.7-31.1,25.2-41.8,15.2-12,34.9-17.2,53.8-19.7,41.8-5.4,84.5,1.2,126.2,4.5s82.6,3.9,123-6.5c59.7-15.2,108.1-52.5,144.6-101.3,17.5-23.3,31.7-48.7,47.7-72.9a876.4,876.4,0,0,1,72.7-94.6c57.4-65.4,123.4-123.1,193.6-174.4,65.6-47.9,135.1-90.5,209.3-123.7,159.9-71.5,342.1-99.8,516-75.2,20.7,3,41.3,6.9,61.6,11.7,1,.3,1.3-4.2-.1-4.5-86.9-23.3-178.2-26.5-267.4-18.7a955.1,955.1,0,0,0-258.9,58.8c-77.9,29.6-151.2,69.7-220.1,116.5-73.8,50.3-143.6,107.2-205.3,171.8a947.1,947.1,0,0,0-77.8,92.1c-20.6,27.9-37.9,57.7-57,86.6-34.1,51.3-78.9,94.8-138.1,115.3-37.9,13.2-78.3,16.3-118.2,14.4-44.2-2.2-88.4-9.8-132.7-7.8-34.8,1.5-74.5,10.3-91.7,44-12.7,24.9-17,55.9-17.8,83.4-3.8,140.8,108.4,252,220.4,319.8q27.9,16.8,57.2,31.2c.5.3.7-2.1.1-2.4Z"/></g><g class="f5f3227e-34dc-48dc-afdb-9eb894b2ee4c"><path class="af5dfa2b-555b-404e-8bb8-6c2f063cf2ff" d="M612.3,1258.6c-84.2-39.3-165.2-87.6-235.4-149-57.7-50.4-109.1-110.7-140.5-181.2-13.7-30.8-23.5-63.5-27.6-97-3.7-29.9-3.5-59.2,10.1-86.8s38.9-50.5,68-63.2c43.7-19.1,92-17.5,138.4-11.5,26.9,3.4,53.7,7.7,80.9,8.2a330,330,0,0,0,74.8-7.2c41.3-8.7,82.2-24.8,116.5-49.7,36.4-26.5,61.1-63.1,84-101.2,18-30,37.1-58.6,60.3-84.9,45.7-52,100.9-95.2,159.1-132.2,68.9-43.8,142.9-79.4,218.9-109.1,85.7-33.6,174.4-59.7,264.2-79.7,96-21.3,193.5-35.6,291.4-44,25-2.2,50-3.9,74.9-5.8,1.1-.1,1-3.9-.1-3.9C1748.7,61.8,1646.6,75,1546.9,94c-93.2,17.7-185.4,41.8-274.9,73.4-80,28.2-158.2,62.5-231.8,105C976.8,309,916.3,351.9,864.7,404c-22,22.3-42.4,46.2-60.1,72.1-25.4,37.3-44.6,78.5-75.9,111.6C662,658.1,557.1,679.4,464,668.4c-50.6-5.9-101.3-15.4-151.6-2.2-32.5,8.5-62.4,26.1-82.6,53.3-35.8,48.2-27.9,112.1-12,166.4,20.3,69.4,61.4,131,110.8,183.1,61.8,65.3,136.7,117.2,215.7,159.3,22.2,11.8,44.9,22.8,67.8,33.2.7.3.9-2.6.2-2.9Z"/></g></g></g></svg>